<svg id="svg" version="1.1" width="400" height="400" xmlns="http://www.w3.org/2000/svg" xmlns:xlink="http://www.w3.org/1999/xlink" style="display: block;"><g id="svgg"><path id="path0" d="M224.000 54.831 C 122.250 55.099,131.802 54.767,118.600 58.488 C 112.625 60.172,108.100 61.958,101.400 65.277 C 93.229 69.324,90.678 70.867,84.400 75.561 C 71.294 85.359,59.860 99.155,52.707 113.800 C 51.847 115.560,50.995 117.283,50.813 117.628 C 50.632 117.974,50.006 119.504,49.424 121.028 C 48.841 122.553,48.012 124.703,47.582 125.808 C 47.152 126.912,46.800 128.036,46.800 128.306 C 46.800 128.576,46.459 129.833,46.042 131.098 C 45.163 133.767,43.917 139.293,42.907 145.000 C 41.827 151.107,41.599 326.716,42.670 327.500 C 43.558 328.150,59.373 328.186,67.822 327.558 C 74.552 327.057,86.340 327.573,90.600 328.556 C 91.920 328.861,94.350 329.229,96.000 329.375 C 97.650 329.522,100.080 329.889,101.400 330.192 C 102.720 330.494,105.240 330.853,107.000 330.987 C 108.760 331.122,111.280 331.483,112.600 331.789 C 113.920 332.095,116.350 332.459,118.000 332.597 C 119.650 332.736,121.990 333.090,123.200 333.384 C 124.410 333.677,126.884 334.030,128.698 334.168 C 130.512 334.306,132.488 334.605,133.090 334.834 C 133.691 335.063,136.222 335.427,138.714 335.643 C 141.206 335.860,143.719 336.217,144.299 336.438 C 144.879 336.658,147.319 337.022,149.722 337.246 C 152.125 337.471,154.552 337.830,155.116 338.044 C 155.679 338.258,158.043 338.614,160.369 338.834 C 162.694 339.055,165.497 339.481,166.598 339.783 C 167.699 340.084,170.040 340.439,171.800 340.571 C 173.560 340.703,175.990 341.076,177.200 341.401 C 178.410 341.725,180.120 342.000,181.000 342.011 C 181.880 342.022,183.950 342.296,185.600 342.620 C 187.250 342.943,190.306 343.391,192.392 343.617 C 194.478 343.842,197.178 344.272,198.392 344.574 C 199.606 344.876,201.950 345.237,203.600 345.377 C 205.250 345.518,207.770 345.883,209.200 346.189 C 210.630 346.495,213.420 346.933,215.400 347.162 C 217.380 347.391,219.900 347.755,221.000 347.970 C 222.100 348.185,224.440 348.547,226.200 348.775 C 229.537 349.207,231.778 349.538,238.800 350.639 C 241.110 351.001,244.530 351.456,246.400 351.651 C 248.270 351.846,250.700 352.195,251.800 352.426 C 252.900 352.657,255.240 353.009,257.000 353.208 C 258.760 353.408,261.820 353.836,263.800 354.160 C 270.057 355.185,289.658 358.048,301.181 359.621 C 304.361 360.055,308.051 360.591,309.381 360.811 C 310.712 361.032,316.120 361.830,321.400 362.586 C 326.680 363.341,335.559 364.623,341.132 365.434 C 349.748 366.688,351.342 366.825,351.793 366.354 C 352.431 365.688,353.020 360.244,353.616 349.503 C 353.857 345.160,354.222 341.021,354.427 340.306 C 354.632 339.590,354.806 337.294,354.812 335.203 C 354.819 333.111,355.090 328.610,355.414 325.200 C 355.737 321.790,356.171 316.210,356.378 312.800 C 356.584 309.390,357.031 303.180,357.372 299.000 C 357.712 294.820,358.353 286.540,358.796 280.600 C 359.238 274.660,359.957 265.030,360.392 259.200 C 360.827 253.370,361.549 243.650,361.996 237.600 C 362.770 227.120,363.702 214.901,365.001 198.200 C 365.326 194.020,365.774 188.080,365.997 185.000 C 368.118 155.683,368.552 150.809,369.449 146.200 C 369.792 144.440,370.146 142.608,370.237 142.128 C 370.327 141.648,370.716 140.942,371.101 140.558 C 372.191 139.469,372.391 130.916,371.334 130.540 C 370.930 130.396,370.330 130.052,370.000 129.776 C 369.594 129.436,366.941 129.181,361.800 128.988 C 357.620 128.831,353.985 128.531,353.723 128.321 C 353.017 127.757,336.670 127.211,336.326 127.740 C 336.176 127.972,336.126 128.280,336.216 128.425 C 336.796 129.365,316.915 128.675,315.963 127.723 C 315.772 127.532,315.568 111.130,315.508 91.274 C 315.395 53.381,315.429 54.130,313.800 54.504 C 313.580 54.554,273.170 54.702,224.000 54.831 M303.784 115.583 C 304.053 125.133,304.022 126.017,303.405 126.254 C 302.621 126.554,289.304 125.796,285.319 125.223 C 283.823 125.008,279.140 124.643,274.911 124.412 C 270.683 124.181,266.363 123.822,265.311 123.615 C 264.260 123.409,259.530 123.050,254.800 122.819 C 250.070 122.587,245.570 122.228,244.800 122.020 C 244.030 121.813,239.530 121.455,234.800 121.226 C 230.070 120.997,225.570 120.633,224.800 120.417 C 224.030 120.201,219.350 119.846,214.400 119.629 C 209.450 119.412,204.858 119.044,204.196 118.812 C 203.534 118.579,199.394 118.218,194.996 118.009 C 190.598 117.800,185.830 117.436,184.400 117.200 C 182.970 116.963,178.380 116.602,174.200 116.397 C 170.020 116.193,164.710 115.758,162.400 115.432 C 160.090 115.105,155.860 114.826,153.000 114.811 C 150.019 114.796,146.435 114.516,144.600 114.157 C 142.840 113.812,137.710 113.383,133.200 113.205 C 128.690 113.026,123.560 112.596,121.800 112.248 C 119.741 111.841,116.318 111.607,112.200 111.590 C 107.690 111.572,105.327 111.395,104.200 110.988 C 99.256 109.207,96.304 110.515,95.835 114.694 C 95.692 115.963,95.312 118.530,94.989 120.400 C 94.666 122.270,94.020 126.140,93.552 129.000 C 93.084 131.860,92.469 135.550,92.185 137.200 C 91.901 138.850,91.399 141.820,91.069 143.800 C 90.738 145.780,90.194 148.840,89.860 150.600 C 89.525 152.360,88.869 155.960,88.400 158.600 C 87.454 163.937,86.246 170.347,85.384 174.600 C 85.072 176.140,84.698 178.390,84.552 179.600 C 84.406 180.810,84.128 182.226,83.935 182.748 C 83.742 183.269,83.405 184.979,83.186 186.548 C 82.968 188.116,82.534 190.570,82.221 192.000 C 81.909 193.430,81.282 196.625,80.827 199.100 C 80.372 201.575,79.627 205.625,79.171 208.100 C 78.715 210.575,77.995 214.163,77.571 216.074 C 77.147 217.984,76.800 220.066,76.800 220.701 C 76.800 221.336,76.545 222.742,76.233 223.827 C 75.921 224.912,75.549 226.970,75.406 228.400 C 75.263 229.830,74.900 231.810,74.600 232.800 C 74.300 233.790,73.940 235.590,73.800 236.800 C 73.660 238.010,73.300 239.810,73.000 240.800 C 72.700 241.790,72.330 243.766,72.177 245.191 C 72.025 246.616,71.678 248.416,71.406 249.191 C 71.134 249.966,70.783 251.680,70.626 253.000 C 70.469 254.320,70.093 256.300,69.792 257.400 C 69.490 258.500,69.118 260.480,68.966 261.800 C 68.813 263.120,68.460 264.849,68.182 265.643 C 67.904 266.436,67.544 268.319,67.382 269.827 C 67.221 271.335,66.865 273.116,66.592 273.784 C 66.319 274.453,65.968 276.232,65.812 277.737 C 65.656 279.242,65.298 281.042,65.016 281.737 C 64.735 282.432,64.387 284.203,64.244 285.674 C 64.100 287.144,63.717 289.102,63.392 290.024 C 63.066 290.946,62.800 292.274,62.800 292.975 C 62.800 293.676,62.459 295.588,62.043 297.225 C 61.627 298.861,61.168 301.190,61.024 302.400 C 60.879 303.610,60.511 305.500,60.205 306.600 C 59.900 307.700,59.481 309.860,59.275 311.400 C 59.069 312.940,58.613 314.884,58.262 315.720 L 57.624 317.241 55.312 317.120 L 53.000 317.000 53.026 234.800 L 53.052 152.600 53.939 147.200 C 54.427 144.230,55.090 140.884,55.413 139.765 C 55.736 138.646,56.170 136.936,56.377 135.965 C 56.791 134.030,58.112 130.118,59.021 128.140 C 59.339 127.446,59.600 126.672,59.600 126.419 C 59.600 126.166,59.947 125.293,60.371 124.479 C 60.795 123.666,61.709 121.830,62.403 120.400 C 63.700 117.725,64.064 117.062,65.369 115.000 C 67.275 111.987,68.236 110.562,68.674 110.098 C 68.934 109.821,69.256 109.253,69.389 108.835 C 69.522 108.416,69.894 107.973,70.215 107.850 C 70.537 107.726,70.800 107.411,70.800 107.149 C 70.800 106.887,71.993 105.531,73.451 104.136 L 76.103 101.600 80.171 101.600 C 82.844 101.600,84.408 101.768,84.729 102.089 C 86.291 103.651,240.109 103.651,241.671 102.089 C 242.047 101.713,249.026 101.599,271.980 101.594 C 290.213 101.590,302.033 101.439,302.400 101.206 C 303.226 100.681,303.422 102.724,303.784 115.583 M127.800 136.436 C 129.780 136.646,134.550 136.988,138.400 137.196 C 156.065 138.152,155.804 138.076,159.490 143.302 C 169.488 157.476,175.013 164.914,175.817 165.280 C 176.650 165.660,178.115 164.662,191.269 154.750 L 205.800 143.800 212.020 143.925 C 215.441 143.993,219.671 144.213,221.420 144.414 C 223.169 144.614,228.400 145.046,233.044 145.374 C 237.689 145.702,243.089 146.148,245.044 146.366 C 247.000 146.584,250.535 146.878,252.900 147.020 C 257.292 147.283,257.785 147.453,257.360 148.560 C 257.151 149.105,241.026 162.183,233.723 167.730 C 232.360 168.765,231.010 169.843,230.723 170.126 C 230.435 170.409,228.940 171.607,227.400 172.788 C 225.860 173.969,223.430 175.887,222.000 177.050 C 220.570 178.213,217.870 180.384,216.000 181.875 C 214.130 183.366,212.330 184.801,212.000 185.064 C 211.670 185.328,208.520 187.821,205.000 190.606 C 197.605 196.455,197.540 196.571,199.883 199.725 C 201.452 201.838,202.679 203.590,203.403 204.753 C 204.288 206.173,208.331 211.445,208.893 211.911 C 209.223 212.185,211.332 212.584,213.581 212.798 C 215.829 213.012,218.328 213.355,219.134 213.560 C 219.940 213.765,222.400 214.047,224.600 214.188 C 226.800 214.329,230.220 214.692,232.200 214.995 C 234.180 215.298,237.052 215.657,238.583 215.792 C 243.465 216.225,243.326 216.952,237.415 221.916 C 222.092 234.784,223.134 232.277,229.481 240.990 C 233.614 246.663,232.558 247.871,224.757 246.392 C 223.573 246.167,220.354 245.729,217.602 245.419 C 210.520 244.619,189.981 242.012,188.876 241.773 C 188.368 241.663,187.198 240.885,186.276 240.043 C 184.056 238.017,183.464 237.754,180.400 237.431 C 177.691 237.145,151.532 233.749,141.800 232.419 C 124.224 230.018,116.771 229.018,105.800 227.590 C 97.805 226.549,98.000 226.593,98.000 225.828 C 98.000 225.500,98.225 225.042,98.500 224.811 C 99.406 224.050,104.982 219.800,105.871 219.194 C 106.350 218.867,111.000 215.360,116.203 211.400 C 121.407 207.440,126.176 203.840,126.802 203.400 C 128.446 202.245,142.088 191.946,142.800 191.324 C 143.130 191.035,144.355 190.067,145.523 189.172 C 148.217 187.108,148.334 186.747,146.984 184.690 C 145.684 182.711,129.080 159.246,122.348 149.876 C 121.904 149.258,121.017 147.998,120.377 147.076 C 119.738 146.154,118.536 144.456,117.707 143.303 C 113.072 136.854,113.003 136.733,113.661 136.252 C 114.375 135.730,122.081 135.830,127.800 136.436 M282.644 149.373 C 285.920 149.689,290.310 150.058,292.400 150.194 C 294.490 150.330,298.000 150.628,300.200 150.855 C 302.400 151.082,307.800 151.514,312.200 151.814 C 316.600 152.113,322.000 152.548,324.200 152.780 C 326.400 153.011,330.494 153.308,333.297 153.440 C 339.920 153.752,340.544 154.136,340.296 157.754 C 339.813 164.818,339.097 173.198,338.568 178.000 C 338.241 180.970,337.809 186.175,337.609 189.566 C 337.120 197.870,337.701 197.383,328.961 196.821 C 325.243 196.582,321.506 196.224,320.658 196.026 C 319.809 195.827,316.929 195.548,314.258 195.404 C 311.586 195.261,307.780 194.889,305.800 194.579 C 303.820 194.268,299.366 193.834,295.902 193.614 C 292.439 193.393,288.839 193.036,287.902 192.820 C 286.966 192.605,283.142 192.236,279.405 192.002 C 272.392 191.561,269.787 190.909,269.811 189.600 C 269.853 187.232,270.526 180.386,271.010 177.400 C 271.331 175.420,271.776 171.588,271.998 168.885 C 272.221 166.182,272.570 163.212,272.773 162.285 C 272.976 161.358,273.253 159.070,273.387 157.200 C 273.788 151.608,274.020 150.380,274.829 149.571 C 275.750 148.650,275.259 148.662,282.644 149.373 M281.203 211.616 C 282.411 211.835,285.830 212.196,288.800 212.417 C 291.770 212.638,296.180 213.077,298.600 213.393 C 301.020 213.708,304.980 214.083,307.400 214.225 C 309.820 214.367,312.586 214.650,313.547 214.854 C 314.507 215.058,318.467 215.493,322.347 215.822 C 331.384 216.589,333.489 216.918,334.255 217.683 C 334.926 218.355,334.461 231.249,333.611 235.505 C 333.403 236.547,333.044 240.510,332.813 244.312 C 332.582 248.114,332.216 252.434,331.999 253.912 C 331.781 255.390,331.468 257.950,331.302 259.600 L 331.000 262.600 327.600 262.481 C 325.730 262.415,322.580 262.107,320.600 261.797 C 318.620 261.487,314.750 261.040,312.000 260.805 C 309.250 260.569,306.370 260.216,305.600 260.020 C 304.830 259.824,302.490 259.549,300.400 259.409 C 298.310 259.269,295.160 258.910,293.400 258.611 C 291.640 258.312,288.670 257.952,286.800 257.811 C 284.930 257.671,281.690 257.310,279.600 257.009 C 277.510 256.708,273.640 256.256,271.000 256.004 C 265.786 255.506,263.236 254.950,262.581 254.168 C 262.129 253.629,262.485 247.816,263.191 244.200 C 263.406 243.100,263.767 239.988,263.993 237.285 C 264.218 234.582,264.570 231.612,264.773 230.685 C 264.976 229.758,265.344 226.584,265.590 223.631 C 265.837 220.678,266.104 218.155,266.185 218.025 C 266.265 217.894,266.528 216.377,266.767 214.653 C 267.007 212.929,267.319 211.331,267.461 211.101 C 267.763 210.613,277.736 210.987,281.203 211.616 M101.800 256.187 C 104.880 256.508,108.480 256.945,109.800 257.159 C 111.120 257.373,113.820 257.665,115.800 257.808 C 117.780 257.951,120.030 258.227,120.800 258.421 C 121.570 258.615,124.360 258.962,127.000 259.191 C 129.640 259.421,133.330 259.864,135.200 260.175 C 137.070 260.487,140.308 260.861,142.395 261.008 C 145.844 261.251,151.063 262.063,152.943 262.649 C 153.744 262.899,153.648 266.862,152.752 270.600 C 152.541 271.480,152.111 274.000,151.796 276.200 C 150.948 282.133,149.665 290.325,149.228 292.600 C 149.017 293.700,148.733 295.590,148.596 296.800 C 148.308 299.352,146.881 306.345,146.533 306.908 C 146.274 307.327,144.781 307.207,138.400 306.255 C 136.090 305.911,129.520 304.982,123.800 304.192 C 87.292 299.146,85.589 298.889,84.918 298.332 C 84.279 297.801,84.434 294.490,85.273 290.800 C 85.753 288.685,86.980 282.021,87.777 277.200 C 88.086 275.330,88.533 272.990,88.770 272.000 C 89.190 270.245,90.876 261.099,91.405 257.700 C 91.724 255.654,92.476 255.111,94.600 255.392 C 95.480 255.509,98.720 255.867,101.800 256.187 M187.400 266.382 C 194.377 267.265,199.092 267.829,204.400 268.416 C 206.490 268.647,210.000 269.095,212.200 269.411 C 214.400 269.727,218.237 270.173,220.727 270.403 C 223.217 270.632,226.097 270.993,227.127 271.205 C 228.157 271.417,230.948 271.747,233.328 271.937 C 239.794 272.456,239.516 271.479,237.621 287.006 C 233.263 322.708,234.099 319.051,230.332 318.895 C 228.939 318.837,226.090 318.521,224.000 318.193 C 221.910 317.864,217.950 317.320,215.200 316.984 C 212.450 316.648,209.570 316.215,208.800 316.021 C 208.030 315.828,206.140 315.556,204.600 315.416 C 203.060 315.277,200.360 314.915,198.600 314.613 C 196.840 314.311,194.140 313.945,192.600 313.800 C 191.060 313.655,189.080 313.381,188.200 313.190 C 187.320 313.000,184.980 312.653,183.000 312.420 C 181.020 312.186,177.690 311.736,175.600 311.418 C 173.510 311.101,170.942 310.731,169.892 310.595 C 166.946 310.215,166.651 309.499,167.408 304.569 C 168.613 296.722,170.465 284.505,171.194 279.600 C 172.843 268.497,173.297 266.201,173.949 265.665 C 174.719 265.032,178.198 265.217,187.400 266.382 M265.400 275.766 C 267.380 276.076,270.440 276.446,272.200 276.589 C 273.960 276.732,276.930 277.094,278.800 277.394 C 280.670 277.694,283.820 278.059,285.800 278.205 C 287.780 278.352,290.750 278.710,292.400 279.002 C 294.050 279.294,297.020 279.650,299.000 279.794 C 300.980 279.937,303.950 280.313,305.600 280.627 C 307.250 280.942,309.410 281.201,310.400 281.203 C 311.390 281.204,313.910 281.480,316.000 281.815 C 318.090 282.150,321.527 282.578,323.637 282.765 C 329.198 283.257,329.348 283.377,329.082 287.140 C 328.417 296.554,327.571 306.598,327.238 309.025 C 327.029 310.551,326.738 314.230,326.593 317.200 C 326.279 323.593,325.367 330.316,324.705 331.114 C 324.148 331.786,318.353 331.503,314.000 330.593 C 312.570 330.293,309.960 329.934,308.200 329.795 C 306.440 329.655,303.920 329.304,302.600 329.014 C 301.280 328.723,298.760 328.363,297.000 328.212 C 295.240 328.062,292.540 327.690,291.000 327.385 C 289.460 327.080,286.760 326.716,285.000 326.577 C 283.240 326.437,281.170 326.166,280.400 325.975 C 279.630 325.784,276.590 325.346,273.645 325.003 C 270.700 324.660,268.165 324.302,268.011 324.207 C 267.857 324.112,265.242 323.745,262.199 323.393 C 253.498 322.384,253.741 322.769,255.174 312.270 C 255.947 306.608,256.429 302.545,257.222 295.000 C 257.454 292.800,257.903 289.200,258.221 287.000 C 258.539 284.800,258.918 281.576,259.064 279.836 C 259.465 275.039,259.716 274.877,265.400 275.766 " stroke="none" fill="#ffffff" fill-rule="evenodd"></path><path id="path1" d="M127.707 43.200 C 127.124 43.881,126.527 44.000,123.707 44.000 C 120.887 44.000,120.290 44.119,119.707 44.800 C 119.169 45.429,118.527 45.600,116.711 45.600 C 114.933 45.600,114.215 45.785,113.600 46.400 C 113.077 46.923,112.267 47.200,111.262 47.200 C 110.232 47.200,109.485 47.464,109.000 48.000 C 108.527 48.522,107.768 48.800,106.813 48.800 C 105.904 48.800,105.026 49.102,104.492 49.600 C 104.020 50.040,103.084 50.400,102.413 50.400 C 101.687 50.400,100.914 50.724,100.507 51.200 C 100.128 51.643,99.327 52.000,98.714 52.000 C 98.040 52.000,97.411 52.313,97.107 52.800 C 96.804 53.285,96.174 53.600,95.507 53.600 C 94.840 53.600,94.210 53.915,93.907 54.400 C 93.608 54.879,92.974 55.200,92.326 55.200 C 91.725 55.200,91.014 55.531,90.723 55.946 C 90.435 56.357,89.615 56.821,88.900 56.978 C 88.177 57.137,87.600 57.516,87.600 57.832 C 87.600 58.171,87.197 58.400,86.600 58.400 C 86.050 58.400,85.258 58.742,84.839 59.161 C 84.421 59.579,83.701 60.041,83.239 60.187 C 82.778 60.334,82.400 60.619,82.400 60.822 C 82.400 61.024,81.770 61.452,81.000 61.774 C 80.230 62.096,79.600 62.548,79.600 62.780 C 79.600 63.011,79.328 63.200,78.996 63.200 C 78.664 63.200,78.084 63.560,77.707 64.000 C 77.330 64.440,76.824 64.800,76.581 64.800 C 76.338 64.800,75.717 65.250,75.200 65.800 C 74.683 66.350,74.022 66.800,73.730 66.800 C 73.439 66.800,73.200 67.070,73.200 67.400 C 73.200 67.730,73.046 68.000,72.858 68.000 C 72.671 68.000,72.031 68.450,71.438 69.000 C 70.844 69.550,70.188 70.000,69.979 70.000 C 69.771 70.000,69.600 70.270,69.600 70.600 C 69.600 70.930,69.350 71.200,69.044 71.200 C 68.290 71.200,60.000 79.452,60.000 80.203 C 60.000 80.531,59.724 80.800,59.387 80.800 C 59.051 80.800,58.668 81.079,58.537 81.420 C 58.406 81.761,57.647 82.737,56.850 83.589 C 56.052 84.440,55.077 85.557,54.683 86.069 C 54.289 86.581,53.524 87.540,52.983 88.200 C 52.443 88.860,52.001 89.606,52.000 89.857 C 52.000 90.109,51.745 90.412,51.434 90.532 C 50.909 90.733,50.445 91.431,49.126 94.000 C 48.843 94.550,48.295 95.235,47.906 95.523 C 47.518 95.810,47.200 96.286,47.200 96.580 C 47.200 96.874,46.940 97.214,46.622 97.336 C 46.304 97.458,45.924 98.197,45.778 98.979 C 45.631 99.761,45.275 100.400,44.987 100.400 C 44.699 100.400,44.335 100.985,44.178 101.700 C 44.021 102.415,43.557 103.235,43.146 103.523 C 42.731 103.814,42.400 104.525,42.400 105.126 C 42.400 105.774,42.079 106.408,41.600 106.707 C 41.115 107.010,40.800 107.640,40.800 108.307 C 40.800 108.974,40.485 109.604,40.000 109.907 C 39.513 110.211,39.200 110.840,39.200 111.514 C 39.200 112.127,38.843 112.928,38.400 113.307 C 37.849 113.779,37.600 114.487,37.600 115.582 C 37.600 116.762,37.394 117.282,36.800 117.600 C 36.227 117.907,36.000 118.438,36.000 119.470 C 36.000 120.331,35.742 121.101,35.359 121.380 C 34.991 121.649,34.624 122.690,34.497 123.824 C 34.373 124.928,34.000 126.001,33.653 126.256 C 33.223 126.572,32.981 127.591,32.870 129.556 C 32.760 131.505,32.550 132.400,32.202 132.400 C 31.482 132.400,31.212 133.731,31.205 137.300 C 31.201 139.743,31.077 140.400,30.618 140.400 C 29.584 140.400,29.572 141.659,29.687 241.400 L 29.800 339.800 50.200 339.600 C 61.420 339.490,90.310 339.403,114.400 339.407 L 158.200 339.413 161.226 340.307 C 162.918 340.806,165.335 341.200,166.712 341.200 C 168.065 341.200,170.024 341.489,171.066 341.843 C 172.108 342.197,174.859 342.614,177.180 342.769 C 179.501 342.925,181.824 343.282,182.343 343.563 C 182.861 343.844,185.301 344.212,187.765 344.381 C 190.229 344.550,192.646 344.904,193.138 345.167 C 193.629 345.430,195.959 345.811,198.316 346.013 C 200.672 346.216,203.320 346.648,204.200 346.973 C 205.080 347.299,207.166 347.573,208.836 347.582 C 210.506 347.592,212.756 347.880,213.836 348.223 C 214.916 348.566,217.721 349.002,220.068 349.192 C 222.416 349.383,224.746 349.757,225.246 350.025 C 225.746 350.292,228.146 350.659,230.578 350.840 C 233.010 351.021,235.720 351.438,236.600 351.767 C 237.480 352.096,239.461 352.373,241.001 352.382 C 242.550 352.392,245.054 352.758,246.600 353.200 C 248.231 353.667,250.649 354.007,252.399 354.018 C 254.052 354.027,256.119 354.306,257.000 354.637 C 257.880 354.969,260.580 355.377,263.000 355.544 C 265.420 355.712,267.795 356.064,268.278 356.327 C 268.761 356.590,271.230 356.974,273.763 357.180 C 276.297 357.387,278.733 357.750,279.176 357.987 C 279.619 358.224,282.160 358.584,284.822 358.786 C 287.484 358.988,289.904 359.354,290.200 359.600 C 290.496 359.846,292.916 360.212,295.578 360.414 C 298.240 360.616,300.776 360.973,301.213 361.207 C 301.650 361.441,304.001 361.807,306.439 362.021 C 308.876 362.235,311.205 362.588,311.613 362.807 C 312.021 363.025,314.535 363.382,317.200 363.600 C 319.865 363.818,322.407 364.190,322.850 364.427 C 323.292 364.663,325.700 365.011,328.200 365.200 C 330.700 365.389,333.116 365.741,333.568 365.983 C 334.020 366.225,336.432 366.575,338.928 366.762 C 341.424 366.948,343.868 367.315,344.358 367.578 C 344.849 367.840,346.834 368.158,348.770 368.283 C 353.730 368.605,353.997 368.309,354.007 362.500 C 354.011 360.135,354.368 356.040,354.800 353.400 C 355.302 350.334,355.593 346.578,355.605 343.000 C 355.616 339.920,355.898 335.600,356.231 333.400 C 356.565 331.200,356.997 325.349,357.192 320.397 C 357.387 315.445,357.748 310.863,357.994 310.215 C 358.241 309.567,358.599 304.889,358.792 299.819 C 358.984 294.748,359.328 290.111,359.556 289.514 C 359.783 288.917,360.160 283.903,360.393 278.372 C 360.626 272.841,360.994 267.984,361.211 267.580 C 361.427 267.175,361.777 262.633,361.988 257.485 C 362.199 252.338,362.556 247.641,362.782 247.048 C 363.007 246.454,363.367 241.685,363.582 236.448 C 363.796 231.212,364.155 226.446,364.378 225.857 C 364.602 225.269,364.968 220.484,365.191 215.224 C 365.414 209.965,365.779 205.180,366.003 204.592 C 366.227 204.004,366.589 199.137,366.809 193.776 C 367.029 188.416,367.383 183.570,367.597 183.009 C 367.810 182.447,368.163 177.804,368.379 172.691 C 368.596 167.578,368.956 162.856,369.180 162.197 C 369.403 161.539,369.745 157.717,369.940 153.704 C 370.136 149.691,370.472 146.181,370.688 145.904 C 370.904 145.627,371.288 144.335,371.540 143.033 C 372.027 140.530,372.122 138.529,371.704 139.593 C 371.576 139.919,371.231 140.427,370.936 140.721 C 370.642 141.015,370.327 141.648,370.237 142.128 C 370.146 142.608,369.792 144.440,369.449 146.200 C 368.552 150.809,368.118 155.683,365.997 185.000 C 365.774 188.080,365.326 194.020,365.001 198.200 C 363.702 214.901,362.770 227.120,361.996 237.600 C 361.549 243.650,360.827 253.370,360.392 259.200 C 359.957 265.030,359.238 274.660,358.796 280.600 C 358.353 286.540,357.712 294.820,357.372 299.000 C 357.031 303.180,356.584 309.390,356.378 312.800 C 356.171 316.210,355.737 321.790,355.414 325.200 C 355.090 328.610,354.819 333.111,354.812 335.203 C 354.806 337.294,354.632 339.590,354.427 340.306 C 354.222 341.021,353.857 345.160,353.616 349.503 C 353.020 360.244,352.431 365.688,351.793 366.354 C 351.342 366.825,349.748 366.688,341.132 365.434 C 335.559 364.623,326.680 363.341,321.400 362.586 C 316.120 361.830,310.712 361.032,309.381 360.811 C 308.051 360.591,304.361 360.055,301.181 359.621 C 289.658 358.048,270.057 355.185,263.800 354.160 C 261.820 353.836,258.760 353.408,257.000 353.208 C 255.240 353.009,252.900 352.657,251.800 352.426 C 250.700 352.195,248.270 351.846,246.400 351.651 C 244.530 351.456,241.110 351.001,238.800 350.639 C 231.778 349.538,229.537 349.207,226.200 348.775 C 224.440 348.547,222.100 348.185,221.000 347.970 C 219.900 347.755,217.380 347.391,215.400 347.162 C 213.420 346.933,210.630 346.495,209.200 346.189 C 207.770 345.883,205.250 345.518,203.600 345.377 C 201.950 345.237,199.606 344.876,198.392 344.574 C 197.178 344.272,194.478 343.842,192.392 343.617 C 190.306 343.391,187.250 342.943,185.600 342.620 C 183.950 342.296,181.880 342.022,181.000 342.011 C 180.120 342.000,178.410 341.725,177.200 341.401 C 175.990 341.076,173.560 340.703,171.800 340.571 C 170.040 340.439,167.699 340.084,166.598 339.783 C 165.497 339.481,162.694 339.055,160.369 338.834 C 158.043 338.614,155.679 338.258,155.116 338.044 C 154.552 337.830,152.125 337.471,149.722 337.246 C 147.319 337.022,144.879 336.658,144.299 336.438 C 143.719 336.217,141.206 335.860,138.714 335.643 C 136.222 335.427,133.691 335.063,133.090 334.834 C 132.488 334.605,130.512 334.306,128.698 334.168 C 126.884 334.030,124.410 333.677,123.200 333.384 C 121.990 333.090,119.650 332.736,118.000 332.597 C 116.350 332.459,113.920 332.095,112.600 331.789 C 111.280 331.483,108.760 331.122,107.000 330.987 C 105.240 330.853,102.720 330.494,101.400 330.192 C 100.080 329.889,97.650 329.522,96.000 329.375 C 94.350 329.229,91.920 328.861,90.600 328.556 C 86.340 327.573,74.552 327.057,67.822 327.558 C 59.373 328.186,43.558 328.150,42.670 327.500 C 41.599 326.716,41.827 151.107,42.907 145.000 C 43.917 139.293,45.163 133.767,46.042 131.098 C 46.459 129.833,46.800 128.576,46.800 128.306 C 46.800 128.036,47.152 126.912,47.582 125.808 C 48.012 124.703,48.841 122.553,49.424 121.028 C 50.006 119.504,50.632 117.974,50.813 117.628 C 50.995 117.283,51.847 115.560,52.707 113.800 C 59.860 99.155,71.294 85.359,84.400 75.561 C 90.678 70.867,93.229 69.324,101.400 65.277 C 109.323 61.353,113.526 59.799,123.200 57.219 C 124.190 56.955,127.187 56.415,129.860 56.018 C 132.533 55.621,134.898 55.187,135.116 55.052 C 135.629 54.735,314.842 54.709,315.160 55.026 C 315.292 55.158,315.449 71.491,315.508 91.322 C 315.568 111.152,315.772 127.532,315.963 127.723 C 317.228 128.988,336.192 129.292,336.287 128.049 C 336.331 127.486,335.858 127.417,332.714 127.530 C 330.722 127.601,328.666 127.553,328.146 127.422 L 327.200 127.185 327.200 87.841 C 327.200 53.774,327.280 48.305,327.800 47.062 C 328.726 44.845,328.597 42.946,327.500 42.652 C 324.578 41.869,128.386 42.407,127.707 43.200 M302.400 101.206 C 302.033 101.439,290.213 101.590,271.980 101.594 C 249.026 101.599,242.047 101.713,241.671 102.089 C 240.109 103.651,86.291 103.651,84.729 102.089 C 84.408 101.768,82.844 101.600,80.171 101.600 L 76.103 101.600 73.451 104.136 C 71.993 105.531,70.800 106.887,70.800 107.149 C 70.800 107.411,70.537 107.726,70.215 107.850 C 69.894 107.973,69.522 108.416,69.389 108.835 C 69.256 109.253,68.934 109.821,68.674 110.098 C 68.236 110.562,67.275 111.987,65.369 115.000 C 64.064 117.062,63.700 117.725,62.403 120.400 C 61.709 121.830,60.795 123.666,60.371 124.479 C 59.947 125.293,59.600 126.166,59.600 126.419 C 59.600 126.672,59.339 127.446,59.021 128.140 C 58.112 130.118,56.791 134.030,56.377 135.965 C 56.170 136.936,55.736 138.646,55.413 139.765 C 55.090 140.884,54.427 144.230,53.939 147.200 L 53.052 152.600 53.026 234.800 L 53.000 317.000 55.312 317.120 L 57.624 317.241 58.262 315.720 C 58.613 314.884,59.069 312.940,59.275 311.400 C 59.481 309.860,59.900 307.700,60.205 306.600 C 60.511 305.500,60.879 303.610,61.024 302.400 C 61.168 301.190,61.627 298.861,62.043 297.225 C 62.459 295.588,62.800 293.676,62.800 292.975 C 62.800 292.274,63.066 290.946,63.392 290.024 C 63.717 289.102,64.100 287.144,64.244 285.674 C 64.387 284.203,64.735 282.432,65.016 281.737 C 65.298 281.042,65.656 279.242,65.812 277.737 C 65.968 276.232,66.319 274.453,66.592 273.784 C 66.865 273.116,67.221 271.335,67.382 269.827 C 67.544 268.319,67.904 266.436,68.182 265.643 C 68.460 264.849,68.813 263.120,68.966 261.800 C 69.118 260.480,69.490 258.500,69.792 257.400 C 70.093 256.300,70.469 254.320,70.626 253.000 C 70.783 251.680,71.134 249.966,71.406 249.191 C 71.678 248.416,72.025 246.616,72.177 245.191 C 72.330 243.766,72.700 241.790,73.000 240.800 C 73.300 239.810,73.660 238.010,73.800 236.800 C 73.940 235.590,74.300 233.790,74.600 232.800 C 74.900 231.810,75.263 229.830,75.406 228.400 C 75.549 226.970,75.921 224.912,76.233 223.827 C 76.545 222.742,76.800 221.336,76.800 220.701 C 76.800 220.066,77.147 217.984,77.571 216.074 C 77.995 214.163,78.715 210.575,79.171 208.100 C 79.627 205.625,80.372 201.575,80.827 199.100 C 81.282 196.625,81.909 193.430,82.221 192.000 C 82.534 190.570,82.968 188.116,83.186 186.548 C 83.405 184.979,83.742 183.269,83.935 182.748 C 84.128 182.226,84.406 180.810,84.552 179.600 C 84.698 178.390,85.072 176.140,85.384 174.600 C 86.246 170.347,87.454 163.937,88.400 158.600 C 88.869 155.960,89.525 152.360,89.860 150.600 C 90.194 148.840,90.738 145.780,91.069 143.800 C 91.399 141.820,91.901 138.850,92.185 137.200 C 92.469 135.550,93.084 131.860,93.552 129.000 C 94.020 126.140,94.666 122.270,94.989 120.400 C 95.312 118.530,95.692 115.963,95.835 114.694 C 96.304 110.515,99.256 109.207,104.200 110.988 C 105.327 111.395,107.690 111.572,112.200 111.590 C 116.318 111.607,119.741 111.841,121.800 112.248 C 123.560 112.596,128.690 113.026,133.200 113.205 C 137.710 113.383,142.840 113.812,144.600 114.157 C 146.435 114.516,150.019 114.796,153.000 114.811 C 155.860 114.826,160.090 115.105,162.400 115.432 C 164.710 115.758,170.020 116.193,174.200 116.397 C 178.380 116.602,182.970 116.963,184.400 117.200 C 185.830 117.436,190.598 117.800,194.996 118.009 C 199.394 118.218,203.534 118.579,204.196 118.812 C 204.858 119.044,209.450 119.412,214.400 119.629 C 219.350 119.846,224.030 120.201,224.800 120.417 C 225.570 120.633,230.070 120.997,234.800 121.226 C 239.530 121.455,244.030 121.813,244.800 122.020 C 245.570 122.228,250.070 122.587,254.800 122.819 C 259.530 123.050,264.260 123.409,265.311 123.615 C 266.363 123.822,270.683 124.181,274.911 124.412 C 279.140 124.643,283.823 125.008,285.319 125.223 C 289.304 125.796,302.621 126.554,303.405 126.254 C 304.022 126.017,304.053 125.133,303.784 115.583 C 303.422 102.724,303.226 100.681,302.400 101.206 M113.661 136.252 C 113.003 136.733,113.072 136.854,117.707 143.303 C 118.536 144.456,119.738 146.154,120.377 147.076 C 121.017 147.998,121.904 149.258,122.348 149.876 C 129.080 159.246,145.684 182.711,146.984 184.690 C 148.334 186.747,148.217 187.108,145.523 189.172 C 144.355 190.067,143.130 191.035,142.800 191.324 C 142.088 191.946,128.446 202.245,126.802 203.400 C 126.176 203.840,121.407 207.440,116.203 211.400 C 111.000 215.360,106.350 218.867,105.871 219.194 C 105.392 219.521,103.650 220.824,102.000 222.090 C 96.071 226.638,95.833 226.292,105.800 227.590 C 116.771 229.018,124.224 230.018,141.800 232.419 C 151.532 233.749,177.691 237.145,180.400 237.431 C 183.464 237.754,184.056 238.017,186.276 240.043 C 187.198 240.885,188.368 241.663,188.876 241.773 C 189.981 242.012,210.520 244.619,217.602 245.419 C 220.354 245.729,223.573 246.167,224.757 246.392 C 232.558 247.871,233.614 246.663,229.481 240.990 C 223.134 232.277,222.092 234.784,237.415 221.916 C 243.326 216.952,243.465 216.225,238.583 215.792 C 237.052 215.657,234.180 215.298,232.200 214.995 C 230.220 214.692,226.800 214.329,224.600 214.188 C 222.400 214.047,219.940 213.765,219.134 213.560 C 218.328 213.355,215.829 213.012,213.581 212.798 C 211.332 212.584,209.223 212.185,208.893 211.911 C 208.331 211.445,204.288 206.173,203.403 204.753 C 202.679 203.590,201.452 201.838,199.883 199.725 C 197.540 196.571,197.605 196.455,205.000 190.606 C 208.520 187.821,211.670 185.328,212.000 185.064 C 212.330 184.801,214.130 183.366,216.000 181.875 C 217.870 180.384,220.570 178.213,222.000 177.050 C 223.430 175.887,225.860 173.969,227.400 172.788 C 228.940 171.607,230.435 170.409,230.723 170.126 C 231.010 169.843,232.360 168.765,233.723 167.730 C 241.026 162.183,257.151 149.105,257.360 148.560 C 257.785 147.453,257.292 147.283,252.900 147.020 C 250.535 146.878,247.000 146.584,245.044 146.366 C 243.089 146.148,237.689 145.702,233.044 145.374 C 228.400 145.046,223.169 144.614,221.420 144.414 C 219.671 144.213,215.441 143.993,212.020 143.925 L 205.800 143.800 191.269 154.750 C 178.115 164.662,176.650 165.660,175.817 165.280 C 175.013 164.914,169.488 157.476,159.490 143.302 C 155.804 138.076,156.065 138.152,138.400 137.196 C 134.550 136.988,129.780 136.646,127.800 136.436 C 122.081 135.830,114.375 135.730,113.661 136.252 M274.829 149.571 C 274.020 150.380,273.788 151.608,273.387 157.200 C 273.253 159.070,272.976 161.358,272.773 162.285 C 272.570 163.212,272.221 166.182,271.998 168.885 C 271.776 171.588,271.331 175.420,271.010 177.400 C 270.526 180.386,269.853 187.232,269.811 189.600 C 269.787 190.909,272.392 191.561,279.405 192.002 C 283.142 192.236,286.966 192.605,287.902 192.820 C 288.839 193.036,292.439 193.393,295.902 193.614 C 299.366 193.834,303.820 194.268,305.800 194.579 C 307.780 194.889,311.586 195.261,314.258 195.404 C 316.929 195.548,319.809 195.827,320.658 196.026 C 321.506 196.224,325.243 196.582,328.961 196.821 C 337.701 197.383,337.120 197.870,337.609 189.566 C 337.809 186.175,338.241 180.970,338.568 178.000 C 339.097 173.198,339.813 164.818,340.296 157.754 C 340.544 154.136,339.920 153.752,333.297 153.440 C 330.494 153.308,326.400 153.011,324.200 152.780 C 322.000 152.548,316.600 152.113,312.200 151.814 C 307.800 151.514,302.400 151.082,300.200 150.855 C 298.000 150.628,294.490 150.330,292.400 150.194 C 290.310 150.058,285.920 149.689,282.644 149.373 C 275.259 148.662,275.750 148.650,274.829 149.571 M267.461 211.101 C 267.319 211.331,267.007 212.929,266.767 214.653 C 266.528 216.377,266.265 217.894,266.185 218.025 C 266.104 218.155,265.837 220.678,265.590 223.631 C 265.344 226.584,264.976 229.758,264.773 230.685 C 264.570 231.612,264.218 234.582,263.993 237.285 C 263.767 239.988,263.406 243.100,263.191 244.200 C 262.485 247.816,262.129 253.629,262.581 254.168 C 263.236 254.950,265.786 255.506,271.000 256.004 C 273.640 256.256,277.510 256.708,279.600 257.009 C 281.690 257.310,284.930 257.671,286.800 257.811 C 288.670 257.952,291.640 258.312,293.400 258.611 C 295.160 258.910,298.310 259.269,300.400 259.409 C 302.490 259.549,304.830 259.824,305.600 260.020 C 306.370 260.216,309.250 260.569,312.000 260.805 C 314.750 261.040,318.620 261.487,320.600 261.797 C 322.580 262.107,325.730 262.415,327.600 262.481 L 331.000 262.600 331.302 259.600 C 331.468 257.950,331.781 255.390,331.999 253.912 C 332.216 252.434,332.582 248.114,332.813 244.312 C 333.044 240.510,333.403 236.547,333.611 235.505 C 334.461 231.249,334.926 218.355,334.255 217.683 C 333.489 216.918,331.384 216.589,322.347 215.822 C 318.467 215.493,314.507 215.058,313.547 214.854 C 312.586 214.650,309.820 214.367,307.400 214.225 C 304.980 214.083,301.020 213.708,298.600 213.393 C 296.180 213.077,291.770 212.638,288.800 212.417 C 285.830 212.196,282.411 211.835,281.203 211.616 C 277.736 210.987,267.763 210.613,267.461 211.101 M208.211 215.924 C 208.865 216.542,209.670 217.472,210.000 217.990 C 210.330 218.508,210.913 219.260,211.296 219.662 C 213.451 221.923,223.600 235.963,223.600 236.684 C 223.600 236.821,223.869 237.218,224.198 237.566 C 225.483 238.928,226.800 240.736,226.800 241.138 C 226.800 241.370,227.044 241.704,227.342 241.880 C 227.876 242.196,228.800 243.683,228.800 244.227 C 228.800 244.758,221.032 244.115,219.863 243.487 C 219.128 243.093,216.949 242.774,213.712 242.587 C 209.596 242.350,208.564 242.164,207.949 241.549 C 207.397 240.997,206.596 240.795,204.900 240.781 L 202.600 240.762 204.000 240.077 L 205.400 239.393 205.506 227.096 C 205.624 213.411,205.610 213.466,208.211 215.924 M92.335 255.590 C 91.969 255.816,91.551 256.765,91.405 257.700 C 90.876 261.099,89.190 270.245,88.770 272.000 C 88.533 272.990,88.086 275.330,87.777 277.200 C 86.980 282.021,85.753 288.685,85.273 290.800 C 84.434 294.490,84.279 297.801,84.918 298.332 C 85.589 298.889,87.292 299.146,123.800 304.192 C 129.520 304.982,136.090 305.911,138.400 306.255 C 144.781 307.207,146.274 307.327,146.533 306.908 C 146.881 306.345,148.308 299.352,148.596 296.800 C 148.733 295.590,149.017 293.700,149.228 292.600 C 149.665 290.325,150.948 282.133,151.796 276.200 C 152.111 274.000,152.541 271.480,152.752 270.600 C 153.648 266.862,153.744 262.899,152.943 262.649 C 151.063 262.063,145.844 261.251,142.395 261.008 C 140.308 260.861,137.070 260.487,135.200 260.175 C 133.330 259.864,129.640 259.421,127.000 259.191 C 124.360 258.962,121.570 258.615,120.800 258.421 C 120.030 258.227,117.780 257.951,115.800 257.808 C 113.820 257.665,111.120 257.373,109.800 257.159 C 108.480 256.945,104.880 256.508,101.800 256.187 C 98.720 255.867,95.480 255.509,94.600 255.392 C 93.720 255.276,92.701 255.365,92.335 255.590 M173.949 265.665 C 173.297 266.201,172.843 268.497,171.194 279.600 C 170.465 284.505,168.613 296.722,167.408 304.569 C 166.651 309.499,166.946 310.215,169.892 310.595 C 170.942 310.731,173.510 311.101,175.600 311.418 C 177.690 311.736,181.020 312.186,183.000 312.420 C 184.980 312.653,187.320 313.000,188.200 313.190 C 189.080 313.381,191.060 313.655,192.600 313.800 C 194.140 313.945,196.840 314.311,198.600 314.613 C 200.360 314.915,203.060 315.277,204.600 315.416 C 206.140 315.556,208.030 315.828,208.800 316.021 C 209.570 316.215,212.450 316.648,215.200 316.984 C 217.950 317.320,221.910 317.864,224.000 318.193 C 229.825 319.108,232.758 319.145,233.368 318.311 C 233.645 317.933,234.452 312.893,235.161 307.111 C 239.961 267.970,240.197 272.488,233.328 271.937 C 230.948 271.747,228.157 271.417,227.127 271.205 C 226.097 270.993,223.217 270.632,220.727 270.403 C 218.237 270.173,214.400 269.727,212.200 269.411 C 210.000 269.095,206.490 268.647,204.400 268.416 C 199.092 267.829,194.377 267.265,187.400 266.382 C 178.198 265.217,174.719 265.032,173.949 265.665 M260.064 275.936 C 259.534 276.466,259.254 277.555,259.064 279.836 C 258.918 281.576,258.539 284.800,258.221 287.000 C 257.903 289.200,257.454 292.800,257.222 295.000 C 256.429 302.545,255.947 306.608,255.174 312.270 C 253.741 322.769,253.498 322.384,262.199 323.393 C 265.242 323.745,267.857 324.112,268.011 324.207 C 268.165 324.302,270.700 324.660,273.645 325.003 C 276.590 325.346,279.630 325.784,280.400 325.975 C 281.170 326.166,283.240 326.437,285.000 326.577 C 286.760 326.716,289.460 327.080,291.000 327.385 C 292.540 327.690,295.240 328.062,297.000 328.212 C 298.760 328.363,301.280 328.723,302.600 329.014 C 303.920 329.304,306.440 329.655,308.200 329.795 C 309.960 329.934,312.570 330.293,314.000 330.593 C 318.353 331.503,324.148 331.786,324.705 331.114 C 325.367 330.316,326.279 323.593,326.593 317.200 C 326.738 314.230,327.029 310.551,327.238 309.025 C 327.571 306.598,328.417 296.554,329.082 287.140 C 329.348 283.377,329.198 283.257,323.637 282.765 C 321.527 282.578,318.090 282.150,316.000 281.815 C 313.910 281.480,311.390 281.204,310.400 281.203 C 309.410 281.201,307.250 280.942,305.600 280.627 C 303.950 280.313,300.980 279.937,299.000 279.794 C 297.020 279.650,294.050 279.294,292.400 279.002 C 290.750 278.710,287.780 278.352,285.800 278.205 C 283.820 278.059,280.670 277.694,278.800 277.394 C 276.930 277.094,273.960 276.732,272.200 276.589 C 270.440 276.446,267.380 276.076,265.400 275.766 C 260.869 275.058,260.945 275.055,260.064 275.936 " stroke="none" fill="#6ebc4a" fill-rule="evenodd"></path><path id="path2" d="M108.460 47.842 C 108.162 48.178,107.999 48.532,108.095 48.629 C 108.192 48.726,108.598 48.444,108.998 48.002 C 109.397 47.561,109.561 47.207,109.362 47.215 C 109.163 47.224,108.757 47.505,108.460 47.842 " stroke="none" fill="#6ebc4a" fill-rule="evenodd"></path></g></svg>