<svg id="svg" version="1.1" width="400" height="400" xmlns="http://www.w3.org/2000/svg" xmlns:xlink="http://www.w3.org/1999/xlink" style="display: block;"><g id="svgg"><path id="path0" d="M35.000 82.500 L 35.000 140.000 170.000 140.000 L 305.000 140.000 305.000 130.000 L 305.000 120.000 287.500 120.000 L 270.000 120.000 270.000 125.000 L 270.000 130.000 250.000 130.000 L 230.000 130.000 230.000 125.000 L 230.000 120.000 220.000 120.000 L 210.000 120.000 210.000 72.500 L 210.000 25.000 122.500 25.000 L 35.000 25.000 35.000 82.500 M215.000 70.000 L 215.000 115.000 260.000 115.000 L 305.000 115.000 305.000 113.562 L 305.000 112.124 261.437 68.562 L 217.874 25.000 216.437 25.000 L 215.000 25.000 215.000 70.000 M110.000 85.000 L 110.000 90.000 90.000 90.000 L 70.000 90.000 70.000 85.000 L 70.000 80.000 90.000 80.000 L 110.000 80.000 110.000 85.000 M200.000 85.000 L 200.000 90.000 170.000 90.000 L 140.000 90.000 140.000 85.000 L 140.000 80.000 170.000 80.000 L 200.000 80.000 200.000 85.000 M110.000 105.000 L 110.000 110.000 90.000 110.000 L 70.000 110.000 70.000 105.000 L 70.000 100.000 90.000 100.000 L 110.000 100.000 110.000 105.000 M200.000 105.000 L 200.000 110.000 170.000 110.000 L 140.000 110.000 140.000 105.000 L 140.000 100.000 170.000 100.000 L 200.000 100.000 200.000 105.000 M110.000 125.000 L 110.000 130.000 90.000 130.000 L 70.000 130.000 70.000 125.000 L 70.000 120.000 90.000 120.000 L 110.000 120.000 110.000 125.000 M200.000 125.000 L 200.000 130.000 170.000 130.000 L 140.000 130.000 140.000 125.000 L 140.000 120.000 170.000 120.000 L 200.000 120.000 200.000 125.000 M84.867 161.254 C 71.390 162.350,61.974 169.283,59.881 179.654 C 59.234 182.861,59.430 239.647,60.097 242.000 C 62.547 250.652,69.630 256.189,80.747 258.142 C 101.534 261.793,117.500 251.560,117.500 234.585 L 117.500 230.750 108.625 230.750 L 99.750 230.750 99.750 233.363 C 99.750 241.033,96.374 244.785,89.125 245.173 C 83.391 245.480,79.488 243.610,77.959 239.822 L 77.375 238.375 77.375 210.750 L 77.375 183.125 77.939 181.375 C 79.425 176.768,82.373 174.897,88.125 174.907 C 96.151 174.922,99.750 178.603,99.750 186.796 L 99.750 189.250 108.625 189.250 L 117.500 189.250 117.500 185.739 C 117.500 169.347,104.580 159.652,84.867 161.254 M169.625 161.251 C 150.912 162.574,140.328 175.173,143.008 192.935 C 144.674 203.977,149.385 208.138,166.125 213.357 C 183.809 218.869,184.470 219.328,185.269 226.661 C 186.718 239.960,183.150 245.240,172.709 245.248 C 163.569 245.255,159.500 241.584,159.500 233.329 L 159.500 231.000 150.594 231.000 L 141.688 231.000 141.812 235.438 C 141.974 241.231,142.671 243.563,145.385 247.393 C 155.320 261.408,186.369 262.938,197.250 249.948 C 205.757 239.791,205.385 218.649,196.554 210.477 C 193.308 207.474,190.015 206.062,177.042 202.112 C 161.932 197.512,160.802 196.641,160.560 189.419 C 160.206 178.842,164.180 174.360,173.500 174.824 C 181.094 175.202,185.059 179.144,185.431 186.688 L 185.570 189.500 194.433 189.500 L 203.297 189.500 203.203 184.813 C 202.893 169.387,189.316 159.859,169.625 161.251 M222.103 162.438 C 222.179 162.678,227.759 183.688,234.505 209.125 C 241.250 234.563,246.937 255.967,247.143 256.691 L 247.516 258.007 255.422 257.941 L 263.329 257.875 276.115 210.000 L 288.902 162.125 279.537 162.059 C 274.387 162.023,270.144 162.023,270.109 162.059 C 270.074 162.096,266.799 177.200,262.832 195.625 C 258.865 214.050,255.508 229.104,255.372 229.078 C 255.236 229.052,251.925 213.949,248.014 195.515 L 240.902 162.000 231.434 162.000 C 222.532 162.000,221.974 162.026,222.103 162.438 M35.000 327.500 L 35.000 375.000 167.387 375.000 C 278.654 375.000,299.743 374.946,299.575 374.661 C 299.465 374.475,292.794 366.099,284.750 356.047 L 270.125 337.772 270.049 338.886 L 269.973 340.000 249.986 340.000 L 230.000 340.000 230.000 335.002 L 230.000 330.003 246.898 329.939 L 263.796 329.875 259.852 324.938 L 255.908 320.000 242.954 320.000 L 230.000 320.000 230.000 315.003 L 230.000 310.006 238.898 309.941 L 247.797 309.875 243.852 304.938 L 239.908 300.000 234.954 300.000 L 230.000 300.000 230.000 295.000 L 230.000 290.000 250.000 290.000 L 270.000 290.000 270.000 295.000 L 270.000 300.000 280.000 300.000 L 290.000 300.000 290.000 290.000 L 290.000 280.000 162.500 280.000 L 35.000 280.000 35.000 327.500 M110.000 295.000 L 110.000 300.000 90.000 300.000 L 70.000 300.000 70.000 295.000 L 70.000 290.000 90.000 290.000 L 110.000 290.000 110.000 295.000 M200.000 295.000 L 200.000 300.000 170.000 300.000 L 140.000 300.000 140.000 295.000 L 140.000 290.000 170.000 290.000 L 200.000 290.000 200.000 295.000 M110.000 315.000 L 110.000 320.000 90.000 320.000 L 70.000 320.000 70.000 315.000 L 70.000 310.000 90.000 310.000 L 110.000 310.000 110.000 315.000 M200.000 315.000 L 200.000 320.000 170.000 320.000 L 140.000 320.000 140.000 315.000 L 140.000 310.000 170.000 310.000 L 200.000 310.000 200.000 315.000 M110.000 335.000 L 110.000 340.000 90.000 340.000 L 70.000 340.000 70.000 335.000 L 70.000 330.000 90.000 330.000 L 110.000 330.000 110.000 335.000 M200.000 335.000 L 200.000 340.000 170.000 340.000 L 140.000 340.000 140.000 335.000 L 140.000 330.000 170.000 330.000 L 200.000 330.000 200.000 335.000 " stroke="none" fill="#fefefe" fill-rule="evenodd"></path><path id="path1" d="M290.000 259.999 L 290.000 299.998 265.100 300.061 L 240.199 300.125 271.794 339.625 C 289.171 361.350,303.663 379.519,303.999 380.000 C 305.245 381.785,319.810 399.875,320.001 399.875 C 320.111 399.875,338.155 377.431,360.100 350.000 L 400.000 300.125 375.000 300.061 L 350.000 299.998 350.000 259.999 L 350.000 220.000 320.000 220.000 L 290.000 220.000 290.000 259.999 M345.000 264.999 L 345.000 304.997 367.275 305.061 L 389.550 305.125 354.837 348.549 C 335.746 372.433,320.069 391.974,320.000 391.974 C 319.931 391.974,304.254 372.433,285.163 348.549 L 250.450 305.125 272.725 305.061 L 295.000 304.997 295.000 264.999 L 295.000 225.000 320.000 225.000 L 345.000 225.000 345.000 264.999 " stroke="none" fill="#36404d" fill-rule="evenodd"></path><path id="path2" d="M30.000 200.000 L 30.000 380.000 161.875 380.000 C 234.406 380.000,293.750 379.928,293.750 379.841 C 293.750 379.754,292.903 378.629,291.867 377.341 L 289.984 375.000 162.492 375.000 L 35.000 375.000 35.000 327.500 L 35.000 280.000 160.000 280.000 L 285.000 280.000 285.000 247.500 L 285.000 215.000 297.500 215.000 L 310.000 215.000 310.000 162.438 L 310.000 109.876 265.063 64.938 L 220.126 20.000 125.063 20.000 L 30.000 20.000 30.000 200.000 M210.000 72.500 L 210.000 120.000 257.500 120.000 L 305.000 120.000 305.000 130.000 L 305.000 140.000 170.000 140.000 L 35.000 140.000 35.000 82.500 L 35.000 25.000 122.500 25.000 L 210.000 25.000 210.000 72.500 M261.437 68.562 L 305.000 112.124 305.000 113.562 L 305.000 115.000 260.000 115.000 L 215.000 115.000 215.000 70.000 L 215.000 25.000 216.437 25.000 L 217.874 25.000 261.437 68.562 M97.009 161.716 C 110.151 164.393,117.448 172.784,117.582 185.375 L 117.625 189.375 108.563 189.441 L 99.500 189.506 99.500 186.298 C 99.500 181.659,98.794 179.646,96.467 177.655 C 92.063 173.886,83.704 173.950,80.121 177.780 C 77.376 180.715,77.462 179.583,77.550 211.500 L 77.625 238.875 78.327 240.304 C 81.757 247.290,95.305 246.718,98.646 239.446 C 99.314 237.992,99.374 237.610,99.457 234.313 L 99.547 230.750 108.683 230.750 L 117.819 230.750 117.676 234.938 C 117.160 250.033,104.971 259.641,87.250 258.922 C 72.427 258.320,62.704 252.202,59.963 241.750 L 59.405 239.625 59.314 212.018 C 59.216 182.585,59.276 180.637,60.385 177.305 C 64.416 165.197,80.496 158.353,97.009 161.716 M181.575 161.734 C 190.780 163.572,197.992 168.590,201.430 175.548 C 203.008 178.741,203.278 180.024,203.429 185.063 L 203.562 189.500 194.406 189.500 L 185.250 189.500 185.244 187.063 C 185.222 178.527,179.314 173.776,170.237 174.997 C 162.853 175.990,159.718 181.280,160.717 191.067 C 161.298 196.755,162.487 197.539,177.500 202.132 C 191.693 206.474,195.165 208.159,198.538 212.346 C 204.514 219.763,205.122 237.162,199.736 246.632 C 188.803 265.859,147.620 261.850,142.220 241.034 C 141.876 239.710,141.678 237.881,141.574 235.063 L 141.423 231.000 150.563 231.000 L 159.702 231.000 159.791 234.438 C 159.987 242.020,163.699 245.061,172.750 245.053 C 182.586 245.043,185.218 242.022,185.241 230.709 C 185.264 219.773,184.864 219.391,167.750 214.000 C 153.548 209.527,150.678 208.051,147.159 203.414 C 138.927 192.565,141.886 173.900,153.044 166.298 C 159.783 161.706,171.808 159.783,181.575 161.734 M241.242 163.063 C 241.398 163.784,244.562 178.719,248.272 196.250 C 251.983 213.781,255.087 228.350,255.171 228.625 L 255.324 229.125 255.531 228.625 C 255.645 228.350,258.890 213.444,262.743 195.500 C 266.595 177.556,269.806 162.622,269.878 162.313 L 270.010 161.750 279.505 161.750 C 285.013 161.750,289.000 161.845,289.000 161.977 C 289.000 162.446,263.450 257.884,263.275 258.066 C 263.175 258.171,259.561 258.227,255.244 258.191 L 247.395 258.125 234.710 210.375 C 227.733 184.113,222.019 162.428,222.012 162.188 C 222.001 161.778,222.613 161.750,231.479 161.750 L 240.959 161.750 241.242 163.063 M295.000 264.999 L 295.000 304.997 272.725 305.061 L 250.450 305.125 285.163 348.549 C 304.254 372.433,319.931 391.974,320.000 391.974 C 320.069 391.974,335.746 372.433,354.837 348.549 L 389.550 305.125 367.275 305.061 L 345.000 304.997 345.000 264.999 L 345.000 225.000 320.000 225.000 L 295.000 225.000 295.000 264.999 " stroke="none" fill="#5e9c76" fill-rule="evenodd"></path><path id="path3" d="M70.000 85.000 L 70.000 90.000 90.000 90.000 L 110.000 90.000 110.000 85.000 L 110.000 80.000 90.000 80.000 L 70.000 80.000 70.000 85.000 M140.000 85.000 L 140.000 90.000 170.000 90.000 L 200.000 90.000 200.000 85.000 L 200.000 80.000 170.000 80.000 L 140.000 80.000 140.000 85.000 M70.000 105.000 L 70.000 110.000 90.000 110.000 L 110.000 110.000 110.000 105.000 L 110.000 100.000 90.000 100.000 L 70.000 100.000 70.000 105.000 M140.000 105.000 L 140.000 110.000 170.000 110.000 L 200.000 110.000 200.000 105.000 L 200.000 100.000 170.000 100.000 L 140.000 100.000 140.000 105.000 M70.000 125.000 L 70.000 130.000 90.000 130.000 L 110.000 130.000 110.000 125.000 L 110.000 120.000 90.000 120.000 L 70.000 120.000 70.000 125.000 M140.000 125.000 L 140.000 130.000 170.000 130.000 L 200.000 130.000 200.000 125.000 L 200.000 120.000 170.000 120.000 L 140.000 120.000 140.000 125.000 M230.000 125.000 L 230.000 130.000 250.000 130.000 L 270.000 130.000 270.000 125.000 L 270.000 120.000 250.000 120.000 L 230.000 120.000 230.000 125.000 M85.313 161.179 C 85.691 161.236,86.309 161.236,86.688 161.179 C 87.066 161.122,86.756 161.075,86.000 161.075 C 85.244 161.075,84.934 161.122,85.313 161.179 M90.563 161.179 C 90.941 161.236,91.559 161.236,91.938 161.179 C 92.316 161.122,92.006 161.075,91.250 161.075 C 90.494 161.075,90.184 161.122,90.563 161.179 M170.192 161.181 C 170.641 161.237,171.316 161.236,171.692 161.179 C 172.068 161.122,171.700 161.076,170.875 161.077 C 170.050 161.079,169.743 161.126,170.192 161.181 M175.313 161.179 C 175.691 161.236,176.309 161.236,176.688 161.179 C 177.066 161.122,176.756 161.075,176.000 161.075 C 175.244 161.075,174.934 161.122,175.313 161.179 M226.688 161.937 C 229.334 161.978,233.666 161.978,236.313 161.937 C 238.959 161.897,236.794 161.864,231.500 161.864 C 226.206 161.864,224.041 161.897,226.688 161.937 M274.688 161.937 C 277.334 161.978,281.666 161.978,284.313 161.937 C 286.959 161.897,284.794 161.864,279.500 161.864 C 274.206 161.864,272.041 161.897,274.688 161.937 M110.875 168.750 C 111.691 169.575,112.416 170.250,112.484 170.250 C 112.553 170.250,111.941 169.575,111.125 168.750 C 110.309 167.925,109.584 167.250,109.516 167.250 C 109.447 167.250,110.059 167.925,110.875 168.750 M196.875 169.500 C 197.412 170.050,197.908 170.500,197.976 170.500 C 198.045 170.500,197.662 170.050,197.125 169.500 C 196.588 168.950,196.092 168.500,196.024 168.500 C 195.955 168.500,196.338 168.950,196.875 169.500 M86.313 174.922 C 86.553 174.985,86.947 174.985,87.188 174.922 C 87.428 174.859,87.231 174.808,86.750 174.808 C 86.269 174.808,86.072 174.859,86.313 174.922 M79.987 177.688 L 79.125 178.625 80.063 177.763 C 80.935 176.962,81.115 176.750,80.924 176.750 C 80.882 176.750,80.460 177.172,79.987 177.688 M163.609 177.813 L 162.875 178.625 163.688 177.891 C 164.134 177.487,164.500 177.121,164.500 177.078 C 164.500 176.885,164.294 177.055,163.609 177.813 M96.250 177.328 C 96.250 177.371,96.616 177.737,97.063 178.141 L 97.875 178.875 97.141 178.063 C 96.456 177.305,96.250 177.135,96.250 177.328 M181.250 177.328 C 181.250 177.371,181.616 177.737,182.063 178.141 L 182.875 178.875 182.141 178.063 C 181.456 177.305,181.250 177.135,181.250 177.328 M203.351 185.750 C 203.351 187.881,203.389 188.753,203.436 187.688 C 203.483 186.622,203.483 184.878,203.436 183.813 C 203.389 182.747,203.351 183.619,203.351 185.750 M59.371 209.750 C 59.371 224.531,59.401 230.578,59.437 223.188 C 59.474 215.797,59.474 203.703,59.437 196.313 C 59.401 188.922,59.371 194.969,59.371 209.750 M117.553 186.188 L 117.500 189.250 108.633 189.250 L 99.766 189.250 99.687 186.438 L 99.607 183.625 99.553 186.563 L 99.500 189.500 108.508 189.500 C 115.708 189.500,117.541 189.434,117.641 189.172 C 117.711 188.992,117.731 187.558,117.687 185.985 L 117.607 183.125 117.553 186.188 M77.371 210.625 C 77.370 225.200,77.401 231.199,77.437 223.957 C 77.474 216.714,77.474 204.789,77.437 197.457 C 77.401 190.124,77.371 196.050,77.371 210.625 M142.563 185.875 C 142.566 186.425,142.617 186.621,142.677 186.310 C 142.737 185.999,142.734 185.549,142.672 185.310 C 142.609 185.071,142.560 185.325,142.563 185.875 M185.340 187.250 C 185.340 188.556,185.382 189.091,185.434 188.438 C 185.485 187.784,185.485 186.716,185.434 186.063 C 185.382 185.409,185.340 185.944,185.340 187.250 M142.577 189.375 C 142.579 190.200,142.626 190.507,142.681 190.058 C 142.737 189.609,142.736 188.934,142.679 188.558 C 142.622 188.182,142.576 188.550,142.577 189.375 M160.558 190.750 C 160.558 191.231,160.609 191.428,160.672 191.188 C 160.735 190.947,160.735 190.553,160.672 190.313 C 160.609 190.072,160.558 190.269,160.558 190.750 M161.750 195.328 C 161.750 195.371,162.116 195.737,162.563 196.141 L 163.375 196.875 162.641 196.063 C 161.956 195.305,161.750 195.135,161.750 195.328 M148.000 204.578 C 148.000 204.621,148.366 204.987,148.813 205.391 L 149.625 206.125 148.891 205.313 C 148.206 204.555,148.000 204.385,148.000 204.578 M197.125 211.000 C 197.802 211.688,198.412 212.250,198.481 212.250 C 198.550 212.250,198.052 211.688,197.375 211.000 C 196.698 210.313,196.088 209.750,196.019 209.750 C 195.950 209.750,196.448 210.313,197.125 211.000 M285.000 247.500 L 285.000 280.000 287.500 280.000 L 290.000 280.000 290.000 250.000 L 290.000 220.000 300.000 220.000 L 310.000 220.000 310.000 217.500 L 310.000 215.000 297.500 215.000 L 285.000 215.000 285.000 247.500 M203.058 225.750 C 203.058 226.231,203.109 226.428,203.172 226.188 C 203.235 225.947,203.235 225.553,203.172 225.313 C 203.109 225.072,203.058 225.269,203.058 225.750 M185.346 230.750 C 185.346 232.469,185.386 233.172,185.435 232.313 C 185.484 231.453,185.484 230.047,185.435 229.188 C 185.386 228.328,185.346 229.031,185.346 230.750 M203.334 230.500 C 203.334 231.531,203.378 231.953,203.432 231.438 C 203.486 230.922,203.486 230.078,203.432 229.563 C 203.378 229.047,203.334 229.469,203.334 230.500 M99.595 233.625 C 99.596 235.275,99.636 235.917,99.685 235.053 C 99.734 234.188,99.734 232.838,99.684 232.053 C 99.635 231.267,99.595 231.975,99.595 233.625 M117.599 234.125 C 117.599 236.050,117.638 236.804,117.686 235.802 C 117.733 234.799,117.733 233.224,117.685 232.302 C 117.637 231.379,117.598 232.200,117.599 234.125 M141.596 234.000 C 141.596 235.719,141.636 236.422,141.685 235.563 C 141.734 234.703,141.734 233.297,141.685 232.438 C 141.636 231.578,141.596 232.281,141.596 234.000 M159.594 233.625 C 159.594 235.137,159.635 235.724,159.685 234.928 C 159.735 234.133,159.734 232.895,159.684 232.178 C 159.634 231.462,159.593 232.113,159.594 233.625 M96.737 242.188 L 95.875 243.125 96.813 242.263 C 97.685 241.462,97.865 241.250,97.674 241.250 C 97.632 241.250,97.210 241.672,96.737 242.188 M86.063 245.172 C 86.303 245.235,86.697 245.235,86.938 245.172 C 87.178 245.109,86.981 245.058,86.500 245.058 C 86.019 245.058,85.822 245.109,86.063 245.172 M170.188 245.176 C 170.497 245.236,171.003 245.236,171.313 245.176 C 171.622 245.117,171.369 245.068,170.750 245.068 C 170.131 245.068,169.878 245.117,170.188 245.176 M174.066 245.179 C 174.446 245.237,175.008 245.235,175.316 245.176 C 175.623 245.117,175.313 245.070,174.625 245.072 C 173.938 245.073,173.686 245.122,174.066 245.179 M65.000 250.828 C 65.000 250.871,65.366 251.237,65.813 251.641 L 66.625 252.375 65.891 251.563 C 65.206 250.805,65.000 250.635,65.000 250.828 M247.314 257.750 C 247.426 258.161,262.883 258.467,263.284 258.066 C 263.389 257.961,259.918 257.906,255.569 257.944 C 249.373 257.999,247.614 257.945,247.438 257.694 C 247.266 257.452,247.237 257.465,247.314 257.750 M86.066 258.929 C 86.446 258.987,87.008 258.985,87.316 258.926 C 87.623 258.867,87.313 258.820,86.625 258.822 C 85.938 258.823,85.686 258.872,86.066 258.929 M90.816 258.929 C 91.196 258.987,91.758 258.985,92.066 258.926 C 92.373 258.867,92.063 258.820,91.375 258.822 C 90.688 258.823,90.436 258.872,90.816 258.929 M169.816 258.929 C 170.196 258.987,170.758 258.985,171.066 258.926 C 171.373 258.867,171.063 258.820,170.375 258.822 C 169.688 258.823,169.436 258.872,169.816 258.929 M174.692 258.931 C 175.141 258.987,175.816 258.986,176.192 258.929 C 176.568 258.872,176.200 258.826,175.375 258.827 C 174.550 258.829,174.243 258.876,174.692 258.931 M70.000 295.000 L 70.000 300.000 90.000 300.000 L 110.000 300.000 110.000 295.000 L 110.000 290.000 90.000 290.000 L 70.000 290.000 70.000 295.000 M140.000 295.000 L 140.000 300.000 170.000 300.000 L 200.000 300.000 200.000 295.000 L 200.000 290.000 170.000 290.000 L 140.000 290.000 140.000 295.000 M230.000 295.000 L 230.000 300.000 250.000 300.000 L 270.000 300.000 270.000 295.000 L 270.000 290.000 250.000 290.000 L 230.000 290.000 230.000 295.000 M247.600 309.688 C 247.742 309.935,245.931 310.000,238.890 310.000 L 230.000 310.000 230.000 315.000 L 230.000 320.000 242.875 320.000 C 249.956 320.000,255.750 319.943,255.750 319.874 C 255.750 319.765,247.900 309.833,247.551 309.500 C 247.479 309.431,247.501 309.516,247.600 309.688 M70.000 315.000 L 70.000 320.000 90.000 320.000 L 110.000 320.000 110.000 315.000 L 110.000 310.000 90.000 310.000 L 70.000 310.000 70.000 315.000 M140.000 315.000 L 140.000 320.000 170.000 320.000 L 200.000 320.000 200.000 315.000 L 200.000 310.000 170.000 310.000 L 140.000 310.000 140.000 315.000 M263.600 329.688 C 263.743 329.936,260.331 330.000,246.890 330.000 L 230.000 330.000 230.000 335.000 L 230.000 340.000 250.000 340.000 L 270.000 340.000 270.000 338.787 C 270.000 337.610,269.906 337.455,266.843 333.599 C 263.638 329.563,263.279 329.131,263.600 329.688 M70.000 335.000 L 70.000 340.000 90.000 340.000 L 110.000 340.000 110.000 335.000 L 110.000 330.000 90.000 330.000 L 70.000 330.000 70.000 335.000 M140.000 335.000 L 140.000 340.000 170.000 340.000 L 200.000 340.000 200.000 335.000 L 200.000 330.000 170.000 330.000 L 140.000 330.000 140.000 335.000 M299.600 374.688 C 299.741 374.933,298.731 375.000,294.888 375.000 L 289.997 375.000 291.936 377.482 L 293.875 379.964 298.813 379.982 C 301.528 379.992,303.750 379.943,303.750 379.873 C 303.750 379.759,299.882 374.806,299.554 374.500 C 299.480 374.431,299.501 374.516,299.600 374.688 " stroke="none" fill="#bae0bd" fill-rule="evenodd"></path></g></svg>