<?xml version="1.0" encoding="UTF-8" standalone="no"?>
<svg
   xmlns:dc="http://purl.org/dc/elements/1.1/"
   xmlns:cc="http://creativecommons.org/ns#"
   xmlns:rdf="http://www.w3.org/1999/02/22-rdf-syntax-ns#"
   xmlns:svg="http://www.w3.org/2000/svg"
   xmlns="http://www.w3.org/2000/svg"
   xmlns:sodipodi="http://sodipodi.sourceforge.net/DTD/sodipodi-0.dtd"
   xmlns:inkscape="http://www.inkscape.org/namespaces/inkscape"
   width="400"
   height="396.2"
   display="block"
   version="1.1"
   id="svg18"
   sodipodi:docname="epic.svg"
   inkscape:version="0.92.3 (2405546, 2018-03-11)">
  <metadata
     id="metadata24">
    <rdf:RDF>
      <cc:Work
         rdf:about="">
        <dc:format>image/svg+xml</dc:format>
        <dc:type
           rdf:resource="http://purl.org/dc/dcmitype/StillImage" />
        <dc:title />
      </cc:Work>
    </rdf:RDF>
  </metadata>
  <defs
     id="defs22" />
  <sodipodi:namedview
     pagecolor="#ffffff"
     bordercolor="#666666"
     borderopacity="0"
     objecttolerance="10"
     gridtolerance="10"
     guidetolerance="10"
     inkscape:pageopacity="0"
     inkscape:pageshadow="2"
     inkscape:window-width="1366"
     inkscape:window-height="745"
     id="namedview20"
     showgrid="false"
     inkscape:zoom="1"
     inkscape:cx="144.37076"
     inkscape:cy="218.10001"
     inkscape:window-x="-8"
     inkscape:window-y="-8"
     inkscape:window-maximized="1"
     inkscape:current-layer="svg18" />
  <path
     style="fill:#ffffff;fill-opacity:1"
     d="M 188.93041,375.63368 C 149.46329,373.07246 111.23256,356.18842 81.77545,328.31028 50.21252,298.43919 31.29215,260.14293 26.53007,216.48941 20.03783,156.97572 45.04624,96.257717 91.36606,59.073914 175.60441,-8.549449 296.1719,13.332862 352.10736,106.39697 c 18.69962,31.11199 27.80012,70.71288 24.42902,106.30303 -5.55853,58.6837 -35.81395,107.8607 -85.0658,138.26549 -21.28021,13.13697 -51.33843,22.97813 -74.13135,24.27083 -5.15266,0.29224 -11.16847,0.6624 -13.36847,0.82258 -2.2,0.16018 -8.96816,-0.0312 -15.04035,-0.42522 z"
     id="path826"
     inkscape:connector-curvature="0" />
  <path
     style="fill:#ffffff;fill-opacity:1"
     d="M 182.37076,373.66429 C 139.90536,368.44022 101.59639,348.74543 72.890431,317.38003 48.360912,290.57798 33.204699,258.30509 27.761552,221.28482 25.511422,205.9811 26.302708,176.4315 29.34374,162.2 42.080352,102.59486 79.677539,56.476293 134.8122,32.827186 c 21.21485,-9.099761 41.87402,-13.127184 67.33753,-13.127184 46.03733,0 88.49119,17.494372 121.1051,49.904952 25.8205,25.65953 42.09463,55.694996 49.86824,92.036686 2.46335,11.51615 2.68628,14.42563 2.68628,35.05836 0,20.61761 -0.22411,23.54756 -2.67878,35.02136 -5.42519,25.35877 -15.70014,49.3645 -29.52428,68.97864 -12.77351,18.12347 -35.67835,39.00351 -55.74126,50.81371 -15.23253,8.96676 -39.83206,17.76939 -57.83892,20.69693 -11.49887,1.86947 -37.76288,2.67062 -47.65535,1.45365 z"
     id="path828"
     inkscape:connector-curvature="0" />
  <g
     fill-rule="evenodd"
     id="g8">
    <path
       d="m 212.6,5 c 5.23099,0.2326798 10.44168,0.8005112 15.6,1.7 6.1,0.8 14.8,2.6 22.4,4.5 l 4,1 c 7.59665,2.287654 15.07285,4.957725 22.4,8 9.50305,3.95408 18.6385,8.739318 27.3,14.3 2.01101,1.468577 4.11546,2.804733 6.3,4 3.1315,2.014819 6.13709,4.218918 9,6.6 l 1.8,1.4 c 2.28329,1.992944 4.6174,3.926915 7,5.8 9.41052,8.537073 18.13725,17.798782 26.1,27.7 4.69365,6.387114 9.13051,12.959011 13.3,19.7 l 1.4,2.3 c 6.40907,10.95732 11.57441,22.59612 15.4,34.7 5.0871,14.59827 8.27984,29.78899 9.5,45.2 0.5,3.5 0.5,28.5 0,32 l -0.7,6.7 c -0.33581,3.6596 -0.86993,7.29828 -1.6,10.9 -1.3548,7.848 -3.22552,15.59814 -5.6,23.2 -0.65544,2.63322 -1.525,5.20846 -2.6,7.7 -0.1,0.7 -0.4,1.6 -0.6,2 -0.7,1.4 -1.6,3.8 -2.2,5.5 l -1.4,3.6 -2,4.3 c -5.13791,10.83407 -11.08823,21.26384 -17.8,31.2 l -1.4,2 c -2.84682,4.18996 -5.95288,8.19778 -9.3,12 -16.90479,19.21873 -37.2116,35.15229 -59.9,47 -14.93165,7.45163 -30.7142,13.05947 -47,16.7 -2.87169,0.67721 -5.77527,1.2112 -8.7,1.6 l -5,0.8 c -18.93823,2.40415 -38.11657,2.20227 -57,-0.6 -16.28626,-2.43863 -32.16515,-7.08119 -47.2,-13.8 C 86.277463,357.81727 54.771801,329.39216 34.1,293.5 26.405851,280.25499 20.456532,266.07074 16.4,251.3 12.531709,238.2049 10.117158,224.72366 9.2,211.1 8.6672993,200.43801 8.7340712,189.7545 9.4,179.1 l 1,-6.7 c 0.417666,-4.34123 1.119167,-8.65045 2.1,-12.9 1,-4.7 2,-9.5 3.2,-13.5 2.168845,-7.15499 4.603872,-14.22657 7.3,-21.2 l 2.4,-5.5 c 2.074293,-5.20176 4.583166,-10.21951 7.5,-15 0,-0.4 4.7,-8.5 6.3,-11 20.750279,-31.770124 50.230335,-56.875047 84.9,-72.3 3.25189,-1.287874 6.48554,-2.621339 9.7,-4 8.53993,-3.183987 17.29531,-5.757133 26.2,-7.7 l 5.7,-1.2 C 179.1,5.3 195.2,4.2 212.5,5 m -22.8,11.7 c -0.2,0 -2.6,0.4 -5.4,0.6 -8.54428,0.561219 -17.01578,1.934071 -25.3,4.1 -4.65366,1.014963 -9.23131,2.351504 -13.7,4 -4.96549,1.520602 -9.8401,3.323537 -14.6,5.4 -17.21322,7.414605 -33.223026,17.357534 -47.5,29.5 -7.630548,6.832712 -14.780842,14.183482 -21.4,22 -7.228373,9.007341 -13.684566,18.608 -19.3,28.7 -10.646631,19.75642 -17.65796,41.2646 -20.7,63.5 -2.753879,23.66688 -1.092424,47.6393 4.9,70.7 15.812156,58.72088 59.952022,105.63826 117.6,125 0.3,0 0.8,0 1.2,0.3 0.4,0.2 1.7,0.7 3,1 l 3,1 c 16.36287,4.6133 33.30007,6.86935 50.3,6.7 17.97381,0.42932 35.89143,-2.1738 53,-7.7 20.1032,-6.09046 38.96338,-15.70678 55.7,-28.4 4.11705,-2.88957 8.02662,-6.06401 11.7,-9.5 1.7,-1.4 13.7,-13.4 15,-15 l 3.7,-4.5 c 5.92559,-7.14235 11.33907,-14.69449 16.2,-22.6 4.21784,-7.23038 7.99149,-14.71089 11.3,-22.4 4.22373,-9.37587 7.47409,-19.16047 9.7,-29.2 6.42444,-28.05242 6.28755,-57.20913 -0.4,-85.2 -2.34591,-10.10857 -5.69588,-19.95749 -10,-29.4 -4.32751,-10.47992 -9.75809,-20.46951 -16.2,-29.8 -4.33594,-6.250068 -9.00955,-12.258993 -14,-18 -8.1897,-8.872399 -17.08553,-17.065928 -26.6,-24.5 -4.50724,-3.364484 -9.17973,-6.501727 -14,-9.4 -13.01233,-8.190147 -27.07329,-14.581489 -41.8,-19 -11.57436,-3.399991 -23.4171,-5.808684 -35.4,-7.2 -3.4,-0.4 -29.2,-1 -30,-0.6 m -145.1,145 7.1,2.8 9.4,3.6 c 7.740787,3.08844 15.542335,6.02235 23.4,8.8 l 12.2,4.6 17.5,6.5 c 20.38514,7.79749 41.58642,13.26554 63.2,16.3 l 7.1,1 c 13,2 45.1,2.8 60.7,1.4 9.47134,-0.87957 18.9101,-2.08026 28.3,-3.6 11.98555,-1.92602 23.79212,-4.83586 35.3,-8.7 12.15515,-3.59767 24.07764,-7.93919 35.7,-13 0.7,0 19,-9 22.4,-11 2.7,-1.6 3.6,-1.5 3.6,0.7 l 0.3,2.8 c 1.5,6.4 2.1,22.2 1.4,33.8 -0.52184,13.41613 -2.84257,26.70147 -6.9,39.5 -0.79623,1.95445 -1.46431,3.9587 -2,6 l -1.4,3.8 c -2.07708,5.8284 -4.54949,11.50827 -7.4,17 -11.7905,24.8042 -29.76725,46.15589 -52.2,62 l -3.2,2.3 c -5.04591,3.3596 -10.21622,6.5285 -15.5,9.5 -15.43664,8.26122 -31.9684,14.28807 -49.1,17.9 l -5,1 c -20.06355,2.798 -40.44007,2.46064 -60.4,-1 -4.29843,-1.07299 -8.59843,-2.13966 -12.9,-3.2 -3.90176,-0.96936 -7.74197,-2.17151 -11.5,-3.6 -2.00232,-0.8767 -4.03711,-1.67727 -6.1,-2.4 -1.88735,-0.63051 -3.72566,-1.39926 -5.5,-2.3 -5.88952,-2.4732 -11.60287,-5.34658 -17.1,-8.6 -26.340748,-15.60825 -48.131233,-37.84696 -63.2,-64.5 -6.574146,-11.67086 -11.711505,-24.09454 -15.3,-37 -0.2,0 -0.4,-0.7 -0.6,-1.4 -4.485477,-16.37184 -6.408266,-33.33961 -5.7,-50.3 0.2,-6 0.5,-11.5 0.7,-12.3 0.2,-0.7 0.7,-3.2 1,-5.5 0.791449,-5.18669 1.85964,-10.32736 3.2,-15.4 l 0.6,-0.8 2.8,1.2 5,2.1"
       id="path2"
       inkscape:connector-curvature="0"
       style="fill:#ffffff"
       sodipodi:nodetypes="ccscccccccccccccccccsccccccccccccccccccccccccccccccccccccccccccccccccccccccccccccccccccccccccccccccccccccccccccccccccccccc" />
    <path
       fill="#4972fe"
       d="M191.4 5.9A104.8 104.8 0 0 0 166 9c-.1.2-1.1.4-2.2.4-1 0-2 .1-2.1.3-.2.3-1.4.5-2.7.7-1.3.1-2.4.4-2.5.6-.2.2-1 .3-1.8.3s-1.6.2-1.8.4c-.1.3-.6.4-1.2.4-.5 0-1.4.3-2 .6-.6.4-1.6.6-2.2.6-.6 0-1.2.2-1.3.4-.2.2-.7.4-1.3.4-.6 0-1.4.3-1.9.6a3 3 0 0 1-1.5.6c-.4 0-1 .2-1.4.4l-2.8 1-3.8 1.4a8 8 0 0 1-2 .8c-.4 0-1.5.4-2.6 1-1 .5-2.3 1-2.7 1-.4 0-.9.1-1 .3a303.7 303.7 0 0 0-22.5 11.9c-.4.4-1.4 1-2.2 1.4a32.6 32.6 0 0 0-4.5 2.8 84.9 84.9 0 0 0-9.3 6.6 99.1 99.1 0 0 1-9.6 7.5 355.2 355.2 0 0 0-25.3 26.2l-2.5 3.2a8 8 0 0 0-1.6 2.1c0 .3-.5.9-1 1.4-.6.5-1 1.2-1 1.4a6 6 0 0 1-1.4 2.1 7 7 0 0 0-1.4 2c0 .1-.4.7-1 1.2-.5.5-1 1.2-1 1.5 0 .3-.4 1-1 1.6-.5.6-1 1.2-1 1.4A63 63 0 0 0 34 104a167.2 167.2 0 0 0-13.2 28.8c-.5 1-.9 2.3-.9 2.8 0 .6-.2 1-.4 1.2-.2.2-.4.6-.4 1s-.2 1.2-.6 1.8c-.3.7-.6 1.6-.6 2 0 .5-.1 1-.4 1.2-.2.1-.4.7-.4 1.4a5 5 0 0 1-.3 1.8 272.8 272.8 0 0 1-2 6.7c-.3.7-.4 1.7-.4 2.2 0 .6-.3 1.8-.6 2.7-.4 1-.6 2.2-.6 2.8 0 .6-.2 1.3-.4 1.4-.2.1-.4 1.3-.4 2.5 0 1.3-.2 2.4-.3 2.6-.4.4-1.2 6.3-1.8 12.1-.7 8.7-.4 41.6.5 42.7.2.2.5 1.8.6 3.5.2 1.8.4 3.4.6 3.6.2.2.4 1.5.5 2.8.2 2.5.7 5 1.4 7.3.3.8.5 2 .5 2.6 0 .7.1 1.4.4 1.6.2.1.4.9.4 1.7 0 .8.1 1.6.3 1.8.5.6 1.6 4.4 1.6 5.5 0 .6.2 1.1.4 1.3.3.1.4.5.4.8 0 .4.3 1.2.6 1.9a21 21 0 0 1 1.4 4.5c0 .3.5 1.4 1 2.6a12 12 0 0 1 1 2.5l.6 1.6c.3.6.6 1.4.6 1.8 0 .4.2.7.4.7s.4.2.4.5a142.3 142.3 0 0 0 13.4 27c.9 1.4 1.6 2.8 1.6 3 0 .2.4.9 1 1.5l1.2 1.8a45.5 45.5 0 0 0 4.6 6.3c0 .3.4 1 .9 1.6l2.5 3.3c.8 1.3 2.4 3.2 3.5 4.5a365.3 365.3 0 0 0 28 28 47.8 47.8 0 0 1 8.1 6.3 8 8 0 0 0 2 1.5c.3 0 .7.2 1 .5.2.3 1.8 1.4 3.6 2.5a16 16 0 0 1 3.5 2.5c.3 0 1 .4 1.7.9l2 1.3 6 3.4a230.4 230.4 0 0 0 33.7 14.6c.5 0 1 .2 1.2.4.1.2.7.4 1.2.4s1 .2 1.2.4c.1.2 1.1.5 2.2.6 1 .2 2 .5 2.2.7 0 .1.7.3 1.3.3.7 0 1.3.2 1.4.4.2.2.8.4 1.5.4s1.7.2 2.1.5c.4.3 1.7.7 2.8.8 3 .3 6.1 1 7.7 1.4.7.3 2 .5 2.6.5.7 0 1.4.1 1.6.3.2.2 1.5.5 3 .6l5.9.6a200.8 200.8 0 0 0 46.6-.4c.1-.2 1.3-.3 2.7-.3 1.4 0 2.7-.2 2.8-.4.1-.3 1-.4 1.7-.5.8 0 2.2-.2 3-.5 1-.4 2.4-.6 3.3-.6 1 0 1.8-.2 2-.4 0-.2 1-.4 1.9-.4 1 0 2.2-.3 2.8-.6.7-.3 1.6-.6 2.2-.6.6 0 1.2-.2 1.3-.4.2-.2.7-.4 1.1-.4l2-.4a518.3 518.3 0 0 1 9.2-2.8l3-1 4-1.6a9 9 0 0 1 2.5-1 9 9 0 0 0 2.5-1c1-.5 2-1 2.3-1 .3 0 1.7-.5 3.2-1.3l8.7-4.2a80.7 80.7 0 0 0 8.7-4.7 105.7 105.7 0 0 0 13.7-8.7l1.5-.8c.2 0 .8-.5 1.3-1 .5-.7 1.7-1.6 2.5-2.1 1-.6 2.2-1.6 3-2.4.8-.7 1.6-1.3 1.8-1.3.2 0 1.2-.7 2.2-1.7l3.7-3a340 340 0 0 0 25.6-26.8c0-.3.3-.7.6-1 .8-.6 4.2-5.5 4.2-5.9a32.1 32.1 0 0 0 4.8-6.7l.7-1a16 16 0 0 0 1.8-3 10 10 0 0 1 1.4-2.2c.2-.2.8-1.1 1.2-2.1.5-1 1.3-2.6 2-3.5 1-1.6 2-3.4 4.7-8.9a231 231 0 0 1 2.4-5.1c0-.3.6-1.7 1.3-3.3 2.3-4.8 2.7-5.8 2.7-6.4 0-.3.1-.7.4-.9.2 0 .4-.5.4-.9 0-.3.4-1.5 1-2.6.5-1.1 1-2.4 1-2.9 0-.4.1-1 .3-1 .3-.2.4-.8.4-1.4 0-.6.3-1.4.6-1.8.4-.5.6-1.2.6-1.7s.2-1 .4-1.1c.2-.2.4-.8.4-1.3 0-1.1 1.3-5 1.7-5.5.2-.2.3-1 .3-1.8s.1-1.5.3-1.7c.3-.3 1.2-4.5 1.5-7.4.2-1 .4-2 .6-2.1.2-.2.4-1.1.4-2 0-.9.2-2.3.6-3.2.3-.9.5-2.7.5-4a7 7 0 0 1 .4-2.8c.2-.2.5-2.2.6-4.5l.6-12.1c.3-5.3.3-10.2 0-14.9l-.6-11.3a19 19 0 0 0-.6-4.7 7 7 0 0 1-.4-2.8c0-1.3-.2-3-.5-4a13 13 0 0 1-.6-3.6c0-1.1-.2-2.2-.4-2.3-.2-.1-.4-.8-.4-1.4 0-.6-.3-1.7-.6-2.5s-.6-2.1-.6-3c0-.9-.2-1.7-.4-1.8-.2-.2-.4-.7-.4-1.2 0-.6-.5-2.5-1-4.3a25.3 25.3 0 0 1-1.8-6.5c0-.4-.2-1-.6-1.3a2 2 0 0 1-.6-1.4c0-.5-.1-1-.4-1.2-.2-.1-.4-.7-.4-1.4 0-.6-.1-1.2-.4-1.4-.2 0-.4-.5-.4-1 0-.3-.2-.9-.5-1.1-.4-.3-.6-1-.6-1.6 0-.7-.2-1.3-.4-1.4-.2-.1-.5-.8-.6-1.6-.1-.8-.4-1.4-.6-1.4-.3 0-.4-.2-.4-.5s-.4-1.3-.8-2.2a208 208 0 0 0-16.5-31c-.8-1.4-2-3-3.2-4.6a7.6 7.6 0 0 1-1.3-2c0-.2-.5-.8-1-1.3a50.7 50.7 0 0 0-6.6-8.4c-1-1.2-1.9-2.3-2-2.6a442 442 0 0 0-21.9-22 9 9 0 0 1-2.3-1.7c-1-1-2-1.8-2.2-1.8-.2 0-1.3-.8-2.5-1.9a71.4 71.4 0 0 0-11.7-8.5 57.8 57.8 0 0 1-3.6-2.3l-2-1.3c-1-.7-3.1-1.9-4.6-2.6l-2.9-1.6a221 221 0 0 0-16.2-8.4c-.1-.2-.6-.3-1-.3s-1.6-.5-2.6-1c-1-.6-2.2-1-2.5-1-.4 0-1.4-.4-2.3-.8-.9-.4-2-.9-2.6-1l-1.3-.6c-.1-.2-.8-.4-1.4-.4-.6 0-1.2-.2-1.4-.4-.1-.2-.6-.4-1.1-.4-.5 0-1.2-.3-1.7-.6-.4-.3-1.2-.6-1.8-.6-.6 0-1.1-.2-1.1-.4s-.6-.4-1.3-.4c-.7 0-1.8-.2-2.4-.6-.7-.3-1.6-.6-2-.6-.6 0-1.1-.1-1.3-.4-.1-.2-.9-.4-1.7-.4-.9 0-1.7-.1-1.8-.3-.1-.2-1.3-.5-2.6-.6-1.3-.2-2.5-.4-2.6-.7-.1-.2-1.1-.3-2.2-.3-1 0-2-.2-2.1-.4-.2-.3-1-.4-1.8-.4a9 9 0 0 1-2.6-.4c-.6-.3-2.3-.5-3.7-.7a9.3 9.3 0 0 1-3-.6c-.2-.2-1.7-.3-3.3-.3a266.7 266.7 0 0 0-31.6-.7m29.3 10.5l6.7.9c4.9.6 16.7 3 21.5 4.4a145 145 0 0 1 21.8 7.5c.7 0 3.7 1.4 11 5 11.2 5.4 17 8.9 26.8 15.9a187.5 187.5 0 0 1 52.5 59.2 235.4 235.4 0 0 1 11.8 26 160.9 160.9 0 0 1 4.6 14.6c.2 0 .5.8.6 1.5l.9 4a182.8 182.8 0 0 1-72.9 192l-.7.4c-1 2.4-27.4 16.4-38 20.3l-2.6 1-5.7 2-5.6 1.8c-.9.3-3 1-7.1 2-6.7 1.8-13.2 3-22.2 4.2-6.3.8-33.2 1.2-38.9.6l-7.3-.9c-3.3-.3-4.6-.5-10.1-1.5a203.3 203.3 0 0 1-38.9-12.1A206.9 206.9 0 0 1 95.4 346l-1.6-1-1.7-1.3-3-2.4c-8-6.3-20-17.8-25.5-24.5A195 195 0 0 1 45 290.9a199 199 0 0 1-21.6-55.2c-.7-3.5-1.6-9.4-3.1-21.4a199.8 199.8 0 0 1 3.6-56 163.3 163.3 0 0 1 7-23.9 185.4 185.4 0 0 1 75.9-92.3c2.2-1.4 4-2.4 11-6a108.2 108.2 0 0 1 15.7-7.2 165.9 165.9 0 0 1 49.7-12.4l4.8-.6c.3-.4 29.3.1 32.7.5m145.9 155a305.4 305.4 0 0 1-36.4 16.7c-2.8 1.3-13 4.8-19.1 6.6a75.6 75.6 0 0 0-9.4 3.4c-.3 0-6.6 2.8-8.3 3.7a83.8 83.8 0 0 0-7.3 3 68.3 68.3 0 0 1-7.5 3l-7.1 2.5a136.1 136.1 0 0 1-14 4.2l-6.8 1.8-5.6 1.4a272.1 272.1 0 0 1-191-26.7l-2.9-1.7c-4-2-16.3-9.7-16.6-10.3-.2-.6-1-.4-1.6.2-1.4 1.7-1.7 22.8-.6 34.3a165.6 165.6 0 0 0 17.2 60.3 171.2 171.2 0 0 0 123.2 92c8.2 2.6 41.8 2.9 55.8.3l3.6-.6a207.7 207.7 0 0 0 39.4-12.5 189.5 189.5 0 0 0 33.3-20 170 170 0 0 0 65.9-153c-1.5-11-1.3-10.5-4.2-8.6"
       id="path4" />
    <path
       fill="#a5b9fe"
       d="M190.4 5A195 195 0 0 0 79.6 48.4a197.1 197.1 0 0 0-40.3 45 137.8 137.8 0 0 0-6.6 11.5c-.2 0-.8 1-1.4 2.3a1980.2 1980.2 0 0 1-9.6 21.3l-1.3 3.4c-.4.6-3 9.1-4.6 14.2a148.6 148.6 0 0 0-4.4 19.7l-1 6.7-.9 6.7a285 285 0 0 0-.3 32 186 186 0 0 0 15.5 63.6A276.5 276.5 0 0 0 37 298.7a209.7 209.7 0 0 0 17.2 23.8 199.6 199.6 0 0 0 70 52.3 177.6 177.6 0 0 0 27.4 9.6c.4.2 1.6.6 2.8.8l3.5.8a181.6 181.6 0 0 0 18.2 3.4 209 209 0 0 0 73-4.2l2.4-.6c.2-.2 1.7-.6 3.2-1a182.9 182.9 0 0 0 50-22.4 208 208 0 0 0 53.5-50.3l1.4-2a152.2 152.2 0 0 0 9.5-15c2.3-4 6.5-12.1 8.3-16.2l2-4.3 1.4-3.6c.6-1.7 1.5-4.1 2.2-5.5.2-.4.5-1.3.6-2l.7-2 1.9-5.7a152.5 152.5 0 0 1 2.4-8.4 7113.1 7113.1 0 0 1 3.2-14.8l.8-4.6.8-6.3.7-6.8c.5-3.4.5-28.4 0-31.9l-.7-6.3a199.1 199.1 0 0 0-5.4-28 180.7 180.7 0 0 0-7-20.7 170.5 170.5 0 0 0-17.4-34 297.9 297.9 0 0 0-11-15.2 95.8 95.8 0 0 0-6.4-7.7 355.5 355.5 0 0 0-21.6-21 54.5 54.5 0 0 0-5-3.9l-1.8-1.4a294.7 294.7 0 0 1-7.2-5.2 57.4 57.4 0 0 1-6.3-4 130.2 130.2 0 0 0-17-9.5A174.9 174.9 0 0 0 254.6 12l-4-1a223.7 223.7 0 0 0-28.3-5.4c-5.7-.9-20.2-1.2-32-.7m29 1.2c.5.2 2 .4 3.7.4 1.6 0 3 .1 3.3.3.2.2 1.5.5 3 .6 1.4.2 3 .4 3.7.7a9 9 0 0 0 2.6.4c.8 0 1.6.1 1.8.4 0 .2 1 .4 2.1.4s2 .1 2.2.3c.1.3 1.3.5 2.6.7 1.3.1 2.5.4 2.6.6.1.2 1 .3 1.8.3s1.6.2 1.7.4c.2.3.7.4 1.2.4s1.4.3 2 .6c.7.4 1.8.6 2.5.6s1.3.2 1.3.4.5.4 1 .4c.7 0 1.5.3 2 .6.4.3 1.1.6 1.6.6s1 .2 1.1.4c.2.2.8.4 1.4.4.6 0 1.3.2 1.4.4l1.3.6 2.6 1c.9.4 1.9.8 2.3.8.3 0 1.5.4 2.5 1 1 .5 2.2 1 2.6 1 .4 0 .9.1 1 .3a221 221 0 0 1 37.3 21.6l3.7 3.1c1.2 1 2.3 2 2.5 2 .1 0 1.1.7 2.2 1.7a9 9 0 0 0 2.3 1.8 442 442 0 0 1 22 21.9c0 .3.9 1.4 1.9 2.5a50.7 50.7 0 0 1 6.6 8.5c.5.5 1 1 1 1.3 0 .2.6 1.1 1.3 2a48 48 0 0 1 5.4 8l1.2 2a27 27 0 0 1 1.6 2.7l2.4 4a208 208 0 0 1 9.9 21c0 .4.1.6.4.6.2 0 .5.6.6 1.4.1.8.4 1.5.6 1.6.2.1.4.7.4 1.4 0 .6.2 1.3.6 1.6.3.2.5.8.5 1.2 0 .4.2.8.4 1 .3 0 .4.7.4 1.3 0 .7.2 1.3.4 1.4.3.2.4.7.4 1.2s.3 1.1.6 1.4c.4.3.6.9.6 1.3 0 .9.2 1.4 1.8 6.5.5 1.8 1 3.7 1 4.3 0 .5.2 1 .4 1.2.2.1.4 1 .4 1.8 0 .9.3 2.2.6 3 .3.8.6 2 .6 2.5 0 .6.2 1.3.4 1.4.2.1.4 1.2.4 2.3 0 1.1.2 2.8.6 3.6.3 1 .5 2.7.5 4a7 7 0 0 0 .4 2.8c.2.2.5 2.3.6 4.7l.6 11.3c.3 4.7.3 9.6 0 14.9l-.6 12c-.1 2.4-.4 4.4-.6 4.6a7 7 0 0 0-.4 2.8c0 1.3-.2 3.1-.5 4-.4.9-.6 2.3-.6 3.2 0 .9-.2 1.8-.4 2-.2.2-.4 1.1-.6 2.1-.3 2.9-1.2 7-1.5 7.4-.2.2-.3 1-.3 1.7 0 .8-.1 1.6-.3 1.8a18 18 0 0 0-1.7 5.5c0 .5-.2 1.1-.4 1.3-.2.1-.4.6-.4 1.1 0 .5-.2 1.2-.6 1.7-.3.4-.5 1.2-.6 1.8 0 .6-.1 1.2-.4 1.3-.2.1-.4.7-.4 1.1 0 .5-.4 1.8-1 2.9-.5 1-1 2.3-1 2.6 0 .4-.1.8-.3 1-.3 0-.4.5-.4.8 0 .6-.4 1.6-2.7 6.4a22.1 22.1 0 0 0-1.7 4.3l-2 4.1a88.5 88.5 0 0 1-4.8 9c-.6.8-1.4 2.4-1.9 3.4-.4 1-1 2-1.2 2a10 10 0 0 0-1.4 2.4 16 16 0 0 1-1.8 2.9l-.8 1a32.1 32.1 0 0 1-4.7 6.7c0 .4-3.4 5.3-4.2 5.9-.3.3-.6.7-.6 1 0 .2-.6 1-1.4 1.8l-3 3.4a340 340 0 0 1-25 24.6c-1 1-2 1.7-2.1 1.7-.2 0-1 .6-1.8 1.3-.8.8-2 1.8-3 2.4-.8.5-2 1.4-2.5 2-.5.6-1.1 1-1.3 1a47.1 47.1 0 0 1-7.8 5.1 105.7 105.7 0 0 1-9 5.4c-.6.5-3.8 2.2-7.1 3.8a1990.8 1990.8 0 0 0-11.9 5.6c-.3 0-1.3.4-2.3 1a9 9 0 0 1-2.5 1 9 9 0 0 0-2.5.9l-4 1.6-3 1a87.3 87.3 0 0 1-11.2 3.2c-.4 0-1 .2-1 .4-.2.2-.8.4-1.4.4-.6 0-1.5.3-2.2.6-.6.3-1.9.6-2.8.6-1 0-1.9.2-2 .4-.1.2-1 .4-1.9.4-1 0-2.4.2-3.2.6-1 .3-2.3.5-3 .5-.9 0-1.7.2-1.8.5-.1.2-1.4.4-2.8.4s-2.6.1-2.7.3c-.1.2-1.8.4-3.7.6l-7.8.6a200.8 200.8 0 0 1-58.7-5c-.4-.3-1.4-.5-2-.5-.8 0-1.4-.2-1.6-.4-.1-.2-.7-.4-1.4-.4-.6 0-1.2-.2-1.3-.3-.1-.2-1.1-.5-2.2-.7-1.1-.1-2-.4-2.2-.6-.2-.2-.7-.4-1.2-.4s-1-.2-1.2-.4c-.1-.2-.7-.4-1.2-.4s-1.4-.2-2-.6l-1.8-.6c-.4 0-.8-.1-1-.4 0-.2-.5-.4-1-.4-.4 0-1.6-.4-2.7-1-1-.5-2.2-1-2.6-1-.3 0-1.4-.4-2.4-1-1-.5-2-1-2.3-1a230.4 230.4 0 0 1-28-14.5 16 16 0 0 0-3.1-2.2 27.1 27.1 0 0 1-4.5-3 8 8 0 0 1-2.1-1.5 47.8 47.8 0 0 0-8.2-6.3 365.3 365.3 0 0 1-28-28 60.4 60.4 0 0 1-7.4-10.2 45.5 45.5 0 0 1-5.3-7.3c-.5-.6-.9-1.3-.9-1.5 0-.2-.7-1.6-1.6-3a60.7 60.7 0 0 1-4.5-7.9 142.3 142.3 0 0 1-9.3-19.6c-.2 0-.4-.3-.4-.7 0-.4-.3-1.2-.6-1.8l-.6-1.6c0-.3-.4-1.4-1-2.5a12 12 0 0 1-1-2.6c0-.5-.7-2.8-1.4-4.5-.3-.7-.6-1.5-.6-1.9 0-.3-.1-.7-.4-.8-.2-.2-.4-.7-.4-1.3 0-1.1-1-4.9-1.6-5.5-.2-.2-.3-1-.3-1.8s-.2-1.6-.4-1.7c-.3-.2-.4-.9-.4-1.6 0-.6-.2-1.8-.5-2.6-.7-2.3-1.2-4.8-1.4-7.3a9.7 9.7 0 0 0-.5-2.8 15 15 0 0 1-.6-3.6c-.1-1.7-.4-3.3-.6-3.5-.9-1-1.2-34-.5-42.7.6-5.8 1.4-11.7 1.8-12 .1-.3.3-1.4.3-2.7 0-1.2.2-2.4.4-2.5.2-.1.4-.8.4-1.4 0-.6.2-1.8.6-2.8.3-.9.6-2.1.6-2.7 0-.5.1-1.5.3-2.2a272.8 272.8 0 0 0 3.2-11c0-.5.3-1.4.6-2 .4-.7.6-1.5.6-2 0-.3.2-.7.4-.9.2-.1.4-.6.4-1.2 0-.5.4-1.8 1-2.8l1.4-3.5a48.4 48.4 0 0 1 3.2-8A167.2 167.2 0 0 1 37.6 98c.8-1.1 1.3-2.2 1.3-2.4 0-.2.5-.8 1-1.4.6-.6 1-1.3 1-1.6 0-.3.5-1 1-1.5.6-.5 1-1 1-1.3 0-.2.6-1 1.4-1.9a6 6 0 0 0 1.4-2c0-.3.4-1 1-1.5.5-.5 1-1.1 1-1.4a8 8 0 0 1 1.6-2.1l2.5-3.2c.5-.8 1.5-2 2.2-2.6a355.2 355.2 0 0 1 23.2-23.6 99.1 99.1 0 0 0 9.5-7.5 84.9 84.9 0 0 1 13.8-9.3c.8-.5 1.8-1.1 2.2-1.5l2.2-1.3 3-1.7a303.7 303.7 0 0 1 17.3-8.9c.1-.2.6-.3 1-.3s1.7-.5 2.7-1c1.1-.6 2.2-1 2.5-1a8 8 0 0 0 2.1-.8l3.8-1.4a30 30 0 0 0 2.8-1c.4-.2 1-.4 1.4-.4.4 0 1.1-.3 1.5-.6.5-.3 1.3-.6 1.9-.6.6 0 1.1-.2 1.3-.4.1-.2.7-.4 1.3-.4.6 0 1.6-.2 2.2-.6.6-.3 1.5-.6 2-.6.6 0 1-.1 1.2-.4.2-.2 1-.4 1.8-.4s1.6-.1 1.8-.3c0-.2 1.2-.5 2.5-.6 1.3-.2 2.5-.4 2.7-.7 0-.2 1-.3 2.1-.3 1 0 2-.2 2.2-.4 0-.2 1.1-.4 2.3-.6 3.2-.4 8.3-1.2 9-1.5a279 279 0 0 1 42-.7M188 16l-4.8.6a165.9 165.9 0 0 0-53.4 13.8l-3.6 1.5c-1.5.6-2.6 1.2-8.4 4.2a144 144 0 0 0-27.5 17.6 185.4 185.4 0 0 0-68.4 115c-2.2 13.9-3 35-1.6 45.7a278.5 278.5 0 0 0 4 25 199 199 0 0 0 26.4 60.5 195 195 0 0 0 12.9 17A201.8 201.8 0 0 0 95.4 346a171.2 171.2 0 0 0 33.5 19.2 196.4 196.4 0 0 1 6.4 2.5l1 .4 4.3 1.7a203.3 203.3 0 0 0 37.3 9l7.3.9c2.4.2 9.2.3 18.9.2a146 146 0 0 0 49.3-7 267.6 267.6 0 0 1 11.3-3.8l2.6-1c10.6-3.9 37-17.9 38-20.3 0-.1.4-.3.7-.3.3 0 .5-.1.5-.3a168.7 168.7 0 0 0 24-20.4 173.5 173.5 0 0 0 27.7-35.7 188.2 188.2 0 0 0 21.7-55.3A182.8 182.8 0 0 0 220.7 16.4c-3.4-.4-32.4-.9-32.7-.5m31.7 1.4c10 1 21.8 3.2 28.8 5.1a65.3 65.3 0 0 1 7.9 2.4l1.3.4 2.8 1a90.5 90.5 0 0 1 11 4.2 170.4 170.4 0 0 1 26 13.5 168.9 168.9 0 0 1 42.3 36.4 209.2 209.2 0 0 1 14.8 20.2 159.8 159.8 0 0 1 15.5 30.4 167.6 167.6 0 0 1 4.2 11.5 155.8 155.8 0 0 1 5.8 22.8l.8 4.7a193.3 193.3 0 0 1-4.2 75.3 150.3 150.3 0 0 1-9.5 26.8 206.2 206.2 0 0 1-11.5 21.8 197 197 0 0 1-36.9 42.8 107.7 107.7 0 0 1-10.3 8.1 216 216 0 0 1-18.7 11.9 177.2 177.2 0 0 1-88 22.6 178.8 178.8 0 0 1-73.7-15.3 215 215 0 0 1-33.3-19.2l-4.5-3.5a95 95 0 0 1-8.4-7 248.3 248.3 0 0 1-20.2-21L60 311a192.2 192.2 0 0 1-16-23.8 195.6 195.6 0 0 1-19.2-49.9c-4.2-16-5.4-42.4-2.9-62.8a197.2 197.2 0 0 1 13.8-49.2 187.4 187.4 0 0 1 8.9-17.8 205.5 205.5 0 0 1 20.2-28.6A222.8 222.8 0 0 1 90 55l2.6-2a174.4 174.4 0 0 1 13.8-9.5c0-.2.3-.3.5-.3s1.3-.6 2.4-1.4a188.3 188.3 0 0 1 45.7-19.3 103 103 0 0 1 9.5-2.2 135 135 0 0 1 20-2.9 61 61 0 0 0 5.4-.6c.7-.3 26.5.2 30 .6M36 159.3c-.3.5-.9 2.3-1.2 4l-1 5.2-1 6.2c-.3 2.3-.8 4.8-1 5.5-.2.8-.5 6.3-.6 12.3a164.4 164.4 0 0 0 14.7 75.1 166 166 0 0 0 16.3 28.7 175.2 175.2 0 0 0 57.6 51.6 140 140 0 0 0 18.6 8.7 86.6 86.6 0 0 1 6.2 2.4 100.7 100.7 0 0 0 11.5 3.6 4519.4 4519.4 0 0 1 12.9 3.2l5.1 1a195.5 195.5 0 0 0 60.3-1c2.2-.4 6.8-1.5 11.5-2.8a143.6 143.6 0 0 0 24.6-8.7 184.9 184.9 0 0 0 28.5-15.9 64.8 64.8 0 0 1 6.5-4.8 96.3 96.3 0 0 0 5.8-4.7l3.1-2.6a348.8 348.8 0 0 0 19.4-20 220 220 0 0 0 16.7-24.6 160 160 0 0 0 3.9-7.5 136 136 0 0 0 9.8-23.8l1-3.1.4-1.7a57.2 57.2 0 0 0 2.4-8.3 150 150 0 0 0 4.1-29.5 158.1 158.1 0 0 0-1.7-36.6c0-2.2-1-2.3-3.6-.7a317.7 317.7 0 0 1-100.1 33.9c-2.2.4-14.1 1.8-21.6 2.4a359 359 0 0 1-67.8-2.4 308.5 308.5 0 0 1-63.2-16.3A9404.7 9404.7 0 0 0 78.8 175a627.5 627.5 0 0 1-27.2-10.3l-7.1-2.8-5-2.1-3-1.2-.5.8m334 14.5c1 7.4 1.1 9.2 1.6 16.6a183 183 0 0 1-6.8 55.6c-1.4 4.8-5.3 15.8-7 19.3a170 170 0 0 1-129.2 100.9c-14 2.5-47.6 2.2-55.8-.5-.7-.2-1.7-.3-2.3-.3-.6 0-1.5-.2-2-.4s-1.9-.6-3.1-.8a188 188 0 0 1-33.3-11 171.2 171.2 0 0 1-99.7-139.7c-1.1-11.5-.8-32.6.6-34.3.5-.6 1.4-.8 1.6-.2A146.3 146.3 0 0 0 54 191c1.4 1 16.3 8.5 19.6 10a368.2 368.2 0 0 0 29.8 11.2 278.6 278.6 0 0 0 115.5 10.2 306 306 0 0 0 52.6-12.1l7-2.5c2.7-.9 4-1.4 7.6-3a83.8 83.8 0 0 1 7.3-3 111.8 111.8 0 0 1 17.7-7.1 226.8 226.8 0 0 0 21.1-7.3 305.4 305.4 0 0 0 34.4-16c2.6-1.7 2.8-1.6 3.3 2.4"
       id="path6" />
  </g>
  <g
     aria-label="epic"
     style="font-weight:400;font-size:40px;line-height:1.25;font-family:sans-serif;letter-spacing:0;word-spacing:0"
     id="text12">
    <path
       d="m 118.2542,103.42265 q -6.9644,-6.508787 -16.46723,-7.745457 -11.911089,-1.56211 -21.283745,5.988087 -9.307569,7.48511 -10.348975,19.52637 -0.715967,9.37265 3.970361,17.76899 z m 10.2188,25.70972 8.72178,0.13018 q -0.32544,3.12421 -1.23667,6.24843 -3.31948,11.58565 -12.75723,19.20093 -12.3667,9.95845 -27.922704,8.26616 -15.556006,-1.69228 -25.579541,-14.18916 -10.088624,-12.56196 -8.461426,-28.05288 1.692285,-15.55601 14.124072,-25.514453 12.431788,-10.023535 27.922709,-8.266162 15.556,1.692285 25.64463,14.189165 1.10649,1.36684 2.01772,2.86386 l -51.549609,41.52608 q 7.159668,7.35493 17.443555,8.65669 11.976174,1.49702 21.413914,-6.11826 6.76914,-5.4023 9.11231,-12.88741 0.91123,-2.92895 1.10649,-6.05317 z"
       style="font-size:133.30000305px;font-family:'Epic Fusion';-inkscape-font-specification:'Epic Fusion'"
       id="path821" />
    <path
       d="m 153.98745,124.25078 q 0,-7.94073 3.05913,-14.90513 3.12422,-6.9644 8.46143,-12.171436 5.33721,-5.207031 12.43179,-8.201074 7.09458,-2.994043 15.10039,-2.994043 16.33706,0 27.20674,11.064941 10.93476,11.064942 10.93476,27.141652 0,16.07671 -10.93476,27.07656 -10.86968,11.06494 -26.75113,11.06494 -16.53232,0 -27.46709,-11.13003 l -2.6686,-2.99404 v 38.07642 h -9.37266 z m 38.40186,29.81025 q 12.43179,0 20.89321,-8.65669 8.52651,-8.72178 8.52651,-21.34883 0,-12.62705 -8.52651,-21.34882 -8.52651,-8.721782 -20.89321,-8.721782 -12.3667,0 -20.89322,8.721782 -8.52651,8.72177 -8.52651,21.28374 h 0.0651 q 0,12.62705 8.52651,21.34882 8.52652,8.72178 20.82813,8.72178 z"
       style="font-size:133.30000305px;font-family:'Epic Fusion';-inkscape-font-specification:'Epic Fusion'"
       id="path823" />
    <path
       d="m 248.88559,160.7 v -72.96353 0 h 4.68633 4.68633 v 0 72.96353 0 h -4.68633 z m 0.0651,-91.123052 h 9.24248 v 9.242481 h -9.24248 z"
       style="font-size:133.30000305px;font-family:'Epic Fusion';-inkscape-font-specification:'Epic Fusion'"
       id="path825" />
    <path
       d="m 331.6774,148.3333 6.70405,5.72773 q -1.56211,1.23667 -3.25439,2.27808 -9.50284,6.05317 -21.47901,6.05317 -16.59741,0 -28.11797,-11.06494 -11.45547,-11.06494 -11.45547,-27.07656 0,-16.07671 11.45547,-27.141654 11.52056,-11.064941 28.11797,-11.064941 11.846,0 21.34883,6.248437 1.69229,1.106495 3.18931,2.408252 l -6.57388,5.857906 q -1.49702,-1.171577 -3.18931,-2.147896 -6.83422,-4.100537 -14.77495,-4.100537 -12.69214,0 -21.479,8.721773 -8.72178,8.65669 -8.72178,21.21866 0,12.56196 8.72178,21.21865 8.78686,8.65669 21.479,8.65669 8.13599,0 14.97022,-3.84019 1.62719,-0.91123 3.05913,-1.95263 z"
       style="font-size:133.30000305px;font-family:'Epic Fusion';-inkscape-font-specification:'Epic Fusion'"
       id="path827" />
  </g>
  <g
     aria-label="consulting"
     style="font-weight:400;font-size:40px;line-height:1.25;font-family:sans-serif;letter-spacing:0;word-spacing:0"
     id="text16">
    <path
       d="m 101.825,266.14999 2.575,2.2 q -0.6,0.475 -1.25,0.875 -3.650001,2.325 -8.250001,2.325 -6.375,0 -10.8,-4.25 -4.4,-4.25 -4.4,-10.4 0,-6.175 4.4,-10.425 4.425,-4.25 10.8,-4.25 4.55,0 8.200001,2.4 0.65,0.425 1.225,0.925 l -2.525,2.25 q -0.575,-0.45 -1.225,-0.825 -2.625001,-1.575 -5.675001,-1.575 -4.875,0 -8.25,3.35 -3.35,3.325 -3.35,8.15 0,4.825 3.35,8.15 3.375,3.325 8.25,3.325 3.125,0 5.750001,-1.475 0.625,-0.35 1.175,-0.75 z"
       style="font-size:51.20000076px;line-height:5.25;font-family:'Epic Fusion';-inkscape-font-specification:'Epic Fusion'"
       id="path830" />
    <path
       d="m 124.175,271.54999 q -6.125,0 -10.375,-4.25 -4.25,-4.25 -4.25,-10.4 0,-6.175 4.25,-10.425 4.25,-4.25 10.375,-4.25 6.175,0 10.4,4.25 4.25,4.25 4.25,10.425 0,6.15 -4.25,10.4 -4.225,4.25 -10.4,4.25 z m 0,-3.175 q 4.65,0 7.85,-3.325 3.2,-3.325 3.2,-8.15 0,-4.825 -3.2,-8.15 -3.2,-3.35 -7.85,-3.35 -4.625,0 -7.825,3.35 -3.2,3.325 -3.2,8.15 0,4.825 3.2,8.15 3.2,3.325 7.825,3.325 z"
       style="font-size:51.20000076px;line-height:5.25;font-family:'Epic Fusion';-inkscape-font-specification:'Epic Fusion'"
       id="path832" />
    <path
       d="m 157.35,242.14999 q 5.8,0 9.05,3.575 3.25,3.575 3.25,9.95 v 15.225 h -1.8 -1.8 v -15.325 q 0,-4.775 -2.3,-7.475 -2.3,-2.7 -6.4,-2.7 -4.2,0 -6.475,2.75 -2.25,2.725 -2.25,7.8 v 14.95 h -1.8 -1.8 v -14.7 q 0,-3.025 0.75,-5.6 0.75,-2.575 2.275,-4.45 1.525,-1.875 3.825,-2.925 2.325,-1.075 5.475,-1.075 z"
       style="font-size:51.20000076px;line-height:5.25;font-family:'Epic Fusion';-inkscape-font-specification:'Epic Fusion'"
       id="path834" />
    <path
       d="m 187.225,249.79999 q 0.025,-1.925 -1.15,-3.15 -1.175,-1.25 -3.05,-1.25 -1.925,0 -3.05,1.175 -1.125,1.175 -1.125,3.2 0,1.6 1.15,2.625 1.15,1.025 3.975,1.95 4.175,1.35 6.025,3.475 1.85,2.1 1.85,5.5 0,3.525 -2.5,5.875 -2.475,2.35 -6.225,2.35 -4,0 -6.35,-2.4 -2.35,-2.425 -2.35,-6.525 v 0 h 3.625 v 0 q -0.05,2.7 1.3,4.225 1.35,1.525 3.775,1.525 2.325,0 3.7,-1.3 1.375,-1.3 1.375,-3.5 0,-2.2 -1.325,-3.55 -1.325,-1.325 -4.55,-2.375 -3.775,-1.225 -5.45,-3.025 -1.675,-1.8 -1.675,-4.625 0,-3.35 2.225,-5.55 2.225,-2.225 5.6,-2.225 3.525,0 5.675,2.1 2.15,2.075 2.15,5.475 v 0 z"
       style="font-size:51.20000076px;line-height:5.25;font-family:'Epic Fusion';-inkscape-font-specification:'Epic Fusion'"
       id="path836" />
    <path
       d="m 201.575,242.87499 v 16.625 q 0,4.175 2.225,6.525 2.225,2.325 6.175,2.325 4.275,0 6.6,-2.75 2.325,-2.75 2.325,-7.85 v 0 -14.875 0 h 1.8 1.8 v 0 28.025 0 h -1.675 -1.7 v 0 -4.5 0 0 q -0.425,0.775 -1,1.5 -2.9,3.65 -8.05,3.65 -5.7,0 -8.9,-3.175 -3.2,-3.175 -3.2,-8.8 v -16.7 0 h 1.8 z"
       style="font-size:51.20000076px;line-height:5.25;font-family:'Epic Fusion';-inkscape-font-specification:'Epic Fusion'"
       id="path838" />
    <path
       d="m 228.525,270.89999 v -37.875 0 h 1.8 1.8 v 0 37.875 0 h -1.8 z"
       style="font-size:51.20000076px;line-height:5.25;font-family:'Epic Fusion';-inkscape-font-specification:'Epic Fusion'"
       id="path840" />
    <path
       d="m 242.975,270.89999 v -24.8 0 h -5.95 v -3.225 h 5.95 v 0 -9.8 h 3.6 v 9.8 0 h 6.625 v 3.225 h -6.625 v 0 24.8 z"
       style="font-size:51.20000076px;line-height:5.25;font-family:'Epic Fusion';-inkscape-font-specification:'Epic Fusion'"
       id="path842" />
    <path
       d="m 257.625,270.89999 v -28.025 0 h 1.8 1.8 v 0 28.025 0 h -1.8 z m 0.025,-35 h 3.55 v 3.55 h -3.55 z"
       style="font-size:51.20000076px;line-height:5.25;font-family:'Epic Fusion';-inkscape-font-specification:'Epic Fusion'"
       id="path844" />
    <path
       d="m 280.85,242.14999 q 5.8,0 9.05,3.575 3.25,3.575 3.25,9.95 v 15.225 h -1.8 -1.8 v -15.325 q 0,-4.775 -2.3,-7.475 -2.3,-2.7 -6.4,-2.7 -4.2,0 -6.475,2.75 -2.25,2.725 -2.25,7.8 v 14.95 h -1.8 -1.8 v -14.7 q 0,-3.025 0.75,-5.6 0.75,-2.575 2.275,-4.45 1.525,-1.875 3.825,-2.925 2.325,-1.075 5.475,-1.075 z"
       style="font-size:51.20000076px;line-height:5.25;font-family:'Epic Fusion';-inkscape-font-specification:'Epic Fusion'"
       id="path846" />
    <path
       d="m 313.225,245.29999 q -4.625,0 -7.825,3.35 -3.2,3.35 -3.2,8.2 0,4.85 3.2,8.2 3.2,3.325 7.825,3.325 4.65,0 7.85,-3.35 3.2,-3.35 3.2,-8.2 0,-4.85 -3.2,-8.175 -3.2,-3.35 -7.85,-3.35 z m 5.15,-2.075 q 1.675,0.65 3.125,1.65 1.45,1 2.625,2.35 1.70001,1.95 2.65001,4.425 0.95,2.45 0.95,5.25 v 10.4 q 0,6.975 -3.65001,10.75 -3.625,3.775 -10.325,3.775 -5.35,0 -9.05,-2.7 -3.7,-2.675 -4.925,-7.425 h 3.825 q 1.225,3.275 3.925,5.1 2.7,1.85 6.25,1.85 5.075,0 7.7,-2.8 2.65,-2.775 2.65,-8.125 v -1.55 l -0.95,1.1 q -4.125,4.275 -10.4,4.275 -5.95,0 -10.075,-4.25 -4.1,-4.25 -4.1,-10.4 0,-6.175 4.125,-10.425 4.125,-4.25 10.075,-4.25 3.05,0 5.575,1 z"
       style="font-size:51.20000076px;line-height:5.25;font-family:'Epic Fusion';-inkscape-font-specification:'Epic Fusion'"
       id="path848" />
  </g>
</svg>
