<?xml version="1.0" encoding="UTF-8" standalone="no"?>
<svg
   xmlns:dc="http://purl.org/dc/elements/1.1/"
   xmlns:cc="http://creativecommons.org/ns#"
   xmlns:rdf="http://www.w3.org/1999/02/22-rdf-syntax-ns#"
   xmlns:svg="http://www.w3.org/2000/svg"
   xmlns="http://www.w3.org/2000/svg"
   xmlns:xlink="http://www.w3.org/1999/xlink"
   xmlns:sodipodi="http://sodipodi.sourceforge.net/DTD/sodipodi-0.dtd"
   xmlns:inkscape="http://www.inkscape.org/namespaces/inkscape"
   id="svg"
   version="1.1"
   width="214.16394"
   height="118.2555"
   style="display:block"
   inkscape:version="0.91 r13725"
   sodipodi:docname="fpfi-logo.svg">
  <metadata
     id="metadata10">
    <rdf:RDF>
      <cc:Work
         rdf:about="">
        <dc:format>image/svg+xml</dc:format>
        <dc:type
           rdf:resource="http://purl.org/dc/dcmitype/StillImage" />
        <dc:title></dc:title>
      </cc:Work>
    </rdf:RDF>
  </metadata>
  <defs
     id="defs8">
    <linearGradient
       inkscape:collect="always"
       id="linearGradient4255">
      <stop
         style="stop-color:#afd446;stop-opacity:1;"
         offset="0"
         id="stop4257" />
      <stop
         style="stop-color:#afd446;stop-opacity:0;"
         offset="1"
         id="stop4259" />
    </linearGradient>
    <linearGradient
       inkscape:collect="always"
       xlink:href="#linearGradient4255"
       id="linearGradient4261"
       x1="0.12628789"
       y1="59.027207"
       x2="117.95135"
       y2="59.027207"
       gradientUnits="userSpaceOnUse" />
  </defs>
  <sodipodi:namedview
     pagecolor="#ffffff"
     bordercolor="#666666"
     borderopacity="1"
     objecttolerance="10"
     gridtolerance="10"
     guidetolerance="10"
     inkscape:pageopacity="0"
     inkscape:pageshadow="2"
     inkscape:window-width="1366"
     inkscape:window-height="745"
     id="namedview6"
     showgrid="false"
     inkscape:zoom="1.84"
     inkscape:cx="17.730055"
     inkscape:cy="69.006854"
     inkscape:window-x="1358"
     inkscape:window-y="230"
     inkscape:window-maximized="1"
     inkscape:current-layer="svg"
     fit-margin-top="0"
     fit-margin-left="0"
     fit-margin-right="0"
     fit-margin-bottom="0" />
  <path
     sodipodi:nodetypes="ccccccccccccccccccccscccccccsccccccccccccccccscccccccccscscsccccccscscscccsccccccccccccccsccccccccccccsccscccccccccccccccccccccccccc"
     style="fill:#587f40;fill-opacity:1;fill-rule:evenodd;stroke:none"
     inkscape:connector-curvature="0"
     d="m 53.060056,0.29841114 c -0.068,0.068 -1.217,0.26 -2.552,0.426 -1.336,0.166 -3.407,0.55899996 -4.602,0.87399996 -1.195,0.314 -2.675,0.683 -3.29,0.819 -0.614,0.136 -1.808,0.513 -2.653,0.838 -0.845,0.326 -1.851,0.694 -2.235,0.82 -17.455,5.704 -34.4659998,26.2509969 -36.89299985,44.5619969 -0.122,0.922 -0.358,2.283 -0.525,3.024 -0.471,2.092 -0.385,13.325 0.12,15.691 0.229,1.076 0.419,2.372 0.422,2.881 0.002,0.509 0.20100005,1.577 0.44000005,2.374 0.24,0.797 0.568,1.952 0.729,2.567 0.953,3.64 3.804,10.359 5.808,13.687 0.463,0.768 0.926,1.585 1.029,1.815 0.971,2.163 6.6339998,8.771 11.5089998,13.431002 3.614,3.454 12.076,8.366 18.478,10.727 0.538,0.198 1.481,0.547 2.095,0.776 1.079,0.4 2.691,0.838 5.028,1.364 9.91,2.231 23.814,1.483 32.263,-1.737 0.845,-0.322 1.788,-0.653 2.095,-0.735 4.011,-1.071 13.371,-6.752 18.133,-11.006 6.590004,-5.887002 13.832004,-16.223002 15.818004,-22.574002 0.123,-0.396 0.498,-1.412 0.831,-2.257 0.334,-0.845 0.702,-1.976 0.818,-2.514 0.116,-0.537 0.355,-1.512 0.532,-2.165 0.789,-2.921 0.935,-3.599 1.176,-5.477 1.187,-9.241 0.765,-17.286 -1.287,-24.481 -0.197,-0.691 -0.42,-1.571 -0.494,-1.955 -0.075,-0.384 -0.41,-1.39 -0.744,-2.235 -0.334,-0.845 -0.706,-1.852 -0.828,-2.239 -4.038,-12.891997 -20.715004,-29.4359969 -33.798004,-33.5279969 -0.394,-0.124 -1.407,-0.49 -2.252,-0.816 -0.845,-0.325 -2.039,-0.703 -2.654,-0.839 -0.614,-0.137 -2.123,-0.496 -3.352,-0.799 -4.806,-1.18499996 -18.365,-2.11899996 -19.165,-1.31899996 m 1.568,58.95399686 0,50.279002 -1.813,-0.096 c -8.474,-0.452 -19.429,-5.387 -27.324,-12.310002 l -1.724,-1.512 -0.073,-13.851 -0.072,-13.851 -4.05,0 -4.051,0 -0.074,8.031 c -0.041,4.417 -0.152,8.03 -0.248,8.03 -0.775,0 -3.879,-6.93 -4.942,-11.033 -2.5709998,-9.921 -2.5709998,-17.453 0,-27.374 2.505,-9.668 9.656,-20.157997 18.119,-26.579997 4.973,-3.773 11.924,-7.264 16.894,-8.482 4.81,-1.1799999 7.47,-1.6529999 8.799,-1.5669999 0.556,0.036 0.559,0.235 0.559,50.3159969 m 14.804,-49.5579969 c 4.007,0.9089999 4.723,1.1049999 6.704,1.8349999 7.324,2.702 13.315,6.541 18.874,12.093 2.532,2.529 6.964004,7.967997 6.964004,8.545997 0,0.103 0.351,0.708 0.781,1.345 0.82,1.216 3.409,6.416 3.409,6.848 0,0.138 0.188,0.612 0.417,1.052 0.23,0.44 0.418,0.995 0.419,1.233 10e-4,0.238 0.114,0.552 0.252,0.698 0.137,0.146 0.38,0.831 0.54,1.522 0.16,0.692 0.55,2.381 0.867,3.754 1.46,6.328 1.421,15.768 -0.09,21.805 -0.231,0.922 -0.565,2.304 -0.743,3.073 -0.179,0.768 -0.437,1.516 -0.574,1.662 -0.138,0.146 -0.251,0.46 -0.252,0.698 -0.001,0.238 -0.189,0.793 -0.419,1.233 -0.229,0.44 -0.417,0.909 -0.417,1.042 0,0.766 -2.928,6.241 -3.123,5.839 -0.037,-0.076 -1.20864,-3.83474 -0.218,-8.1 l -0.151,-7.961 -3.732004,-0.078 c -2.514,-0.053 -3.859,0.027 -4.12,0.244 -0.321,0.266 -2.02623,2.77133 -0.388,13.863 l 0,13.541 -1.187,1.185 c -4.552,4.542002 -13.98,9.801002 -20.321,11.333002 -4.289,1.037 -5.933,1.35 -7.545,1.436 l -1.813,0.096 -0.071,-50.123002 c -0.056,-39.914997 0.001,-50.1669969 0.28,-50.3409969 0.448,-0.281 2.813,-0.019 5.657,0.627 m -24.312,12.3369999 c -0.074,0.192 -0.101,16.815997 -0.062,36.940997 l 0.072,36.593 3.492,0.08 c 1.92,0.045 3.774,0.011 4.12,-0.075 l 0.629,-0.156 0,-36.531 c 0,-28.04 -0.078,-36.608997 -0.336,-36.865997 -0.481,-0.481 -7.732,-0.469 -7.915,0.014 m 20.029,-0.105 c -0.544,0.345 -0.534,73.191997 0.01,73.543997 0.199,0.129 2.059,0.203 4.133,0.165 l 3.771,-0.07 0.071,-36.715 c 0.056,-29.186997 -0.001,-36.759997 -0.279,-36.936997 -0.469,-0.298 -7.233,-0.286 -7.706,0.013 m -30.005,15.747997 c -0.106,0.51 -0.07,53.352 0.039,56.983 l 0.031,1.047 3.855,0 c 2.626,0 3.961,-0.107 4.19,-0.335 0.355,-0.355 0.509,-56.388 0.159,-57.695 -0.165,-0.615 -0.257,-0.629 -4.156,-0.629 -3.91,0 -3.99,0.012 -4.118,0.629 m 39.745,-0.089 c -0.49,0.915 -0.394,57.406 0.098,57.814 0.262,0.217 1.643,0.296 4.26,0.244 l 3.872,-0.078 0.077,-28.632 c 0.042,-15.747 0.008,-28.914 -0.075,-29.259 -0.22,-0.91 -7.75,-0.991 -8.232,-0.089 m -49.599,15.165 c -0.075,0.196 -0.104,9.91 -0.064,21.586 l 0.072,21.229 4.05,0 4.05,0 0,-21.509 0,-21.508 -3.986,-0.078 c -3.035,-0.059 -4.019,0.008 -4.122,0.28 m 59.497,0 c -0.075,0.196 -0.104,9.91 -0.064,21.586 l 0.072,21.229 4.05,0 4.051,0 0,-21.509 0,-21.508 -3.987,-0.078 c -3.035,-0.059 -4.018,0.008 -4.122,0.28"
     id="path1" />
  <text
     xml:space="preserve"
     style="font-style:normal;font-weight:normal;font-size:40px;line-height:125%;font-family:sans-serif;letter-spacing:0px;word-spacing:0px;fill:#4f4f4f;fill-opacity:0.30980393;stroke:none;stroke-width:1px;stroke-linecap:butt;stroke-linejoin:miter;stroke-opacity:1;"
     x="123.11967"
     y="89.233582"
     id="text3338"
     sodipodi:linespacing="125%"><tspan
       sodipodi:role="line"
       id="tspan3340"
       x="123.11967"
       y="89.233582"
       style="font-style:normal;font-variant:normal;font-weight:normal;font-stretch:normal;font-size:125px;font-family:Deutschlander;-inkscape-font-specification:Deutschlander;fill:#4f4f4f;fill-opacity:0.30980393;">FPFI</tspan></text>
  <text
     xml:space="preserve"
     style="font-style:normal;font-weight:normal;font-size:40px;line-height:125%;font-family:sans-serif;letter-spacing:0px;word-spacing:0px;fill:#587f40;fill-opacity:1;stroke:none;stroke-width:1px;stroke-linecap:butt;stroke-linejoin:miter;stroke-opacity:1"
     x="119.31531"
     y="116.95096"
     id="text3337"
     sodipodi:linespacing="125%"><tspan
       sodipodi:role="line"
       x="119.31531"
       y="116.95096"
       style="font-style:normal;font-variant:normal;font-weight:normal;font-stretch:normal;font-size:30px;font-family:Deutschlander;-inkscape-font-specification:Deutschlander;fill:#587f40;fill-opacity:1"
       id="tspan3341">FOREST FORECAST</tspan></text>
  <path
     style="fill:#4f4f4f;fill-opacity:0.30980393"
     d="m 123.08602,48.212008 0,-40.7608719 10.05435,0 10.05435,0 0,4.8709099 0,4.870909 -5.02718,0.156265 -5.02717,0.156264 0,12.771734 0,12.77174 3.39674,0.16181 3.39674,0.1618 0,4.83944 0,4.83943 -3.39674,0.16181 -3.39674,0.1618 -0.1433,17.79891 -0.14329,17.79892 -4.88388,0 -4.88388,0 0,-40.76087 z"
     id="path4164"
     inkscape:connector-curvature="0" />
  <path
     style="fill:#4f4f4f;fill-opacity:0.30980393"
     d="m 146.99907,48.168838 0,-40.8040289 10.01605,0.179033 c 11.15444,0.199381 11.87563,0.418858 14.16873,4.3119299 1.03869,1.763417 1.08695,2.822804 1.08695,23.856236 0,21.1386 -0.0442,22.09504 -1.11439,24.13498 -1.66205,3.16797 -3.8934,4.12589 -9.61082,4.12589 l -4.76392,0 0,12.5 0,12.5 -4.8913,0 -4.8913,0 0,-40.80404 z m 14.80978,4.32915 c 0.85741,-1.03271 0.95108,-2.69189 0.95108,-16.84619 0,-14.976025 -0.0502,-15.750829 -1.08695,-16.787619 -0.67288,-0.672877 -1.8116,-1.086956 -2.98913,-1.086956 l -1.90218,0 0,17.844205 c 0,9.81431 0.18173,18.02593 0.40384,18.24803 0.69605,0.69605 3.62915,-0.17403 4.62334,-1.37147 z"
     id="path4166"
     inkscape:connector-curvature="0" />
  <path
     style="fill:#4f4f4f;fill-opacity:0.30980393"
     d="m 176.34689,48.212008 0,-40.7608719 9.78261,0 9.78261,0 0,4.8913039 0,4.891305 -4.89131,0 -4.8913,0 0,13.043473 0,13.04348 3.26087,0 3.26087,0 0,4.89131 0,4.8913 -3.26087,0 -3.26087,0 0,17.93478 0,17.93479 -4.8913,0 -4.89131,0 0,-40.76087 z"
     id="path4168"
     inkscape:connector-curvature="0" />
  <path
     style="fill:#4f4f4f;fill-opacity:0.30980393"
     d="m 199.71646,48.212008 0,-40.7608719 4.8913,0 4.89131,0 0,40.7608719 0,40.76087 -4.89131,0 -4.8913,0 0,-40.76087 z"
     id="path4170"
     inkscape:connector-curvature="0" />
  <path
     style="fill:#66994a;fill-opacity:1"
     d="m 147.36934,48.092237 0,-40.8303229 9.375,0.3830268 c 15.58101,0.6365808 15.02853,-0.1366725 15.4262,21.5905811 0.16043,8.765371 0.07,19.190242 -0.20107,23.166379 -0.47918,7.030181 -0.53793,7.274507 -2.13232,8.868898 -1.91458,1.914582 -4.47323,2.620816 -9.5602,2.638794 l -3.66848,0.01297 0,12.5 0,12.5 -4.61957,0 -4.61956,0 0,-40.830323 z m 13.96426,4.736104 1.52487,-1.311611 0,-15.85592 0,-15.85592 -1.28303,-1.038991 c -0.70567,-0.571445 -2.11192,-1.038991 -3.125,-1.038991 l -1.84197,0 0,17.844203 c 0,9.814312 0.16304,18.007247 0.36232,18.206522 0.76953,0.769532 2.90462,0.304965 4.36281,-0.949292 z"
     id="path4141"
     inkscape:connector-curvature="0" />
  <path
     style="fill:#66994a;fill-opacity:1"
     d="m 176.71717,48.161691 0,-40.7608698 9.51087,0 9.51086,0 0,4.8913048 0,4.891304 -4.8913,0 -4.8913,0 0,13.043478 0,13.043478 3.26087,0 3.26087,0 0,4.891305 0,4.891304 -3.26087,0 -3.26087,0 0,17.934783 0,17.934782 -4.61957,0 -4.61956,0 0,-40.760869 z"
     id="path4143"
     inkscape:connector-curvature="0" />
  <path
     style="fill:#66994a;fill-opacity:1"
     d="m 200.08673,48.161691 0,-40.7608698 4.61957,0 4.61956,0 0,40.7608698 0,40.760869 -4.61956,0 -4.61957,0 0,-40.760869 z"
     id="path4145"
     inkscape:connector-curvature="0" />
  <path
     style="fill:#66994a;fill-opacity:1"
     d="m 123.4563,48.161691 0,-40.7608698 9.7826,0 9.78261,0 0,4.8913048 0,4.891304 -4.8913,0 -4.89131,0 0,13.043478 0,13.043478 3.26087,0 3.26087,0 0,4.891305 0,4.891304 -3.18112,0 -3.18112,0 -0.35149,4.158086 c -0.19331,2.286947 -0.35148,10.357599 -0.35148,17.934784 l 0,13.776695 -4.61957,0 -4.61956,0 0,-40.760869 z"
     id="path4147"
     inkscape:connector-curvature="0" />
  <path
     style="fill:#5ba92f;fill-opacity:0"
     d="M 46.825861,116.91484 C 35.4886,114.38149 25.422237,108.75625 17.414943,100.47955 10.850662,93.694414 9.9741407,92.504028 6.7041276,85.93343 0.73895598,73.947316 -1.1136626,62.383908 0.92106272,49.83752 3.0300296,36.833348 8.82212,26.236438 19.293629,16.224018 26.327642,9.4983892 31.844617,6.2161913 41.337566,3.1094838 57.003329,-2.0173684 77.100003,0.54953938 90.436742,9.3808234 95.202753,12.536764 103.56867,20.496172 107.20639,25.335604 c 11.55426,15.371205 14.02837,37.89306 6.26225,57.005592 -1.7215,4.236636 -6.29532,11.227968 -10.61657,16.228017 -6.466404,7.482167 -17.393361,14.367957 -27.4936,17.325507 -4.343424,1.27185 -6.0175,1.4534 -14.945652,1.62088 -7.398034,0.13878 -10.987647,-0.0199 -13.586957,-0.60076 z M 54.855807,59.348104 C 54.773573,31.723461 54.561443,8.9767044 54.384399,8.7997582 53.814677,8.2303549 45.051069,10.161512 40.842862,11.783784 28.323315,16.610093 17.193835,27.449569 12.035457,39.840546 7.0669195,51.775511 7.0582325,66.177011 12.01208,78.596473 c 0.655764,1.644022 1.590697,3.600544 2.077629,4.347826 l 0.885331,1.358696 0.382106,-1.358696 c 0.210159,-0.747282 0.406485,-4.354619 0.436281,-8.016304 l 0.05417,-6.657609 3.804348,0 3.804348,0 0,13.743609 0,13.743609 2.309783,1.913027 c 5.374902,4.451659 12.058717,8.154859 18.342391,10.162689 4.639897,1.4826 5.240405,1.604 8.301683,1.67837 l 2.595159,0.063 -0.149505,-50.226626 z M 71.651861,108.5013 c 6.963354,-1.66946 14.540087,-5.56175 20.501076,-10.531756 l 2.664038,-2.221147 -0.350891,-12.516179 c -0.192989,-6.883897 -0.201592,-13.066451 -0.01913,-13.739005 0.303201,-1.117549 0.653826,-1.222827 4.072723,-1.222827 l 3.740963,0 0.10149,2.581522 c 0.0558,1.419837 0.0306,4.449326 -0.0561,6.732196 -0.16662,4.389282 0.23862,6.671652 1.09101,6.144842 0.95479,-0.590092 3.18865,-5.582543 4.65353,-10.400152 1.30531,-4.292842 1.46019,-5.683777 1.50123,-13.482321 0.0294,-5.585016 -0.21538,-9.764932 -0.68427,-11.684782 C 104.86956,31.792226 93.70672,18.608007 78.476834,12.26779 73.424367,10.164444 64.769584,8.2614951 63.955872,9.0750305 63.589769,9.4410549 63.353041,26.573663 63.257715,59.601789 l -0.144218,49.972941 2.046397,-0.004 c 1.125522,-0.002 4.046908,-0.48342 6.491967,-1.06963 l 0,0 z"
     id="path4149"
     inkscape:connector-curvature="0" />
  <path
     style="fill:#5ba92f;fill-opacity:0"
     d="M 46.825861,116.91484 C 35.4886,114.38149 25.422237,108.75625 17.414943,100.47955 10.850662,93.694414 9.9741407,92.504028 6.7041276,85.93343 0.73895598,73.947316 -1.1136626,62.383908 0.92106272,49.83752 3.0300296,36.833348 8.82212,26.236438 19.293629,16.224018 26.327642,9.4983892 31.844617,6.2161913 41.337566,3.1094838 57.003329,-2.0173684 77.100003,0.54953938 90.436742,9.3808234 95.202753,12.536764 103.56867,20.496172 107.20639,25.335604 c 11.55426,15.371205 14.02837,37.89306 6.26225,57.005592 -1.7215,4.236636 -6.29532,11.227968 -10.61657,16.228017 -6.466404,7.482167 -17.393361,14.367957 -27.4936,17.325507 -4.343424,1.27185 -6.0175,1.4534 -14.945652,1.62088 -7.398034,0.13878 -10.987647,-0.0199 -13.586957,-0.60076 z M 54.855807,59.348104 C 54.773573,31.723461 54.561443,8.9767044 54.384399,8.7997582 53.814677,8.2303549 45.051069,10.161512 40.842862,11.783784 28.323315,16.610093 17.193835,27.449569 12.035457,39.840546 7.0669195,51.775511 7.0582325,66.177011 12.01208,78.596473 c 0.655764,1.644022 1.590697,3.600544 2.077629,4.347826 l 0.885331,1.358696 0.382106,-1.358696 c 0.210159,-0.747282 0.406485,-4.354619 0.436281,-8.016304 l 0.05417,-6.657609 3.804348,0 3.804348,0 0,13.743609 0,13.743609 2.309783,1.913027 c 5.374902,4.451659 12.058717,8.154859 18.342391,10.162689 4.639897,1.4826 5.240405,1.604 8.301683,1.67837 l 2.595159,0.063 -0.149505,-50.226626 z M 71.651861,108.5013 c 6.963354,-1.66946 14.540087,-5.56175 20.501076,-10.531756 l 2.664038,-2.221147 -0.350891,-12.516179 c -0.192989,-6.883897 -0.201592,-13.066451 -0.01913,-13.739005 0.303201,-1.117549 0.653826,-1.222827 4.072723,-1.222827 l 3.740963,0 0.10149,2.581522 c 0.0558,1.419837 0.0306,4.449326 -0.0561,6.732196 -0.16662,4.389282 0.23862,6.671652 1.09101,6.144842 0.95479,-0.590092 3.18865,-5.582543 4.65353,-10.400152 1.30531,-4.292842 1.46019,-5.683777 1.50123,-13.482321 0.0294,-5.585016 -0.21538,-9.764932 -0.68427,-11.684782 C 104.86956,31.792226 93.70672,18.608007 78.476834,12.26779 73.424367,10.164444 64.769584,8.2614951 63.955872,9.0750305 63.589769,9.4410549 63.353041,26.573663 63.257715,59.601789 l -0.144218,49.972941 2.046397,-0.004 c 1.125522,-0.002 4.046908,-0.48342 6.491967,-1.06963 l 0,0 z"
     id="path4151"
     inkscape:connector-curvature="0" />
  <path
     style="fill:#5ba92f;fill-opacity:0"
     d="M 46.825861,116.91484 C 35.4886,114.38149 25.422237,108.75625 17.414943,100.47955 10.850662,93.694414 9.9741407,92.504028 6.7041276,85.93343 0.73895598,73.947316 -1.1136626,62.383908 0.92106272,49.83752 3.0300296,36.833348 8.82212,26.236438 19.293629,16.224018 26.327642,9.4983892 31.844617,6.2161913 41.337566,3.1094838 57.003329,-2.0173684 77.100003,0.54953938 90.436742,9.3808234 95.202753,12.536764 103.56867,20.496172 107.20639,25.335604 c 11.55426,15.371205 14.02837,37.89306 6.26225,57.005592 -1.7215,4.236636 -6.29532,11.227968 -10.61657,16.228017 -6.466404,7.482167 -17.393361,14.367957 -27.4936,17.325507 -4.343424,1.27185 -6.0175,1.4534 -14.945652,1.62088 -7.398034,0.13878 -10.987647,-0.0199 -13.586957,-0.60076 z M 54.855807,59.348104 C 54.773573,31.723461 54.561443,8.9767044 54.384399,8.7997582 53.814677,8.2303549 45.051069,10.161512 40.842862,11.783784 28.323315,16.610093 17.193835,27.449569 12.035457,39.840546 7.0669195,51.775511 7.0582325,66.177011 12.01208,78.596473 c 0.655764,1.644022 1.590697,3.600544 2.077629,4.347826 l 0.885331,1.358696 0.382106,-1.358696 c 0.210159,-0.747282 0.406485,-4.354619 0.436281,-8.016304 l 0.05417,-6.657609 3.804348,0 3.804348,0 0,13.743609 0,13.743609 2.309783,1.913027 c 5.374902,4.451659 12.058717,8.154859 18.342391,10.162689 4.639897,1.4826 5.240405,1.604 8.301683,1.67837 l 2.595159,0.063 -0.149505,-50.226626 z M 71.651861,108.5013 c 6.963354,-1.66946 14.540087,-5.56175 20.501076,-10.531756 l 2.664038,-2.221147 -0.350891,-12.516179 c -0.192989,-6.883897 -0.201592,-13.066451 -0.01913,-13.739005 0.303201,-1.117549 0.653826,-1.222827 4.072723,-1.222827 l 3.740963,0 0.10149,2.581522 c 0.0558,1.419837 0.0306,4.449326 -0.0561,6.732196 -0.16662,4.389282 0.23862,6.671652 1.09101,6.144842 0.95479,-0.590092 3.18865,-5.582543 4.65353,-10.400152 1.30531,-4.292842 1.46019,-5.683777 1.50123,-13.482321 0.0294,-5.585016 -0.21538,-9.764932 -0.68427,-11.684782 C 104.86956,31.792226 93.70672,18.608007 78.476834,12.26779 73.424367,10.164444 64.769584,8.2614951 63.955872,9.0750305 63.589769,9.4410549 63.353041,26.573663 63.257715,59.601789 l -0.144218,49.972941 2.046397,-0.004 c 1.125522,-0.002 4.046908,-0.48342 6.491967,-1.06963 l 0,0 z"
     id="path4153"
     inkscape:connector-curvature="0" />
  <path
     style="fill:#5ba92f;fill-opacity:0"
     d="M 46.825861,116.91484 C 35.4886,114.38149 25.422237,108.75625 17.414943,100.47955 10.850662,93.694414 9.9741407,92.504028 6.7041276,85.93343 0.73895598,73.947316 -1.1136626,62.383908 0.92106272,49.83752 3.0300296,36.833348 8.82212,26.236438 19.293629,16.224018 26.327642,9.4983892 31.844617,6.2161913 41.337566,3.1094838 57.003329,-2.0173684 77.100003,0.54953938 90.436742,9.3808234 95.202753,12.536764 103.56867,20.496172 107.20639,25.335604 c 11.55426,15.371205 14.02837,37.89306 6.26225,57.005592 -1.7215,4.236636 -6.29532,11.227968 -10.61657,16.228017 -6.466404,7.482167 -17.393361,14.367957 -27.4936,17.325507 -4.343424,1.27185 -6.0175,1.4534 -14.945652,1.62088 -7.398034,0.13878 -10.987647,-0.0199 -13.586957,-0.60076 z M 54.855807,59.348104 C 54.773573,31.723461 54.561443,8.9767044 54.384399,8.7997582 53.814677,8.2303549 45.051069,10.161512 40.842862,11.783784 28.323315,16.610093 17.193835,27.449569 12.035457,39.840546 7.0669195,51.775511 7.0582325,66.177011 12.01208,78.596473 c 0.655764,1.644022 1.590697,3.600544 2.077629,4.347826 l 0.885331,1.358696 0.382106,-1.358696 c 0.210159,-0.747282 0.406485,-4.354619 0.436281,-8.016304 l 0.05417,-6.657609 3.804348,0 3.804348,0 0,13.743609 0,13.743609 2.309783,1.913027 c 5.374902,4.451659 12.058717,8.154859 18.342391,10.162689 4.639897,1.4826 5.240405,1.604 8.301683,1.67837 l 2.595159,0.063 -0.149505,-50.226626 z M 71.651861,108.5013 c 6.963354,-1.66946 14.540087,-5.56175 20.501076,-10.531756 l 2.664038,-2.221147 -0.350891,-12.516179 c -0.192989,-6.883897 -0.201592,-13.066451 -0.01913,-13.739005 0.303201,-1.117549 0.653826,-1.222827 4.072723,-1.222827 l 3.740963,0 0.10149,2.581522 c 0.0558,1.419837 0.0306,4.449326 -0.0561,6.732196 -0.16662,4.389282 0.23862,6.671652 1.09101,6.144842 0.95479,-0.590092 3.18865,-5.582543 4.65353,-10.400152 1.30531,-4.292842 1.46019,-5.683777 1.50123,-13.482321 0.0294,-5.585016 -0.21538,-9.764932 -0.68427,-11.684782 C 104.86956,31.792226 93.70672,18.608007 78.476834,12.26779 73.424367,10.164444 64.769584,8.2614951 63.955872,9.0750305 63.589769,9.4410549 63.353041,26.573663 63.257715,59.601789 l -0.144218,49.972941 2.046397,-0.004 c 1.125522,-0.002 4.046908,-0.48342 6.491967,-1.06963 l 0,0 z"
     id="path4155"
     inkscape:connector-curvature="0" />
  <path
     style="fill:#5ba92f;fill-opacity:0"
     d="m 65.118173,76.900424 c -0.198991,-10.199127 -0.19905,-26.707279 -1.3e-4,-36.68478 l 0.361673,-18.14091 3.716551,0 3.716551,0 0,36.684783 0,36.684782 -3.716421,0 -3.716422,0 -0.361802,-18.543875 z"
     id="path4157"
     inkscape:connector-curvature="0" />
  <path
     style="fill:#5ba92f;fill-opacity:0"
     d="m 119.65195,107.12908 0,-9.510867 2.17391,0 c 2.38988,0 3.16774,1.413689 0.95109,1.728504 -1.08563,0.154184 -1.24126,0.529169 -1.38712,3.342123 -0.14574,2.81082 -0.0384,3.20137 0.95109,3.46012 1.42656,0.37305 1.44416,1.58259 0.0284,1.95281 -0.96658,0.25277 -1.08696,0.74131 -1.08696,4.41121 0,3.3061 -0.16215,4.12697 -0.81521,4.12697 -0.69359,0 -0.81522,-1.41908 -0.81522,-9.51087 z"
     id="path4159"
     inkscape:connector-curvature="0" />
  <path
     style="fill:#5ba92f;fill-opacity:0"
     d="M 46.825861,116.91484 C 35.4886,114.38149 25.422237,108.75625 17.414943,100.47955 10.850662,93.694414 9.9741407,92.504028 6.7041276,85.93343 0.73895598,73.947316 -1.1136626,62.383908 0.92106272,49.83752 3.0300296,36.833348 8.82212,26.236438 19.293629,16.224018 26.327642,9.4983892 31.844617,6.2161913 41.337566,3.1094838 57.003329,-2.0173684 77.100003,0.54953938 90.436742,9.3808234 95.202753,12.536764 103.56867,20.496172 107.20639,25.335604 c 11.55426,15.371205 14.02837,37.89306 6.26225,57.005592 -1.7215,4.236636 -6.29532,11.227968 -10.61657,16.228017 -6.466404,7.482167 -17.393361,14.367957 -27.4936,17.325507 -4.343424,1.27185 -6.0175,1.4534 -14.945652,1.62088 -7.398034,0.13878 -10.987647,-0.0199 -13.586957,-0.60076 z M 54.855807,59.348104 C 54.773573,31.723461 54.561443,8.9767044 54.384399,8.7997582 53.814677,8.2303549 45.051069,10.161512 40.842862,11.783784 28.323315,16.610093 17.193835,27.449569 12.035457,39.840546 7.0669195,51.775511 7.0582325,66.177011 12.01208,78.596473 c 0.655764,1.644022 1.590697,3.600544 2.077629,4.347826 l 0.885331,1.358696 0.382106,-1.358696 c 0.210159,-0.747282 0.406485,-4.354619 0.436281,-8.016304 l 0.05417,-6.657609 3.804348,0 3.804348,0 0,13.743609 0,13.743609 2.309783,1.913027 c 5.374902,4.451659 12.058717,8.154859 18.342391,10.162689 4.639897,1.4826 5.240405,1.604 8.301683,1.67837 l 2.595159,0.063 -0.149505,-50.226626 z M 71.651861,108.5013 c 6.963354,-1.66946 14.540087,-5.56175 20.501076,-10.531756 l 2.664038,-2.221147 -0.350891,-12.516179 c -0.192989,-6.883897 -0.201592,-13.066451 -0.01913,-13.739005 0.303201,-1.117549 0.653826,-1.222827 4.072723,-1.222827 l 3.740963,0 0.10149,2.581522 c 0.0558,1.419837 0.0306,4.449326 -0.0561,6.732196 -0.16662,4.389282 0.23862,6.671652 1.09101,6.144842 0.95479,-0.590092 3.18865,-5.582543 4.65353,-10.400152 1.30531,-4.292842 1.46019,-5.683777 1.50123,-13.482321 0.0294,-5.585016 -0.21538,-9.764932 -0.68427,-11.684782 C 104.86956,31.792226 93.70672,18.608007 78.476834,12.26779 73.424367,10.164444 64.769584,8.2614951 63.955872,9.0750305 63.589769,9.4410549 63.353041,26.573663 63.257715,59.601789 l -0.144218,49.972941 2.046397,-0.004 c 1.125522,-0.002 4.046908,-0.48342 6.491967,-1.06963 l 0,0 z"
     id="path4161"
     inkscape:connector-curvature="0" />
  <path
     style="fill:#5ba92f;fill-opacity:0"
     d="M 46.825861,116.91484 C 35.4886,114.38149 25.422237,108.75625 17.414943,100.47955 10.850662,93.694414 9.9741407,92.504028 6.7041276,85.93343 0.73895598,73.947316 -1.1136626,62.383908 0.92106272,49.83752 3.0300296,36.833348 8.82212,26.236438 19.293629,16.224018 26.327642,9.4983892 31.844617,6.2161913 41.337566,3.1094838 57.003329,-2.0173684 77.100003,0.54953938 90.436742,9.3808234 95.202753,12.536764 103.56867,20.496172 107.20639,25.335604 c 11.55426,15.371205 14.02837,37.89306 6.26225,57.005592 -1.7215,4.236636 -6.29532,11.227968 -10.61657,16.228017 -6.466404,7.482167 -17.393361,14.367957 -27.4936,17.325507 -4.343424,1.27185 -6.0175,1.4534 -14.945652,1.62088 -7.398034,0.13878 -10.987647,-0.0199 -13.586957,-0.60076 z M 54.855807,59.348104 C 54.773573,31.723461 54.561443,8.9767044 54.384399,8.7997582 53.814677,8.2303549 45.051069,10.161512 40.842862,11.783784 28.323315,16.610093 17.193835,27.449569 12.035457,39.840546 7.0669195,51.775511 7.0582325,66.177011 12.01208,78.596473 c 0.655764,1.644022 1.590697,3.600544 2.077629,4.347826 l 0.885331,1.358696 0.382106,-1.358696 c 0.210159,-0.747282 0.406485,-4.354619 0.436281,-8.016304 l 0.05417,-6.657609 3.804348,0 3.804348,0 0,13.743609 0,13.743609 2.309783,1.913027 c 5.374902,4.451659 12.058717,8.154859 18.342391,10.162689 4.639897,1.4826 5.240405,1.604 8.301683,1.67837 l 2.595159,0.063 -0.149505,-50.226626 z M 71.651861,108.5013 c 6.963354,-1.66946 14.540087,-5.56175 20.501076,-10.531756 l 2.664038,-2.221147 -0.350891,-12.516179 c -0.192989,-6.883897 -0.201592,-13.066451 -0.01913,-13.739005 0.303201,-1.117549 0.653826,-1.222827 4.072723,-1.222827 l 3.740963,0 0.10149,2.581522 c 0.0558,1.419837 0.0306,4.449326 -0.0561,6.732196 -0.16662,4.389282 0.23862,6.671652 1.09101,6.144842 0.95479,-0.590092 3.18865,-5.582543 4.65353,-10.400152 1.30531,-4.292842 1.46019,-5.683777 1.50123,-13.482321 0.0294,-5.585016 -0.21538,-9.764932 -0.68427,-11.684782 C 104.86956,31.792226 93.70672,18.608007 78.476834,12.26779 73.424367,10.164444 64.769584,8.2614951 63.955872,9.0750305 63.589769,9.4410549 63.353041,26.573663 63.257715,59.601789 l -0.144218,49.972941 2.046397,-0.004 c 1.125522,-0.002 4.046908,-0.48342 6.491967,-1.06963 l 0,0 z"
     id="path4163"
     inkscape:connector-curvature="0" />
  <path
     style="fill:#5ba92f;fill-opacity:0"
     d="M 46.825861,116.91484 C 35.4886,114.38149 25.422237,108.75625 17.414943,100.47955 10.850662,93.694414 9.9741407,92.504028 6.7041276,85.93343 0.73895598,73.947316 -1.1136626,62.383908 0.92106272,49.83752 3.0300296,36.833348 8.82212,26.236438 19.293629,16.224018 26.327642,9.4983892 31.844617,6.2161913 41.337566,3.1094838 57.003329,-2.0173684 77.100003,0.54953938 90.436742,9.3808234 95.202753,12.536764 103.56867,20.496172 107.20639,25.335604 c 11.55426,15.371205 14.02837,37.89306 6.26225,57.005592 -1.7215,4.236636 -6.29532,11.227968 -10.61657,16.228017 -6.466404,7.482167 -17.393361,14.367957 -27.4936,17.325507 -4.343424,1.27185 -6.0175,1.4534 -14.945652,1.62088 -7.398034,0.13878 -10.987647,-0.0199 -13.586957,-0.60076 z M 54.855807,59.348104 C 54.773573,31.723461 54.561443,8.9767044 54.384399,8.7997582 53.814677,8.2303549 45.051069,10.161512 40.842862,11.783784 28.323315,16.610093 17.193835,27.449569 12.035457,39.840546 7.0669195,51.775511 7.0582325,66.177011 12.01208,78.596473 c 0.655764,1.644022 1.590697,3.600544 2.077629,4.347826 l 0.885331,1.358696 0.382106,-1.358696 c 0.210159,-0.747282 0.406485,-4.354619 0.436281,-8.016304 l 0.05417,-6.657609 3.804348,0 3.804348,0 0,13.743609 0,13.743609 2.309783,1.913027 c 5.374902,4.451659 12.058717,8.154859 18.342391,10.162689 4.639897,1.4826 5.240405,1.604 8.301683,1.67837 l 2.595159,0.063 -0.149505,-50.226626 z M 71.651861,108.5013 c 6.963354,-1.66946 14.540087,-5.56175 20.501076,-10.531756 l 2.664038,-2.221147 -0.350891,-12.516179 c -0.192989,-6.883897 -0.201592,-13.066451 -0.01913,-13.739005 0.303201,-1.117549 0.653826,-1.222827 4.072723,-1.222827 l 3.740963,0 0.10149,2.581522 c 0.0558,1.419837 0.0306,4.449326 -0.0561,6.732196 -0.16662,4.389282 0.23862,6.671652 1.09101,6.144842 0.95479,-0.590092 3.18865,-5.582543 4.65353,-10.400152 1.30531,-4.292842 1.46019,-5.683777 1.50123,-13.482321 0.0294,-5.585016 -0.21538,-9.764932 -0.68427,-11.684782 C 104.86956,31.792226 93.70672,18.608007 78.476834,12.26779 73.424367,10.164444 64.769584,8.2614951 63.955872,9.0750305 63.589769,9.4410549 63.353041,26.573663 63.257715,59.601789 l -0.144218,49.972941 2.046397,-0.004 c 1.125522,-0.002 4.046908,-0.48342 6.491967,-1.06963 l 0,0 z"
     id="path4165"
     inkscape:connector-curvature="0" />
  <path
     style="fill:#5ba92f;fill-opacity:0"
     d="M 46.825861,116.91484 C 35.4886,114.38149 25.422237,108.75625 17.414943,100.47955 10.850662,93.694414 9.9741407,92.504028 6.7041276,85.93343 0.73895598,73.947316 -1.1136626,62.383908 0.92106272,49.83752 3.0300296,36.833348 8.82212,26.236438 19.293629,16.224018 26.327642,9.4983892 31.844617,6.2161913 41.337566,3.1094838 57.003329,-2.0173684 77.100003,0.54953938 90.436742,9.3808234 95.202753,12.536764 103.56867,20.496172 107.20639,25.335604 c 11.55426,15.371205 14.02837,37.89306 6.26225,57.005592 -1.7215,4.236636 -6.29532,11.227968 -10.61657,16.228017 -6.466404,7.482167 -17.393361,14.367957 -27.4936,17.325507 -4.343424,1.27185 -6.0175,1.4534 -14.945652,1.62088 -7.398034,0.13878 -10.987647,-0.0199 -13.586957,-0.60076 z M 54.855807,59.348104 C 54.773573,31.723461 54.561443,8.9767044 54.384399,8.7997582 53.814677,8.2303549 45.051069,10.161512 40.842862,11.783784 28.323315,16.610093 17.193835,27.449569 12.035457,39.840546 7.0669195,51.775511 7.0582325,66.177011 12.01208,78.596473 c 0.655764,1.644022 1.590697,3.600544 2.077629,4.347826 l 0.885331,1.358696 0.382106,-1.358696 c 0.210159,-0.747282 0.406485,-4.354619 0.436281,-8.016304 l 0.05417,-6.657609 3.804348,0 3.804348,0 0,13.743609 0,13.743609 2.309783,1.913027 c 5.374902,4.451659 12.058717,8.154859 18.342391,10.162689 4.639897,1.4826 5.240405,1.604 8.301683,1.67837 l 2.595159,0.063 -0.149505,-50.226626 z M 71.651861,108.5013 c 6.963354,-1.66946 14.540087,-5.56175 20.501076,-10.531756 l 2.664038,-2.221147 -0.350891,-12.516179 c -0.192989,-6.883897 -0.201592,-13.066451 -0.01913,-13.739005 0.303201,-1.117549 0.653826,-1.222827 4.072723,-1.222827 l 3.740963,0 0.10149,2.581522 c 0.0558,1.419837 0.0306,4.449326 -0.0561,6.732196 -0.16662,4.389282 0.23862,6.671652 1.09101,6.144842 0.95479,-0.590092 3.18865,-5.582543 4.65353,-10.400152 1.30531,-4.292842 1.46019,-5.683777 1.50123,-13.482321 0.0294,-5.585016 -0.21538,-9.764932 -0.68427,-11.684782 C 104.86956,31.792226 93.70672,18.608007 78.476834,12.26779 73.424367,10.164444 64.769584,8.2614951 63.955872,9.0750305 63.589769,9.4410549 63.353041,26.573663 63.257715,59.601789 l -0.144218,49.972941 2.046397,-0.004 c 1.125522,-0.002 4.046908,-0.48342 6.491967,-1.06963 l 0,0 z"
     id="path4167"
     inkscape:connector-curvature="0" />
  <path
     style="fill:#5ba92f;fill-opacity:0"
     d="M 46.825861,116.91484 C 35.4886,114.38149 25.422237,108.75625 17.414943,100.47955 10.850662,93.694414 9.9741407,92.504028 6.7041276,85.93343 0.73895598,73.947316 -1.1136626,62.383908 0.92106272,49.83752 3.0300296,36.833348 8.82212,26.236438 19.293629,16.224018 26.327642,9.4983892 31.844617,6.2161913 41.337566,3.1094838 57.003329,-2.0173684 77.100003,0.54953938 90.436742,9.3808234 95.202753,12.536764 103.56867,20.496172 107.20639,25.335604 c 11.55426,15.371205 14.02837,37.89306 6.26225,57.005592 -1.7215,4.236636 -6.29532,11.227968 -10.61657,16.228017 -6.466404,7.482167 -17.393361,14.367957 -27.4936,17.325507 -4.343424,1.27185 -6.0175,1.4534 -14.945652,1.62088 -7.398034,0.13878 -10.987647,-0.0199 -13.586957,-0.60076 z M 54.855807,59.348104 C 54.773573,31.723461 54.561443,8.9767044 54.384399,8.7997582 53.814677,8.2303549 45.051069,10.161512 40.842862,11.783784 28.323315,16.610093 17.193835,27.449569 12.035457,39.840546 7.0669195,51.775511 7.0582325,66.177011 12.01208,78.596473 c 0.655764,1.644022 1.590697,3.600544 2.077629,4.347826 l 0.885331,1.358696 0.382106,-1.358696 c 0.210159,-0.747282 0.406485,-4.354619 0.436281,-8.016304 l 0.05417,-6.657609 3.804348,0 3.804348,0 0,13.743609 0,13.743609 2.309783,1.913027 c 5.374902,4.451659 12.058717,8.154859 18.342391,10.162689 4.639897,1.4826 5.240405,1.604 8.301683,1.67837 l 2.595159,0.063 -0.149505,-50.226626 z M 71.651861,108.5013 c 6.963354,-1.66946 14.540087,-5.56175 20.501076,-10.531756 l 2.664038,-2.221147 -0.350891,-12.516179 c -0.192989,-6.883897 -0.201592,-13.066451 -0.01913,-13.739005 0.303201,-1.117549 0.653826,-1.222827 4.072723,-1.222827 l 3.740963,0 0.10149,2.581522 c 0.0558,1.419837 0.0306,4.449326 -0.0561,6.732196 -0.16662,4.389282 0.23862,6.671652 1.09101,6.144842 0.95479,-0.590092 3.18865,-5.582543 4.65353,-10.400152 1.30531,-4.292842 1.46019,-5.683777 1.50123,-13.482321 0.0294,-5.585016 -0.21538,-9.764932 -0.68427,-11.684782 C 104.86956,31.792226 93.70672,18.608007 78.476834,12.26779 73.424367,10.164444 64.769584,8.2614951 63.955872,9.0750305 63.589769,9.4410549 63.353041,26.573663 63.257715,59.601789 l -0.144218,49.972941 2.046397,-0.004 c 1.125522,-0.002 4.046908,-0.48342 6.491967,-1.06963 l 0,0 z"
     id="path4169"
     inkscape:connector-curvature="0" />
  <path
     style="fill:#5ba92f;fill-opacity:0"
     d="M 46.825861,116.91484 C 35.4886,114.38149 25.422237,108.75625 17.414943,100.47955 10.850662,93.694414 9.9741407,92.504028 6.7041276,85.93343 0.73895598,73.947316 -1.1136626,62.383908 0.92106272,49.83752 3.0300296,36.833348 8.82212,26.236438 19.293629,16.224018 26.327642,9.4983892 31.844617,6.2161913 41.337566,3.1094838 57.003329,-2.0173684 77.100003,0.54953938 90.436742,9.3808234 95.202753,12.536764 103.56867,20.496172 107.20639,25.335604 c 11.55426,15.371205 14.02837,37.89306 6.26225,57.005592 -1.7215,4.236636 -6.29532,11.227968 -10.61657,16.228017 -6.466404,7.482167 -17.393361,14.367957 -27.4936,17.325507 -4.343424,1.27185 -6.0175,1.4534 -14.945652,1.62088 -7.398034,0.13878 -10.987647,-0.0199 -13.586957,-0.60076 z M 54.855807,59.348104 C 54.773573,31.723461 54.561443,8.9767044 54.384399,8.7997582 53.814677,8.2303549 45.051069,10.161512 40.842862,11.783784 28.323315,16.610093 17.193835,27.449569 12.035457,39.840546 7.0669195,51.775511 7.0582325,66.177011 12.01208,78.596473 c 0.655764,1.644022 1.590697,3.600544 2.077629,4.347826 l 0.885331,1.358696 0.382106,-1.358696 c 0.210159,-0.747282 0.406485,-4.354619 0.436281,-8.016304 l 0.05417,-6.657609 3.804348,0 3.804348,0 0,13.743609 0,13.743609 2.309783,1.913027 c 5.374902,4.451659 12.058717,8.154859 18.342391,10.162689 4.639897,1.4826 5.240405,1.604 8.301683,1.67837 l 2.595159,0.063 -0.149505,-50.226626 z M 71.651861,108.5013 c 6.963354,-1.66946 14.540087,-5.56175 20.501076,-10.531756 l 2.664038,-2.221147 -0.350891,-12.516179 c -0.192989,-6.883897 -0.201592,-13.066451 -0.01913,-13.739005 0.303201,-1.117549 0.653826,-1.222827 4.072723,-1.222827 l 3.740963,0 0.10149,2.581522 c 0.0558,1.419837 0.0306,4.449326 -0.0561,6.732196 -0.16662,4.389282 0.23862,6.671652 1.09101,6.144842 0.95479,-0.590092 3.18865,-5.582543 4.65353,-10.400152 1.30531,-4.292842 1.46019,-5.683777 1.50123,-13.482321 0.0294,-5.585016 -0.21538,-9.764932 -0.68427,-11.684782 C 104.86956,31.792226 93.70672,18.608007 78.476834,12.26779 73.424367,10.164444 64.769584,8.2614951 63.955872,9.0750305 63.589769,9.4410549 63.353041,26.573663 63.257715,59.601789 l -0.144218,49.972941 2.046397,-0.004 c 1.125522,-0.002 4.046908,-0.48342 6.491967,-1.06963 l 0,0 z"
     id="path4171"
     inkscape:connector-curvature="0" />
  <path
     style="fill:#5ba92f;fill-opacity:0"
     d="M 46.825861,116.91484 C 35.4886,114.38149 25.422237,108.75625 17.414943,100.47955 10.850662,93.694414 9.9741407,92.504028 6.7041276,85.93343 0.73895598,73.947316 -1.1136626,62.383908 0.92106272,49.83752 3.0300296,36.833348 8.82212,26.236438 19.293629,16.224018 26.327642,9.4983892 31.844617,6.2161913 41.337566,3.1094838 57.003329,-2.0173684 77.100003,0.54953938 90.436742,9.3808234 95.202753,12.536764 103.56867,20.496172 107.20639,25.335604 c 11.55426,15.371205 14.02837,37.89306 6.26225,57.005592 -1.7215,4.236636 -6.29532,11.227968 -10.61657,16.228017 -6.466404,7.482167 -17.393361,14.367957 -27.4936,17.325507 -4.343424,1.27185 -6.0175,1.4534 -14.945652,1.62088 -7.398034,0.13878 -10.987647,-0.0199 -13.586957,-0.60076 z M 54.855807,59.348104 C 54.773573,31.723461 54.561443,8.9767044 54.384399,8.7997582 53.814677,8.2303549 45.051069,10.161512 40.842862,11.783784 28.323315,16.610093 17.193835,27.449569 12.035457,39.840546 7.0669195,51.775511 7.0582325,66.177011 12.01208,78.596473 c 0.655764,1.644022 1.590697,3.600544 2.077629,4.347826 l 0.885331,1.358696 0.382106,-1.358696 c 0.210159,-0.747282 0.406485,-4.354619 0.436281,-8.016304 l 0.05417,-6.657609 3.804348,0 3.804348,0 0,13.743609 0,13.743609 2.309783,1.913027 c 5.374902,4.451659 12.058717,8.154859 18.342391,10.162689 4.639897,1.4826 5.240405,1.604 8.301683,1.67837 l 2.595159,0.063 -0.149505,-50.226626 z M 71.651861,108.5013 c 6.963354,-1.66946 14.540087,-5.56175 20.501076,-10.531756 l 2.664038,-2.221147 -0.350891,-12.516179 c -0.192989,-6.883897 -0.201592,-13.066451 -0.01913,-13.739005 0.303201,-1.117549 0.653826,-1.222827 4.072723,-1.222827 l 3.740963,0 0.10149,2.581522 c 0.0558,1.419837 0.0306,4.449326 -0.0561,6.732196 -0.16662,4.389282 0.23862,6.671652 1.09101,6.144842 0.95479,-0.590092 3.18865,-5.582543 4.65353,-10.400152 1.30531,-4.292842 1.46019,-5.683777 1.50123,-13.482321 0.0294,-5.585016 -0.21538,-9.764932 -0.68427,-11.684782 C 104.86956,31.792226 93.70672,18.608007 78.476834,12.26779 73.424367,10.164444 64.769584,8.2614951 63.955872,9.0750305 63.589769,9.4410549 63.353041,26.573663 63.257715,59.601789 l -0.144218,49.972941 2.046397,-0.004 c 1.125522,-0.002 4.046908,-0.48342 6.491967,-1.06963 l 0,0 z"
     id="path4173"
     inkscape:connector-curvature="0" />
  <path
     style="fill:#5ba92f;fill-opacity:0"
     d="M 46.825861,116.91484 C 35.4886,114.38149 25.422237,108.75625 17.414943,100.47955 10.850662,93.694414 9.9741407,92.504028 6.7041276,85.93343 0.73895598,73.947316 -1.1136626,62.383908 0.92106272,49.83752 3.0300296,36.833348 8.82212,26.236438 19.293629,16.224018 26.327642,9.4983892 31.844617,6.2161913 41.337566,3.1094838 57.003329,-2.0173684 77.100003,0.54953938 90.436742,9.3808234 95.202753,12.536764 103.56867,20.496172 107.20639,25.335604 c 11.55426,15.371205 14.02837,37.89306 6.26225,57.005592 -1.7215,4.236636 -6.29532,11.227968 -10.61657,16.228017 -6.466404,7.482167 -17.393361,14.367957 -27.4936,17.325507 -4.343424,1.27185 -6.0175,1.4534 -14.945652,1.62088 -7.398034,0.13878 -10.987647,-0.0199 -13.586957,-0.60076 z M 54.855807,59.348104 C 54.773573,31.723461 54.561443,8.9767044 54.384399,8.7997582 53.814677,8.2303549 45.051069,10.161512 40.842862,11.783784 28.323315,16.610093 17.193835,27.449569 12.035457,39.840546 7.0669195,51.775511 7.0582325,66.177011 12.01208,78.596473 c 0.655764,1.644022 1.590697,3.600544 2.077629,4.347826 l 0.885331,1.358696 0.382106,-1.358696 c 0.210159,-0.747282 0.406485,-4.354619 0.436281,-8.016304 l 0.05417,-6.657609 3.804348,0 3.804348,0 0,13.743609 0,13.743609 2.309783,1.913027 c 5.374902,4.451659 12.058717,8.154859 18.342391,10.162689 4.639897,1.4826 5.240405,1.604 8.301683,1.67837 l 2.595159,0.063 -0.149505,-50.226626 z M 71.651861,108.5013 c 6.963354,-1.66946 14.540087,-5.56175 20.501076,-10.531756 l 2.664038,-2.221147 -0.350891,-12.516179 c -0.192989,-6.883897 -0.201592,-13.066451 -0.01913,-13.739005 0.303201,-1.117549 0.653826,-1.222827 4.072723,-1.222827 l 3.740963,0 0.10149,2.581522 c 0.0558,1.419837 0.0306,4.449326 -0.0561,6.732196 -0.16662,4.389282 0.23862,6.671652 1.09101,6.144842 0.95479,-0.590092 3.18865,-5.582543 4.65353,-10.400152 1.30531,-4.292842 1.46019,-5.683777 1.50123,-13.482321 0.0294,-5.585016 -0.21538,-9.764932 -0.68427,-11.684782 C 104.86956,31.792226 93.70672,18.608007 78.476834,12.26779 73.424367,10.164444 64.769584,8.2614951 63.955872,9.0750305 63.589769,9.4410549 63.353041,26.573663 63.257715,59.601789 l -0.144218,49.972941 2.046397,-0.004 c 1.125522,-0.002 4.046908,-0.48342 6.491967,-1.06963 l 0,0 z"
     id="path4175"
     inkscape:connector-curvature="0" />
  <path
     style="fill:#5ba92f;fill-opacity:0"
     d="M 46.825861,116.91484 C 35.4886,114.38149 25.422237,108.75625 17.414943,100.47955 10.850662,93.694414 9.9741407,92.504028 6.7041276,85.93343 0.73895598,73.947316 -1.1136626,62.383908 0.92106272,49.83752 3.0300296,36.833348 8.82212,26.236438 19.293629,16.224018 26.327642,9.4983892 31.844617,6.2161913 41.337566,3.1094838 57.003329,-2.0173684 77.100003,0.54953938 90.436742,9.3808234 95.202753,12.536764 103.56867,20.496172 107.20639,25.335604 c 11.55426,15.371205 14.02837,37.89306 6.26225,57.005592 -1.7215,4.236636 -6.29532,11.227968 -10.61657,16.228017 -6.466404,7.482167 -17.393361,14.367957 -27.4936,17.325507 -4.343424,1.27185 -6.0175,1.4534 -14.945652,1.62088 -7.398034,0.13878 -10.987647,-0.0199 -13.586957,-0.60076 z M 54.855807,59.348104 C 54.773573,31.723461 54.561443,8.9767044 54.384399,8.7997582 53.814677,8.2303549 45.051069,10.161512 40.842862,11.783784 28.323315,16.610093 17.193835,27.449569 12.035457,39.840546 7.0669195,51.775511 7.0582325,66.177011 12.01208,78.596473 c 0.655764,1.644022 1.590697,3.600544 2.077629,4.347826 l 0.885331,1.358696 0.382106,-1.358696 c 0.210159,-0.747282 0.406485,-4.354619 0.436281,-8.016304 l 0.05417,-6.657609 3.804348,0 3.804348,0 0,13.743609 0,13.743609 2.309783,1.913027 c 5.374902,4.451659 12.058717,8.154859 18.342391,10.162689 4.639897,1.4826 5.240405,1.604 8.301683,1.67837 l 2.595159,0.063 -0.149505,-50.226626 z M 71.651861,108.5013 c 6.963354,-1.66946 14.540087,-5.56175 20.501076,-10.531756 l 2.664038,-2.221147 -0.350891,-12.516179 c -0.192989,-6.883897 -0.201592,-13.066451 -0.01913,-13.739005 0.303201,-1.117549 0.653826,-1.222827 4.072723,-1.222827 l 3.740963,0 0.10149,2.581522 c 0.0558,1.419837 0.0306,4.449326 -0.0561,6.732196 -0.16662,4.389282 0.23862,6.671652 1.09101,6.144842 0.95479,-0.590092 3.18865,-5.582543 4.65353,-10.400152 1.30531,-4.292842 1.46019,-5.683777 1.50123,-13.482321 0.0294,-5.585016 -0.21538,-9.764932 -0.68427,-11.684782 C 104.86956,31.792226 93.70672,18.608007 78.476834,12.26779 73.424367,10.164444 64.769584,8.2614951 63.955872,9.0750305 63.589769,9.4410549 63.353041,26.573663 63.257715,59.601789 l -0.144218,49.972941 2.046397,-0.004 c 1.125522,-0.002 4.046908,-0.48342 6.491967,-1.06963 l 0,0 z"
     id="path4177"
     inkscape:connector-curvature="0" />
  <path
     style="fill:#5ba92f;fill-opacity:0"
     d="M 46.825861,116.91484 C 35.4886,114.38149 25.422237,108.75625 17.414943,100.47955 10.850662,93.694414 9.9741407,92.504028 6.7041276,85.93343 0.73895598,73.947316 -1.1136626,62.383908 0.92106272,49.83752 3.0300296,36.833348 8.82212,26.236438 19.293629,16.224018 26.327642,9.4983892 31.844617,6.2161913 41.337566,3.1094838 57.003329,-2.0173684 77.100003,0.54953938 90.436742,9.3808234 95.202753,12.536764 103.56867,20.496172 107.20639,25.335604 c 11.55426,15.371205 14.02837,37.89306 6.26225,57.005592 -1.7215,4.236636 -6.29532,11.227968 -10.61657,16.228017 -6.466404,7.482167 -17.393361,14.367957 -27.4936,17.325507 -4.343424,1.27185 -6.0175,1.4534 -14.945652,1.62088 -7.398034,0.13878 -10.987647,-0.0199 -13.586957,-0.60076 z M 54.855807,59.348104 C 54.773573,31.723461 54.561443,8.9767044 54.384399,8.7997582 53.814677,8.2303549 45.051069,10.161512 40.842862,11.783784 28.323315,16.610093 17.193835,27.449569 12.035457,39.840546 7.0669195,51.775511 7.0582325,66.177011 12.01208,78.596473 c 0.655764,1.644022 1.590697,3.600544 2.077629,4.347826 l 0.885331,1.358696 0.382106,-1.358696 c 0.210159,-0.747282 0.406485,-4.354619 0.436281,-8.016304 l 0.05417,-6.657609 3.804348,0 3.804348,0 0,13.743609 0,13.743609 2.309783,1.913027 c 5.374902,4.451659 12.058717,8.154859 18.342391,10.162689 4.639897,1.4826 5.240405,1.604 8.301683,1.67837 l 2.595159,0.063 -0.149505,-50.226626 z M 71.651861,108.5013 c 6.963354,-1.66946 14.540087,-5.56175 20.501076,-10.531756 l 2.664038,-2.221147 -0.350891,-12.516179 c -0.192989,-6.883897 -0.201592,-13.066451 -0.01913,-13.739005 0.303201,-1.117549 0.653826,-1.222827 4.072723,-1.222827 l 3.740963,0 0.10149,2.581522 c 0.0558,1.419837 0.0306,4.449326 -0.0561,6.732196 -0.16662,4.389282 0.23862,6.671652 1.09101,6.144842 0.95479,-0.590092 3.18865,-5.582543 4.65353,-10.400152 1.30531,-4.292842 1.46019,-5.683777 1.50123,-13.482321 0.0294,-5.585016 -0.21538,-9.764932 -0.68427,-11.684782 C 104.86956,31.792226 93.70672,18.608007 78.476834,12.26779 73.424367,10.164444 64.769584,8.2614951 63.955872,9.0750305 63.589769,9.4410549 63.353041,26.573663 63.257715,59.601789 l -0.144218,49.972941 2.046397,-0.004 c 1.125522,-0.002 4.046908,-0.48342 6.491967,-1.06963 l 0,0 z"
     id="path4179"
     inkscape:connector-curvature="0" />
  <path
     style="fill:#5ba92f;fill-opacity:0"
     d="M 46.825861,116.91484 C 35.4886,114.38149 25.422237,108.75625 17.414943,100.47955 10.850662,93.694414 9.9741407,92.504028 6.7041276,85.93343 0.73895598,73.947316 -1.1136626,62.383908 0.92106272,49.83752 3.0300296,36.833348 8.82212,26.236438 19.293629,16.224018 26.327642,9.4983892 31.844617,6.2161913 41.337566,3.1094838 57.003329,-2.0173684 77.100003,0.54953938 90.436742,9.3808234 95.202753,12.536764 103.56867,20.496172 107.20639,25.335604 c 11.55426,15.371205 14.02837,37.89306 6.26225,57.005592 -1.7215,4.236636 -6.29532,11.227968 -10.61657,16.228017 -6.466404,7.482167 -17.393361,14.367957 -27.4936,17.325507 -4.343424,1.27185 -6.0175,1.4534 -14.945652,1.62088 -7.398034,0.13878 -10.987647,-0.0199 -13.586957,-0.60076 z M 54.855807,59.348104 C 54.773573,31.723461 54.561443,8.9767044 54.384399,8.7997582 53.814677,8.2303549 45.051069,10.161512 40.842862,11.783784 28.323315,16.610093 17.193835,27.449569 12.035457,39.840546 7.0669195,51.775511 7.0582325,66.177011 12.01208,78.596473 c 0.655764,1.644022 1.590697,3.600544 2.077629,4.347826 l 0.885331,1.358696 0.382106,-1.358696 c 0.210159,-0.747282 0.406485,-4.354619 0.436281,-8.016304 l 0.05417,-6.657609 3.804348,0 3.804348,0 0,13.743609 0,13.743609 2.309783,1.913027 c 5.374902,4.451659 12.058717,8.154859 18.342391,10.162689 4.639897,1.4826 5.240405,1.604 8.301683,1.67837 l 2.595159,0.063 -0.149505,-50.226626 z M 71.651861,108.5013 c 6.963354,-1.66946 14.540087,-5.56175 20.501076,-10.531756 l 2.664038,-2.221147 -0.350891,-12.516179 c -0.192989,-6.883897 -0.201592,-13.066451 -0.01913,-13.739005 0.303201,-1.117549 0.653826,-1.222827 4.072723,-1.222827 l 3.740963,0 0.10149,2.581522 c 0.0558,1.419837 0.0306,4.449326 -0.0561,6.732196 -0.16662,4.389282 0.23862,6.671652 1.09101,6.144842 0.95479,-0.590092 3.18865,-5.582543 4.65353,-10.400152 1.30531,-4.292842 1.46019,-5.683777 1.50123,-13.482321 0.0294,-5.585016 -0.21538,-9.764932 -0.68427,-11.684782 C 104.86956,31.792226 93.70672,18.608007 78.476834,12.26779 73.424367,10.164444 64.769584,8.2614951 63.955872,9.0750305 63.589769,9.4410549 63.353041,26.573663 63.257715,59.601789 l -0.144218,49.972941 2.046397,-0.004 c 1.125522,-0.002 4.046908,-0.48342 6.491967,-1.06963 l 0,0 z"
     id="path4181"
     inkscape:connector-curvature="0" />
  <path
     style="fill:#5ba92f;fill-opacity:0"
     d="M 46.825861,116.91484 C 35.4886,114.38149 25.422237,108.75625 17.414943,100.47955 10.850662,93.694414 9.9741407,92.504028 6.7041276,85.93343 0.73895598,73.947316 -1.1136626,62.383908 0.92106272,49.83752 3.0300296,36.833348 8.82212,26.236438 19.293629,16.224018 26.327642,9.4983892 31.844617,6.2161913 41.337566,3.1094838 57.003329,-2.0173684 77.100003,0.54953938 90.436742,9.3808234 95.202753,12.536764 103.56867,20.496172 107.20639,25.335604 c 11.55426,15.371205 14.02837,37.89306 6.26225,57.005592 -1.7215,4.236636 -6.29532,11.227968 -10.61657,16.228017 -6.466404,7.482167 -17.393361,14.367957 -27.4936,17.325507 -4.343424,1.27185 -6.0175,1.4534 -14.945652,1.62088 -7.398034,0.13878 -10.987647,-0.0199 -13.586957,-0.60076 z M 54.855807,59.348104 C 54.773573,31.723461 54.561443,8.9767044 54.384399,8.7997582 53.814677,8.2303549 45.051069,10.161512 40.842862,11.783784 28.323315,16.610093 17.193835,27.449569 12.035457,39.840546 7.0669195,51.775511 7.0582325,66.177011 12.01208,78.596473 c 0.655764,1.644022 1.590697,3.600544 2.077629,4.347826 l 0.885331,1.358696 0.382106,-1.358696 c 0.210159,-0.747282 0.406485,-4.354619 0.436281,-8.016304 l 0.05417,-6.657609 3.804348,0 3.804348,0 0,13.743609 0,13.743609 2.309783,1.913027 c 5.374902,4.451659 12.058717,8.154859 18.342391,10.162689 4.639897,1.4826 5.240405,1.604 8.301683,1.67837 l 2.595159,0.063 -0.149505,-50.226626 z M 71.651861,108.5013 c 6.963354,-1.66946 14.540087,-5.56175 20.501076,-10.531756 l 2.664038,-2.221147 -0.350891,-12.516179 c -0.192989,-6.883897 -0.201592,-13.066451 -0.01913,-13.739005 0.303201,-1.117549 0.653826,-1.222827 4.072723,-1.222827 l 3.740963,0 0.10149,2.581522 c 0.0558,1.419837 0.0306,4.449326 -0.0561,6.732196 -0.16662,4.389282 0.23862,6.671652 1.09101,6.144842 0.95479,-0.590092 3.18865,-5.582543 4.65353,-10.400152 1.30531,-4.292842 1.46019,-5.683777 1.50123,-13.482321 0.0294,-5.585016 -0.21538,-9.764932 -0.68427,-11.684782 C 104.86956,31.792226 93.70672,18.608007 78.476834,12.26779 73.424367,10.164444 64.769584,8.2614951 63.955872,9.0750305 63.589769,9.4410549 63.353041,26.573663 63.257715,59.601789 l -0.144218,49.972941 2.046397,-0.004 c 1.125522,-0.002 4.046908,-0.48342 6.491967,-1.06963 l 0,0 z"
     id="path4183"
     inkscape:connector-curvature="0" />
  <path
     style="fill:#5ba92f;fill-opacity:0"
     d="M 46.825861,116.91484 C 35.4886,114.38149 25.422237,108.75625 17.414943,100.47955 10.850662,93.694414 9.9741407,92.504028 6.7041276,85.93343 0.73895598,73.947316 -1.1136626,62.383908 0.92106272,49.83752 3.0300296,36.833348 8.82212,26.236438 19.293629,16.224018 26.327642,9.4983892 31.844617,6.2161913 41.337566,3.1094838 57.003329,-2.0173684 77.100003,0.54953938 90.436742,9.3808234 95.202753,12.536764 103.56867,20.496172 107.20639,25.335604 c 11.55426,15.371205 14.02837,37.89306 6.26225,57.005592 -1.7215,4.236636 -6.29532,11.227968 -10.61657,16.228017 -6.466404,7.482167 -17.393361,14.367957 -27.4936,17.325507 -4.343424,1.27185 -6.0175,1.4534 -14.945652,1.62088 -7.398034,0.13878 -10.987647,-0.0199 -13.586957,-0.60076 z M 54.855807,59.348104 C 54.773573,31.723461 54.561443,8.9767044 54.384399,8.7997582 53.814677,8.2303549 45.051069,10.161512 40.842862,11.783784 28.323315,16.610093 17.193835,27.449569 12.035457,39.840546 7.0669195,51.775511 7.0582325,66.177011 12.01208,78.596473 c 0.655764,1.644022 1.590697,3.600544 2.077629,4.347826 l 0.885331,1.358696 0.382106,-1.358696 c 0.210159,-0.747282 0.406485,-4.354619 0.436281,-8.016304 l 0.05417,-6.657609 3.804348,0 3.804348,0 0,13.743609 0,13.743609 2.309783,1.913027 c 5.374902,4.451659 12.058717,8.154859 18.342391,10.162689 4.639897,1.4826 5.240405,1.604 8.301683,1.67837 l 2.595159,0.063 -0.149505,-50.226626 z M 71.651861,108.5013 c 6.963354,-1.66946 14.540087,-5.56175 20.501076,-10.531756 l 2.664038,-2.221147 -0.350891,-12.516179 c -0.192989,-6.883897 -0.201592,-13.066451 -0.01913,-13.739005 0.303201,-1.117549 0.653826,-1.222827 4.072723,-1.222827 l 3.740963,0 0.10149,2.581522 c 0.0558,1.419837 0.0306,4.449326 -0.0561,6.732196 -0.16662,4.389282 0.23862,6.671652 1.09101,6.144842 0.95479,-0.590092 3.18865,-5.582543 4.65353,-10.400152 1.30531,-4.292842 1.46019,-5.683777 1.50123,-13.482321 0.0294,-5.585016 -0.21538,-9.764932 -0.68427,-11.684782 C 104.86956,31.792226 93.70672,18.608007 78.476834,12.26779 73.424367,10.164444 64.769584,8.2614951 63.955872,9.0750305 63.589769,9.4410549 63.353041,26.573663 63.257715,59.601789 l -0.144218,49.972941 2.046397,-0.004 c 1.125522,-0.002 4.046908,-0.48342 6.491967,-1.06963 l 0,0 z"
     id="path4185"
     inkscape:connector-curvature="0" />
  <path
     style="fill:#5ba92f;fill-opacity:0"
     d="M 46.825861,116.91484 C 35.4886,114.38149 25.422237,108.75625 17.414943,100.47955 10.850662,93.694414 9.9741407,92.504028 6.7041276,85.93343 0.73895598,73.947316 -1.1136626,62.383908 0.92106272,49.83752 3.0300296,36.833348 8.82212,26.236438 19.293629,16.224018 26.327642,9.4983892 31.844617,6.2161913 41.337566,3.1094838 57.003329,-2.0173684 77.100003,0.54953938 90.436742,9.3808234 95.202753,12.536764 103.56867,20.496172 107.20639,25.335604 c 11.55426,15.371205 14.02837,37.89306 6.26225,57.005592 -1.7215,4.236636 -6.29532,11.227968 -10.61657,16.228017 -6.466404,7.482167 -17.393361,14.367957 -27.4936,17.325507 -4.343424,1.27185 -6.0175,1.4534 -14.945652,1.62088 -7.398034,0.13878 -10.987647,-0.0199 -13.586957,-0.60076 z M 54.855807,59.348104 C 54.773573,31.723461 54.561443,8.9767044 54.384399,8.7997582 53.814677,8.2303549 45.051069,10.161512 40.842862,11.783784 28.323315,16.610093 17.193835,27.449569 12.035457,39.840546 7.0669195,51.775511 7.0582325,66.177011 12.01208,78.596473 c 0.655764,1.644022 1.590697,3.600544 2.077629,4.347826 l 0.885331,1.358696 0.382106,-1.358696 c 0.210159,-0.747282 0.406485,-4.354619 0.436281,-8.016304 l 0.05417,-6.657609 3.804348,0 3.804348,0 0,13.743609 0,13.743609 2.309783,1.913027 c 5.374902,4.451659 12.058717,8.154859 18.342391,10.162689 4.639897,1.4826 5.240405,1.604 8.301683,1.67837 l 2.595159,0.063 -0.149505,-50.226626 z M 71.651861,108.5013 c 6.963354,-1.66946 14.540087,-5.56175 20.501076,-10.531756 l 2.664038,-2.221147 -0.350891,-12.516179 c -0.192989,-6.883897 -0.201592,-13.066451 -0.01913,-13.739005 0.303201,-1.117549 0.653826,-1.222827 4.072723,-1.222827 l 3.740963,0 0.10149,2.581522 c 0.0558,1.419837 0.0306,4.449326 -0.0561,6.732196 -0.16662,4.389282 0.23862,6.671652 1.09101,6.144842 0.95479,-0.590092 3.18865,-5.582543 4.65353,-10.400152 1.30531,-4.292842 1.46019,-5.683777 1.50123,-13.482321 0.0294,-5.585016 -0.21538,-9.764932 -0.68427,-11.684782 C 104.86956,31.792226 93.70672,18.608007 78.476834,12.26779 73.424367,10.164444 64.769584,8.2614951 63.955872,9.0750305 63.589769,9.4410549 63.353041,26.573663 63.257715,59.601789 l -0.144218,49.972941 2.046397,-0.004 c 1.125522,-0.002 4.046908,-0.48342 6.491967,-1.06963 l 0,0 z"
     id="path4187"
     inkscape:connector-curvature="0" />
  <path
     style="fill:#5ba92f;fill-opacity:0"
     d="M 46.825861,116.91484 C 35.4886,114.38149 25.422237,108.75625 17.414943,100.47955 10.850662,93.694414 9.9741407,92.504028 6.7041276,85.93343 0.73895598,73.947316 -1.1136626,62.383908 0.92106272,49.83752 3.0300296,36.833348 8.82212,26.236438 19.293629,16.224018 26.327642,9.4983892 31.844617,6.2161913 41.337566,3.1094838 57.003329,-2.0173684 77.100003,0.54953938 90.436742,9.3808234 95.202753,12.536764 103.56867,20.496172 107.20639,25.335604 c 11.55426,15.371205 14.02837,37.89306 6.26225,57.005592 -1.7215,4.236636 -6.29532,11.227968 -10.61657,16.228017 -6.466404,7.482167 -17.393361,14.367957 -27.4936,17.325507 -4.343424,1.27185 -6.0175,1.4534 -14.945652,1.62088 -7.398034,0.13878 -10.987647,-0.0199 -13.586957,-0.60076 z M 54.855807,59.348104 C 54.773573,31.723461 54.561443,8.9767044 54.384399,8.7997582 53.814677,8.2303549 45.051069,10.161512 40.842862,11.783784 28.323315,16.610093 17.193835,27.449569 12.035457,39.840546 7.0669195,51.775511 7.0582325,66.177011 12.01208,78.596473 c 0.655764,1.644022 1.590697,3.600544 2.077629,4.347826 l 0.885331,1.358696 0.382106,-1.358696 c 0.210159,-0.747282 0.406485,-4.354619 0.436281,-8.016304 l 0.05417,-6.657609 3.804348,0 3.804348,0 0,13.743609 0,13.743609 2.309783,1.913027 c 5.374902,4.451659 12.058717,8.154859 18.342391,10.162689 4.639897,1.4826 5.240405,1.604 8.301683,1.67837 l 2.595159,0.063 -0.149505,-50.226626 z M 71.651861,108.5013 c 6.963354,-1.66946 14.540087,-5.56175 20.501076,-10.531756 l 2.664038,-2.221147 -0.350891,-12.516179 c -0.192989,-6.883897 -0.201592,-13.066451 -0.01913,-13.739005 0.303201,-1.117549 0.653826,-1.222827 4.072723,-1.222827 l 3.740963,0 0.10149,2.581522 c 0.0558,1.419837 0.0306,4.449326 -0.0561,6.732196 -0.16662,4.389282 0.23862,6.671652 1.09101,6.144842 0.95479,-0.590092 3.18865,-5.582543 4.65353,-10.400152 1.30531,-4.292842 1.46019,-5.683777 1.50123,-13.482321 0.0294,-5.585016 -0.21538,-9.764932 -0.68427,-11.684782 C 104.86956,31.792226 93.70672,18.608007 78.476834,12.26779 73.424367,10.164444 64.769584,8.2614951 63.955872,9.0750305 63.589769,9.4410549 63.353041,26.573663 63.257715,59.601789 l -0.144218,49.972941 2.046397,-0.004 c 1.125522,-0.002 4.046908,-0.48342 6.491967,-1.06963 l 0,0 z"
     id="path4189"
     inkscape:connector-curvature="0" />
  <path
     style="fill:#5ba92f;fill-opacity:0"
     d="M 46.825861,116.91484 C 35.4886,114.38149 25.422237,108.75625 17.414943,100.47955 10.850662,93.694414 9.9741407,92.504028 6.7041276,85.93343 0.73895598,73.947316 -1.1136626,62.383908 0.92106272,49.83752 3.0300296,36.833348 8.82212,26.236438 19.293629,16.224018 26.327642,9.4983892 31.844617,6.2161913 41.337566,3.1094838 57.003329,-2.0173684 77.100003,0.54953938 90.436742,9.3808234 95.202753,12.536764 103.56867,20.496172 107.20639,25.335604 c 11.55426,15.371205 14.02837,37.89306 6.26225,57.005592 -1.7215,4.236636 -6.29532,11.227968 -10.61657,16.228017 -6.466404,7.482167 -17.393361,14.367957 -27.4936,17.325507 -4.343424,1.27185 -6.0175,1.4534 -14.945652,1.62088 -7.398034,0.13878 -10.987647,-0.0199 -13.586957,-0.60076 z M 54.855807,59.348104 C 54.773573,31.723461 54.561443,8.9767044 54.384399,8.7997582 53.814677,8.2303549 45.051069,10.161512 40.842862,11.783784 28.323315,16.610093 17.193835,27.449569 12.035457,39.840546 7.0669195,51.775511 7.0582325,66.177011 12.01208,78.596473 c 0.655764,1.644022 1.590697,3.600544 2.077629,4.347826 l 0.885331,1.358696 0.382106,-1.358696 c 0.210159,-0.747282 0.406485,-4.354619 0.436281,-8.016304 l 0.05417,-6.657609 3.804348,0 3.804348,0 0,13.743609 0,13.743609 2.309783,1.913027 c 5.374902,4.451659 12.058717,8.154859 18.342391,10.162689 4.639897,1.4826 5.240405,1.604 8.301683,1.67837 l 2.595159,0.063 -0.149505,-50.226626 z M 71.651861,108.5013 c 6.963354,-1.66946 14.540087,-5.56175 20.501076,-10.531756 l 2.664038,-2.221147 -0.350891,-12.516179 c -0.192989,-6.883897 -0.201592,-13.066451 -0.01913,-13.739005 0.303201,-1.117549 0.653826,-1.222827 4.072723,-1.222827 l 3.740963,0 0.10149,2.581522 c 0.0558,1.419837 0.0306,4.449326 -0.0561,6.732196 -0.16662,4.389282 0.23862,6.671652 1.09101,6.144842 0.95479,-0.590092 3.18865,-5.582543 4.65353,-10.400152 1.30531,-4.292842 1.46019,-5.683777 1.50123,-13.482321 0.0294,-5.585016 -0.21538,-9.764932 -0.68427,-11.684782 C 104.86956,31.792226 93.70672,18.608007 78.476834,12.26779 73.424367,10.164444 64.769584,8.2614951 63.955872,9.0750305 63.589769,9.4410549 63.353041,26.573663 63.257715,59.601789 l -0.144218,49.972941 2.046397,-0.004 c 1.125522,-0.002 4.046908,-0.48342 6.491967,-1.06963 l 0,0 z"
     id="path4191"
     inkscape:connector-curvature="0" />
  <path
     style="fill:#5ba92f;fill-opacity:0"
     d="M 46.825861,116.91484 C 35.4886,114.38149 25.422237,108.75625 17.414943,100.47955 10.850662,93.694414 9.9741407,92.504028 6.7041276,85.93343 0.73895598,73.947316 -1.1136626,62.383908 0.92106272,49.83752 3.0300296,36.833348 8.82212,26.236438 19.293629,16.224018 26.327642,9.4983892 31.844617,6.2161913 41.337566,3.1094838 57.003329,-2.0173684 77.100003,0.54953938 90.436742,9.3808234 95.202753,12.536764 103.56867,20.496172 107.20639,25.335604 c 11.55426,15.371205 14.02837,37.89306 6.26225,57.005592 -1.7215,4.236636 -6.29532,11.227968 -10.61657,16.228017 -6.466404,7.482167 -17.393361,14.367957 -27.4936,17.325507 -4.343424,1.27185 -6.0175,1.4534 -14.945652,1.62088 -7.398034,0.13878 -10.987647,-0.0199 -13.586957,-0.60076 z M 54.855807,59.348104 C 54.773573,31.723461 54.561443,8.9767044 54.384399,8.7997582 53.814677,8.2303549 45.051069,10.161512 40.842862,11.783784 28.323315,16.610093 17.193835,27.449569 12.035457,39.840546 7.0669195,51.775511 7.0582325,66.177011 12.01208,78.596473 c 0.655764,1.644022 1.590697,3.600544 2.077629,4.347826 l 0.885331,1.358696 0.382106,-1.358696 c 0.210159,-0.747282 0.406485,-4.354619 0.436281,-8.016304 l 0.05417,-6.657609 3.804348,0 3.804348,0 0,13.743609 0,13.743609 2.309783,1.913027 c 5.374902,4.451659 12.058717,8.154859 18.342391,10.162689 4.639897,1.4826 5.240405,1.604 8.301683,1.67837 l 2.595159,0.063 -0.149505,-50.226626 z M 71.651861,108.5013 c 6.963354,-1.66946 14.540087,-5.56175 20.501076,-10.531756 l 2.664038,-2.221147 -0.350891,-12.516179 c -0.192989,-6.883897 -0.201592,-13.066451 -0.01913,-13.739005 0.303201,-1.117549 0.653826,-1.222827 4.072723,-1.222827 l 3.740963,0 0.10149,2.581522 c 0.0558,1.419837 0.0306,4.449326 -0.0561,6.732196 -0.16662,4.389282 0.23862,6.671652 1.09101,6.144842 0.95479,-0.590092 3.18865,-5.582543 4.65353,-10.400152 1.30531,-4.292842 1.46019,-5.683777 1.50123,-13.482321 0.0294,-5.585016 -0.21538,-9.764932 -0.68427,-11.684782 C 104.86956,31.792226 93.70672,18.608007 78.476834,12.26779 73.424367,10.164444 64.769584,8.2614951 63.955872,9.0750305 63.589769,9.4410549 63.353041,26.573663 63.257715,59.601789 l -0.144218,49.972941 2.046397,-0.004 c 1.125522,-0.002 4.046908,-0.48342 6.491967,-1.06963 l 0,0 z"
     id="path4193"
     inkscape:connector-curvature="0" />
  <path
     style="fill:#5ba92f;fill-opacity:0"
     d="M 46.825861,116.91484 C 35.4886,114.38149 25.422237,108.75625 17.414943,100.47955 10.850662,93.694414 9.9741407,92.504028 6.7041276,85.93343 0.73895598,73.947316 -1.1136626,62.383908 0.92106272,49.83752 3.0300296,36.833348 8.82212,26.236438 19.293629,16.224018 26.327642,9.4983892 31.844617,6.2161913 41.337566,3.1094838 57.003329,-2.0173684 77.100003,0.54953938 90.436742,9.3808234 95.202753,12.536764 103.56867,20.496172 107.20639,25.335604 c 11.55426,15.371205 14.02837,37.89306 6.26225,57.005592 -1.7215,4.236636 -6.29532,11.227968 -10.61657,16.228017 -6.466404,7.482167 -17.393361,14.367957 -27.4936,17.325507 -4.343424,1.27185 -6.0175,1.4534 -14.945652,1.62088 -7.398034,0.13878 -10.987647,-0.0199 -13.586957,-0.60076 z M 54.855807,59.348104 C 54.773573,31.723461 54.561443,8.9767044 54.384399,8.7997582 53.814677,8.2303549 45.051069,10.161512 40.842862,11.783784 28.323315,16.610093 17.193835,27.449569 12.035457,39.840546 7.0669195,51.775511 7.0582325,66.177011 12.01208,78.596473 c 0.655764,1.644022 1.590697,3.600544 2.077629,4.347826 l 0.885331,1.358696 0.382106,-1.358696 c 0.210159,-0.747282 0.406485,-4.354619 0.436281,-8.016304 l 0.05417,-6.657609 3.804348,0 3.804348,0 0,13.743609 0,13.743609 2.309783,1.913027 c 5.374902,4.451659 12.058717,8.154859 18.342391,10.162689 4.639897,1.4826 5.240405,1.604 8.301683,1.67837 l 2.595159,0.063 -0.149505,-50.226626 z M 71.651861,108.5013 c 6.963354,-1.66946 14.540087,-5.56175 20.501076,-10.531756 l 2.664038,-2.221147 -0.350891,-12.516179 c -0.192989,-6.883897 -0.201592,-13.066451 -0.01913,-13.739005 0.303201,-1.117549 0.653826,-1.222827 4.072723,-1.222827 l 3.740963,0 0.10149,2.581522 c 0.0558,1.419837 0.0306,4.449326 -0.0561,6.732196 -0.16662,4.389282 0.23862,6.671652 1.09101,6.144842 0.95479,-0.590092 3.18865,-5.582543 4.65353,-10.400152 1.30531,-4.292842 1.46019,-5.683777 1.50123,-13.482321 0.0294,-5.585016 -0.21538,-9.764932 -0.68427,-11.684782 C 104.86956,31.792226 93.70672,18.608007 78.476834,12.26779 73.424367,10.164444 64.769584,8.2614951 63.955872,9.0750305 63.589769,9.4410549 63.353041,26.573663 63.257715,59.601789 l -0.144218,49.972941 2.046397,-0.004 c 1.125522,-0.002 4.046908,-0.48342 6.491967,-1.06963 l 0,0 z"
     id="path4195"
     inkscape:connector-curvature="0" />
  <path
     style="fill:#5ba92f;fill-opacity:0"
     d="m 123.4563,48.161691 0,-40.7608698 9.7826,0 9.78261,0 0,4.8913048 0,4.891304 -4.8913,0 -4.89131,0 0,13.043478 0,13.043478 3.26087,0 3.26087,0 0,4.891305 0,4.891304 -3.18976,0 -3.18976,0 -0.33686,2.038044 c -0.18528,1.120924 -0.33956,9.191576 -0.34285,17.934782 l -0.006,15.896739 -4.61957,0 -4.61956,0 0,-40.760869 z"
     id="path4197"
     inkscape:connector-curvature="0" />
  <path
     style="fill:#5ba92f;fill-opacity:0"
     d="m 147.36934,48.139766 0,-40.7827946 8.55978,0.346816 c 9.61257,0.3894715 12.1543,0.8560163 13.6995,2.5145936 2.02532,2.173923 2.29166,5.672717 2.10423,27.642206 -0.16378,19.197208 -0.26179,21.075574 -1.17209,22.463873 -1.37721,2.100394 -4.21188,3.139073 -9.46859,3.469486 l -4.4837,0.281826 0,12.423397 0,12.423391 -4.61957,0 -4.61956,0 0,-40.782794 z m 14.08874,4.593178 1.67213,-1.407007 0,-15.673112 0,-15.673112 -1.43199,-1.126403 c -0.80436,-0.632709 -2.23357,-1.126402 -3.26087,-1.126402 l -1.82888,0 0,17.844203 c 0,9.814312 0.16304,18.007247 0.36232,18.206522 0.78484,0.784839 2.89756,0.292974 4.48729,-1.044689 z"
     id="path4199"
     inkscape:connector-curvature="0" />
  <path
     style="fill:#000080;fill-opacity:0"
     d="m 141.55949,102.78126 c -0.003,-1.79348 0.0959,-2.5927 0.21992,-1.77604 0.12401,0.81666 0.1265,2.28405 0.006,3.26087 -0.12095,0.97682 -0.22241,0.30864 -0.22546,-1.48483 z"
     id="path4201"
     inkscape:connector-curvature="0" />
  <path
     style="fill:url(#linearGradient4261);fill-opacity:1;opacity:0.98"
     d="M 46.825861,116.91484 C 35.4886,114.38149 25.422237,108.75625 17.414943,100.47955 10.850662,93.694414 9.9741407,92.504028 6.7041276,85.93343 0.73895598,73.947316 -1.1136626,62.383908 0.92106272,49.83752 3.0300296,36.833348 8.82212,26.236438 19.293629,16.224018 26.327642,9.4983892 31.844617,6.2161913 41.337566,3.1094838 57.003329,-2.0173684 77.100003,0.54953938 90.436742,9.3808234 95.202753,12.536764 103.56867,20.496172 107.20639,25.335604 c 11.55426,15.371205 14.02837,37.89306 6.26225,57.005592 -1.7215,4.236636 -6.29532,11.227968 -10.61657,16.228017 -6.466404,7.482167 -17.393361,14.367957 -27.4936,17.325507 -4.343424,1.27185 -6.0175,1.4534 -14.945652,1.62088 -7.398034,0.13878 -10.987647,-0.0199 -13.586957,-0.60076 z M 54.855807,59.348104 C 54.773573,31.723461 54.561443,8.9767044 54.384399,8.7997582 53.814677,8.2303549 45.051069,10.161512 40.842862,11.783784 28.323315,16.610093 17.193835,27.449569 12.035457,39.840546 7.0669195,51.775511 7.0582325,66.177011 12.01208,78.596473 c 0.655764,1.644022 1.590697,3.600544 2.077629,4.347826 l 0.885331,1.358696 0.382106,-1.358696 c 0.210159,-0.747282 0.406485,-4.354619 0.436281,-8.016304 l 0.05417,-6.657609 3.804348,0 3.804348,0 0,13.743609 0,13.743609 2.309783,1.913027 c 5.374902,4.451659 12.058717,8.154859 18.342391,10.162689 4.639897,1.4826 5.240405,1.604 8.301683,1.67837 l 2.595159,0.063 -0.149505,-50.226626 z M 71.651861,108.5013 c 6.963354,-1.66946 14.540087,-5.56175 20.501076,-10.531756 l 2.664038,-2.221147 -0.350891,-12.516179 c -0.192989,-6.883897 -0.201592,-13.066451 -0.01913,-13.739005 0.303201,-1.117549 0.653826,-1.222827 4.072723,-1.222827 l 3.740963,0 0.10149,2.581522 c 0.0558,1.419837 0.0306,4.449326 -0.0561,6.732196 -0.16662,4.389282 0.23862,6.671652 1.09101,6.144842 0.95479,-0.590092 3.18865,-5.582543 4.65353,-10.400152 1.30531,-4.292842 1.46019,-5.683777 1.50123,-13.482321 0.0294,-5.585016 -0.21538,-9.764932 -0.68427,-11.684782 C 104.86956,31.792226 93.70672,18.608007 78.476834,12.26779 73.424367,10.164444 64.769584,8.2614951 63.955872,9.0750305 63.589769,9.4410549 63.353041,26.573663 63.257715,59.601789 l -0.144218,49.972941 2.046397,-0.004 c 1.125522,-0.002 4.046908,-0.48342 6.491967,-1.06963 l 0,0 z"
     id="path4203"
     inkscape:connector-curvature="0" />
  <path
     style="fill:#5ba92f;fill-opacity:0"
     d="m 65.118173,76.900424 c -0.198991,-10.199127 -0.19905,-26.707279 -1.3e-4,-36.68478 l 0.361673,-18.14091 3.716551,0 3.716551,0 0,36.684783 0,36.684782 -3.716421,0 -3.716422,0 -0.361802,-18.543875 z"
     id="path4223"
     inkscape:connector-curvature="0" />
  <path
     style="fill:#5ba92f;fill-opacity:0"
     d="m 54.298687,117.3517 3.940218,-0.21399 0,-58.100911 0,-58.10091299 -2.581522,-0.23361136 C 54.237546,0.5737884 56.255209,0.55732851 60.141079,0.66569715 76.664988,1.1265138 87.941262,5.7809826 99.465599,16.897545 c 8.695021,8.387356 12.787981,14.73666 15.774551,24.470668 2.3947,7.804912 2.97579,12.431007 2.59417,20.652173 -0.66313,14.285598 -5.10391,25.118767 -14.98225,36.548827 -6.466407,7.482167 -17.393363,14.367957 -27.4936,17.325507 -4.405717,1.29008 -5.889457,1.44412 -14.945652,1.55162 -5.529891,0.0656 -8.28125,0.023 -6.114131,-0.0946 z m 6.114131,-58.320444 c 0,-51.3285022 -0.09566,-58.1521739 -0.815218,-58.1521739 -0.719558,0 -0.815217,6.8236717 -0.815217,58.1521739 0,51.328504 0.09566,58.152174 0.815217,58.152174 0.719559,0 0.815218,-6.82367 0.815218,-58.152174 z m 1.630435,0 c 0,-38.405797 -0.184546,-58.1521739 -0.543479,-58.1521739 -0.358932,0 -0.543478,19.7463769 -0.543478,58.1521739 0,38.405799 0.184546,58.152174 0.543478,58.152174 0.358933,0 0.543479,-19.746375 0.543479,-58.152174 z m 9.765651,49.432534 c 6.660589,-1.59666 14.302842,-5.54931 20.343315,-10.521773 L 94.815534,95.749598 94.44633,82.910501 c -0.203062,-7.061506 -0.213703,-13.244327 -0.02365,-13.739609 0.275462,-0.717843 1.10546,-0.900506 4.091758,-0.900506 l 3.746198,0 0.10149,2.581522 c 0.0558,1.419837 0.0306,4.449326 -0.0561,6.732196 -0.16662,4.389282 0.23861,6.671652 1.091,6.144842 0.95026,-0.587288 3.1856,-5.572744 4.66314,-10.400152 1.34595,-4.397462 1.46508,-5.537908 1.46508,-14.025799 0,-8.518671 -0.11585,-9.617938 -1.48569,-14.096936 C 102.39081,26.736105 87.74764,13.272413 69.183847,9.4800777 66.379632,8.9072147 63.931527,8.5922033 63.743612,8.7800527 63.555697,8.9679022 63.337066,31.723553 63.257765,59.348164 l -0.144185,50.226566 2.046358,-0.004 c 1.125497,-0.002 4.117531,-0.5003 6.648966,-1.10713 l 0,-1e-5 z"
     id="path4225"
     inkscape:connector-curvature="0" />
  <path
     style="fill:#afd446;fill-opacity:0"
     d="m 25.630209,73.976908 0,-21.467391 2.944681,0 c 5.106181,0 4.664015,-2.066465 4.664015,21.797277 l 0,21.137505 -3.804348,0 -3.804348,0 0,-21.467391 z"
     id="path4227"
     inkscape:connector-curvature="0" />
  <path
     style="fill:#afd446;fill-opacity:0"
     d="m 52.939992,117.35943 3.125,-0.23024 0,-58.090624 0,-58.09061597 L 54.298687,0.6837852 C 53.32722,0.53849454 55.834013,0.5193203 59.86934,0.64117568 76.738407,1.1505738 87.885237,5.7269402 99.465599,16.897545 c 8.662101,8.355599 12.750041,14.683149 15.777311,24.42101 2.26345,7.280848 2.99779,13.30931 2.58797,21.24531 -0.71314,13.809386 -5.27683,24.779348 -14.97881,36.005348 -6.466407,7.482167 -17.393363,14.367957 -27.4936,17.325507 -4.419618,1.29416 -5.887087,1.44494 -15.217391,1.56361 -5.679348,0.0722 -8.919837,0.0277 -7.201087,-0.0989 z m 4.619465,-87.540131 c -0.07998,-16.066576 -0.145413,-2.921195 -0.145413,29.211957 0,32.133152 0.06544,45.278534 0.145413,29.211957 0.07998,-16.066577 0.07998,-42.357337 0,-58.423914 z m 2.173913,0 c -0.07998,-16.066576 -0.145413,-2.921195 -0.145413,29.211957 0,32.133152 0.06544,45.278534 0.145413,29.211957 0.07998,-16.066577 0.07998,-42.357337 0,-58.423914 z m 12.075534,78.644491 c 6.660944,-1.59675 14.302845,-5.54931 20.344035,-10.522376 l 2.664034,-2.193017 -0.350888,-12.516179 c -0.192988,-6.883897 -0.201595,-13.066451 -0.01913,-13.739005 0.303201,-1.117549 0.653827,-1.222827 4.072723,-1.222827 l 3.740958,0 0.10149,2.581522 c 0.0558,1.419837 0.0306,4.449326 -0.0561,6.732196 -0.16662,4.389282 0.23861,6.671652 1.091,6.144842 0.95026,-0.587288 3.1856,-5.572744 4.66314,-10.400152 1.34595,-4.397462 1.46508,-5.537908 1.46508,-14.025799 0,-8.518671 -0.11585,-9.617938 -1.48569,-14.096936 C 103.42963,30.132736 92.715649,18.195422 78.476838,12.26779 73.424373,10.164444 64.769592,8.2614951 63.95588,9.0750305 63.589775,9.4410549 63.353044,26.573663 63.257722,59.601789 l -0.144227,49.972941 2.046401,-0.004 c 1.12552,-0.002 4.117573,-0.5003 6.649008,-1.10713 l 0,-1e-5 z"
     id="path4229"
     inkscape:connector-curvature="0" />
  <path
     style="fill:#afd446;fill-opacity:0"
     d="M 44.380209,116.11916 C 32.452878,112.97013 23.182054,107.07813 14.192627,96.933707 9.3041276,91.417115 5.9106602,85.28162 3.1055352,76.887914 -2.3547873,60.54912 0.00427397,42.334941 9.4347917,28.020076 13.486506,21.869857 21.656,13.5131 27.160188,9.8883729 35.108711,4.653955 44.86641,1.4949485 54.570427,1.0144451 l 5.842391,-0.28929145 0,58.22914035 0,58.229136 -6.114131,-0.0299 c -4.126592,-0.0202 -7.35082,-0.35644 -9.918478,-1.03435 z M 54.972052,61.069299 C 54.968791,34.39131 54.810845,11.624321 54.621117,10.475989 L 54.276166,8.3881131 51.797556,8.7598033 C 35.692228,11.174946 20.736507,22.180805 13.396571,37.018943 c -4.7986956,9.700862 -6.3240178,21.5394 -4.1364119,32.10409 1.0902569,5.265218 3.7022079,12.581065 5.0878729,14.25069 1.033188,1.244913 1.383181,-0.800168 1.445395,-8.445728 l 0.05417,-6.657609 3.795173,0 3.795173,0 0.145045,13.951066 0.145044,13.95107 3.804348,2.90406 c 7.439652,5.679088 18.499659,10.444718 24.320652,10.479488 l 3.125,0.0187 -0.006,-48.505431 -5e-6,0 z"
     id="path4231"
     inkscape:connector-curvature="0" />
  <path
     style="fill:#1ed446;fill-opacity:0"
     d="m 123.4563,48.161691 0,-40.7608698 9.7826,0 9.78261,0 0,4.8913048 0,4.891304 -4.8913,0 -4.89131,0 0,13.043478 0,13.043478 3.26087,0 3.26087,0 0,4.891305 0,4.891304 -3.18976,0 -3.18976,0 -0.33686,2.038044 c -0.18528,1.120924 -0.33956,9.191576 -0.34285,17.934782 l -0.006,15.896739 -4.61957,0 -4.61956,0 0,-40.760869 z"
     id="path4233"
     inkscape:connector-curvature="0" />
  <path
     style="fill:#1ed446;fill-opacity:0"
     d="M 46.825861,116.91484 C 39.63445,115.30789 30.802723,111.38316 24.806966,107.12987 20.079432,103.77623 11.420194,94.526071 8.785845,90.015446 4.7194347,83.052789 4.9422015,84.853386 4.9422015,58.947691 l 0,-23.402281 1.9775868,-3.610338 C 11.512086,23.551244 20.745782,13.646403 28.426533,8.8651272 37.293778,3.3452567 47.493207,0.5847628 58.782383,0.64926112 76.298405,0.74933514 88.325965,5.7892277 100.66784,18.200471 c 12.22016,12.28885 16.72684,23.237496 16.83693,40.904111 0.089,14.274 -2.94614,23.942891 -10.8707,34.630734 -8.06235,10.873694 -18.776399,18.461134 -31.2756,22.148644 -4.359364,1.2861 -5.984734,1.46355 -14.945652,1.63164 -7.398034,0.13878 -10.987647,-0.0199 -13.586957,-0.60076 z M 54.858482,59.601702 C 54.758362,26.725557 54.517596,9.4400435 54.154738,9.0773201 53.363879,8.2867538 44.509226,10.237148 39.587781,12.285951 30.60539,16.02533 22.079822,23.203948 16.554965,31.679827 10.420779,41.090499 8.5490218,47.567707 8.5725324,59.302995 8.5912509,68.64624 9.5478282,73.215223 12.953235,80.226908 l 1.979657,4.076087 0.426033,-2.173913 c 0.234319,-1.195652 0.440129,-4.802989 0.457355,-8.016304 l 0.03132,-5.842392 3.804348,0 3.804348,0 0,13.818174 0,13.81818 4.39683,3.313108 c 7.492578,5.645822 18.393277,10.224662 24.559704,10.316282 l 2.597839,0.0386 -0.152187,-49.973028 z m 20.174309,47.846208 c 5.680489,-1.90313 11.965337,-5.29027 16.279869,-8.773822 l 3.067549,-2.476729 0.0088,-13.012402 c 0.0049,-7.156815 0.06598,-13.440386 0.13587,-13.963484 0.107294,-0.803114 0.718951,-0.951087 3.931413,-0.951087 l 3.804344,0 0.0778,3.125 c 0.0428,1.71875 0.0189,4.752413 -0.0532,6.741473 -0.13196,3.645109 0.24898,5.894397 0.99826,5.894397 0.47601,0 1.87187,-2.775957 3.66934,-7.297255 3.8081,-9.578712 3.88133,-24.561685 0.16857,-34.485059 -5.98831,-16.005484 -19.406909,-28.258103 -35.169692,-32.113718 -6.65812,-1.6285919 -7.884897,-1.6310957 -8.334625,-0.01701 -0.208217,0.747282 -0.402956,23.466071 -0.43275,50.486195 l -0.05417,49.127502 3.525218,-0.32919 c 1.938869,-0.18105 5.708684,-1.06071 8.377364,-1.95481 z"
     id="path4235"
     inkscape:connector-curvature="0" />
  <path
     style="fill:#1ed446;fill-opacity:0"
     d="M 48.678344,117.18482 C 41.650483,116.20804 31.619636,111.8892 24.874211,106.9358 14.423002,99.261109 7.6204374,90.067593 3.113613,77.526816 1.398694,72.754848 0.09355293,64.765647 0.09212022,59.031256 0.09010359,50.959547 2.4750416,40.583071 5.8765102,33.864317 11.605792,22.547549 22.860896,11.243108 33.242952,6.3779125 45.99462,0.40227933 60.110677,-0.95813845 73.511834,2.4970472 c 7.415908,1.912024 7.009679,1.549876 7.009679,6.249018 0,3.9321418 -0.269423,4.6358138 -1.385869,3.6195758 C 78.391611,11.688389 68.681845,9.1132685 66.149872,8.9216913 64.264269,8.7790212 63.960307,8.9229413 63.622524,10.118213 63.41134,10.865495 63.214177,33.58439 63.184383,60.604647 l -0.05417,49.127733 3.668478,-0.32823 c 3.114658,-0.27868 9.335451,-1.91106 12.77174,-3.3514 0.856592,-0.35905 0.951086,0.005 0.951086,3.66932 l 0,4.06796 -3.125,1.14358 c -1.71875,0.62898 -4.225543,1.37063 -5.570652,1.64812 -3.547701,0.73187 -19.273064,1.14158 -23.147517,0.60309 z m 6.18261,-57.83676 C 54.775894,31.723393 54.552546,8.9677419 54.364633,8.7799495 53.749475,8.1651941 43.919152,10.482797 39.710762,12.234754 27.856113,17.169857 16.535732,28.530536 11.877162,40.167435 8.553008,48.471022 7.4884847,58.933473 9.0542238,67.912088 9.9147271,72.846577 12.476799,80.522609 14.054479,82.892979 l 0.938487,1.410016 0.395996,-2.173913 c 0.217799,-1.195652 0.410092,-4.802989 0.427318,-8.016304 l 0.03132,-5.842392 3.804348,0 3.804348,0 0,13.818174 0,13.81818 4.211957,3.171777 c 8.073639,6.079793 18.012381,10.269893 24.747049,10.433173 l 2.600309,0.063 -0.154657,-50.22667 z"
     id="path4237"
     inkscape:connector-curvature="0" />
  <path
     style="opacity:0.98000004;fill:#0d1346;fill-opacity:0"
     d="m 25.630209,73.976908 0,-21.467391 2.944681,0 c 5.106181,0 4.664015,-2.066465 4.664015,21.797277 l 0,21.137505 -3.804348,0 -3.804348,0 0,-21.467391 z"
     id="path4263"
     inkscape:connector-curvature="0" />
  <path
     style="opacity:0.98000004;fill:#0d1346;fill-opacity:0"
     d="m 35.412818,66.368213 0,-29.076087 3.726926,0 3.726925,0 0.349162,3.340593 c 0.451653,4.321189 0.446944,24.968571 -0.0095,41.680097 l -0.358668,13.131483 -3.717419,0 -3.71742,0 0,-29.076086 z"
     id="path4265"
     inkscape:connector-curvature="0" />
  <path
     style="opacity:0.98000004;fill:#0d1346;fill-opacity:0"
     d="m 25.630209,73.976908 0,-21.467391 2.944681,0 c 5.106181,0 4.664015,-2.066465 4.664015,21.797277 l 0,21.137505 -3.804348,0 -3.804348,0 0,-21.467391 z"
     id="path4267"
     inkscape:connector-curvature="0" />
  <path
     style="opacity:0.98000004;fill:#0d1346;fill-opacity:0"
     d="m 35.412818,66.368213 0,-29.076087 3.726926,0 3.726925,0 0.349162,3.340593 c 0.451653,4.321189 0.446944,24.968571 -0.0095,41.680097 l -0.358668,13.131483 -3.717419,0 -3.71742,0 0,-29.076086 z"
     id="path4269"
     inkscape:connector-curvature="0" />
  <path
     style="opacity:0.98000004;fill:#0d1346;fill-opacity:0"
     d="m 49.814992,117.40327 c -0.896739,-0.11949 -2.853261,-0.48669 -4.347826,-0.81601 l -2.717392,-0.59875 0.08759,-4.36657 0.08759,-4.36658 -5.794112,-2.90277 c -3.186763,-1.59652 -7.437796,-4.19287 -9.446741,-5.769655 l -3.652628,-2.866896 -0.01585,-13.994566 -0.01585,-13.994565 -4.347826,0 -4.347826,0 0,7.608696 c 0,4.184782 -0.210657,7.608695 -0.468126,7.608695 -0.818071,0 -3.928096,-8.155777 -5.0614096,-13.273114 C 8.2228622,62.664566 8.5916989,52.094111 10.625564,45.283111 15.1463,30.144082 27.023078,17.374414 41.636737,11.940532 43.44456,11.268319 44.51502,10.705583 44.015537,10.690008 43.267115,10.666671 43.075938,9.9473381 42.928581,6.6001566 L 42.749774,2.5386222 45.467166,1.9442901 C 56.860294,-0.54754875 70.347856,0.58748737 82.295177,5.0435255 92.365584,8.7995229 105.23833,20.52807 111.12838,31.313865 c 2.1399,3.918569 4.50332,9.913748 4.8997,12.428861 0.14172,0.899223 0.3774,1.833366 0.52373,2.075872 0.93264,1.54562 1.40528,19.060799 0.64251,23.810484 -1.09357,6.80956 -4.3678,14.958457 -8.5619,21.308859 -4.75036,7.192641 -10.608711,13.197949 -16.802787,17.224299 -10.352946,6.72976 -17.245918,8.76147 -31.145076,9.18005 -5.081522,0.15303 -9.972826,0.18047 -10.869565,0.061 z m 3.668478,-8.21208 c -0.672554,-0.12955 -1.773098,-0.12955 -2.445652,0 -0.672555,0.12953 -0.122283,0.23552 1.222826,0.23552 1.345109,0 1.89538,-0.10599 1.222826,-0.23552 z m 12.513,-0.0138 -2.296777,-0.20741 -0.162935,-9.072644 -0.162935,-9.072652 -0.12181,9.374996 -0.121804,9.375 2.581522,-0.0949 2.581522,-0.0949 -2.296783,-0.20741 0,1e-5 z M 48.558198,108.66 c -0.392323,-0.15699 -0.861073,-0.13769 -1.041667,0.0429 -0.180593,0.18059 0.140399,0.30904 0.713316,0.28545 0.633121,-0.0261 0.761902,-0.15486 0.328351,-0.32835 l 0,2e-5 z m 25.169837,-0.65386 c 4.034017,-1.25789 8.664652,-3.26313 8.323424,-3.60436 -0.139886,-0.13988 -1.336185,0.27947 -2.658446,0.93188 -1.32226,0.65242 -4.36063,1.73307 -6.751934,2.40145 -2.391305,0.66837 -3.858696,1.23156 -3.26087,1.25154 0.597826,0.0199 2.554348,-0.42126 4.347826,-0.98051 z m -27.717391,-0.0618 c -0.597826,-0.2569 -1.453804,-0.46708 -1.902174,-0.46708 -0.513847,0 -0.413391,0.17267 0.271739,0.46708 0.597826,0.2569 1.453804,0.46708 1.902174,0.46708 0.513847,0 0.413391,-0.17267 -0.271739,-0.46708 z m 39.945652,-5.73444 c 0,-0.14945 -0.733696,0.10767 -1.630435,0.5714 -0.896739,0.46372 -1.630434,0.96541 -1.630434,1.11487 0,0.14945 0.733695,-0.10767 1.630434,-0.5714 0.896739,-0.46372 1.630435,-0.96541 1.630435,-1.11487 z m 6.114131,-4.225995 2.581521,-2.166234 -0.120174,-8.202973 -0.120179,-8.202967 -0.165772,7.960185 -0.165766,7.960179 -2.295576,2.099435 c -1.262565,1.154684 -3.029272,2.67312 -3.926011,3.37431 l -1.630435,1.27487 1.630435,-0.96528 c 0.896739,-0.53091 2.79212,-1.940096 4.211957,-3.131525 z M 29.576642,95.584365 25.64264,95.39693 25.494139,73.817354 25.345638,52.237778 l -0.129453,21.875 -0.129454,21.875 4.211956,-0.107989 4.211957,-0.107984 -3.934002,-0.18744 z m 13.738104,-8.835718 0.02149,-8.967391 -0.170826,8.831522 -0.170825,8.831521 -3.790885,0 -3.790885,0 0,-29.076086 0,-29.076087 3.773099,0 3.773099,0 0.213591,2.038043 0.213591,2.038044 -0.04647,-2.173914 -0.04647,-2.173913 -4.076087,0 -4.076087,0 -0.140561,29.506642 -0.140562,29.506641 4.216649,-0.158815 4.216649,-0.158815 0.02149,-8.967392 z m 7.723072,8.843223 c -1.120924,-0.11725 -2.955163,-0.11725 -4.076087,0 -1.120924,0.117256 -0.203804,0.213185 2.038043,0.213185 2.241848,0 3.158968,-0.09593 2.038044,-0.213185 z m 22.307853,-4.359527 -0.110619,-4.755435 -0.183098,4.483696 -0.183093,4.483695 -3.782369,0 -3.78237,0 -0.124701,-12.36413 -0.124706,-12.36413 -0.157979,11.943663 c -0.08689,6.569016 -0.03842,12.255157 0.107647,12.635869 0.182598,0.475837 1.54506,0.692207 4.358772,0.692207 l 4.093141,0 -0.110625,-4.755435 z m 9.767304,-8.967391 -0.125929,-13.722826 -0.155304,13.451087 -0.155305,13.451086 -3.794853,0 -3.794853,0 -0.125745,-13.722826 -0.125744,-13.722826 -0.15594,13.304951 c -0.08577,7.317723 -0.03685,13.615278 0.108684,13.994566 0.181392,0.472695 1.552114,0.689614 4.357777,0.689614 l 4.093142,0 -0.12593,-13.722826 z m 7.586636,13.326195 c -1.127592,-0.117646 -2.839549,-0.115674 -3.804348,0.0043 -0.964804,0.12006 -0.04223,0.216321 2.050164,0.213908 2.092391,-0.0022 2.881771,-0.100642 1.754184,-0.218294 l 0,3.8e-5 z M 45.059359,40.728478 c -0.08284,-10.110102 -0.15067,-1.996135 -0.150727,18.031039 -5.8e-5,20.027174 0.06772,28.299076 0.150622,18.382005 0.0829,-9.91707 0.08295,-26.302942 1.05e-4,-36.413044 z m 39.943856,25.775213 c 0.07583,-7.697228 -0.04554,-13.994783 -0.269745,-13.994567 -0.224185,2.16e-4 -0.353962,9.599578 -0.288397,21.331915 0.06557,11.732337 0.186951,18.029891 0.269745,13.994565 0.08279,-4.035326 0.212576,-13.63469 0.288397,-21.331913 z m 20.020495,14.720636 c 0.61441,-1.204343 1.01603,-2.290783 0.89249,-2.414321 -0.12353,-0.123538 -0.66687,0.756141 -1.2074,1.954837 -0.54054,1.198701 -1.19023,2.179456 -1.44374,2.179456 -0.25351,0 -0.46094,0.259 -0.46094,0.575555 0,1.049136 1.08656,-0.07459 2.21959,-2.295527 z m -2.37473,-3.588674 c -0.12402,-0.816658 -0.22298,-0.01745 -0.21993,1.776038 0.003,1.793478 0.10451,2.461652 0.22547,1.484831 0.12096,-0.97682 0.11846,-2.444212 -0.006,-3.260869 z m -9.777793,-3.522875 c -0.120559,-0.971468 -0.219201,-0.176631 -0.219201,1.766304 0,1.942935 0.09864,2.737772 0.219201,1.766304 0.120555,-0.971467 0.120555,-2.561141 0,-3.532608 z m 1.090941,-2.19031 c -0.113979,-1.261364 -0.205881,-0.0923 -0.204223,2.597918 0.0016,2.690218 0.09491,3.72224 0.207233,2.293386 0.112327,-1.428858 0.110968,-3.629945 -0.0033,-4.891304 l 2.5e-4,0 z m 13.421772,3.413136 c 0.25258,-0.944283 0.2098,-1.110049 -0.14026,-0.543478 -0.27703,0.448369 -0.66723,1.42663 -0.86712,2.173913 -0.25258,0.944282 -0.2098,1.110049 0.14026,0.543478 0.27703,-0.44837 0.66723,-1.426631 0.86712,-2.173913 z m 0.63988,-3.11368 c -0.1806,-0.180592 -0.30904,0.140403 -0.28545,0.713316 0.0261,0.633125 0.15486,0.761902 0.32835,0.328353 0.157,-0.392326 0.13769,-0.861076 -0.0429,-1.041669 l -2e-5,0 z m -5.21966,-2.592842 c 0,-1.465619 -0.21828,-1.892326 -0.95108,-1.859266 -0.56818,0.02565 -0.67758,0.153266 -0.27174,0.317027 0.37364,0.150766 0.67934,0.98744 0.67934,1.859266 0,0.871832 0.12229,1.585147 0.27174,1.585147 0.14946,0 0.27174,-0.855978 0.27174,-1.902174 z m 5.79472,0.13587 c -0.15077,-0.373642 -0.27413,-0.06793 -0.27413,0.679347 0,0.747283 0.12336,1.05299 0.27413,0.679348 0.15077,-0.373641 0.15077,-0.985054 0,-1.358695 z M 95.448508,67.808354 c -0.306228,-0.322359 -1.340038,0.494641 -1.340038,1.059011 0,0.293059 0.342179,0.217483 0.760402,-0.167941 0.418223,-0.385429 0.67906,-0.786407 0.579636,-0.89107 z M 109.13887,66.49374 c -0.14887,-0.367951 -0.26161,0.06469 -0.25054,0.961429 0.0111,0.896739 0.13288,1.197794 0.27068,0.669005 0.13779,-0.528788 0.12873,-1.262483 -0.0202,-1.630434 l 3e-5,0 z M 43.939625,64.601908 c -0.1367,-0.523098 -0.248545,-0.09511 -0.248545,0.951087 0,1.046196 0.111845,1.474185 0.248545,0.951087 0.1367,-0.523098 0.1367,-1.379076 0,-1.902174 z M 109.7288,56.199294 c -0.10643,-1.879924 -0.19438,-0.483255 -0.19546,3.103701 -0.001,3.586957 0.086,5.125071 0.19351,3.418038 0.10751,-1.707038 0.10838,-4.64182 0.002,-6.521739 l -2.2e-4,0 z M 74.949481,43.709163 c -0.09416,-3.678827 -0.171495,-0.819211 -0.171853,6.354702 -3.54e-4,7.173913 0.07669,10.183864 0.171206,6.688777 0.09452,-3.495087 0.09481,-9.364652 5.44e-4,-13.043479 l 1.03e-4,0 z m 8.146619,8.664484 c -0.109782,-1.569293 -0.199608,-0.285326 -0.199608,2.853261 0,3.138587 0.08983,4.422555 0.199608,2.853261 0.109783,-1.569293 0.109783,-4.137228 0,-5.706522 z m 9.756571,2.989131 c -0.136701,-0.523098 -0.248549,-0.09511 -0.248549,0.951087 0,1.046195 0.111848,1.474184 0.248549,0.951087 0.136696,-0.523098 0.136696,-1.379076 0,-1.902174 z M 29.56409,52.125136 c -0.67604,-0.129996 -1.6543,-0.125061 -2.173913,0.01097 -0.519613,0.136029 0.03351,0.242389 1.229163,0.236357 1.195652,-0.006 1.620789,-0.117328 0.94475,-0.247325 z m 58.963385,0.0078 c -0.528788,-0.137795 -1.262483,-0.128733 -1.630434,0.02014 -0.367951,0.148871 0.06469,0.261613 0.961429,0.250537 0.896739,-0.01108 1.197793,-0.132879 0.669005,-0.270675 z m 20.611395,-1.9435 c -0.14887,-0.367952 -0.26161,0.06469 -0.25054,0.96143 0.0111,0.896739 0.13288,1.197792 0.27068,0.669005 0.13779,-0.528787 0.12873,-1.262482 -0.0202,-1.630435 l 3e-5,0 z M 83.055361,47.482343 c -0.150766,-0.373641 -0.274125,-0.06793 -0.274125,0.679348 0,0.747282 0.123359,1.052989 0.274125,0.679348 0.150767,-0.373642 0.150767,-0.985055 0,-1.358696 z m 25.543479,0 c -0.15077,-0.373641 -0.27413,-0.06793 -0.27413,0.679348 0,0.747282 0.12336,1.052989 0.27413,0.679348 0.15077,-0.373642 0.15077,-0.985055 0,-1.358696 z m -25.57506,-2.43433 c -0.180598,-0.180593 -0.309044,0.140399 -0.285446,0.713315 0.02609,0.633121 0.154859,0.761902 0.328348,0.328352 0.156995,-0.392323 0.13769,-0.861073 -0.04288,-1.041667 l -2.2e-5,0 z m 25,0 c -0.1806,-0.180593 -0.30904,0.140399 -0.28545,0.713315 0.0261,0.633121 0.15486,0.761902 0.32835,0.328352 0.157,-0.392323 0.13769,-0.861073 -0.0429,-1.041667 l -2e-5,0 z m -38.769103,-23.113429 3.92988,-0.187353 -4.211957,-0.107987 -4.211956,-0.107988 0.124929,12.36413 0.12493,12.364131 0.157141,-12.06879 0.157147,-12.068791 3.929886,-0.187352 z m 13.832994,16.839985 c -0.12006,-0.9648 -0.216321,-0.04223 -0.213908,2.050165 0.0022,2.092392 0.100642,2.881774 0.218294,1.754183 0.117647,-1.127591 0.115674,-2.839548 -0.0043,-3.804348 l -3.8e-5,0 z m 23.396329,1.93315 c -3.34698,-8.286283 -9.485231,-16.39939 -16.451617,-21.744568 -4.010179,-3.076938 -12.462489,-7.534033 -15.217391,-8.02448 -0.896739,-0.159644 -0.354859,0.184112 1.204174,0.7639 13.581858,5.050949 25.330544,16.571643 30.127444,29.542786 0.63826,1.725907 1.2665,3.031984 1.39609,2.902392 0.12959,-0.129591 -0.34682,-1.677605 -1.0587,-3.44003 z m -53.1364,-11.296028 0,-7.880435 -3.940217,0.106446 -3.940217,0.106446 3.668478,0.190124 3.668478,0.190125 0,7.583864 c 0,4.171125 0.122283,7.583865 0.271739,7.583865 0.149457,0 0.271739,-3.546196 0.271739,-7.880435 z m 27.309783,7.487285 c -0.971467,-0.120558 -2.561141,-0.120558 -3.532609,0 -0.971467,0.120558 -0.17663,0.219196 1.766305,0.219196 1.942934,0 2.737771,-0.09864 1.766304,-0.219196 z M 73.302807,23.848511 c -0.124919,-0.826121 -0.230467,-0.279212 -0.234549,1.215354 -0.0043,1.494565 0.09813,2.170482 0.22713,1.502038 0.129,-0.668445 0.132343,-1.891271 0.0074,-2.717392 l 2.7e-5,0 z M 54.834544,14.853803 c -0.109406,-1.558379 -0.197916,-0.143199 -0.19669,3.144844 0.0013,3.288044 0.09074,4.563081 0.198919,2.833417 0.10818,-1.729664 0.107176,-4.419881 -0.0022,-5.978261 z m 8.698605,-0.502336 c -0.106429,-1.879921 -0.194386,-0.483254 -0.195462,3.103702 -0.0011,3.586957 0.08601,5.125073 0.193511,3.418037 0.107506,-1.707036 0.108381,-4.641819 0.0022,-6.521739 l -2.23e-4,0 z M 46.384285,10.290433 c -0.392323,-0.156995 -0.861073,-0.137687 -1.041667,0.04291 -0.180593,0.180593 0.140399,0.309044 0.713316,0.285445 0.633121,-0.02608 0.761902,-0.154859 0.328351,-0.328351 z M 64.002041,9.1784479 c -0.180598,-0.180593 -0.309044,0.1403989 -0.285446,0.7133152 0.02609,0.6331209 0.154859,0.7619019 0.328348,0.3283519 0.156994,-0.3923237 0.13769,-0.8610737 -0.04288,-1.0416671 l -2.1e-5,0 z M 72.0976,10.118213 C 71.499774,9.861318 70.521513,9.6583201 69.923687,9.6671066 c -0.873799,0.012842 -0.820505,0.1013076 0.27174,0.4511064 1.858244,0.595114 3.287076,0.595114 1.902173,0 z M 48.558198,9.7469549 c -0.392323,-0.1569951 -0.861073,-0.1376869 -1.041667,0.042908 -0.180593,0.1805935 0.140399,0.3090445 0.713316,0.2854455 0.633121,-0.02608 0.761902,-0.1548591 0.328351,-0.3283514 z m 3.012755,-0.5488462 c -0.528787,-0.1377951 -1.262482,-0.1287331 -1.630435,0.020136 -0.367952,0.1488712 0.06469,0.261613 0.96143,0.250537 0.896739,-0.011076 1.197792,-0.1328794 0.669005,-0.270675 z m 16.304349,0 c -0.528789,-0.1377951 -1.262484,-0.1287331 -1.630435,0.020136 -0.367951,0.1488712 0.06469,0.261613 0.961429,0.250537 0.896739,-0.011076 1.197794,-0.1328794 0.669006,-0.270675 z"
     id="path4271"
     inkscape:connector-curvature="0" />
  <path
     style="opacity:0.98000004;fill:#0d1346;fill-opacity:0"
     d="m 123.4563,48.161691 0,-40.7608698 9.7826,0 9.78261,0 0,4.8913048 0,4.891304 -4.8913,0 -4.89131,0 0,13.043478 0,13.043478 3.26087,0 3.26087,0 0,4.891305 0,4.891304 -3.18976,0 -3.18976,0 -0.33686,2.038044 c -0.18528,1.120924 -0.33956,9.191576 -0.34285,17.934782 l -0.006,15.896739 -4.61957,0 -4.61956,0 0,-40.760869 z"
     id="path4273"
     inkscape:connector-curvature="0" />
  <path
     style="opacity:0.98000004;fill:#0d1346;fill-opacity:0"
     d="m 147.36934,48.139766 0,-40.7827946 8.55978,0.346816 c 9.61257,0.3894715 12.1543,0.8560163 13.6995,2.5145936 2.02532,2.173923 2.29166,5.672717 2.10423,27.642206 -0.16378,19.197208 -0.26179,21.075574 -1.17209,22.463873 -1.37721,2.100394 -4.21188,3.139073 -9.46859,3.469486 l -4.4837,0.281826 0,12.423397 0,12.423391 -4.61957,0 -4.61956,0 0,-40.782794 z m 14.08874,4.593178 1.67213,-1.407007 0,-15.673112 0,-15.673112 -1.43199,-1.126403 c -0.80436,-0.632709 -2.23357,-1.126402 -3.26087,-1.126402 l -1.82888,0 0,17.844203 c 0,9.814312 0.16304,18.007247 0.36232,18.206522 0.78484,0.784839 2.89756,0.292974 4.48729,-1.044689 z"
     id="path4275"
     inkscape:connector-curvature="0" />
  <path
     style="opacity:0.98000004;fill:#0d1346;fill-opacity:0"
     d="m 176.71717,48.161691 0,-40.7608698 9.51087,0 9.51086,0 0,4.8913048 0,4.891304 -4.8913,0 -4.8913,0 0,13.043478 0,13.043478 3.26087,0 3.26087,0 0,4.891305 0,4.891304 -3.26087,0 -3.26087,0 0,17.934783 0,17.934782 -4.61957,0 -4.61956,0 0,-40.760869 z"
     id="path4277"
     inkscape:connector-curvature="0" />
  <path
     style="opacity:0.98000004;fill:#0d1346;fill-opacity:0"
     d="m 200.08673,48.161691 0,-40.7608698 4.61957,0 4.61956,0 0,40.7608698 0,40.760869 -4.61956,0 -4.61957,0 0,-40.760869 z"
     id="path4279"
     inkscape:connector-curvature="0" />
  <path
     style="opacity:0.98000004;fill:#7db840;fill-opacity:1"
     d="m 35.447446,66.368212 0,-29.076087 3.734683,0 3.734683,0 0.396025,7.686432 c 0.217813,4.227538 0.216241,17.311777 -0.0035,29.076087 l -0.399537,21.389655 -3.731188,0 -3.731188,0 0,-29.076087 z"
     id="path4194"
     inkscape:connector-curvature="0" />
  <path
     style="opacity:0.98000004;fill:#a6ad44;fill-opacity:1"
     d="m 25.664837,73.976908 0,-21.467391 2.944681,0 c 5.106181,0 4.664015,-2.066466 4.664015,21.797276 l 0,21.137506 -3.804348,0 -3.804348,0 0,-21.467391 z"
     id="path4196"
     inkscape:connector-curvature="0" />
  <path
     style="opacity:0.98000004;fill:#a3ca41;fill-opacity:1"
     d="m 25.664837,73.976908 0,-21.467391 2.922585,0 c 2.05434,0 3.144175,0.26678 3.668478,0.898007 0.596036,0.717589 0.781297,5.030608 0.922104,21.467392 l 0.176211,20.569383 -3.844689,0 -3.844689,0 0,-21.467391 z"
     id="path4198"
     inkscape:connector-curvature="0" />
  <path
     style="opacity:0.98000004;fill:#a3ca41;fill-opacity:1"
     d="m 35.447446,66.368212 0,-29.076087 3.728333,0 3.728333,0 0.273154,7.595481 c 0.150235,4.177514 0.149282,17.261753 -0.0021,29.076087 l -0.275268,21.480606 -3.726217,0 -3.726216,0 0,-29.076087 z"
     id="path4200"
     inkscape:connector-curvature="0" />
  <path
     style="opacity:0.98000004;fill:#97c051;fill-opacity:1"
     d="m 35.447446,66.368212 0,-29.076087 3.804348,0 3.804348,0 0,29.076087 0,29.076087 -3.804348,0 -3.804348,0 0,-29.076087 z"
     id="path4202"
     inkscape:connector-curvature="0" />
  <path
     style="opacity:0.98000004;fill:#8bb756;fill-opacity:1"
     d="m 45.230055,58.759517 0,-36.684783 3.716044,0 3.716044,0 0.360043,21.284661 c 0.198024,11.706563 0.360043,28.214716 0.360043,36.684785 l 0,15.400119 -4.076087,0 -4.076087,0 0,-36.684782 z"
     id="path4204"
     inkscape:connector-curvature="0" />
  <path
     style="opacity:0.98000004;fill:#84b259;fill-opacity:1"
     d="M 65.153704,83.128207 C 64.697652,67.457795 64.698056,47.174219 65.154701,33.080169 l 0.356574,-11.005435 3.718086,0 3.718085,0 0,36.684783 0,36.684782 -3.717655,0 -3.717654,0 -0.358433,-12.316092 z"
     id="path4206"
     inkscape:connector-curvature="0" />
  <path
     style="opacity:0.98000004;fill:#78a85e;fill-opacity:1"
     d="M 74.917908,78.098457 C 74.711215,68.558244 74.710677,55.474005 74.916715,49.02237 l 0.374613,-11.730245 3.719363,0 3.719364,0 0,29.076087 0,29.076087 -3.71817,0 -3.71817,0 -0.375807,-17.345842 z"
     id="path4208"
     inkscape:connector-curvature="0" />
  <path
     style="opacity:0.98000004;fill:#669966;fill-opacity:1"
     d="m 85.033529,74.112777 0.142178,-21.331521 3.532609,0 3.532608,0 0.142178,21.331521 0.142178,21.331522 -3.816964,0 -3.816965,0 0.142178,-21.331522 z"
     id="path4210"
     inkscape:connector-curvature="0" />
</svg>
