<?xml version="1.0" encoding="UTF-8" standalone="no"?>
<svg
   xmlns:dc="http://purl.org/dc/elements/1.1/"
   xmlns:cc="http://creativecommons.org/ns#"
   xmlns:rdf="http://www.w3.org/1999/02/22-rdf-syntax-ns#"
   xmlns:svg="http://www.w3.org/2000/svg"
   xmlns="http://www.w3.org/2000/svg"
   xmlns:sodipodi="http://sodipodi.sourceforge.net/DTD/sodipodi-0.dtd"
   xmlns:inkscape="http://www.inkscape.org/namespaces/inkscape"
   id="svg"
   version="1.1"
   width="363.20001"
   height="363.20001"
   style="display:block"
   inkscape:version="0.91 r13725"
   sodipodi:docname="Twitter.svg">
  <metadata
     id="metadata10">
    <rdf:RDF>
      <cc:Work
         rdf:about="">
        <dc:format>image/svg+xml</dc:format>
        <dc:type
           rdf:resource="http://purl.org/dc/dcmitype/StillImage" />
        <dc:title></dc:title>
      </cc:Work>
    </rdf:RDF>
  </metadata>
  <defs
     id="defs8" />
  <sodipodi:namedview
     pagecolor="#ffffff"
     bordercolor="#666666"
     borderopacity="1"
     objecttolerance="10"
     gridtolerance="10"
     guidetolerance="10"
     inkscape:pageopacity="0"
     inkscape:pageshadow="2"
     inkscape:window-width="789"
     inkscape:window-height="480"
     id="namedview6"
     showgrid="false"
     fit-margin-top="0"
     fit-margin-left="0"
     fit-margin-right="0"
     fit-margin-bottom="0"
     inkscape:zoom="0.59"
     inkscape:cx="181.6"
     inkscape:cy="179.90508"
     inkscape:window-x="0"
     inkscape:window-y="0"
     inkscape:window-maximized="0"
     inkscape:current-layer="svg" />
  <g
     id="svgg"
     transform="translate(-18.4,-18.4)">
    <path
       id="path0"
       d="m 236.252,108.629 c -15.979,2.485 -29.126,12.874 -35.903,28.371 -0.528,1.206 -1.792,5.32 -2.398,7.8 -0.587,2.403 -0.765,14.812 -0.259,18.1 l 0.293,1.9 -2.093,-0.003 c -15.027,-0.023 -41.422,-8.068 -56.633,-17.261 -1.397,-0.845 -2.63,-1.536 -2.739,-1.536 -0.496,0 -10.642,-7.181 -14.274,-10.104 -4.78,-3.845 -13.793,-12.578 -16.923,-16.396 -2.553,-3.113 -2.593,-3.129 -3.604,-1.4 -4.32,7.387 -6.651,23.067 -4.594,30.9 0.289,1.1 0.715,2.72 0.947,3.6 2.256,8.563 8.011,17.411 15.033,23.113 2.657,2.159 2.69,2.769 0.129,2.42 -5.352,-0.727 -10.66,-2.258 -14.523,-4.189 -1.258,-0.629 -2.383,-1.144 -2.5,-1.144 -0.682,0 -0.04,7.144 1.043,11.6 2.659,10.942 9.846,21.236 19.172,27.46 3.996,2.668 11.458,6.14 13.194,6.14 1.073,0 1.797,1.081 0.901,1.345 -3.575,1.053 -12.036,1.253 -16.821,0.397 -1.854,-0.332 -1.731,0.35 1.09,6.038 7.242,14.602 21.242,24.47 36.579,25.783 1.579,0.135 2.835,0.44 2.924,0.709 0.486,1.479 -16.627,10.967 -25.085,13.908 -11.464,3.986 -19.096,5.225 -32.077,5.208 -5.209,-0.007 -9.397,0.105 -9.308,0.25 1.479,2.392 24.111,12.617 33.577,15.169 0.66,0.178 2.19,0.593 3.4,0.922 20.97,5.699 46.615,5.631 68.8,-0.182 1.65,-0.433 3.54,-0.954 4.2,-1.158 3.147,-0.974 6.477,-2.074 7.2,-2.378 0.44,-0.185 1.52,-0.604 2.4,-0.931 31.897,-11.853 60.999,-41.432 73.28,-74.48 0.327,-0.88 0.751,-1.96 0.942,-2.4 1.16,-2.671 4.558,-14.122 5.282,-17.8 0.109,-0.55 0.474,-2.35 0.813,-4 1.555,-7.58 2.266,-14.857 2.275,-23.283 l 0.008,-7.083 1.444,-1.117 c 8.249,-6.38 20.956,-19.827 20.956,-22.177 0,-0.401 -1.348,-0.459 -1.732,-0.075 -0.426,0.426 -5.995,2.385 -10.468,3.682 -4.059,1.177 -11.32,2.55 -11.827,2.236 -0.25,-0.154 0.471,-0.87 1.696,-1.683 6.23,-4.135 13.414,-13.596 16.096,-21.2 0.773,-2.193 0.752,-2.189 -5.298,0.823 -2.787,1.387 -5.697,2.755 -6.467,3.04 -0.77,0.285 -1.76,0.663 -2.2,0.84 -3.154,1.271 -7.958,2.732 -12.479,3.794 l -2.08,0.488 -1.72,-1.57 c -11.33,-10.343 -25.258,-14.727 -39.669,-12.486"
       inkscape:connector-curvature="0"
       style="fill:#ffffff;fill-rule:evenodd;stroke:none" />
    <path
       id="path1"
       d="m 18.4,200 0,181.6 181.6,0 181.6,0 0,-181.6 0,-181.6 -181.6,0 -181.6,0 0,181.6 m 232.389,-91.382 c 9.174,1.487 17.736,5.745 25.132,12.497 l 1.72,1.57 2.08,-0.488 c 4.521,-1.062 9.325,-2.523 12.479,-3.794 0.44,-0.177 1.43,-0.555 2.2,-0.84 0.77,-0.285 3.68,-1.653 6.467,-3.04 6.05,-3.012 6.071,-3.016 5.298,-0.823 -2.682,7.604 -9.866,17.065 -16.096,21.2 -1.225,0.813 -1.946,1.529 -1.696,1.683 0.507,0.314 7.768,-1.059 11.827,-2.236 4.473,-1.297 10.042,-3.256 10.468,-3.682 0.384,-0.384 1.732,-0.326 1.732,0.075 0,2.35 -12.707,15.797 -20.956,22.177 l -1.444,1.117 -0.008,7.083 c -0.009,8.426 -0.72,15.703 -2.275,23.283 -0.339,1.65 -0.704,3.45 -0.813,4 -0.724,3.678 -4.122,15.129 -5.282,17.8 -0.191,0.44 -0.615,1.52 -0.942,2.4 -12.281,33.048 -41.383,62.627 -73.28,74.48 -0.88,0.327 -1.96,0.746 -2.4,0.931 -0.723,0.304 -4.053,1.404 -7.2,2.378 -17.71,5.482 -42.416,7.127 -60.279,4.015 -4.057,-0.707 -10.344,-2.03 -12.721,-2.675 -1.21,-0.329 -2.74,-0.744 -3.4,-0.922 -9.466,-2.552 -32.098,-12.777 -33.577,-15.169 -0.089,-0.145 4.099,-0.257 9.308,-0.25 12.981,0.017 20.613,-1.222 32.077,-5.208 8.458,-2.941 25.571,-12.429 25.085,-13.908 -0.089,-0.269 -1.345,-0.574 -2.924,-0.709 -15.337,-1.313 -29.337,-11.181 -36.579,-25.783 -2.821,-5.688 -2.944,-6.37 -1.09,-6.038 4.785,0.856 13.246,0.656 16.821,-0.397 0.896,-0.264 0.172,-1.345 -0.901,-1.345 -1.736,0 -9.198,-3.472 -13.194,-6.14 -9.326,-6.224 -16.513,-16.518 -19.172,-27.46 -1.083,-4.456 -1.725,-11.6 -1.043,-11.6 0.117,0 1.242,0.515 2.5,1.144 3.863,1.931 9.171,3.462 14.523,4.189 2.561,0.349 2.528,-0.261 -0.129,-2.42 -7.022,-5.702 -12.777,-14.55 -15.033,-23.113 -0.232,-0.88 -0.658,-2.5 -0.947,-3.6 -2.057,-7.833 0.274,-23.513 4.594,-30.9 1.011,-1.729 1.051,-1.713 3.604,1.4 3.13,3.818 12.143,12.551 16.923,16.396 3.632,2.923 13.778,10.104 14.274,10.104 0.109,0 1.342,0.691 2.739,1.536 15.211,9.193 41.606,17.238 56.633,17.261 l 2.093,0.003 -0.293,-1.9 c -0.506,-3.288 -0.328,-15.697 0.259,-18.1 0.606,-2.48 1.87,-6.594 2.398,-7.8 8.904,-20.36 29.264,-31.817 50.44,-28.382"
       inkscape:connector-curvature="0"
       style="fill:#1da1f2;fill-rule:evenodd;stroke:none" />
  </g>
</svg>
