<svg id="svg" version="1.1" width="400" height="400" xmlns="http://www.w3.org/2000/svg" xmlns:xlink="http://www.w3.org/1999/xlink" style="display: block;"><g id="svgg"><path id="path0" d="M0.000 200.000 L 0.000 400.000 200.000 400.000 L 400.000 400.000 400.000 200.000 L 400.000 0.000 200.000 0.000 L 0.000 0.000 0.000 200.000 M229.297 38.281 L 229.297 57.031 303.711 57.031 L 378.125 57.031 378.125 198.633 L 378.125 340.234 303.711 340.234 L 229.297 340.234 229.297 356.672 L 229.297 373.109 228.223 372.882 C 227.632 372.757,215.459 370.643,201.172 368.185 C 186.885 365.727,162.891 361.588,147.852 358.988 C 132.813 356.387,98.623 350.488,71.875 345.878 C 45.127 341.269,22.759 337.396,22.168 337.272 L 21.094 337.047 21.094 196.265 L 21.094 55.484 21.973 55.280 C 22.456 55.168,33.047 53.325,45.508 51.185 C 57.969 49.045,81.963 44.907,98.828 41.990 C 115.693 39.073,142.148 34.504,157.617 31.836 C 173.086 29.168,194.971 25.392,206.250 23.446 C 217.529 21.500,226.934 19.837,227.148 19.750 C 227.363 19.664,227.935 19.579,228.418 19.562 L 229.297 19.531 229.297 38.281 M229.297 89.648 L 229.297 102.344 242.383 102.344 L 255.469 102.344 255.469 114.844 L 255.469 127.344 242.383 127.344 L 229.297 127.344 229.297 136.133 L 229.297 144.922 242.383 144.922 L 255.469 144.922 255.469 157.422 L 255.469 169.922 242.383 169.922 L 229.297 169.922 229.297 178.510 L 229.297 187.099 242.285 187.202 L 255.273 187.305 255.377 199.707 L 255.480 212.109 242.388 212.109 L 229.297 212.109 229.297 220.703 L 229.297 229.297 242.383 229.297 L 255.469 229.297 255.469 241.797 L 255.469 254.297 242.383 254.297 L 229.297 254.297 229.297 262.299 L 229.297 270.302 242.285 270.405 L 255.273 270.508 255.377 283.105 L 255.480 295.703 242.388 295.703 L 229.297 295.703 229.297 308.594 L 229.297 321.484 293.750 321.484 L 358.203 321.484 358.203 199.219 L 358.203 76.953 293.750 76.953 L 229.297 76.953 229.297 89.648 M332.813 114.844 L 332.813 127.344 303.125 127.344 L 273.438 127.344 273.438 114.844 L 273.438 102.344 303.125 102.344 L 332.813 102.344 332.813 114.844 M169.865 127.141 C 169.752 127.253,162.649 127.618,154.079 127.953 C 145.509 128.287,138.475 128.594,138.448 128.636 C 137.401 130.245,124.097 163.264,121.955 169.568 C 121.159 171.911,120.408 173.827,120.287 173.828 C 120.165 173.828,118.710 170.444,117.053 166.309 C 115.395 162.173,111.263 152.373,107.870 144.531 L 101.701 130.273 95.870 130.308 C 86.893 130.361,73.828 130.912,73.828 131.237 C 73.828 131.537,80.324 144.841,95.101 174.805 L 103.577 191.992 100.635 197.852 C 99.016 201.074,92.059 214.609,85.174 227.929 C 78.289 241.249,72.656 252.237,72.656 252.347 C 72.656 252.603,99.971 255.628,100.202 255.397 C 100.297 255.302,102.648 249.786,105.426 243.140 C 108.205 236.493,111.611 228.418,112.996 225.195 C 114.381 221.973,116.182 217.533,116.998 215.328 C 117.814 213.124,118.527 211.366,118.582 211.422 C 118.638 211.478,120.698 216.182,123.162 221.875 C 127.618 232.174,139.851 259.919,139.974 260.007 C 140.010 260.032,146.719 260.786,154.883 261.682 C 163.047 262.578,170.377 263.460,171.173 263.641 C 171.968 263.822,172.691 263.897,172.780 263.808 C 172.908 263.681,154.554 228.348,138.234 197.304 L 135.742 192.565 136.747 190.716 C 150.495 165.412,170.784 127.704,170.774 127.474 C 170.759 127.093,170.139 126.866,169.865 127.141 M332.813 157.422 L 332.813 169.922 303.125 169.922 L 273.438 169.922 273.438 157.422 L 273.438 144.922 303.125 144.922 L 332.813 144.922 332.813 157.422 M332.813 199.609 L 332.813 212.109 303.125 212.109 L 273.438 212.109 273.438 199.609 L 273.438 187.109 303.125 187.109 L 332.813 187.109 332.813 199.609 M332.813 241.797 L 332.813 254.297 303.125 254.297 L 273.438 254.297 273.438 241.797 L 273.438 229.297 303.125 229.297 L 332.813 229.297 332.813 241.797 M332.813 283.008 L 332.813 295.703 303.125 295.703 L 273.438 295.703 273.438 283.008 L 273.438 270.313 303.125 270.313 L 332.813 270.313 332.813 283.008 " stroke="none" fill="#ffffff" fill-rule="evenodd"></path><path id="path1" d="M227.148 19.750 C 226.934 19.837,217.529 21.500,206.250 23.446 C 194.971 25.392,173.086 29.168,157.617 31.836 C 142.148 34.504,115.693 39.073,98.828 41.990 C 81.963 44.907,57.969 49.045,45.508 51.185 C 33.047 53.325,22.456 55.168,21.973 55.280 L 21.094 55.484 21.094 196.265 L 21.094 337.047 22.168 337.272 C 22.759 337.396,45.127 341.269,71.875 345.878 C 98.623 350.488,132.813 356.387,147.852 358.988 C 162.891 361.588,186.885 365.727,201.172 368.185 C 215.459 370.643,227.632 372.757,228.223 372.882 L 229.297 373.109 229.297 356.672 L 229.297 340.234 303.711 340.234 L 378.125 340.234 378.125 198.633 L 378.125 57.031 303.711 57.031 L 229.297 57.031 229.297 38.281 L 229.297 19.531 228.418 19.562 C 227.935 19.579,227.363 19.664,227.148 19.750 M358.203 199.219 L 358.203 321.484 293.750 321.484 L 229.297 321.484 229.297 308.594 L 229.297 295.703 242.388 295.703 L 255.480 295.703 255.377 283.105 L 255.273 270.508 242.285 270.405 L 229.297 270.302 229.297 262.299 L 229.297 254.297 242.383 254.297 L 255.469 254.297 255.469 241.797 L 255.469 229.297 242.383 229.297 L 229.297 229.297 229.297 220.703 L 229.297 212.109 242.388 212.109 L 255.480 212.109 255.377 199.707 L 255.273 187.305 242.285 187.202 L 229.297 187.099 229.297 178.510 L 229.297 169.922 242.383 169.922 L 255.469 169.922 255.469 157.422 L 255.469 144.922 242.383 144.922 L 229.297 144.922 229.297 136.133 L 229.297 127.344 242.383 127.344 L 255.469 127.344 255.469 114.844 L 255.469 102.344 242.383 102.344 L 229.297 102.344 229.297 89.648 L 229.297 76.953 293.750 76.953 L 358.203 76.953 358.203 199.219 M273.438 114.844 L 273.438 127.344 303.125 127.344 L 332.813 127.344 332.813 114.844 L 332.813 102.344 303.125 102.344 L 273.438 102.344 273.438 114.844 M170.774 127.474 C 170.784 127.704,150.495 165.412,136.747 190.716 L 135.742 192.565 138.234 197.304 C 154.554 228.348,172.908 263.681,172.780 263.808 C 172.691 263.897,171.968 263.822,171.173 263.641 C 170.377 263.460,163.047 262.578,154.883 261.682 C 146.719 260.786,140.010 260.032,139.974 260.007 C 139.851 259.919,127.618 232.174,123.162 221.875 C 120.698 216.182,118.638 211.478,118.582 211.422 C 118.527 211.366,117.814 213.124,116.998 215.328 C 116.182 217.533,114.381 221.973,112.996 225.195 C 111.611 228.418,108.205 236.493,105.426 243.140 C 102.648 249.786,100.297 255.302,100.202 255.397 C 99.971 255.628,72.656 252.603,72.656 252.347 C 72.656 252.237,78.289 241.249,85.174 227.929 C 92.059 214.609,99.016 201.074,100.635 197.852 L 103.577 191.992 95.101 174.805 C 80.324 144.841,73.828 131.537,73.828 131.237 C 73.828 130.912,86.893 130.361,95.870 130.308 L 101.701 130.273 107.870 144.531 C 111.263 152.373,115.395 162.173,117.053 166.309 C 118.710 170.444,120.165 173.828,120.287 173.828 C 120.408 173.827,121.159 171.911,121.955 169.568 C 124.097 163.264,137.401 130.245,138.448 128.636 C 138.475 128.594,145.509 128.287,154.079 127.953 C 162.649 127.618,169.752 127.253,169.865 127.141 C 170.139 126.866,170.759 127.093,170.774 127.474 M273.438 157.422 L 273.438 169.922 303.125 169.922 L 332.813 169.922 332.813 157.422 L 332.813 144.922 303.125 144.922 L 273.438 144.922 273.438 157.422 M273.438 199.609 L 273.438 212.109 303.125 212.109 L 332.813 212.109 332.813 199.609 L 332.813 187.109 303.125 187.109 L 273.438 187.109 273.438 199.609 M273.438 241.797 L 273.438 254.297 303.125 254.297 L 332.813 254.297 332.813 241.797 L 332.813 229.297 303.125 229.297 L 273.438 229.297 273.438 241.797 M273.438 283.008 L 273.438 295.703 303.125 295.703 L 332.813 295.703 332.813 283.008 L 332.813 270.313 303.125 270.313 L 273.438 270.313 273.438 283.008 " stroke="none" fill="#227547" fill-rule="evenodd"></path></g></svg>