<?xml version="1.0" encoding="UTF-8" standalone="no"?>
<svg
   xmlns:dc="http://purl.org/dc/elements/1.1/"
   xmlns:cc="http://creativecommons.org/ns#"
   xmlns:rdf="http://www.w3.org/1999/02/22-rdf-syntax-ns#"
   xmlns:svg="http://www.w3.org/2000/svg"
   xmlns="http://www.w3.org/2000/svg"
   xmlns:sodipodi="http://sodipodi.sourceforge.net/DTD/sodipodi-0.dtd"
   xmlns:inkscape="http://www.inkscape.org/namespaces/inkscape"
   id="svg"
   version="1.1"
   width="400"
   height="400"
   style="display:block"
   inkscape:version="0.91 r13725"
   sodipodi:docname="Facebook.svg">
  <metadata
     id="metadata10">
    <rdf:RDF>
      <cc:Work
         rdf:about="">
        <dc:format>image/svg+xml</dc:format>
        <dc:type
           rdf:resource="http://purl.org/dc/dcmitype/StillImage" />
        <dc:title></dc:title>
      </cc:Work>
    </rdf:RDF>
  </metadata>
  <defs
     id="defs8" />
  <sodipodi:namedview
     pagecolor="#ffffff"
     bordercolor="#666666"
     borderopacity="1"
     objecttolerance="10"
     gridtolerance="10"
     guidetolerance="10"
     inkscape:pageopacity="0"
     inkscape:pageshadow="2"
     inkscape:window-width="789"
     inkscape:window-height="480"
     id="namedview6"
     showgrid="false"
     fit-margin-top="0"
     fit-margin-left="0"
     fit-margin-right="0"
     fit-margin-bottom="0"
     inkscape:zoom="0.118"
     inkscape:cx="1000"
     inkscape:cy="-608.47458"
     inkscape:window-x="0"
     inkscape:window-y="0"
     inkscape:window-maximized="0"
     inkscape:current-layer="svg" />
  <g
     id="svgg">
    <path
       id="path0"
       d="m 386.8,0.4 c 0,0.22 0.09,0.4 0.2,0.4 0.11,0 0.2,-0.18 0.2,-0.4 0,-0.22 -0.09,-0.4 -0.2,-0.4 -0.11,0 -0.2,0.18 -0.2,0.4 m 2.8,1.345 c 0,0.251 0.572,0.75 0.706,0.616 0.053,-0.053 -0.084,-0.26 -0.305,-0.46 -0.22,-0.2 -0.401,-0.27 -0.401,-0.156 M 282.3,61.012 c -1.32,0.102 -3.57,0.404 -5,0.673 -1.43,0.269 -3.661,0.632 -4.958,0.808 -1.296,0.175 -2.781,0.486 -3.3,0.69 -0.518,0.204 -1.862,0.558 -2.987,0.787 -1.124,0.229 -2.391,0.593 -2.815,0.81 -0.424,0.216 -1.483,0.571 -2.355,0.789 -0.872,0.218 -2.112,0.674 -2.755,1.013 -0.644,0.34 -1.316,0.618 -1.493,0.618 -0.306,0 -3.342,1.381 -4.837,2.2 -0.385,0.211 -1.273,0.659 -1.974,0.994 -0.701,0.336 -1.54,0.835 -1.865,1.108 -0.326,0.274 -0.707,0.498 -0.849,0.498 -0.141,0 -0.607,0.279 -1.034,0.62 -0.428,0.341 -1.205,0.838 -1.728,1.104 -0.522,0.265 -0.95,0.564 -0.95,0.663 0,0.099 -0.337,0.384 -0.75,0.633 -0.412,0.249 -1.083,0.729 -1.49,1.066 -0.407,0.338 -1.303,1.064 -1.99,1.614 -1.64,1.313 -6.574,6.249 -7.97,7.975 -2.927,3.617 -3.422,4.266 -4,5.231 -0.628,1.048 -1.566,2.519 -2.14,3.354 -0.242,0.352 -0.76,1.27 -1.152,2.04 -0.391,0.77 -0.838,1.625 -0.992,1.9 -0.589,1.047 -2.093,4.334 -2.326,5.084 -0.134,0.431 -0.406,1.061 -0.604,1.4 -0.199,0.339 -0.538,1.246 -0.754,2.016 -0.217,0.77 -0.586,1.827 -0.821,2.348 -0.235,0.521 -0.604,1.756 -0.82,2.743 -0.215,0.987 -0.573,2.257 -0.795,2.82 -0.223,0.564 -0.629,2.345 -0.903,3.957 -0.275,1.613 -0.666,3.698 -0.87,4.635 -0.954,4.387 -1.233,13.257 -1.215,38.568 0.015,20.825 -0.001,21.89 -0.346,22.271 -0.924,1.021 0.35,0.975 -26.26,0.949 -13.633,-0.013 -24.891,0.04 -25.016,0.117 -0.792,0.49 -0.786,0.271 -0.786,30.195 l 0,28.715 0.494,0.495 0.495,0.494 25.105,-0.011 c 25.893,-0.011 25.666,-0.018 26.101,0.795 0.139,0.259 0.205,25.254 0.205,77.296 l 0,76.913 31.3,0 31.3,0 0,-77.013 c 0,-49.493 0.069,-77.143 0.194,-77.377 0.333,-0.621 0.269,-0.619 25.741,-0.612 l 24.879,0.006 0.46,-0.46 c 0.366,-0.365 0.486,-0.766 0.587,-1.952 0.069,-0.821 0.302,-2.347 0.517,-3.392 0.215,-1.045 0.579,-3.835 0.809,-6.2 0.23,-2.365 0.596,-5.2 0.813,-6.3 0.217,-1.1 0.577,-3.89 0.8,-6.2 0.223,-2.31 0.579,-5.055 0.791,-6.1 0.212,-1.045 0.577,-3.875 0.812,-6.289 0.235,-2.415 0.595,-5.205 0.801,-6.2 0.206,-0.996 0.518,-3.341 0.695,-5.211 0.317,-3.359 0.638,-5.707 1.2,-8.772 0.336,-1.835 0.117,-2.58 -0.829,-2.818 -0.299,-0.075 -13.289,-0.128 -28.866,-0.117 l -28.322,0.02 -0.428,-0.457 c -0.235,-0.251 -0.501,-0.681 -0.591,-0.956 -0.265,-0.812 0.021,-44.162 0.306,-46.4 0.263,-2.062 1.845,-7.348 2.466,-8.238 0.207,-0.297 0.519,-0.882 0.693,-1.3 0.575,-1.379 4.325,-5.372 5.71,-6.081 0.406,-0.207 1.063,-0.597 1.459,-0.866 0.396,-0.269 1.182,-0.642 1.747,-0.83 0.566,-0.188 1.321,-0.514 1.679,-0.725 0.358,-0.211 1.715,-0.598 3.014,-0.859 1.3,-0.261 2.948,-0.634 3.663,-0.827 1.185,-0.322 3.003,-0.363 20.529,-0.463 18.545,-0.107 19.244,-0.125 19.65,-0.492 l 0.421,-0.381 -0.001,-25.819 c -10e-4,-16.761 -0.072,-26.074 -0.203,-26.546 -0.291,-1.048 -0.606,-1.115 -6.896,-1.471 -3.08,-0.174 -6.95,-0.45 -8.6,-0.613 -6.948,-0.685 -33.753,-1.141 -39.8,-0.677 M 1.901,390.001 c 0.2,0.221 0.407,0.358 0.46,0.305 0.134,-0.134 -0.365,-0.706 -0.616,-0.706 -0.114,0 -0.044,0.181 0.156,0.401"
       inkscape:connector-curvature="0"
       style="fill:#ffffff;fill-rule:evenodd;stroke:none" />
    <path
       id="path1"
       d="m 13.6,0.392 c 0,0.35 -0.164,0.397 -1.55,0.45 L 10.5,0.9 10.438,1.65 10.376,2.4 9.028,2.4 C 7.541,2.4 7.2,2.592 7.2,3.428 7.2,3.917 7.119,3.983 6.45,4.038 5.743,4.096 5.696,4.142 5.639,4.839 5.581,5.533 5.533,5.581 4.839,5.639 4.142,5.696 4.096,5.743 4.038,6.45 3.983,7.119 3.917,7.2 3.428,7.2 2.592,7.2 2.4,7.541 2.4,9.028 l 0,1.348 L 1.65,10.438 0.9,10.5 0.842,12.05 C 0.789,13.436 0.742,13.6 0.392,13.6 0.003,13.6 0,15.071 0,200.4 c 0,186.667 0,186.8 0.4,186.8 0.351,0 0.4,0.133 0.4,1.092 0,0.997 0.068,1.163 0.79,1.921 0.615,0.647 0.802,1.013 0.85,1.659 0.058,0.797 0.087,0.83 0.799,0.889 0.694,0.058 0.742,0.106 0.8,0.8 0.057,0.694 0.106,0.743 0.8,0.8 0.694,0.058 0.742,0.106 0.8,0.8 0.057,0.694 0.106,0.743 0.8,0.8 0.694,0.058 0.742,0.106 0.8,0.8 0.059,0.715 0.088,0.741 0.911,0.8 0.66,0.048 0.85,0.142 0.85,0.42 0,0.634 0.705,1.048 1.985,1.164 1.012,0.092 1.215,0.173 1.215,0.483 0,0.362 2.641,0.372 100.8,0.372 l 100.8,0 0,-76.913 c 0,-52.042 -0.066,-77.037 -0.205,-77.296 -0.435,-0.813 -0.208,-0.806 -26.101,-0.795 l -25.105,0.011 -0.495,-0.494 -0.494,-0.495 0,-28.715 c 0,-29.924 -0.006,-29.705 0.786,-30.195 0.125,-0.077 11.383,-0.13 25.016,-0.117 26.61,0.026 25.336,0.072 26.26,-0.949 0.345,-0.381 0.361,-1.446 0.346,-22.271 -0.018,-25.311 0.261,-34.181 1.215,-38.568 0.204,-0.937 0.595,-3.022 0.87,-4.635 0.274,-1.612 0.68,-3.393 0.903,-3.957 0.222,-0.563 0.58,-1.833 0.795,-2.82 0.216,-0.987 0.585,-2.222 0.82,-2.743 0.235,-0.521 0.604,-1.578 0.821,-2.348 0.216,-0.77 0.555,-1.677 0.754,-2.016 0.198,-0.339 0.47,-0.969 0.604,-1.4 0.233,-0.75 1.737,-4.037 2.326,-5.084 0.154,-0.275 0.601,-1.13 0.992,-1.9 0.392,-0.77 0.91,-1.688 1.152,-2.04 0.574,-0.835 1.512,-2.306 2.14,-3.354 0.578,-0.965 1.073,-1.614 4,-5.231 1.396,-1.726 6.33,-6.662 7.97,-7.975 0.687,-0.55 1.583,-1.276 1.99,-1.614 0.407,-0.337 1.078,-0.817 1.49,-1.066 0.412,-0.249 0.75,-0.534 0.75,-0.633 0,-0.099 0.427,-0.398 0.95,-0.663 0.523,-0.266 1.3,-0.763 1.728,-1.104 0.427,-0.341 0.893,-0.62 1.034,-0.62 0.142,0 0.523,-0.224 0.849,-0.498 0.325,-0.273 1.164,-0.772 1.865,-1.108 0.701,-0.335 1.589,-0.783 1.974,-0.994 1.495,-0.819 4.531,-2.2 4.837,-2.2 0.177,0 0.849,-0.278 1.493,-0.618 0.643,-0.339 1.883,-0.795 2.755,-1.013 0.872,-0.218 1.931,-0.573 2.355,-0.789 0.424,-0.217 1.691,-0.581 2.815,-0.81 1.125,-0.229 2.469,-0.583 2.987,-0.787 0.519,-0.204 2.004,-0.515 3.3,-0.69 1.297,-0.176 3.528,-0.538 4.958,-0.805 6.409,-1.196 32.66,-1.196 44.8,10e-4 1.65,0.163 5.52,0.439 8.6,0.613 6.29,0.356 6.605,0.423 6.896,1.471 0.131,0.472 0.202,9.785 0.203,26.546 l 0.001,25.819 -0.421,0.381 c -0.406,0.367 -1.105,0.385 -19.65,0.492 -17.526,0.1 -19.344,0.141 -20.529,0.463 -0.715,0.193 -2.363,0.566 -3.663,0.827 -1.299,0.261 -2.656,0.648 -3.014,0.859 -0.358,0.211 -1.113,0.537 -1.679,0.725 -0.565,0.188 -1.351,0.561 -1.747,0.83 -0.396,0.269 -1.053,0.659 -1.459,0.866 -1.385,0.709 -5.135,4.702 -5.71,6.081 -0.174,0.418 -0.486,1.003 -0.693,1.3 -0.621,0.89 -2.203,6.176 -2.466,8.238 -0.285,2.238 -0.571,45.588 -0.306,46.4 0.09,0.275 0.356,0.705 0.591,0.956 l 0.428,0.457 28.322,-0.02 c 15.577,-0.011 28.567,0.042 28.866,0.117 0.946,0.238 1.165,0.983 0.829,2.818 -0.562,3.065 -0.883,5.413 -1.2,8.772 -0.177,1.87 -0.489,4.215 -0.695,5.211 -0.206,0.995 -0.566,3.785 -0.801,6.2 -0.235,2.414 -0.6,5.244 -0.812,6.289 -0.212,1.045 -0.568,3.79 -0.791,6.1 -0.223,2.31 -0.583,5.1 -0.8,6.2 -0.217,1.1 -0.583,3.935 -0.813,6.3 -0.23,2.365 -0.594,5.155 -0.809,6.2 -0.215,1.045 -0.448,2.571 -0.517,3.392 -0.101,1.186 -0.221,1.587 -0.587,1.952 l -0.46,0.46 -24.912,-0.006 c -25.122,-0.007 -25.506,0.003 -25.778,0.713 -0.068,0.177 -0.124,34.964 -0.124,77.305 l 0,76.984 55.8,0 c 55.667,0 55.8,-10e-4 55.8,-0.4 0,-0.341 0.14,-0.403 0.95,-0.42 1.497,-0.031 1.907,-0.213 2.092,-0.924 0.142,-0.55 0.26,-0.64 0.911,-0.694 0.704,-0.058 0.751,-0.105 0.808,-0.801 0.058,-0.694 0.106,-0.742 0.8,-0.8 0.694,-0.057 0.743,-0.106 0.8,-0.8 0.058,-0.694 0.106,-0.742 0.8,-0.8 0.694,-0.057 0.743,-0.106 0.8,-0.8 0.058,-0.694 0.106,-0.742 0.8,-0.8 0.694,-0.057 0.743,-0.106 0.8,-0.798 0.053,-0.636 0.144,-0.754 0.662,-0.868 0.719,-0.158 0.977,-0.716 0.977,-2.108 0,-0.854 0.054,-0.987 0.4,-0.987 0.4,0 0.4,-0.133 0.4,-188 0,-187.867 0,-188 -0.4,-188 -0.318,0 -0.4,-0.134 -0.401,-0.65 -0.002,-1.31 -0.373,-2.155 -1,-2.28 -0.512,-0.103 -0.585,-0.21 -0.639,-0.943 -0.058,-0.796 -0.087,-0.829 -0.799,-0.888 -0.694,-0.058 -0.742,-0.106 -0.8,-0.8 -0.057,-0.694 -0.106,-0.743 -0.8,-0.8 -0.694,-0.058 -0.742,-0.106 -0.8,-0.8 -0.057,-0.697 -0.104,-0.743 -0.811,-0.801 -0.669,-0.055 -0.75,-0.121 -0.75,-0.61 0,-0.717 -0.335,-1.028 -1.107,-1.028 -0.459,0 -0.854,-0.215 -1.469,-0.8 -0.723,-0.688 -0.966,-0.8 -1.732,-0.8 -0.759,0 -0.892,-0.06 -0.892,-0.4 0,-0.22 -0.09,-0.4 -0.2,-0.4 -0.11,0 -0.2,0.18 -0.2,0.4 0,0.22 -0.09,0.4 -0.2,0.4 -0.11,0 -0.2,-0.18 -0.2,-0.4 C 386.8,0 386.667,0 200.2,0 15.07,0 13.6,0.003 13.6,0.392 M 390.306,2.361 C 390.172,2.495 389.6,1.996 389.6,1.745 c 0,-0.114 0.181,-0.044 0.401,0.156 0.221,0.2 0.358,0.407 0.305,0.46 M 2.204,389.905 c 0.386,0.466 0.111,0.553 -0.303,0.096 -0.2,-0.22 -0.27,-0.401 -0.156,-0.401 0.113,0 0.32,0.137 0.459,0.305"
       inkscape:connector-curvature="0"
       style="fill:#3b5998;fill-rule:evenodd;stroke:none" />
  </g>
</svg>
