<?xml version="1.0" encoding="UTF-8" standalone="no"?>
<svg
   xmlns:dc="http://purl.org/dc/elements/1.1/"
   xmlns:cc="http://creativecommons.org/ns#"
   xmlns:rdf="http://www.w3.org/1999/02/22-rdf-syntax-ns#"
   xmlns:svg="http://www.w3.org/2000/svg"
   xmlns="http://www.w3.org/2000/svg"
   xmlns:sodipodi="http://sodipodi.sourceforge.net/DTD/sodipodi-0.dtd"
   xmlns:inkscape="http://www.inkscape.org/namespaces/inkscape"
   viewBox="0 0 513.93329 338.88717"
   height="338.88718"
   width="513.93329"
   xml:space="preserve"
   id="svg2"
   version="1.1"
   sodipodi:docname="logo_trazadofpfi.svg"
   inkscape:version="0.92.2 (5c3e80d, 2017-08-06)"><sodipodi:namedview
     pagecolor="#ffffff"
     bordercolor="#666666"
     borderopacity="1"
     objecttolerance="10"
     gridtolerance="10"
     guidetolerance="10"
     inkscape:pageopacity="0"
     inkscape:pageshadow="2"
     inkscape:window-width="1366"
     inkscape:window-height="745"
     id="namedview152"
     showgrid="false"
     fit-margin-top="0"
     fit-margin-left="0"
     fit-margin-right="0"
     fit-margin-bottom="0"
     inkscape:zoom="1.0757576"
     inkscape:cx="208.59094"
     inkscape:cy="103.29551"
     inkscape:window-x="-8"
     inkscape:window-y="-8"
     inkscape:window-maximized="1"
     inkscape:current-layer="svg2" /><metadata
     id="metadata8"><rdf:RDF><cc:Work
         rdf:about=""><dc:format>image/svg+xml</dc:format><dc:type
           rdf:resource="http://purl.org/dc/dcmitype/StillImage" /><dc:title></dc:title></cc:Work></rdf:RDF></metadata><defs
     id="defs6"><clipPath
       id="clipPath18"
       clipPathUnits="userSpaceOnUse"><path
         id="path16"
         d="M 0,612 H 792 V 0 H 0 Z"
         inkscape:connector-curvature="0" /></clipPath><clipPath
       clipPathUnits="userSpaceOnUse"
       id="clipPath161"><rect
         id="rect163"
         width="412.73242"
         height="274.69012"
         x="228.884"
         y="-546.9245"
         style="stroke-width:0.75"
         transform="scale(1,-1)" /></clipPath></defs><g
     transform="matrix(1.3333333,0,0,-1.3333333,-319.40906,717.95785)"
     id="g10"
     clip-path="url(#clipPath161)"><g
       id="g12"><g
         clip-path="url(#clipPath18)"
         id="g14"><g
           transform="translate(499.2139,304.5469)"
           id="g20"><path
             id="path22"
             style="fill:#007735;fill-opacity:1;fill-rule:nonzero;stroke:none"
             d="m 0,0 c 0,-10.904 -8.213,-19.744 -18.349,-19.744 h -189.742 c -10.135,0 -18.349,8.84 -18.349,19.744 v 185.915 c 0,10.903 8.214,19.743 18.349,19.743 H -18.349 C -8.213,205.658 0,196.818 0,185.915 Z"
             inkscape:connector-curvature="0" /></g><g
           transform="translate(289.8105,284.8027)"
           id="g24"><path
             id="path26"
             style="fill:#ffffff;fill-opacity:1;fill-rule:nonzero;stroke:none"
             d="M 0,0 H -12.759 V 105.457 H 49.616 V 93.868 H 0 V 60.57 H 41.111 V 49.908 H 0 Z"
             inkscape:connector-curvature="0" /></g><g
           transform="translate(363.3418,338.5737)"
           id="g28"><path
             id="path30"
             style="fill:#ffffff;fill-opacity:1;fill-rule:nonzero;stroke:none"
             d="m 0,0 h 23.428 c 6.017,0 10.867,1.866 14.549,5.601 3.681,3.734 5.521,8.665 5.521,14.795 0,5.253 -1.641,9.94 -4.924,14.061 -3.283,4.12 -8.033,6.181 -14.252,6.181 H 0 Z M 0,-53.771 H -12.759 V 51.686 h 36.113 c 11.291,0 19.623,-3.181 24.994,-9.542 5.373,-6.361 8.058,-13.61 8.058,-21.748 0,-9.065 -2.924,-16.56 -8.767,-22.482 -5.846,-5.923 -13.493,-8.885 -22.944,-8.885 H 0 Z"
             inkscape:connector-curvature="0" /></g><g
           transform="translate(468.1396,362.8325)"
           id="g32"><path
             id="path34"
             style="fill:#ffffff;fill-opacity:1;fill-rule:nonzero;stroke:none"
             d="M 0,0 V -9.502 H -17.906 V -78.03 H -29.62 V -9.502 H -42.453 V 0 h 12.833 c 0.198,12.516 2.523,20.576 6.976,24.182 4.451,3.605 9.886,5.408 16.302,5.408 3.134,0 6.715,-0.361 10.744,-1.082 v -9.657 c -2.536,0.669 -4.95,1.004 -7.237,1.004 -5.123,0 -8.916,-1.171 -11.378,-3.515 -2.462,-2.344 -3.693,-6.735 -3.693,-13.172 V 0 Z"
             inkscape:connector-curvature="0" /></g><path
           id="path36"
           style="fill:#ffffff;fill-opacity:1;fill-rule:nonzero;stroke:#ffffff;stroke-width:1;stroke-linecap:butt;stroke-linejoin:miter;stroke-miterlimit:10;stroke-dasharray:none;stroke-opacity:1"
           d="m 492.998,284.803 h -11.714 v 78.03 h 11.714 z m 0.373,91.936 h -12.609 v 13.52 h 12.609 z"
           inkscape:connector-curvature="0" /><g
           transform="translate(294.0566,523.4585)"
           id="g38"><path
             id="path40"
             style="fill:#87b81c;fill-opacity:1;fill-rule:nonzero;stroke:none"
             d="m 0,0 c 1.259,1.743 -0.146,3.877 -2.612,3.723 0.237,0.279 -0.163,0.43 -0.281,0.53 -0.034,-0.974 0.174,-1.083 0.607,-1.632 0.314,0.131 -0.099,0.726 0.005,0.864 0.475,-0.281 0.723,-0.654 1.414,-0.532 0.146,1.014 0.193,2.206 0.127,3.298 -0.177,0.473 0.298,-0.677 0.289,-0.652 0.257,0.709 0.059,1.495 0.025,2.203 C -4.319,8.462 -2.934,4.834 1.087,5.593 0.354,6.732 -1.49,6.732 -3.234,6.473 -3.137,5.962 -3.413,5.316 -3.215,4.712 -3.376,6.459 -6.312,6.486 -8.075,6.219 -7.002,5.94 -6.202,5.882 -5.477,5.864 -7.113,6.271 -7.192,6.277 -7.304,4.69 c 0.721,-0.051 1.319,-0.203 2.059,-0.074 0.077,0.389 -0.093,0.601 -0.097,0.946 1.47,0.082 2.347,0.98 2.377,2.296 -1.598,0.492 -3.968,0.508 -5.301,-0.028 1.692,-0.975 3.533,-0.258 3.488,1.58 1.592,-0.029 2.059,-0.051 2.087,1.327 -1.729,0.261 -3.378,-0.462 -3.564,-1.878 3.104,-0.416 11.06,3.537 5.943,3.903 0.007,0.554 -0.256,1.395 -0.111,1.926 -1.816,-1.354 -1.304,-5.532 -0.771,-7.173 0.418,1.471 -0.213,2.943 -1.73,3.594 C -3.271,8.98 0.912,5.558 3.34,7.267 5.441,8.745 3.553,10.249 1.539,9.745 1.414,9.528 1.362,9.298 1.387,9.05 2.313,8.392 3.708,7.926 4.817,7.963 5.621,6.89 5.734,7.167 6.995,6.901 6.951,7.238 7.021,7.743 7.006,8.103 4.742,8.35 4.565,5.834 5.91,5.262 4.274,6.769 0.087,6.216 1.194,3.286 0.328,5.593 -0.565,2.129 -0.388,0.54 -0.236,-0.835 0.371,-3.501 0.371,-5.546"
             inkscape:connector-curvature="0" /></g><g
           transform="translate(306.7075,509.395)"
           id="g42"><path
             id="path44"
             style="fill:#87b81c;fill-opacity:1;fill-rule:nonzero;stroke:none"
             d="m 0,0 c 0.685,-3.371 -8.169,-1.331 -8.61,-4.987 -0.15,-1.259 3.636,-2.788 1.862,-4.3 -1.724,-1.478 -3.235,1.359 -4.05,1.8 -0.199,0.106 -0.395,0.102 -0.587,-0.01 -0.573,-1.176 -0.961,-2.508 -0.834,-3.789 0.856,1.273 5.22,-0.406 7.392,-0.398 -0.137,0.748 0.327,1.798 0.108,2.522 3.085,-0.946 5.282,-4.384 8.802,-3.795 0.006,1.17 0.153,2.311 0.467,3.429 1.359,-0.659 2.548,-1.657 4,-1.803 0.766,2.124 2.04,4.107 4.313,3.008 0.727,-0.353 3.474,-6.986 5.033,-2.384 0.558,1.651 -2.318,1.883 -1.44,3.505 0.681,1.257 3.416,0.679 4.712,0.849 0.226,2.104 -0.035,5.564 -2.929,5.671 -1.295,0.05 -1.6,-1.397 -2.573,-1.577 -1.188,-0.219 -2.845,0.231 -3.996,0.381 0.636,0.467 3.295,4.563 3.267,4.887 -0.126,1.579 -3.05,2.108 -3.754,2.894 C 10.337,6.851 9.864,9.28 8.242,9.858 5.961,10.673 3.742,8.888 4.077,6.941 2.257,7.33 0.075,7.426 -1.771,6.841 -1.603,6.481 -1.619,6.011 -1.371,5.578 -2.849,5.274 -4.354,4.479 -4.347,3.033 -3.829,3.094 -3.135,2.908 -2.605,2.934 -2.793,2.201 -2.321,1.183 -2.522,0.44 -1.784,0.48 -0.837,-0.108 0,0"
             inkscape:connector-curvature="0" /></g><g
           transform="translate(294.875,511.0723)"
           id="g46"><path
             id="path48"
             style="fill:#87b81c;fill-opacity:1;fill-rule:nonzero;stroke:none"
             d="M 0,0 C -0.812,4.139 2.08,5.68 5.883,5.588 5.445,7.261 6.064,8.519 8.115,8.109 8.205,7.807 8.084,7.521 8.222,7.233 14.301,4.569 16,11.681 21.912,10.701 20.997,10.169 20.009,10.17 18.979,10.164 c -0.396,1.517 -2.501,2.449 -4.444,2.266 -0.582,1.69 0.694,2.754 1.002,4.157 -2.346,-0.234 -2.34,-2.615 -2.229,-4.46 -0.706,-0.334 -1.704,-0.479 -2.489,-0.35 C 11.493,16.735 4.182,11.424 9.938,9.853 7.47,9.218 5.617,12.275 3.418,10.699 2.953,10.363 3.392,8.3 3.09,7.743 2.801,7.208 1.028,6.414 0.44,6.16 0.603,4.811 0.061,3.229 -0.657,2.304 c -0.155,1.565 -0.081,3.531 -0.081,4.913 0,-2.014 -0.358,-4.389 0.37,-6.237"
             inkscape:connector-curvature="0" /></g><g
           transform="translate(297.1035,522.8174)"
           id="g50"><path
             id="path52"
             style="fill:#87b81c;fill-opacity:1;fill-rule:nonzero;stroke:none"
             d="M 0,0 C 0.391,1.285 1.896,1.966 3.675,1.661 3.344,3.933 8.661,5.556 10.396,3.54 12.032,5.067 10.098,9.642 7.481,9.184 7.661,10.8 6.226,11.58 4.512,11.727 3.815,9.129 5.952,7.205 7.283,5.121 6.134,4.759 4.571,4.794 3.55,4.311 1.719,3.445 2.62,3.204 1.228,1.951 -0.481,0.41 -3.447,-1.211 -3.283,-3.554 -1.321,-3.146 0.062,-1.249 1.487,0"
             inkscape:connector-curvature="0" /></g><g
           transform="translate(294.5073,511.3999)"
           id="g54"><path
             id="path56"
             style="fill:#87b81c;fill-opacity:1;fill-rule:nonzero;stroke:none"
             d="m 0,0 c 1.118,2.491 -0.676,13.503 -4.03,13.99 -1.026,-2.864 2.983,-4.179 2.488,-7.089 -2.008,-0.291 -4.805,1.464 -6.94,1.957 0.017,0.94 0.225,4.015 -0.77,4.472 -1.729,0.793 -2.087,-1.789 -1.875,-2.719 -0.562,1.327 -0.396,2.95 -1.85,3.422 -3.662,1.194 -1.497,-2.465 -0.397,-3.429 -0.938,-0.803 -2.294,-1.222 -3.657,-1.095 -0.142,4.227 -6.517,2.31 -4.506,-1.966 -3.265,0.285 -4.808,-2.186 -4.546,-4.59 0.23,-2.14 -0.418,-1.157 1.559,-2.283 1.17,-0.664 3.082,-1.009 4.423,-0.946 0.093,1.433 -0.663,4.397 1.141,4.857 2.404,0.609 2.486,-3.1 5.333,-2.078 -0.169,-1.555 0.578,-3.007 2.423,-3.113 0.119,1.224 0.352,2.789 -0.274,3.88 -0.84,1.447 -2.842,1.052 -2.943,2.877 1.6,0.334 2.685,-0.019 3.671,-0.914 0.449,-0.406 0.021,-1.759 0.33,-2.051 0.191,-0.177 1.875,-0.977 1.809,-0.89 C -8.5,2.151 -7.365,2.123 -7.117,1.829 -6.743,1.38 -7.412,0.381 -7.051,0 c 0.841,-0.884 0.186,-1.775 2.169,-1.923 0.128,2.286 -0.307,4.288 -0.631,6.441 0.612,0.138 1.504,0.124 2.109,-0.009 1.728,-2.467 2.567,-5.402 4.064,-7.745 -0.046,2.287 0.432,4.491 0.453,6.824"
             inkscape:connector-curvature="0" /></g><g
           transform="translate(294.875,499.6582)"
           id="g58"><path
             id="path60"
             style="fill:#87b81c;fill-opacity:1;fill-rule:nonzero;stroke:none"
             d="M 0,0 C 0,2.402 1.165,9.515 -3.276,9.075 -4.673,8.94 -5.457,7.315 -7.07,7.476 c -1.038,0.105 -1.211,2.595 -4.089,0.946 -0.142,0.364 -0.452,0.853 -0.482,1.321 -0.28,0.029 -1.178,-0.055 -1.386,0.026 0.083,-0.659 -0.569,-1.761 -0.388,-2.545 -0.638,-0.179 -1.869,-0.175 -2.498,-0.008 0.776,5.367 -6.143,4.343 -3.052,-0.971 -3.12,-0.741 -3.889,1.962 -7.328,1.634 0.237,1.819 -1.442,2.661 -3.335,2.173 -0.879,-1.038 -2.099,-1.785 -2.935,-2.967 -1.078,-1.526 -0.369,-2.148 -1.04,-4.1 -2.184,-0.035 -11.699,-1.01 -7.244,-4.309 -2.101,-1.2 -5.705,-3.769 -2.678,-5.604 1.494,-0.909 7.368,0.188 8.477,1.028 1.152,-5.619 -5.538,-3.795 -5.839,-8.079 -2.657,0.198 -3.789,-3.412 -0.992,-3.987 0.772,-0.155 6.034,1.343 7.304,1.613 -0.314,-1.787 0.656,-3.461 2.978,-2.862 -0.186,0.876 0.277,1.986 0.107,2.856 2.6,0.115 5.689,0.337 7.744,-1.003 1.55,2.779 -0.956,4.45 -4.033,4.036 0.168,0.717 -0.3,1.719 -0.114,2.439 -0.587,-0.157 -1.836,0.087 -2.487,-0.156 -0.762,2.257 0.435,2.725 2.547,3.206 3.775,0.858 2.281,-0.888 4.091,-2.272 1.354,-1.045 0.998,-1.546 3.796,-1.077 1.066,0.177 1.145,1.692 2.603,1.363 1.274,-0.286 1.762,-2.841 1.82,-3.773 2.444,-1.329 2.208,0.948 4.019,1.549 1.381,0.456 4.013,0.485 5.512,0.587 0.532,-1.381 0.109,-2.457 -1.499,-2.779 0.705,1.212 1.866,1.945 3.345,1.784 0.671,-2.008 2.25,-3.92 2.67,-5.823 0.547,-2.468 -0.358,-5.469 1.85,-7.219 2.756,2.396 -1.672,10.195 -1.854,13.427 -0.3,5.261 0.267,9.895 1.48,14.679"
             inkscape:connector-curvature="0" /></g><g
           transform="translate(294.875,486.6099)"
           id="g62"><path
             id="path64"
             style="fill:#87b81c;fill-opacity:1;fill-rule:nonzero;stroke:none"
             d="M 0,0 C 0.197,2.248 -0.146,3.934 2.229,4.565 3.982,5.031 6.555,3.798 8.482,3.864 8.669,3.309 8.671,2.238 8.472,1.687 7.472,0.886 5.946,0.336 4.494,0.603 5.37,-2.595 2.043,-1.473 1.858,-3.916 1.652,-6.634 4.629,-6.272 6.704,-6.869 c -0.572,0.164 3.12,-0.575 2.095,-0.732 1.552,0.238 1.131,0.498 2.332,1.051 3.678,1.69 1.708,1.549 5.149,0.385 0.055,1.029 -0.624,4.671 0.028,5.527 1.213,1.599 4.6,0.81 6.364,1.168 0.416,-2.493 5.477,-0.078 8.079,-0.652 -0.114,-0.964 0.201,-2.048 0.097,-3.016 2.029,-0.212 6.087,2.385 5.217,-1.378 3.123,-0.694 2.867,2.042 3.349,3.808 2.255,0.565 4.685,0.086 6.931,0.765 0.204,2.3 -1.694,0.703 -2.539,1.902 -0.603,0.848 -0.198,2.423 -0.805,3.189 -2.254,2.839 -8.076,0.069 -8.459,3.705 -0.247,0.034 -0.48,0.008 -0.708,-0.082 0.293,-3.19 -1.856,-1.23 -3.293,-0.633 -2.413,0.996 -2.303,1.74 -5.319,1.647 C 20.608,9.642 20.481,5.985 22.234,2.666 18.478,0.976 18.947,4.108 18.875,6.424 16.522,6.946 14.418,7.303 11.933,7.055 11.852,6.756 11.522,5.897 11.51,5.828 11.696,8.808 9.75,7.541 8.085,7.663 7.604,7.698 5.926,7.456 5.269,7.486 4.506,7.521 3.848,8.977 2.284,8.758 2.352,8.305 2.104,7.677 2.173,7.226 1.336,7.39 0.154,6.964 -0.683,7.127 -0.825,4.769 -1.463,1.232 0.374,-0.654"
             inkscape:connector-curvature="0" /></g><g
           transform="translate(296.7329,472.9067)"
           id="g66"><path
             id="path68"
             style="fill:#87b81c;fill-opacity:1;fill-rule:nonzero;stroke:none"
             d="m 0,0 c 1.818,-0.023 3.415,0.324 4.845,-0.71 1.88,2.758 7.856,0.883 9.639,-0.958 0.172,0.395 0.658,0.655 0.802,1.305 0.92,0.024 2.239,-0.905 2.605,-0.874 1.123,0.093 2.027,0.742 2.896,0.585 2.454,-0.444 5.439,-1.41 4.874,-4.191 1.547,-0.077 3.172,-0.019 4.721,-0.096 0.075,-0.307 0.012,-0.579 0.102,-0.884 3.692,-0.86 4.654,2.667 3.682,4.852 2.085,0.656 5.076,0.58 6.978,0.867 -0.179,-0.703 0.31,-1.725 0.169,-2.387 0.999,-0.071 5.454,0.637 5.854,1.508 0.691,1.506 -0.534,2.815 -2.196,2.998 0.192,1.002 1.104,2.625 0.362,3.541 -1.338,1.64 -3.815,1.089 -4.55,-0.582 0.031,0.386 -0.035,0.817 -0.009,1.174 -0.313,-0.02 -2.337,-0.12 -2.537,0.054 0.244,-0.209 -2.05,1.515 -1.489,1.292 -0.454,0.179 -0.353,1.015 -1.477,1.32 C 34.104,9.129 33.868,7.786 33.056,7.815 32.053,7.85 29.217,8.451 28.127,8.811 26.531,9.335 25.062,10.901 23.08,10.392 22.538,7.969 18.957,9.537 17.142,9.729 16.474,8.718 16.178,7.37 16.194,6.248 13.919,6.146 11.595,6.256 9.329,6.141 8.628,5 8.654,5.675 7.427,5.222 6.184,4.764 5.48,4.32 4.463,3.89 1.969,2.837 2.922,2.103 0.057,3.215 -0.033,0.909 -3.598,1.177 -3.283,-1.588 -1.364,-1.326 -0.34,0.157 1.858,0"
             inkscape:connector-curvature="0" /></g><g
           transform="translate(293.3916,474.2144)"
           id="g70"><path
             id="path72"
             style="fill:#87b81c;fill-opacity:1;fill-rule:nonzero;stroke:none"
             d="m 0,0 c 0,3.178 0.107,4.966 -1.484,7.256 -0.168,0.244 -2.773,2.808 -2.941,2.869 -3.174,1.194 -5.789,-1.769 -7.495,-3.595 1.992,-2.468 4.198,0.372 6.654,0.316 2.56,-0.058 5.359,-3.372 2.584,-5.158 -2.764,-1.778 -5.227,1.519 -6.594,2.895 -1.814,1.818 -2.417,2.509 -5.512,2.316 0.234,1.033 0.034,2.33 -1.063,2.893 -2.397,1.23 -2.733,-0.979 -3.915,-2.225 -0.659,-0.697 -1.513,-1.706 -2.132,-2.347 -1.143,-1.184 -1.063,-2.37 -3.659,-2.816 -1.887,1.455 -4.553,-0.245 -4.543,-2.356 -1.813,-0.077 -3.759,-0.225 -5.472,0.238 -0.045,-0.186 -0.085,-0.376 -0.117,-0.566 -1.425,0.524 -2.796,1.813 -4.703,1.527 -0.149,-2.465 -4.721,-8.072 -7.425,-7.16 0.066,-2.234 3.716,-0.43 2.849,-3.499 -0.737,0.09 -1.781,-0.248 -2.495,-0.106 2.52,-2.409 -0.639,-2.963 -3.339,-2.921 -0.679,-7.635 3.853,-0.9 8.431,-0.887 -0.274,2.336 1.556,0.784 2.745,1.51 0.402,0.243 1.238,-0.575 1.872,-0.024 0.546,0.471 -0.126,1.383 0.265,1.743 0.952,0.871 -0.905,1.868 1.498,1.973 1.135,0.049 2.092,-1.5 2.279,-2.265 1.465,0.289 2.735,0.042 3.051,-1.234 3.4,-0.813 7.121,0.641 10.3,1.16 -0.511,1.118 -1.537,2.052 -1.882,3.226 2.707,0.145 8.297,-1.443 7.798,2.293 2.329,0.381 5.078,-0.311 7.125,-0.295 0.931,0.011 3.404,0.258 5.037,0.297 0.401,-1.167 0.58,-2.553 0.494,-3.811 1.601,-0.475 2.579,-1.924 3.212,-2.963 0.094,1.431 0.275,3.094 0.06,4.537 C 1.13,-4.73 0.61,-5.381 -0.545,-3.599 -2.306,-0.874 -1.555,1.96 0,4.891"
             inkscape:connector-curvature="0" /></g><g
           transform="translate(296.3618,464.7573)"
           id="g74"><path
             id="path76"
             style="fill:#87b81c;fill-opacity:1;fill-rule:nonzero;stroke:none"
             d="m 0,0 c 1.837,0.958 5.21,1.23 6.323,-0.707 1.631,2.683 0.655,3.528 5.127,3.368 0.064,0.427 0.047,0.774 0,1.198 C 9.178,5.027 5.846,7.315 4.065,6.523 1.806,5.521 -0.364,1.361 -1.038,-0.62 c 0.468,0.323 0.827,0.212 1.409,0.295"
             inkscape:connector-curvature="0" /></g><g
           transform="translate(291.1641,537.1714)"
           id="g78"><path
             id="path80"
             style="fill:#87b81c;fill-opacity:1;fill-rule:nonzero;stroke:none"
             d="m 0,0 c -1.827,-0.199 -3.596,-0.97 -3.406,-2.879 -2.881,-0.355 -2.694,-1.934 -4.742,-2.937 -2.177,-1.065 -4.688,0.566 -6.045,-1.681 -2.271,-3.75 2.437,-3.142 4.546,-3.268 1.863,-0.112 4.168,-0.957 6.25,-0.7 0.152,-2.494 3.336,-0.984 0.132,1.44 -1.678,1.269 -4.725,0.493 -3.734,3.795 1.458,0.353 3.143,0.48 4.718,0.39 -0.541,2.277 2.799,4.166 5.174,3.163 1.473,-0.62 -0.487,-2.113 1.942,-2.573 0.697,-0.135 2.727,1.208 3.639,1.275 0.539,-1.385 0.749,-1.293 2.243,-1.52 0.416,3.35 -0.536,3.027 -3.294,4.189 C 5.879,-0.655 3.297,1.067 1.464,1.297 1.313,0.358 0.244,0.074 0,-0.328"
             inkscape:connector-curvature="0" /></g><g
           transform="translate(294.5073,458.8833)"
           id="g82"><path
             id="path84"
             style="fill:#87b81c;fill-opacity:1;fill-rule:nonzero;stroke:none"
             d="m 0,0 c 0.419,0.586 0.539,1.655 0.305,2.555 -4.04,2.609 -5.138,3.624 -9.512,1.728 -1.017,4.665 -7.975,2.147 -6.895,-1.622 -1.279,-0.029 -2.613,-0.068 -3.878,-0.106 -0.957,-2.708 -3.987,-0.457 -4.443,-1.639 -0.66,-1.721 3.848,-2.503 1.459,-5.759 2.558,-0.737 2.971,1.279 4.42,2.629 0.602,-1.482 -0.376,-4.785 2.905,-3.779 -0.506,-1.745 -3.212,-1.636 -5.084,-1.539 -0.112,-2.713 -4.563,-2.181 -6.688,-1.552 0.097,0.632 -0.288,1.566 -0.113,2.182 -2.678,-0.348 -0.506,-2.302 -1.861,-3.249 -1.593,-1.116 -3.806,0.308 -5.082,0.653 0.014,-0.345 -0.033,-0.793 -0.096,-1.145 -1.234,-0.112 -5.104,-0.961 -6.267,-0.46 -1.82,0.783 -0.639,2.712 -1.925,3.609 -4.438,3.104 -1.104,-4.327 -1.104,-5.177 -2.952,-0.464 -2.304,3.039 -5.447,2.51 -0.76,-1.777 -0.514,-3.294 0.734,-4.531 -3.174,-1.088 -6.938,0.366 -6.309,-4.51 1.114,-0.04 4.579,0.474 5.437,-0.109 1.59,-1.078 -0.757,-2.83 1.879,-3.243 -0.262,-4.442 8.943,-0.788 10.76,0.431 0.015,1.31 -0.394,2.269 -0.63,3.482 2.451,0.128 4.419,-1.228 6.56,0.021 -0.103,-1.001 0.226,-2.184 0.122,-3.193 3.259,-0.415 5.805,3.329 7.375,1.861 0.717,0.808 0.983,1.897 0.671,2.943 -3.725,2.346 4.889,1.973 6.11,2.892 2.711,2.049 -1.312,1.854 -1.547,3.933 2.497,1.398 3.897,-0.771 3.723,-2.821 0.535,-0.106 1.211,-0.103 1.742,0 -0.136,0.524 0.228,1.332 0.084,1.874 0.605,0.154 1.57,0.157 2.171,0.009 -0.189,-0.643 0.248,-1.562 0.078,-2.201 0.598,0.117 1.515,-0.193 2.131,-0.082 -0.071,-0.47 0.171,-1.107 0.083,-1.573 1.834,0.437 4.503,1.523 4.874,3.21 2.242,-2.603 4.972,3.551 -0.017,4.976 0.361,1.481 -0.167,2.581 -1.842,2.958 -2.826,0.641 -0.913,-1.783 -3.052,-2.379 -2.275,-0.632 -6.522,2.984 -5.88,4.859 1.223,-0.08 2.27,0.011 3.229,-0.576 -0.368,1.56 -0.039,2.82 1.684,3.162 2.813,0.56 1.622,-2.347 4.619,-1.94 2.115,-1.336 0.853,-5.019 4.829,-4.469 0.099,1.705 0.056,3.454 0.056,5.177"
             inkscape:connector-curvature="0" /></g><g
           transform="translate(266.666,457.9062)"
           id="g86"><path
             id="path88"
             style="fill:#87b81c;fill-opacity:1;fill-rule:nonzero;stroke:none"
             d="m 0,0 c -2.828,-3.544 -2.979,2.343 -5.874,1.907 -0.405,-1.319 -0.675,-3.652 -2.282,-3.877 -1.785,-0.25 -3.072,2.638 -4.463,2.309 -3.299,-0.779 1.345,-6.017 1.15,-8.119 2.605,-0.687 2.476,1.343 4.039,1.517 1.21,0.132 3.563,-1.224 3.792,-1.173 2.883,0.656 1.676,4.716 6.554,2.266 -0.109,1.709 0.24,3.298 0.741,4.793 C 3.216,-0.331 2.73,-0.283 2.295,-0.27 2.016,0.958 1.118,1.722 -0.317,1.931 -0.386,1.35 -0.509,0.591 -0.373,0"
             inkscape:connector-curvature="0" /></g><g
           transform="translate(294.875,442.2471)"
           id="g90"><path
             id="path92"
             style="fill:#87b81c;fill-opacity:1;fill-rule:nonzero;stroke:none"
             d="m 0,0 c 1.347,-0.164 2.816,0.031 4.028,0.326 0.038,-1.447 -0.055,-2.837 0.502,-4.211 1.87,-0.366 3.37,0.63 5.077,0.902 0.53,-1.137 0.728,-1.776 0.851,-3.158 1.803,-0.886 4.295,-0.965 6.162,-0.421 0.314,-3.207 3.291,-1.227 5.205,-0.638 0.045,-0.498 0.463,-1.023 0.502,-1.561 4.526,-0.238 0.208,2.694 1.777,4.074 1.523,1.345 3.315,-2.125 4.389,-2.901 0.806,-0.585 2.355,0.247 3,-0.543 0.652,-0.789 -0.365,-2.413 0.052,-3.294 1.525,-3.209 3.122,-1.223 5.891,-0.683 0.165,-0.289 -0.005,-0.586 0.109,-0.889 0.011,0 1.08,-0.062 0.995,0.005 0.444,1.112 0.338,2.272 0.125,3.485 4.215,1.162 2.464,-2.688 4.739,-3.549 1.735,-0.652 5.317,1.115 5.936,2.639 -0.829,0.825 -1.957,1.296 -3.255,1.333 -0.177,2.704 0.679,4.306 -2.553,5.241 -2.732,0.79 -4.963,-1.257 -6.044,2.919 -0.457,-2.217 -2.172,-3.774 -3.8,-1.436 -0.85,1.226 -0.696,4.656 -0.316,5.892 C 31.413,3.776 30.345,2.773 28.669,2.327 28.073,3.483 28.083,4.872 28.155,6.151 26.267,6.419 23.906,6.607 23.702,4.618 20.312,5.14 21.95,2.439 20.343,1.07 18.759,-0.278 15.713,0 16.019,2.237 c 1.286,-0.013 2.437,0.122 3.599,0.421 0.06,0.419 0.046,0.79 0.028,1.208 C 17.838,3.705 16.88,4.33 15.278,4.618 15.354,5.166 15.044,5.934 15.164,6.475 14.688,6.514 14.266,6.485 13.798,6.467 13.748,5.546 13.115,4.637 13.308,3.638 12.009,3.601 10.642,3.57 9.34,3.548 9.767,1.594 8.749,0.034 6.376,0.71 6.355,5.791 -0.05,1.221 0,0"
             inkscape:connector-curvature="0" /></g><g
           transform="translate(294.875,452.3613)"
           id="g94"><path
             id="path96"
             style="fill:#87b81c;fill-opacity:1;fill-rule:nonzero;stroke:none"
             d="M 0,0 C 0.513,-0.009 0.944,0.042 1.43,-0.058 2.352,-1.345 4.144,-2.45 4.028,-4.19 3.08,-3.755 3.269,-4.147 2.532,-3.321 0.645,-2.873 -0.371,-3.838 0.059,-5.497 c 1.097,0.116 1.927,-0.195 2.912,0.309 0.958,-1.001 2.1,-2.066 3.653,-1.941 0.21,1.157 -0.015,2.414 -0.284,3.498 1.015,-0.238 2.236,-0.011 3.255,-0.233 -0.454,1.804 0.217,3.374 2.592,2.834 0.039,-0.652 0.542,-1.182 0.488,-1.857 0.473,-0.035 0.903,-0.01 1.367,0 -0.034,2.869 3.873,2.902 3.46,0.074 2.413,-0.64 9.469,-1.334 8.056,2.783 -2.542,0.646 -3.943,-0.029 -5.829,-0.897 -0.048,1.115 -0.078,2.281 -0.09,3.406 -3.289,0.572 -3.612,2.315 -3.164,4.901 6.137,1.59 2.724,-4.404 6.539,-5.457 0.964,0.969 1.593,0.802 2.908,0.964 1.404,-3.431 3.437,0.415 5.571,0.323 -0.825,-3.202 3.346,-3.957 6.314,-3.488 0.118,3.672 0.702,4.4 4.822,3.263 0.475,1.509 0.137,2.936 -1.74,2.936 -0.306,1.215 0.322,2.325 1.017,3.156 -1.777,0.339 -3.539,-0.263 -4.804,-1.296 -3.666,3.355 3.184,2.936 5.156,3.034 0.427,1.939 -1.343,2.323 -3.226,1.957 0.061,0.453 -0.183,1.076 -0.121,1.523 -1.482,0.755 -2.53,0.392 -2.588,-1.198 -1.913,0.086 -4.837,1.121 -5.524,-1.022 -0.563,-1.776 4.406,-3.358 0.669,-5.486 -5.989,-3.406 1.127,8.628 -5.798,7.478 0.174,0.615 -0.282,1.575 -0.112,2.191 -2.425,0.54 -2.21,-1.243 -4.196,-1.507 -3.459,-0.456 -2.993,2.353 -5.715,1.835 -0.276,-1.148 -0.471,-2.304 -0.379,-3.477 1.728,-0.572 5.009,-2.789 5.853,-4.164 -0.827,-0.082 -4.361,0.723 -5.16,1.166 -1.329,0.75 -2.312,2.982 -4.398,2.561 C 12.002,8.382 4.72,12.03 5.997,7.878 7.151,7.603 10.982,8.389 11.432,8.103 12.736,7.267 11.646,3.675 12.59,2.33 9.096,1.342 10.557,4.324 8.64,4.655 6.085,5.095 6.995,2.155 4.143,2.666 3.761,3.257 3.65,3.829 3.778,4.509 7.333,5.13 4.666,8.394 1.923,7.772 0.811,5.63 2.375,1.088 -1.064,0.924 -1.068,0.821 -1.037,0.079 -1.054,0.047 -0.347,-0.014 0.393,-0.029 1.116,0"
             inkscape:connector-curvature="0" /></g><g
           transform="translate(330.5122,448.7705)"
           id="g98"><path
             id="path100"
             style="fill:#87b81c;fill-opacity:1;fill-rule:nonzero;stroke:none"
             d="m 0,0 c -2.21,0.492 -3.163,-0.742 -2.545,-2.558 1.55,-0.072 3.165,-0.027 4.715,-0.1 -0.206,-2.149 1.887,-2.896 3.387,-1.208 0.878,-0.851 0.992,-2.908 2.229,-3.576 2.145,-1.161 4.158,0.019 3.355,2.238 -0.599,1.666 -2.719,0.657 -2.983,2.272 -0.256,1.55 1.562,2.212 2.649,2.617 C 9.777,0.668 8.408,0.652 7.728,-0.594 4.184,-1.557 5.073,2.632 2.281,2.163 2.445,1.552 2.021,0.662 2.17,0.051 1.187,-0.003 -0.128,-0.182 -1.117,0"
             inkscape:connector-curvature="0" /></g><g
           transform="translate(289.7998,414.3838)"
           id="g102"><path
             id="path104"
             style="fill:#87b81c;fill-opacity:1;fill-rule:nonzero;stroke:none"
             d="M 0,0 C 2.328,0 4.69,-0.055 6.996,0.051 7.304,3.789 7.304,15.95 7.179,17.372 6.949,19.987 6.708,43.073 5.929,47.623 5.087,52.557 5.976,57.662 5.482,62.65 4.964,67.914 3.761,73.019 3.713,78.305 3.644,85.831 4.704,92.977 4.846,100.455 2.078,88.504 5.272,75.57 3.361,63.59 2.333,57.146 1.459,50.621 1.095,44.021 0.343,30.521 0,17.15 0,3.589 V 0.98"
             inkscape:connector-curvature="0" /></g><g
           transform="translate(337.2109,510.6289)"
           id="g106"><path
             id="path108"
             style="fill:#87b81c;fill-opacity:1;fill-rule:nonzero;stroke:none"
             d="m 0,0 c 1.126,1.79 -0.135,3.986 -2.344,3.829 0.216,0.284 -0.147,0.442 -0.249,0.541 -0.031,-0.999 0.155,-1.112 0.543,-1.677 0.282,0.138 -0.087,0.748 0.005,0.89 0.425,-0.29 0.647,-0.672 1.267,-0.546 0.13,1.044 0.17,2.268 0.116,3.393 -0.161,0.482 0.267,-0.701 0.256,-0.672 0.229,0.726 0.052,1.535 0.021,2.264 C -3.87,8.7 -2.631,4.971 0.973,5.75 0.314,6.921 -1.336,6.921 -2.898,6.655 -2.813,6.131 -3.061,5.466 -2.882,4.844 -3.024,6.641 -5.657,6.667 -7.236,6.395 -6.274,6.108 -5.555,6.049 -4.905,6.03 -6.373,6.446 -6.446,6.456 -6.542,4.82 -5.896,4.769 -5.364,4.614 -4.7,4.745 c 0.071,0.4 -0.084,0.618 -0.087,0.975 1.317,0.083 2.102,1.007 2.128,2.359 -1.43,0.504 -3.553,0.523 -4.745,-0.03 1.514,-0.999 3.164,-0.265 3.123,1.626 1.427,-0.029 1.843,-0.054 1.866,1.366 -1.545,0.267 -3.022,-0.476 -3.19,-1.931 2.781,-0.431 9.907,3.634 5.322,4.01 0.009,0.572 -0.23,1.437 -0.098,1.983 -1.626,-1.395 -1.168,-5.688 -0.688,-7.375 0.371,1.51 -0.193,3.025 -1.552,3.694 C -2.933,9.232 0.814,5.713 2.99,7.471 4.872,8.993 3.182,10.54 1.378,10.021 1.267,9.797 1.22,9.56 1.239,9.306 2.07,8.629 3.319,8.149 4.316,8.188 5.033,7.085 5.132,7.368 6.266,7.095 6.226,7.44 6.287,7.961 6.274,8.331 4.245,8.583 4.089,6 5.293,5.411 3.827,6.96 0.074,6.392 1.073,3.379 0.293,5.75 -0.506,2.19 -0.352,0.556 -0.211,-0.858 0.333,-3.599 0.333,-5.701"
             inkscape:connector-curvature="0" /></g><g
           transform="translate(348.5415,496.1714)"
           id="g110"><path
             id="path112"
             style="fill:#87b81c;fill-opacity:1;fill-rule:nonzero;stroke:none"
             d="m 0,0 c 0.613,-3.467 -7.316,-1.369 -7.711,-5.128 -0.136,-1.294 3.256,-2.865 1.669,-4.422 -1.543,-1.518 -2.902,1.398 -3.631,1.851 -0.177,0.109 -0.354,0.106 -0.526,-0.01 -0.511,-1.208 -0.862,-2.577 -0.748,-3.896 0.769,1.31 4.677,-0.416 6.622,-0.41 -0.121,0.771 0.295,1.849 0.097,2.597 2.763,-0.974 4.732,-4.51 7.886,-3.905 0.008,1.204 0.139,2.377 0.417,3.526 1.218,-0.679 2.284,-1.702 3.584,-1.853 0.686,2.184 1.827,4.224 3.862,3.093 0.654,-0.363 3.114,-7.182 4.512,-2.45 0.502,1.695 -2.075,1.936 -1.292,3.6 0.61,1.294 3.061,0.701 4.219,0.874 0.204,2.165 -0.03,5.722 -2.621,5.833 -1.157,0.051 -1.429,-1.437 -2.305,-1.623 -1.065,-0.225 -2.546,0.238 -3.582,0.392 0.572,0.482 2.953,4.69 2.929,5.024 C 13.272,4.718 10.647,5.261 10.018,6.067 9.26,7.041 8.837,9.539 7.381,10.135 5.339,10.974 3.354,9.138 3.654,7.134 2.021,7.536 0.065,7.634 -1.585,7.031 -1.437,6.662 -1.449,6.18 -1.229,5.734 -2.549,5.421 -3.902,4.605 -3.895,3.117 -3.429,3.182 -2.81,2.989 -2.333,3.018 -2.501,2.263 -2.079,1.218 -2.259,0.452 -1.599,0.494 -0.749,-0.112 0,0"
             inkscape:connector-curvature="0" /></g><g
           transform="translate(337.9424,497.8975)"
           id="g114"><path
             id="path116"
             style="fill:#87b81c;fill-opacity:1;fill-rule:nonzero;stroke:none"
             d="M 0,0 C -0.725,4.254 1.863,5.838 5.272,5.742 4.877,7.461 5.43,8.756 7.267,8.335 7.349,8.024 7.242,7.729 7.366,7.436 c 5.447,-2.74 6.966,4.569 12.261,3.564 -0.816,-0.547 -1.701,-0.545 -2.623,-0.553 -0.358,1.558 -2.246,2.517 -3.984,2.329 -0.523,1.739 0.621,2.831 0.898,4.276 -2.103,-0.24 -2.096,-2.69 -1.996,-4.584 C 11.289,12.124 10.396,11.975 9.692,12.106 10.294,17.203 3.746,11.742 8.904,10.127 6.694,9.475 5.03,12.619 3.063,10.998 2.645,10.651 3.037,8.531 2.77,7.958 2.511,7.407 0.919,6.592 0.395,6.33 0.541,4.942 0.054,3.319 -0.587,2.368 -0.725,3.975 -0.66,5.996 -0.66,7.419 c 0,-2.072 -0.323,-4.514 0.331,-6.414"
             inkscape:connector-curvature="0" /></g><g
           transform="translate(339.9409,509.9702)"
           id="g118"><path
             id="path120"
             style="fill:#87b81c;fill-opacity:1;fill-rule:nonzero;stroke:none"
             d="M 0,0 C 0.35,1.322 1.697,2.021 3.291,1.709 2.993,4.042 7.758,5.713 9.309,3.637 10.776,5.21 9.044,9.913 6.699,9.441 6.86,11.102 5.572,11.906 4.039,12.057 3.415,9.386 5.33,7.407 6.522,5.267 5.491,4.894 4.094,4.929 3.18,4.433 1.537,3.541 2.341,3.293 1.097,2.005 -0.437,0.421 -3.09,-1.247 -2.941,-3.654 -1.184,-3.233 0.055,-1.282 1.33,0"
             inkscape:connector-curvature="0" /></g><g
           transform="translate(337.6133,498.2329)"
           id="g122"><path
             id="path124"
             style="fill:#87b81c;fill-opacity:1;fill-rule:nonzero;stroke:none"
             d="m 0,0 c 1.001,2.56 -0.608,13.884 -3.61,14.382 -0.921,-2.944 2.671,-4.297 2.229,-7.288 -1.798,-0.299 -4.306,1.504 -6.22,2.011 0.016,0.968 0.202,4.129 -0.688,4.599 -1.549,0.816 -1.87,-1.838 -1.681,-2.796 -0.501,1.363 -0.35,3.032 -1.654,3.519 -3.282,1.227 -1.342,-2.532 -0.355,-3.525 -0.84,-0.826 -2.057,-1.257 -3.275,-1.127 -0.13,4.347 -5.84,2.377 -4.041,-2.023 -2.926,0.296 -4.305,-2.244 -4.073,-4.717 0.208,-2.198 -0.37,-1.19 1.401,-2.347 1.047,-0.683 2.759,-1.038 3.96,-0.972 0.083,1.473 -0.595,4.521 1.021,4.992 2.156,0.628 2.227,-3.185 4.779,-2.136 -0.151,-1.6 0.516,-3.091 2.171,-3.202 0.101,1.261 0.316,2.868 -0.247,3.99 -0.749,1.491 -2.548,1.083 -2.635,2.959 1.435,0.343 2.407,-0.019 3.288,-0.938 0.402,-0.418 0.019,-1.812 0.295,-2.11 0.169,-0.181 1.681,-1.005 1.62,-0.914 0.1,-0.148 1.118,-0.176 1.34,-0.479 C -6.041,1.419 -6.639,0.391 -6.32,0 c 0.755,-0.911 0.17,-1.827 1.947,-1.978 0.112,2.351 -0.276,4.409 -0.565,6.622 0.547,0.143 1.345,0.127 1.886,-0.008 1.549,-2.537 2.303,-5.555 3.643,-7.963 -0.044,2.35 0.388,4.616 0.404,7.015"
             inkscape:connector-curvature="0" /></g><g
           transform="translate(337.9424,486.1587)"
           id="g126"><path
             id="path128"
             style="fill:#87b81c;fill-opacity:1;fill-rule:nonzero;stroke:none"
             d="m 0,0 c 0,2.471 1.043,9.782 -2.933,9.332 -1.254,-0.14 -1.955,-1.81 -3.4,-1.644 -0.931,0.106 -1.085,2.666 -3.663,0.974 -0.126,0.373 -0.407,0.875 -0.433,1.358 -0.251,0.028 -1.055,-0.059 -1.241,0.025 0.075,-0.676 -0.508,-1.811 -0.349,-2.616 -0.57,-0.186 -1.672,-0.181 -2.237,-0.009 0.697,5.52 -5.501,4.463 -2.733,-0.997 -2.794,-0.763 -3.486,2.015 -6.564,1.678 0.211,1.872 -1.291,2.738 -2.988,2.236 -0.787,-1.069 -1.88,-1.837 -2.629,-3.051 -0.966,-1.569 -0.333,-2.209 -0.93,-4.216 -1.958,-0.035 -10.483,-1.039 -6.492,-4.429 -1.883,-1.234 -5.112,-3.876 -2.399,-5.762 1.34,-0.937 6.6,0.193 7.595,1.059 1.032,-5.778 -4.96,-3.903 -5.229,-8.307 -2.381,0.204 -3.396,-3.509 -0.893,-4.099 0.695,-0.16 5.408,1.379 6.547,1.657 -0.281,-1.836 0.586,-3.559 2.667,-2.942 -0.164,0.9 0.248,2.041 0.094,2.934 2.329,0.119 5.096,0.349 6.939,-1.028 1.386,2.856 -0.857,4.576 -3.615,4.148 0.151,0.738 -0.267,1.766 -0.102,2.507 -0.525,-0.161 -1.641,0.089 -2.227,-0.16 -0.681,2.322 0.39,2.801 2.284,3.294 3.38,0.882 2.042,-0.911 3.66,-2.334 1.216,-1.073 0.896,-1.589 3.4,-1.107 0.958,0.181 1.029,1.74 2.334,1.402 1.142,-0.295 1.578,-2.921 1.629,-3.878 2.193,-1.368 1.98,0.974 3.602,1.59 1.236,0.469 3.597,0.5 4.938,0.605 0.48,-1.419 0.097,-2.528 -1.343,-2.857 0.632,1.246 1.674,1.998 2.999,1.835 0.597,-2.067 2.015,-4.033 2.393,-5.987 0.489,-2.537 -0.322,-5.624 1.655,-7.423 2.468,2.465 -1.499,10.483 -1.662,13.805 -0.269,5.408 0.238,10.172 1.326,15.09"
             inkscape:connector-curvature="0" /></g><g
           transform="translate(337.9424,472.7456)"
           id="g130"><path
             id="path132"
             style="fill:#87b81c;fill-opacity:1;fill-rule:nonzero;stroke:none"
             d="M 0,0 C 0.177,2.311 -0.13,4.042 1.999,4.693 3.567,5.174 5.872,3.906 7.599,3.972 7.764,3.4 7.768,2.301 7.589,1.735 6.694,0.911 5.326,0.344 4.024,0.619 4.808,-2.667 1.83,-1.517 1.664,-4.024 1.48,-6.819 4.146,-6.447 6.004,-7.062 c -0.513,0.169 2.797,-0.589 1.879,-0.751 1.39,0.242 1.012,0.511 2.089,1.078 3.292,1.74 1.53,1.594 4.611,0.397 0.052,1.055 -0.557,4.802 0.025,5.683 1.088,1.643 4.123,0.832 5.701,1.201 0.374,-2.564 4.908,-0.08 7.241,-0.671 -0.104,-0.991 0.179,-2.106 0.084,-3.101 1.817,-0.217 5.456,2.452 4.673,-1.417 2.798,-0.713 2.569,2.098 3.001,3.915 2.017,0.582 4.194,0.089 6.207,0.786 C 41.698,2.425 40,0.781 39.239,2.015 38.701,2.886 39.066,4.504 38.521,5.293 36.5,8.21 31.285,5.363 30.943,9.102 30.724,9.136 30.514,9.11 30.309,9.021 30.571,5.738 28.649,7.754 27.357,8.366 25.198,9.392 25.295,10.156 22.595,10.06 18.459,9.914 18.346,6.154 19.917,2.741 16.555,1.003 16.972,4.224 16.91,6.604 14.802,7.141 12.917,7.507 10.689,7.254 10.616,6.944 10.321,6.064 10.31,5.99 10.475,9.056 8.73,7.754 7.245,7.879 6.812,7.915 5.309,7.664 4.721,7.696 4.037,7.735 3.445,9.229 2.047,9.002 2.106,8.538 1.884,7.893 1.947,7.43 1.196,7.597 0.137,7.16 -0.614,7.327 -0.739,4.904 -1.312,1.266 0.336,-0.671"
             inkscape:connector-curvature="0" /></g><g
           transform="translate(339.6064,458.6582)"
           id="g134"><path
             id="path136"
             style="fill:#87b81c;fill-opacity:1;fill-rule:nonzero;stroke:none"
             d="m 0,0 c 1.629,-0.022 3.061,0.331 4.34,-0.729 1.685,2.834 7.039,0.906 8.639,-0.987 0.152,0.408 0.585,0.675 0.715,1.34 0.824,0.026 2.003,-0.929 2.333,-0.896 1.004,0.093 1.817,0.761 2.594,0.601 2.198,-0.457 4.872,-1.45 4.367,-4.308 1.386,-0.079 2.84,-0.021 4.228,-0.102 0.067,-0.315 0.012,-0.594 0.095,-0.906 3.305,-0.885 4.168,2.741 3.295,4.987 1.868,0.675 4.547,0.597 6.251,0.891 -0.159,-0.72 0.277,-1.771 0.153,-2.452 0.895,-0.072 4.885,0.655 5.243,1.549 0.621,1.55 -0.479,2.892 -1.969,3.083 0.173,1.03 0.991,2.698 0.324,3.639 C 39.412,7.397 37.191,6.83 36.535,5.114 36.563,5.509 36.502,5.951 36.527,6.321 36.245,6.3 34.433,6.197 34.254,6.375 34.471,6.16 32.419,7.932 32.921,7.706 32.513,7.889 32.603,8.749 31.597,9.06 30.55,9.385 30.339,8.003 29.612,8.034 28.715,8.069 26.174,8.686 25.196,9.055 23.768,9.597 22.45,11.205 20.676,10.681 20.19,8.192 16.981,9.803 15.356,10.002 14.757,8.962 14.495,7.577 14.505,6.424 12.47,6.317 10.387,6.432 8.356,6.314 7.728,5.142 7.753,5.833 6.652,5.366 5.541,4.897 4.912,4.441 4,3.998 1.764,2.916 2.617,2.163 0.052,3.303 -0.031,0.935 -3.226,1.211 -2.941,-1.632 -1.22,-1.362 -0.305,0.161 1.664,0"
             inkscape:connector-curvature="0" /></g><g
           transform="translate(336.6113,460.0015)"
           id="g138"><path
             id="path140"
             style="fill:#87b81c;fill-opacity:1;fill-rule:nonzero;stroke:none"
             d="m 0,0 c 0,3.268 0.099,5.106 -1.326,7.46 -0.154,0.252 -2.487,2.887 -2.638,2.952 -2.841,1.225 -5.184,-1.819 -6.711,-3.698 1.785,-2.537 3.758,0.381 5.959,0.325 2.293,-0.06 4.802,-3.469 2.317,-5.304 -2.48,-1.828 -4.685,1.562 -5.91,2.976 -1.624,1.87 -2.164,2.582 -4.937,2.381 0.21,1.064 0.032,2.395 -0.951,2.975 -2.149,1.265 -2.449,-1.005 -3.507,-2.287 -0.59,-0.717 -1.358,-1.755 -1.911,-2.414 -1.025,-1.218 -0.952,-2.435 -3.278,-2.895 -1.693,1.498 -4.078,-0.251 -4.069,-2.421 -1.624,-0.079 -3.368,-0.233 -4.9,0.245 -0.043,-0.192 -0.08,-0.387 -0.106,-0.584 -1.277,0.539 -2.506,1.865 -4.214,1.571 -0.133,-2.532 -4.227,-8.3 -6.65,-7.362 0.059,-2.297 3.326,-0.441 2.552,-3.596 -0.661,0.093 -1.597,-0.257 -2.235,-0.109 2.259,-2.476 -0.573,-3.046 -2.993,-3.005 -0.609,-7.848 3.453,-0.923 7.555,-0.909 -0.248,2.401 1.392,0.805 2.456,1.549 0.363,0.252 1.113,-0.588 1.678,-0.022 0.488,0.484 -0.113,1.423 0.239,1.793 0.85,0.895 -0.811,1.918 1.34,2.027 1.019,0.05 1.873,-1.542 2.045,-2.33 1.309,0.298 2.444,0.044 2.73,-1.269 3.047,-0.835 6.379,0.662 9.224,1.196 -0.454,1.147 -1.374,2.108 -1.681,3.316 2.427,0.147 7.432,-1.485 6.984,2.356 2.086,0.392 4.545,-0.32 6.383,-0.303 0.834,0.01 3.05,0.264 4.51,0.305 0.36,-1.201 0.522,-2.625 0.445,-3.917 1.433,-0.488 2.31,-1.979 2.877,-3.049 0.083,1.473 0.246,3.183 0.054,4.667 -0.319,2.518 -0.783,1.846 -1.815,3.681 C -2.063,-0.9 -1.394,2.015 0,5.029"
             inkscape:connector-curvature="0" /></g><g
           transform="translate(339.2754,450.2808)"
           id="g142"><path
             id="path144"
             style="fill:#87b81c;fill-opacity:1;fill-rule:nonzero;stroke:none"
             d="m 0,0 c 1.645,0.983 4.664,1.263 5.659,-0.729 1.465,2.76 0.591,3.627 4.598,3.464 0.057,0.437 0.04,0.793 0,1.23 C 8.222,5.167 5.236,7.52 3.64,6.705 1.617,5.673 -0.328,1.398 -0.931,-0.64 c 0.418,0.331 0.741,0.219 1.262,0.304"
             inkscape:connector-curvature="0" /></g><g
           transform="translate(334.6177,524.7261)"
           id="g146"><path
             id="path148"
             style="fill:#87b81c;fill-opacity:1;fill-rule:nonzero;stroke:none"
             d="m 0,0 c -1.636,-0.203 -3.222,-0.998 -3.05,-2.958 -2.583,-0.365 -2.409,-1.989 -4.246,-3.021 -1.952,-1.094 -4.204,0.582 -5.419,-1.727 -2.036,-3.856 2.183,-3.229 4.072,-3.359 1.672,-0.115 3.731,-0.985 5.6,-0.722 0.136,-2.563 2.986,-1.009 0.118,1.481 -1.503,1.305 -4.235,0.507 -3.344,3.902 1.305,0.363 2.815,0.494 4.226,0.401 -0.484,2.34 2.508,4.282 4.636,3.253 1.318,-0.637 -0.436,-2.171 1.739,-2.647 0.626,-0.137 2.444,1.242 3.258,1.313 0.482,-1.427 0.673,-1.331 2.009,-1.565 0.374,3.444 -0.48,3.114 -2.95,4.307 C 5.266,-0.671 2.952,1.099 1.312,1.335 1.179,0.37 0.222,0.077 0,-0.336"
             inkscape:connector-curvature="0" /></g><g
           transform="translate(337.6133,444.2397)"
           id="g150"><path
             id="path152"
             style="fill:#87b81c;fill-opacity:1;fill-rule:nonzero;stroke:none"
             d="m 0,0 c 0.375,0.604 0.483,1.7 0.272,2.625 -3.617,2.684 -4.602,3.728 -8.519,1.78 -0.91,4.795 -7.144,2.208 -6.177,-1.671 -1.147,-0.028 -2.34,-0.067 -3.473,-0.109 -0.858,-2.783 -3.575,-0.466 -3.98,-1.685 -0.593,-1.769 3.446,-2.573 1.303,-5.918 2.295,-0.758 2.664,1.314 3.964,2.701 0.536,-1.521 -0.341,-4.918 2.596,-3.883 -0.45,-1.795 -2.873,-1.682 -4.551,-1.585 -0.102,-2.785 -4.087,-2.239 -5.992,-1.593 0.088,0.649 -0.256,1.609 -0.1,2.243 -2.398,-0.359 -0.455,-2.369 -1.666,-3.343 -1.427,-1.145 -3.413,0.319 -4.555,0.674 0.012,-0.355 -0.03,-0.816 -0.085,-1.178 -1.105,-0.116 -4.572,-0.986 -5.612,-0.472 -1.631,0.805 -0.576,2.786 -1.726,3.708 -3.975,3.194 -0.99,-4.446 -0.99,-5.321 -2.643,-0.476 -2.061,3.123 -4.877,2.58 -0.682,-1.825 -0.461,-3.384 0.657,-4.659 -2.846,-1.117 -6.216,0.379 -5.651,-4.634 0.997,-0.044 4.099,0.487 4.867,-0.113 1.425,-1.11 -0.678,-2.911 1.683,-3.335 -0.232,-4.566 8.014,-0.81 9.642,0.443 0.012,1.347 -0.354,2.333 -0.567,3.58 2.196,0.132 3.961,-1.261 5.879,0.022 -0.093,-1.031 0.203,-2.246 0.112,-3.282 2.915,-0.426 5.196,3.421 6.605,1.912 0.637,0.831 0.877,1.952 0.598,3.025 -3.335,2.414 4.38,2.03 5.475,2.976 2.429,2.105 -1.177,1.904 -1.385,4.043 2.236,1.436 3.489,-0.793 3.333,-2.902 0.479,-0.109 1.084,-0.106 1.562,0 -0.125,0.539 0.203,1.371 0.076,1.926 0.539,0.159 1.404,0.163 1.945,0.011 -0.172,-0.662 0.218,-1.606 0.067,-2.263 0.54,0.12 1.359,-0.198 1.911,-0.084 -0.065,-0.485 0.154,-1.137 0.076,-1.618 1.638,0.45 4.036,1.568 4.364,3.302 2.01,-2.677 4.451,3.649 -0.018,5.114 0.326,1.523 -0.147,2.654 -1.646,3.043 -2.532,0.657 -0.818,-1.834 -2.735,-2.447 -2.04,-0.651 -5.844,3.067 -5.269,4.995 1.097,-0.08 2.035,0.012 2.895,-0.591 -0.333,1.604 -0.037,2.899 1.507,3.249 2.52,0.575 1.456,-2.412 4.138,-1.994 1.894,-1.374 0.764,-5.159 4.327,-4.594 C 0.366,-3.57 0.329,-1.771 0.329,0"
             inkscape:connector-curvature="0" /></g><g
           transform="translate(312.6733,443.2339)"
           id="g154"><path
             id="path156"
             style="fill:#87b81c;fill-opacity:1;fill-rule:nonzero;stroke:none"
             d="m 0,0 c -2.534,-3.643 -2.671,2.408 -5.262,1.962 -0.362,-1.355 -0.61,-3.755 -2.045,-3.986 -1.602,-0.256 -2.751,2.713 -3.999,2.374 -2.951,-0.802 1.205,-6.185 1.028,-8.347 2.339,-0.707 2.22,1.38 3.619,1.559 1.087,0.136 3.193,-1.258 3.399,-1.204 2.581,0.672 1.503,4.846 5.871,2.33 -0.096,1.755 0.216,3.39 0.663,4.926 -0.395,0.049 -0.83,0.097 -1.22,0.11 C 1.803,0.986 1,1.774 -0.282,1.987 -0.347,1.388 -0.457,0.607 -0.334,0"
             inkscape:connector-curvature="0" /></g><g
           transform="translate(337.9424,427.1377)"
           id="g158"><path
             id="path160"
             style="fill:#87b81c;fill-opacity:1;fill-rule:nonzero;stroke:none"
             d="m 0,0 c 1.208,-0.168 2.52,0.029 3.607,0.334 0.033,-1.489 -0.048,-2.917 0.452,-4.332 1.673,-0.374 3.02,0.65 4.546,0.929 0.476,-1.166 0.652,-1.823 0.765,-3.245 1.613,-0.913 3.844,-0.993 5.519,-0.434 0.28,-3.297 2.948,-1.261 4.662,-0.656 0.04,-0.511 0.416,-1.054 0.452,-1.606 4.053,-0.244 0.185,2.771 1.59,4.19 1.366,1.383 2.969,-2.185 3.93,-2.982 0.723,-0.601 2.112,0.254 2.691,-0.559 0.58,-0.811 -0.328,-2.481 0.045,-3.387 1.366,-3.297 2.796,-1.256 5.276,-0.702 0.147,-0.298 -0.004,-0.603 0.099,-0.915 0.011,0 0.967,-0.062 0.892,0.009 0.396,1.142 0.3,2.334 0.11,3.581 3.778,1.195 2.208,-2.766 4.246,-3.647 1.555,-0.672 4.763,1.145 5.319,2.709 -0.744,0.85 -1.758,1.333 -2.919,1.373 -0.158,2.778 0.609,4.427 -2.284,5.387 -2.447,0.814 -4.447,-1.291 -5.415,3.002 -0.412,-2.278 -1.946,-3.88 -3.405,-1.478 -0.761,1.262 -0.622,4.788 -0.282,6.058 C 28.141,3.88 27.183,2.851 25.684,2.391 25.146,3.58 25.157,5.008 25.221,6.321 23.529,6.597 21.414,6.792 21.233,4.746 18.196,5.283 19.661,2.506 18.224,1.099 c -1.418,-1.385 -4.148,-1.102 -3.876,1.199 1.154,-0.013 2.185,0.125 3.226,0.433 0.054,0.431 0.037,0.812 0.026,1.241 -1.621,-0.164 -2.479,0.479 -3.913,0.774 0.07,0.563 -0.209,1.353 -0.102,1.909 -0.428,0.04 -0.806,0.01 -1.223,-0.007 C 12.316,5.702 11.748,4.767 11.922,3.741 10.76,3.7 9.533,3.67 8.363,3.646 8.749,1.637 7.835,0.032 5.711,0.729 5.693,5.951 -0.045,1.253 0,0"
             inkscape:connector-curvature="0" /></g><g
           transform="translate(337.9424,437.5332)"
           id="g162"><path
             id="path164"
             style="fill:#87b81c;fill-opacity:1;fill-rule:nonzero;stroke:none"
             d="m 0,0 c 0.459,-0.01 0.846,0.045 1.281,-0.058 0.825,-1.324 2.431,-2.46 2.326,-4.248 -0.85,0.448 -0.676,0.043 -1.338,0.893 -1.69,0.46 -2.602,-0.531 -2.217,-2.236 0.981,0.119 1.726,-0.203 2.607,0.318 0.86,-1.03 1.882,-2.124 3.276,-1.996 0.189,1.186 -0.011,2.481 -0.255,3.595 0.909,-0.243 2.002,-0.012 2.917,-0.24 -0.407,1.856 0.194,3.471 2.319,2.915 0.037,-0.672 0.488,-1.218 0.437,-1.909 0.425,-0.037 0.809,-0.011 1.226,0 -0.031,2.951 3.471,2.982 3.1,0.074 2.162,-0.655 8.482,-1.371 7.216,2.861 -2.278,0.666 -3.535,-0.029 -5.221,-0.92 -0.04,1.147 -0.071,2.346 -0.083,3.501 -2.943,0.59 -3.231,2.383 -2.833,5.037 5.497,1.639 2.441,-4.526 5.857,-5.608 0.865,0.995 1.427,0.823 2.604,0.992 1.26,-3.529 3.081,0.423 4.995,0.331 -0.741,-3.292 2.997,-4.067 5.653,-3.586 0.107,3.774 0.63,4.522 4.321,3.356 0.427,1.551 0.122,3.017 -1.56,3.017 -0.273,1.25 0.29,2.388 0.912,3.243 -1.593,0.35 -3.17,-0.269 -4.304,-1.331 -3.285,3.452 2.851,3.018 4.621,3.119 0.38,1.994 -1.204,2.389 -2.891,2.012 0.052,0.464 -0.163,1.108 -0.111,1.566 -1.326,0.778 -2.262,0.405 -2.317,-1.232 -1.714,0.09 -4.334,1.152 -4.946,-1.049 -0.507,-1.827 3.944,-3.455 0.597,-5.64 -5.364,-3.503 1.009,8.869 -5.194,7.686 0.156,0.634 -0.253,1.619 -0.1,2.255 -2.172,0.554 -1.98,-1.281 -3.756,-1.551 -3.103,-0.469 -2.684,2.418 -5.122,1.887 -0.246,-1.181 -0.424,-2.37 -0.342,-3.574 1.552,-0.588 4.491,-2.868 5.245,-4.283 -0.738,-0.084 -3.906,0.742 -4.621,1.201 -1.192,0.77 -2.073,3.066 -3.94,2.632 C 10.753,8.62 4.226,12.369 5.373,8.101 6.406,7.818 9.839,8.626 10.24,8.331 11.408,7.475 10.431,3.779 11.279,2.397 8.15,1.382 9.457,4.447 7.737,4.785 5.453,5.241 6.267,2.216 3.711,2.743 3.37,3.348 3.269,3.938 3.383,4.637 6.569,5.276 4.177,8.631 1.721,7.992 0.726,5.789 2.128,1.12 -0.953,0.951 -0.957,0.845 -0.927,0.082 -0.942,0.051 -0.312,-0.013 0.354,-0.029 1,0"
             inkscape:connector-curvature="0" /></g><g
           transform="translate(369.8652,433.8442)"
           id="g166"><path
             id="path168"
             style="fill:#87b81c;fill-opacity:1;fill-rule:nonzero;stroke:none"
             d="m 0,0 c -1.976,0.503 -2.834,-0.765 -2.275,-2.632 1.384,-0.074 2.834,-0.027 4.219,-0.103 -0.183,-2.207 1.691,-2.977 3.035,-1.242 0.786,-0.876 0.89,-2.986 1.996,-3.677 1.923,-1.193 3.724,0.019 3.004,2.303 -0.534,1.713 -2.432,0.674 -2.67,2.333 C 7.078,-1.42 8.71,-0.741 9.678,-0.325 8.76,0.686 7.533,0.668 6.925,-0.61 3.751,-1.601 4.544,2.704 2.043,2.222 2.19,1.594 1.812,0.68 1.944,0.051 1.063,-0.006 -0.115,-0.188 -0.996,0"
             inkscape:connector-curvature="0" /></g><g
           transform="translate(333.3965,398.4902)"
           id="g170"><path
             id="path172"
             style="fill:#87b81c;fill-opacity:1;fill-rule:nonzero;stroke:none"
             d="M 0,0 C 2.085,0 4.199,-0.058 6.267,0.051 6.544,3.895 6.544,16.398 6.43,17.86 6.222,20.548 6.005,44.284 5.312,48.963 4.557,54.034 5.354,59.281 4.912,64.411 4.445,69.821 3.369,75.072 3.326,80.504 3.26,88.242 4.213,95.589 4.34,103.277 1.859,90.991 4.721,77.694 3.008,65.377 2.088,58.751 1.308,52.041 0.979,45.256 0.306,31.377 0,17.632 0,3.69 V 1.006"
             inkscape:connector-curvature="0" /></g><g
           transform="translate(292.3271,489.7354)"
           id="g174"><path
             id="path176"
             style="fill:none;stroke:#87b81c;stroke-width:4;stroke-linecap:butt;stroke-linejoin:miter;stroke-miterlimit:10;stroke-dasharray:none;stroke-opacity:1"
             d="M 0,0 0.787,-91.859"
             inkscape:connector-curvature="0" /></g><g
           transform="translate(315.667,437.5605)"
           id="g178"><path
             id="path180"
             style="fill:none;stroke:#87b81c;stroke-width:4;stroke-linecap:butt;stroke-linejoin:miter;stroke-miterlimit:10;stroke-dasharray:none;stroke-opacity:1"
             d="M 0,0 0.787,-39.339"
             inkscape:connector-curvature="0" /></g><g
           transform="translate(505.0352,355.4634)"
           id="g182"><path
             id="path184"
             style="fill:#007735;fill-opacity:1;fill-rule:nonzero;stroke:none"
             d="M 0,0 V 2.429 C 0,3.625 0.367,4.582 1.103,5.3 1.837,6.018 2.866,6.377 4.189,6.377 4.483,6.377 4.837,6.363 5.251,6.333 V 4.353 C 4.846,4.401 4.516,4.425 4.258,4.425 3.523,4.425 2.963,4.227 2.577,3.832 2.191,3.437 1.998,2.907 1.998,2.241 V 0 h 3.06 V -1.923 H 1.998 V -15.545 H 0 V -1.923 H -2.771 V 0 Z"
             inkscape:connector-curvature="0" /></g><g
           transform="translate(516.332,341.3936)"
           id="g186"><path
             id="path188"
             style="fill:#007735;fill-opacity:1;fill-rule:nonzero;stroke:none"
             d="m 0,0 c 1.213,0 2.267,0.549 3.163,1.648 0.896,1.1 1.344,2.676 1.344,4.729 0,2.024 -0.437,3.567 -1.31,4.627 -0.873,1.06 -1.925,1.591 -3.156,1.591 -1.305,0 -2.4,-0.54 -3.286,-1.62 -0.887,-1.079 -1.33,-2.622 -1.33,-4.627 0,-2.054 0.445,-3.625 1.337,-4.714 C -2.348,0.544 -1.268,0 0,0 m 0.179,-1.793 c -1.902,0 -3.5,0.728 -4.796,2.183 -1.295,1.456 -1.943,3.413 -1.943,5.871 0,1.639 0.287,3.092 0.862,4.36 0.573,1.268 1.375,2.212 2.404,2.834 1.029,0.622 2.122,0.933 3.28,0.933 1.121,0 2.194,-0.321 3.218,-0.962 C 4.229,12.785 5.039,11.816 5.637,10.52 6.233,9.223 6.532,7.774 6.532,6.174 6.532,3.735 5.903,1.798 4.645,0.361 3.386,-1.075 1.897,-1.793 0.179,-1.793"
             inkscape:connector-curvature="0" /></g><g
           transform="translate(526.6221,351.9497)"
           id="g190"><path
             id="path192"
             style="fill:#007735;fill-opacity:1;fill-rule:nonzero;stroke:none"
             d="m 0,0 c 0.827,1.33 1.693,2.304 2.599,2.921 0.904,0.617 1.935,0.925 3.093,0.925 0.128,0 0.313,-0.005 0.551,-0.014 L 5.954,1.504 5.224,1.547 C 4.69,1.576 4.094,1.443 3.432,1.149 2.771,0.855 2.18,0.39 1.661,-0.246 1.142,-0.882 0.735,-1.673 0.441,-2.618 0.147,-3.563 0,-4.396 0,-5.119 v -6.912 H -2.012 V 3.514 H 0 Z"
             inkscape:connector-curvature="0" /></g><g
           transform="translate(542.6904,349.3901)"
           id="g194"><path
             id="path196"
             style="fill:#007735;fill-opacity:1;fill-rule:nonzero;stroke:none"
             d="M 0,0 C -0.147,1.465 -0.623,2.615 -1.427,3.449 -2.23,4.282 -3.138,4.7 -4.148,4.7 -5.38,4.7 -6.365,4.206 -7.104,3.217 -7.844,2.229 -8.237,1.157 -8.283,0 Z m 2.095,-5.987 c -0.91,-1.282 -1.879,-2.236 -2.908,-2.863 -1.03,-0.627 -2.095,-0.94 -3.198,-0.94 -1.745,0 -3.243,0.721 -4.492,2.162 -1.25,1.441 -1.875,3.449 -1.875,6.023 0,2.477 0.618,4.429 1.854,5.856 1.236,1.427 2.68,2.14 4.335,2.14 1.102,0 2.163,-0.339 3.183,-1.019 1.02,-0.68 1.784,-1.598 2.294,-2.755 0.51,-1.157 0.779,-2.66 0.807,-4.512 h -10.46 c 0.046,-1.233 0.224,-2.246 0.537,-3.036 0.413,-1.041 0.97,-1.8 1.668,-2.277 0.698,-0.478 1.373,-0.716 2.025,-0.716 1.636,0 3.165,1.05 4.589,3.152 z"
             inkscape:connector-curvature="0" /></g><g
           transform="translate(546.8164,348.9272)"
           id="g198"><path
             id="path200"
             style="fill:#007735;fill-opacity:1;fill-rule:nonzero;stroke:none"
             d="m 0,0 c -0.726,0.8 -1.089,1.692 -1.089,2.675 0,1.138 0.445,2.118 1.337,2.943 0.892,0.824 2.132,1.236 3.721,1.236 1.056,0 2.055,-0.202 2.998,-0.605 0.941,-0.404 1.743,-1 2.404,-1.788 L 7.849,3.109 C 7.278,3.793 6.689,4.297 6.083,4.62 5.476,4.943 4.781,5.104 4,5.104 2.997,5.104 2.236,4.878 1.717,4.425 1.197,3.972 0.937,3.446 0.937,2.849 0.937,2.337 1.14,1.88 1.544,1.475 1.938,1.07 2.866,0.668 4.326,0.271 c 2.25,-0.612 3.766,-1.351 4.548,-2.217 0.781,-0.867 1.173,-1.82 1.173,-2.86 0,-1.242 -0.467,-2.306 -1.4,-3.192 -0.932,-0.886 -2.202,-1.329 -3.81,-1.329 -1.176,0 -2.26,0.232 -3.252,0.696 -0.992,0.464 -2.04,1.237 -3.143,2.319 l 1.731,1.265 c 0.825,-0.867 1.601,-1.487 2.326,-1.858 0.726,-0.371 1.492,-0.556 2.3,-0.556 1.028,0 1.824,0.257 2.388,0.773 0.565,0.516 0.847,1.121 0.847,1.815 0,0.578 -0.211,1.075 -0.634,1.489 -0.596,0.588 -1.796,1.128 -3.596,1.62 -1.112,0.308 -2.035,0.651 -2.77,1.027 C 0.666,-0.554 0.321,-0.309 0,0"
             inkscape:connector-curvature="0" /></g><g
           transform="translate(559.6035,361.1318)"
           id="g202"><path
             id="path204"
             style="fill:#007735;fill-opacity:1;fill-rule:nonzero;stroke:none"
             d="m 0,0 h 1.984 v -5.668 h 3.68 v -1.924 h -3.68 v -9.659 c 0,-0.801 0.203,-1.425 0.607,-1.873 0.404,-0.448 0.946,-0.672 1.626,-0.672 0.367,0 0.849,0.077 1.447,0.231 v -1.894 c -0.689,-0.087 -1.268,-0.13 -1.736,-0.13 -1.415,0 -2.424,0.308 -3.026,0.925 C 0.301,-20.047 0,-19.035 0,-17.627 v 10.035 h -2.591 v 1.924 H 0 Z"
             inkscape:connector-curvature="0" /></g><path
           id="path206"
           style="fill:#007735;fill-opacity:1;fill-rule:nonzero;stroke:none"
           d="m 504.58,330.785 h 2.012 V 315.24 h -2.012 z m 0,6.174 h 2.012 v -2.531 h -2.012 z"
           inkscape:connector-curvature="0" /><g
           transform="translate(511.3213,328.9917)"
           id="g208"><path
             id="path210"
             style="fill:#007735;fill-opacity:1;fill-rule:nonzero;stroke:none"
             d="m 0,0 c 1.084,0.674 2.134,1.195 3.148,1.562 1.016,0.366 1.84,0.549 2.474,0.549 0.708,0 1.362,-0.157 1.964,-0.47 C 8.188,1.328 8.71,0.788 9.15,0.021 9.592,-0.745 9.813,-1.697 9.813,-2.834 V -13.752 H 7.8 v 10.758 c 0,1.071 -0.225,1.866 -0.675,2.387 -0.45,0.52 -1.062,0.78 -1.833,0.78 C 4.584,0.173 3.79,0.014 2.907,-0.304 2.025,-0.622 1.056,-1.104 0,-1.75 V -13.752 H -2.013 V 1.793 H 0 Z"
             inkscape:connector-curvature="0" /></g><g
           transform="translate(521.3721,330.7847)"
           id="g212"><path
             id="path214"
             style="fill:#007735;fill-opacity:1;fill-rule:nonzero;stroke:none"
             d="M 0,0 H 2.046 L 6.146,-12.479 10.264,0 h 2.043 L 7.178,-15.545 H 5.127 Z"
             inkscape:connector-curvature="0" /></g><g
           transform="translate(543.5156,324.7114)"
           id="g216"><path
             id="path218"
             style="fill:#007735;fill-opacity:1;fill-rule:nonzero;stroke:none"
             d="M 0,0 C -0.147,1.465 -0.623,2.615 -1.427,3.449 -2.23,4.282 -3.138,4.7 -4.148,4.7 -5.38,4.7 -6.365,4.206 -7.104,3.217 -7.844,2.229 -8.237,1.157 -8.283,0 Z m 2.095,-5.986 c -0.91,-1.283 -1.879,-2.238 -2.908,-2.864 -1.03,-0.627 -2.095,-0.94 -3.198,-0.94 -1.745,0 -3.243,0.721 -4.492,2.162 -1.25,1.441 -1.875,3.449 -1.875,6.023 0,2.477 0.618,4.429 1.854,5.856 1.236,1.427 2.68,2.14 4.335,2.14 1.102,0 2.163,-0.339 3.183,-1.019 1.02,-0.68 1.784,-1.598 2.294,-2.755 0.51,-1.157 0.779,-2.66 0.807,-4.512 h -10.46 c 0.046,-1.234 0.224,-2.246 0.537,-3.036 0.413,-1.042 0.97,-1.8 1.668,-2.278 0.698,-0.477 1.373,-0.716 2.025,-0.716 1.636,0 3.165,1.051 4.589,3.153 z"
             inkscape:connector-curvature="0" /></g><g
           transform="translate(547.6416,324.2485)"
           id="g220"><path
             id="path222"
             style="fill:#007735;fill-opacity:1;fill-rule:nonzero;stroke:none"
             d="m 0,0 c -0.726,0.8 -1.089,1.692 -1.089,2.675 0,1.138 0.445,2.118 1.337,2.943 0.892,0.824 2.132,1.236 3.721,1.236 1.056,0 2.055,-0.202 2.998,-0.605 0.941,-0.404 1.743,-1 2.404,-1.788 L 7.849,3.109 C 7.278,3.793 6.689,4.297 6.083,4.62 5.476,4.943 4.781,5.104 4,5.104 2.997,5.104 2.236,4.878 1.717,4.425 1.197,3.972 0.937,3.446 0.937,2.849 0.937,2.337 1.14,1.88 1.544,1.475 1.938,1.07 2.866,0.668 4.326,0.271 c 2.25,-0.612 3.766,-1.351 4.548,-2.217 0.781,-0.867 1.173,-1.821 1.173,-2.86 0,-1.242 -0.467,-2.306 -1.4,-3.192 -0.932,-0.886 -2.202,-1.329 -3.81,-1.329 -1.176,0 -2.26,0.232 -3.252,0.696 -0.992,0.464 -2.04,1.236 -3.143,2.319 l 1.731,1.265 c 0.825,-0.867 1.601,-1.487 2.326,-1.858 0.726,-0.371 1.492,-0.557 2.3,-0.557 1.028,0 1.824,0.258 2.388,0.775 0.565,0.515 0.847,1.12 0.847,1.814 0,0.578 -0.211,1.075 -0.634,1.489 -0.596,0.588 -1.796,1.128 -3.596,1.62 -1.112,0.308 -2.035,0.651 -2.77,1.027 C 0.666,-0.555 0.321,-0.309 0,0"
             inkscape:connector-curvature="0" /></g><g
           transform="translate(560.4297,336.4531)"
           id="g224"><path
             id="path226"
             style="fill:#007735;fill-opacity:1;fill-rule:nonzero;stroke:none"
             d="m 0,0 h 1.984 v -5.668 h 3.68 v -1.924 h -3.68 v -9.659 c 0,-0.8 0.203,-1.424 0.607,-1.873 0.404,-0.448 0.946,-0.672 1.626,-0.672 0.367,0 0.849,0.077 1.447,0.231 v -1.894 c -0.689,-0.087 -1.268,-0.13 -1.736,-0.13 -1.415,0 -2.424,0.308 -3.026,0.925 C 0.301,-20.047 0,-19.035 0,-17.627 v 10.035 h -2.591 v 1.924 H 0 Z"
             inkscape:connector-curvature="0" /></g><g
           transform="translate(569.2783,328.3262)"
           id="g228"><path
             id="path230"
             style="fill:#007735;fill-opacity:1;fill-rule:nonzero;stroke:none"
             d="M 0,0 C 1.718,1.205 2.972,1.969 3.762,2.292 4.552,2.615 5.314,2.776 6.05,2.776 6.867,2.776 7.57,2.552 8.158,2.104 8.746,1.656 9.205,0.955 9.536,0 c 1.718,1.215 2.97,1.981 3.756,2.299 0.785,0.319 1.56,0.477 2.322,0.477 1.029,0 1.856,-0.308 2.481,-0.925 0.863,-0.868 1.295,-1.991 1.295,-3.369 V -13.086 H 17.364 V -2.14 c 0,0.906 -0.227,1.632 -0.682,2.176 -0.454,0.545 -0.994,0.818 -1.619,0.818 -0.57,0 -1.248,-0.177 -2.033,-0.528 -0.786,-0.352 -1.9,-1.073 -3.342,-2.162 v -11.25 H 7.676 V -2.14 c 0,0.926 -0.221,1.656 -0.661,2.191 C 6.573,0.586 6.063,0.854 5.484,0.854 4.851,0.854 4.146,0.682 3.369,0.34 2.593,-0.002 1.47,-0.728 0,-1.836 v -11.25 H -2.04 V 2.458 H 0 Z"
             inkscape:connector-curvature="0" /></g><g
           transform="translate(600.5508,324.7114)"
           id="g232"><path
             id="path234"
             style="fill:#007735;fill-opacity:1;fill-rule:nonzero;stroke:none"
             d="M 0,0 C -0.147,1.465 -0.623,2.615 -1.427,3.449 -2.23,4.282 -3.138,4.7 -4.148,4.7 -5.38,4.7 -6.365,4.206 -7.104,3.217 -7.844,2.229 -8.237,1.157 -8.283,0 Z m 2.095,-5.986 c -0.91,-1.283 -1.879,-2.238 -2.908,-2.864 -1.03,-0.627 -2.095,-0.94 -3.198,-0.94 -1.745,0 -3.243,0.721 -4.492,2.162 -1.25,1.441 -1.875,3.449 -1.875,6.023 0,2.477 0.618,4.429 1.854,5.856 1.236,1.427 2.68,2.14 4.335,2.14 1.102,0 2.163,-0.339 3.183,-1.019 1.02,-0.68 1.784,-1.598 2.294,-2.755 0.51,-1.157 0.779,-2.66 0.807,-4.512 h -10.46 c 0.046,-1.234 0.224,-2.246 0.537,-3.036 0.413,-1.042 0.97,-1.8 1.668,-2.278 0.698,-0.477 1.373,-0.716 2.025,-0.716 1.636,0 3.165,1.051 4.589,3.153 z"
             inkscape:connector-curvature="0" /></g><g
           transform="translate(606.2041,328.9917)"
           id="g236"><path
             id="path238"
             style="fill:#007735;fill-opacity:1;fill-rule:nonzero;stroke:none"
             d="m 0,0 c 1.084,0.674 2.134,1.195 3.148,1.562 1.016,0.366 1.84,0.549 2.474,0.549 0.708,0 1.362,-0.157 1.964,-0.47 C 8.188,1.328 8.71,0.788 9.15,0.021 9.592,-0.745 9.813,-1.697 9.813,-2.834 V -13.752 H 7.8 v 10.758 c 0,1.071 -0.225,1.866 -0.675,2.387 -0.45,0.52 -1.062,0.78 -1.833,0.78 C 4.584,0.173 3.79,0.014 2.907,-0.304 2.025,-0.622 1.056,-1.104 0,-1.75 V -13.752 H -2.013 V 1.793 H 0 Z"
             inkscape:connector-curvature="0" /></g><g
           transform="translate(619.3428,336.4531)"
           id="g240"><path
             id="path242"
             style="fill:#007735;fill-opacity:1;fill-rule:nonzero;stroke:none"
             d="m 0,0 h 1.984 v -5.668 h 3.68 v -1.924 h -3.68 v -9.659 c 0,-0.8 0.203,-1.424 0.607,-1.873 0.404,-0.448 0.946,-0.672 1.626,-0.672 0.367,0 0.849,0.077 1.447,0.231 v -1.894 c -0.689,-0.087 -1.268,-0.13 -1.736,-0.13 -1.415,0 -2.424,0.308 -3.026,0.925 C 0.301,-20.047 0,-19.035 0,-17.627 v 10.035 h -2.591 v 1.924 H 0 Z"
             inkscape:connector-curvature="0" /></g><g
           transform="translate(515.3711,294.334)"
           id="g244"><path
             id="path246"
             style="fill:#007735;fill-opacity:1;fill-rule:nonzero;stroke:none"
             d="m 0,0 c -0.671,-1.264 -1.406,-2.207 -2.205,-2.834 -1.066,-0.838 -2.265,-1.258 -3.597,-1.258 -1.158,0 -2.244,0.328 -3.26,0.983 -1.014,0.656 -1.8,1.605 -2.356,2.849 -0.556,1.244 -0.834,2.67 -0.834,4.28 0,2.478 0.632,4.441 1.896,5.892 1.262,1.452 2.786,2.177 4.568,2.177 1.203,0 2.297,-0.333 3.28,-0.998 C -1.525,10.426 -0.689,9.428 0,8.098 L -1.75,7.1 c -0.561,1.089 -1.167,1.902 -1.819,2.437 -0.653,0.535 -1.402,0.803 -2.246,0.803 -1.205,0 -2.245,-0.541 -3.123,-1.619 -0.876,-1.08 -1.316,-2.692 -1.316,-4.83 0,-1.891 0.443,-3.385 1.33,-4.483 0.887,-1.099 1.904,-1.648 3.053,-1.648 1.736,0 3.11,1.084 4.121,3.252 z"
             inkscape:connector-curvature="0" /></g><g
           transform="translate(522.2822,292.0352)"
           id="g248"><path
             id="path250"
             style="fill:#007735;fill-opacity:1;fill-rule:nonzero;stroke:none"
             d="m 0,0 c 1.213,0 2.267,0.549 3.163,1.648 0.896,1.1 1.344,2.676 1.344,4.729 0,2.023 -0.437,3.566 -1.31,4.627 -0.873,1.06 -1.925,1.592 -3.156,1.592 -1.305,0 -2.4,-0.541 -3.286,-1.621 -0.887,-1.08 -1.33,-2.621 -1.33,-4.627 0,-2.053 0.445,-3.625 1.337,-4.713 C -2.348,0.545 -1.268,0 0,0 m 0.179,-1.793 c -1.902,0 -3.5,0.727 -4.796,2.184 -1.295,1.455 -1.943,3.412 -1.943,5.871 0,1.638 0.287,3.092 0.862,4.359 0.573,1.268 1.375,2.213 2.404,2.835 1.029,0.621 2.122,0.932 3.28,0.932 1.121,0 2.194,-0.321 3.218,-0.962 C 4.229,12.785 5.039,11.816 5.637,10.52 6.233,9.223 6.532,7.775 6.532,6.174 6.532,3.736 5.903,1.797 4.645,0.361 3.386,-1.074 1.897,-1.793 0.179,-1.793"
             inkscape:connector-curvature="0" /></g><g
           transform="translate(532.5303,304.3125)"
           id="g252"><path
             id="path254"
             style="fill:#007735;fill-opacity:1;fill-rule:nonzero;stroke:none"
             d="m 0,0 c 1.084,0.674 2.134,1.195 3.148,1.561 1.016,0.366 1.84,0.55 2.474,0.55 0.708,0 1.362,-0.157 1.964,-0.47 C 8.188,1.328 8.71,0.788 9.15,0.021 9.592,-0.746 9.813,-1.697 9.813,-2.834 V -13.752 H 7.8 v 10.758 c 0,1.07 -0.225,1.865 -0.675,2.387 C 6.675,-0.088 6.063,0.174 5.292,0.174 4.584,0.174 3.79,0.014 2.907,-0.305 2.025,-0.623 1.056,-1.105 0,-1.75 V -13.752 H -2.013 V 1.792 H 0 Z"
             inkscape:connector-curvature="0" /></g><g
           transform="translate(544.9531,299.5684)"
           id="g256"><path
             id="path258"
             style="fill:#007735;fill-opacity:1;fill-rule:nonzero;stroke:none"
             d="m 0,0 c -0.726,0.801 -1.089,1.691 -1.089,2.676 0,1.137 0.445,2.119 1.337,2.943 C 1.14,6.443 2.38,6.855 3.969,6.855 5.025,6.855 6.024,6.653 6.967,6.25 7.908,5.845 8.71,5.25 9.371,4.461 L 7.849,3.109 C 7.278,3.793 6.689,4.297 6.083,4.621 5.476,4.943 4.781,5.105 4,5.105 2.997,5.105 2.236,4.879 1.717,4.426 1.197,3.973 0.937,3.447 0.937,2.85 0.937,2.338 1.14,1.881 1.544,1.475 1.938,1.07 2.866,0.67 4.326,0.271 6.576,-0.34 8.092,-1.08 8.874,-1.945 c 0.781,-0.868 1.173,-1.821 1.173,-2.86 0,-1.242 -0.467,-2.306 -1.4,-3.193 -0.932,-0.885 -2.202,-1.328 -3.81,-1.328 -1.176,0 -2.26,0.232 -3.252,0.695 -0.992,0.465 -2.04,1.236 -3.143,2.32 l 1.731,1.264 c 0.825,-0.867 1.601,-1.486 2.326,-1.857 0.726,-0.371 1.492,-0.557 2.3,-0.557 1.028,0 1.824,0.258 2.388,0.774 0.565,0.515 0.847,1.121 0.847,1.814 0,0.578 -0.211,1.076 -0.634,1.49 -0.596,0.588 -1.796,1.127 -3.596,1.619 -1.112,0.309 -2.035,0.651 -2.77,1.028 C 0.666,-0.555 0.321,-0.309 0,0"
             inkscape:connector-curvature="0" /></g><g
           transform="translate(556.2266,306.105)"
           id="g260"><path
             id="path262"
             style="fill:#007735;fill-opacity:1;fill-rule:nonzero;stroke:none"
             d="m 0,0 h 2.012 v -10.195 c 0,-1.127 0.264,-2.01 0.793,-2.646 0.528,-0.637 1.155,-0.953 1.881,-0.953 0.652,0 1.364,0.185 2.135,0.556 0.773,0.371 1.751,1.072 2.936,2.104 V 0 h 2.026 V -15.544 H 9.757 v 2.502 c -1.121,-0.936 -2.146,-1.641 -3.073,-2.112 -0.928,-0.472 -1.764,-0.709 -2.508,-0.709 -0.717,0 -1.39,0.172 -2.019,0.514 -0.63,0.342 -1.146,0.906 -1.551,1.691 C 0.202,-12.873 0,-11.847 0,-10.585 Z"
             inkscape:connector-curvature="0" /></g><path
           id="path264"
           style="fill:#007735;fill-opacity:1;fill-rule:nonzero;stroke:none"
           d="m 570.745,312.482 h 2.012 v -21.921 h -2.012 z"
           inkscape:connector-curvature="0" /><g
           transform="translate(576.5518,311.7729)"
           id="g266"><path
             id="path268"
             style="fill:#007735;fill-opacity:1;fill-rule:nonzero;stroke:none"
             d="m 0,0 h 1.984 v -5.668 h 3.68 v -1.923 h -3.68 v -9.66 c 0,-0.799 0.203,-1.424 0.607,-1.872 0.404,-0.449 0.946,-0.673 1.626,-0.673 0.367,0 0.849,0.078 1.447,0.232 v -1.894 c -0.689,-0.088 -1.268,-0.131 -1.736,-0.131 -1.415,0 -2.424,0.308 -3.026,0.925 C 0.301,-20.046 0,-19.035 0,-17.626 v 10.035 h -2.591 v 1.923 H 0 Z"
             inkscape:connector-curvature="0" /></g><path
           id="path270"
           style="fill:#007735;fill-opacity:1;fill-rule:nonzero;stroke:none"
           d="m 583.493,306.105 h 2.012 v -15.544 h -2.012 z m 0,6.175 h 2.012 v -2.531 h -2.012 z"
           inkscape:connector-curvature="0" /><g
           transform="translate(590.2354,304.3125)"
           id="g272"><path
             id="path274"
             style="fill:#007735;fill-opacity:1;fill-rule:nonzero;stroke:none"
             d="m 0,0 c 1.084,0.674 2.134,1.195 3.148,1.561 1.016,0.366 1.84,0.55 2.474,0.55 0.708,0 1.362,-0.157 1.964,-0.47 C 8.188,1.328 8.71,0.788 9.15,0.021 9.592,-0.746 9.813,-1.697 9.813,-2.834 V -13.752 H 7.8 v 10.758 c 0,1.07 -0.225,1.865 -0.675,2.387 C 6.675,-0.088 6.063,0.174 5.292,0.174 4.584,0.174 3.79,0.014 2.907,-0.305 2.025,-0.623 1.056,-1.105 0,-1.75 V -13.752 H -2.013 V 1.792 H 0 Z"
             inkscape:connector-curvature="0" /></g><g
           transform="translate(607.8516,297.2695)"
           id="g276"><path
             id="path278"
             style="fill:#007735;fill-opacity:1;fill-rule:nonzero;stroke:none"
             d="m 0,0 c 1.25,0 2.251,0.373 3.005,1.121 0.753,0.746 1.13,1.631 1.13,2.652 0,0.975 -0.354,1.809 -1.062,2.502 C 2.366,6.971 1.378,7.316 0.11,7.316 -1.231,7.316 -2.265,6.973 -2.99,6.283 -3.717,5.594 -4.079,4.729 -4.079,3.688 -4.079,2.646 -3.709,1.771 -2.97,1.062 -2.23,0.354 -1.24,0 0,0 M -3.128,-5.828 C -3.762,-6.203 -4.237,-6.6 -4.555,-7.014 -4.871,-7.428 -5.03,-7.857 -5.03,-8.301 c 0,-0.607 0.331,-1.142 0.992,-1.603 1.02,-0.725 2.485,-1.086 4.396,-1.086 1.912,0 3.276,0.295 4.093,0.883 0.579,0.414 0.868,0.945 0.868,1.589 0,0.772 -0.522,1.368 -1.567,1.788 -1.046,0.418 -3.339,0.72 -6.88,0.902 m -0.924,5.322 c -0.652,0.598 -1.125,1.215 -1.419,1.852 -0.295,0.634 -0.441,1.383 -0.441,2.24 0,1.6 0.54,2.928 1.619,3.984 1.08,1.055 2.543,1.584 4.39,1.584 0.762,0 1.483,-0.107 2.164,-0.319 C 2.94,8.624 3.578,8.3 4.176,7.867 5.168,8.484 6.422,8.806 7.938,8.835 V 6.984 L 7.222,6.998 C 6.357,6.998 5.683,6.883 5.195,6.652 5.683,5.785 5.926,4.824 5.926,3.773 5.926,2.135 5.389,0.775 4.313,-0.303 3.239,-1.383 1.778,-1.924 -0.068,-1.924 c -0.571,0 -1.232,0.069 -1.986,0.203 -0.357,0.069 -0.62,0.102 -0.785,0.102 -0.423,0 -0.756,-0.111 -0.999,-0.332 -0.243,-0.223 -0.365,-0.483 -0.365,-0.781 0,-0.358 0.207,-0.647 0.62,-0.868 0.193,-0.097 0.813,-0.164 1.86,-0.203 2.536,-0.097 4.409,-0.351 5.617,-0.767 1.208,-0.414 2.053,-0.973 2.535,-1.676 0.482,-0.705 0.723,-1.471 0.723,-2.301 0,-0.838 -0.259,-1.603 -0.778,-2.299 -0.52,-0.693 -1.291,-1.217 -2.315,-1.568 -1.025,-0.352 -2.107,-0.527 -3.246,-0.527 -1.589,0 -3.041,0.226 -4.355,0.679 -1.001,0.356 -1.77,0.889 -2.308,1.598 -0.538,0.709 -0.806,1.447 -0.806,2.219 0,0.597 0.149,1.17 0.448,1.715 0.298,0.543 0.746,1.066 1.344,1.568 -0.479,0.328 -0.809,0.642 -0.993,0.947 -0.184,0.303 -0.276,0.649 -0.276,1.033 0,0.512 0.159,0.981 0.476,1.411 0.317,0.429 0.852,0.851 1.605,1.265"
             inkscape:connector-curvature="0" /></g></g></g></g></svg>