<?xml version="1.0" standalone="no"?>
<!DOCTYPE svg PUBLIC "-//W3C//DTD SVG 20010904//EN"
 "http://www.w3.org/TR/2001/REC-SVG-20010904/DTD/svg10.dtd">
<svg version="1.0" xmlns="http://www.w3.org/2000/svg"
 width="1028.000000pt" height="1028.000000pt" viewBox="0 0 1028.000000 1028.000000"
 preserveAspectRatio="xMidYMid meet">
<metadata>
Created by potrace 1.11, written by Peter Selinger 2001-2013
</metadata>
<g transform="translate(0.000000,1028.000000) scale(0.100000,-0.100000)"
fill="#000000" stroke="none">
<path d="M1404 8512 c-6 -9 -23 -18 -38 -20 -39 -3 -66 -20 -76 -48 -5 -13
-22 -29 -37 -35 -14 -5 -36 -20 -48 -32 -34 -35 -62 -47 -109 -47 -73 0 -102
-20 -112 -78 -4 -24 25 -39 83 -41 52 -2 98 -7 98 -11 0 -1 27 -4 59 -6 45 -3
63 -9 73 -24 17 -24 33 -18 28 9 -7 36 -44 63 -96 70 -19 3 -47 43 -42 61 5
20 20 24 75 20 15 -1 36 3 46 9 14 7 29 7 50 0 22 -7 37 -7 51 1 25 13 28 32
5 28 -10 -2 -19 3 -22 11 -3 10 0 12 14 7 15 -6 14 -2 -5 18 -20 21 -22 26 -8
26 9 0 17 -7 17 -15 0 -18 14 -19 41 -5 16 9 19 7 19 -14 0 -28 8 -35 46 -42
15 -3 32 -6 38 -7 6 -1 10 5 10 15 -2 24 32 29 52 7 9 -10 25 -19 36 -19 10 0
18 -6 18 -13 0 -8 9 -22 20 -32 11 -10 20 -24 20 -32 0 -7 5 -13 12 -13 18 0
0 -13 -25 -18 -12 -2 -26 -5 -32 -6 -50 -14 -65 -19 -65 -25 0 -8 -45 -56 -90
-97 -19 -16 -42 -41 -52 -55 -16 -23 -20 -7 -5 18 5 9 3 11 -6 7 -10 -3 -17 4
-21 21 -4 15 -18 38 -33 53 -23 22 -26 23 -35 9 -6 -12 -2 -30 17 -62 15 -25
31 -48 36 -51 13 -8 11 -64 -3 -64 -14 0 -72 18 -115 37 -17 7 -36 13 -42 13
-11 0 -15 22 -11 71 1 25 -22 59 -40 59 -5 0 -12 -6 -17 -12 -8 -13 -9 -18
-12 -40 -1 -7 -8 1 -16 19 -19 45 -67 66 -87 39 -8 -12 12 -57 32 -73 13 -10
9 -14 -22 -27 -52 -22 -61 -20 -76 13 -31 71 -141 16 -117 -58 5 -16 2 -21
-10 -21 -30 0 -82 -30 -92 -53 -5 -12 -9 -42 -9 -67 1 -42 4 -46 38 -63 46
-23 134 -35 123 -17 -11 18 -8 90 6 106 18 22 48 17 86 -16 18 -16 45 -30 58
-30 17 0 23 -4 19 -14 -7 -19 39 -71 55 -62 32 20 -6 136 -45 136 -14 0 -39
28 -31 36 18 18 95 -2 98 -26 1 -6 3 -14 4 -20 1 -5 3 -14 4 -19 0 -5 22 -18
47 -30 31 -15 44 -27 43 -39 -2 -9 2 -27 9 -39 11 -21 10 -23 -15 -28 -16 -4
-43 -13 -61 -21 -29 -13 -35 -12 -48 1 -22 22 -32 19 -39 -14 -7 -32 -22 -48
-42 -45 -7 1 -17 2 -23 3 -5 0 -10 14 -10 29 0 35 -30 65 -61 60 -31 -4 -47
-48 -32 -88 11 -29 10 -30 -18 -30 -15 0 -44 9 -63 19 -19 11 -49 21 -68 23
-25 3 -34 10 -36 26 -3 21 -30 36 -67 37 -31 0 -103 -78 -110 -122 -10 -55
-15 -73 -23 -71 -18 5 -132 -14 -169 -29 -45 -16 -57 -45 -31 -71 6 -6 10 -13
7 -15 -96 -72 -109 -93 -80 -129 13 -16 30 -22 70 -23 53 -3 122 9 154 26 18
10 21 4 17 -41 -2 -24 -53 -80 -73 -80 -18 0 -77 -51 -77 -66 0 -8 -13 -20
-29 -25 -40 -14 -55 -51 -33 -79 21 -26 48 -27 122 -7 30 8 60 15 65 17 22 5
46 -1 40 -10 -12 -19 24 -60 50 -60 25 0 27 4 28 59 1 23 1 24 89 19 48 -3 94
-11 102 -17 12 -10 16 -9 23 6 21 41 -9 81 -68 91 -24 4 -45 13 -45 20 -1 6
-2 20 -3 30 -1 14 -9 18 -35 17 -45 -3 -55 26 -19 55 50 39 143 36 143 -6 0
-7 15 -24 33 -38 l34 -26 -1 -102 c-1 -70 -5 -103 -14 -106 -7 -2 -12 -8 -12
-13 0 -15 -53 -71 -77 -80 -12 -4 -35 -4 -51 1 -37 10 -92 -19 -92 -50 0 -22
-3 -23 -112 -22 -41 0 -80 7 -99 16 -50 25 -62 20 -92 -38 -34 -65 -95 -124
-137 -132 -17 -4 -33 -11 -36 -15 -5 -9 43 -34 58 -31 10 2 20 -36 13 -47 -3
-6 -14 -8 -24 -6 -10 2 -24 -1 -32 -6 -10 -6 -10 -9 -1 -9 6 0 12 -11 12 -25
0 -21 -6 -26 -37 -31 -21 -3 -42 -5 -47 -4 -26 5 -35 -69 -11 -93 13 -14 23
-11 84 19 38 18 77 35 88 37 10 1 28 12 39 23 14 14 35 21 69 22 55 3 58 4 62
35 5 49 11 62 29 63 29 1 54 -15 64 -40 7 -19 14 -22 35 -18 19 3 32 -2 47
-18 19 -20 27 -22 92 -16 39 4 79 7 89 7 9 0 17 5 17 10 0 6 4 8 9 5 4 -3 22
-1 39 3 l31 9 -2 -43 c-2 -51 -7 -58 -43 -59 -38 -1 -39 -16 -3 -55 26 -29 30
-40 26 -68 -4 -24 -2 -36 8 -39 18 -7 15 -102 -5 -114 -15 -10 -117 -7 -127 4
-4 3 -8 16 -10 28 -5 29 -10 33 -27 19 -7 -6 -13 -23 -13 -37 -1 -14 -5 -30
-11 -36 -14 -14 -82 -12 -96 2 -13 13 -49 13 -41 1 9 -16 -13 -23 -91 -28 -85
-6 -100 1 -110 53 -7 41 -60 77 -75 52 -8 -13 -4 -62 7 -80 3 -5 8 -22 11 -39
6 -39 -16 -38 -61 3 -50 45 -74 46 -82 3 -4 -22 -1 -44 9 -63 l14 -30 -65 -10
c-69 -12 -102 -33 -102 -66 0 -35 12 -41 83 -41 71 0 89 -10 80 -45 -3 -10 4
-26 15 -36 11 -11 25 -29 31 -41 9 -18 20 -23 49 -23 38 0 145 24 166 37 6 4
18 8 26 10 18 2 41 33 34 45 -3 5 -8 23 -11 39 l-4 31 53 -8 c67 -9 68 -9 99
-1 23 6 25 4 24 -26 -3 -65 12 -68 115 -17 30 14 62 25 71 23 25 -6 42 49 24
74 -21 27 -18 43 8 43 l23 0 -1 -1862 c0 -1025 3 -1885 7 -1913 4 -27 9 -59
11 -70 3 -11 7 -27 9 -35 1 -8 22 -52 45 -98 41 -79 43 -87 43 -170 l0 -88
2711 0 c1491 1 2713 -2 2716 -7 2 -4 80 -7 174 -7 192 0 172 -11 170 97 -1 47
4 59 39 105 49 65 76 120 97 201 15 57 17 275 17 2607 0 1400 -4 2563 -7 2585
-11 60 -38 138 -55 158 -8 9 -12 17 -8 17 10 0 -49 76 -93 121 -46 46 -101 80
-176 109 l-60 23 -1750 3 c-962 2 -1761 5 -1775 7 -30 4 -37 35 -19 78 6 16 9
33 5 36 -13 13 -36 -24 -42 -67 -3 -25 -7 -46 -8 -46 0 -1 -11 -4 -22 -8 -18
-5 -24 -1 -32 24 -12 33 -35 33 -63 -3 -12 -14 -30 -20 -72 -22 -39 -1 -57 2
-57 10 0 14 48 38 61 30 5 -4 13 5 19 19 5 14 23 32 39 41 35 18 98 20 103 3
3 -7 10 -8 17 -3 18 11 8 81 -17 114 -10 14 -28 27 -40 29 -12 2 -19 9 -16 16
7 18 -22 40 -86 67 -30 12 -62 27 -70 34 -8 6 -39 24 -68 39 -48 25 -55 26
-65 12 -7 -9 -30 -22 -52 -29 -29 -10 -44 -22 -54 -45 -8 -18 -20 -32 -27 -32
-7 0 -25 -14 -41 -31 -39 -42 -60 -52 -117 -56 -56 -3 -69 -12 -86 -54 -17
-41 5 -64 64 -68 24 -1 55 -4 68 -7 13 -2 49 -7 80 -11 46 -5 57 -9 62 -27 4
-17 8 -18 18 -8 20 20 -10 63 -61 89 -53 27 -53 27 -56 57 -3 28 18 37 69 29
20 -3 36 -1 40 6 11 16 46 13 53 -5 3 -8 1 -20 -6 -27 -17 -17 -13 -31 5 -16
8 7 14 22 12 34 -4 18 -1 21 18 17 19 -3 22 0 20 28 -2 21 3 34 15 41 26 13
29 12 29 -16 0 -20 7 -26 41 -35 39 -11 40 -12 25 -29 -16 -18 -44 -20 -78 -6
-26 10 -22 -11 4 -29 l22 -16 -22 0 c-12 0 -23 -7 -23 -15 -1 -8 -3 -19 -4
-25 -1 -5 -3 -12 -4 -15 0 -3 -10 -1 -21 5 -16 9 -20 8 -20 -5 0 -20 58 -21
66 0 4 8 10 12 15 9 5 -3 9 4 9 15 0 27 47 52 77 40 18 -7 21 -4 18 17 -3 27
-1 28 27 13 11 -6 18 -7 15 -1 -4 5 -1 17 7 27 11 16 15 13 43 -36 34 -59 33
-60 -30 -74 -15 -3 -35 -15 -45 -27 -38 -48 -88 -93 -102 -92 -8 1 -21 2 -29
3 -9 1 -10 5 -4 14 5 6 8 18 7 25 -1 6 -2 20 -3 30 -2 13 -4 12 -12 -6 -5 -13
-7 -28 -3 -33 3 -5 1 -17 -5 -26 -8 -15 -12 -14 -28 15 -19 34 -42 49 -44 29
-1 -7 -2 -21 -3 -32 -1 -15 -9 -19 -41 -20 -49 -1 -65 3 -65 19 0 7 -5 17 -12
24 -14 14 -48 -2 -48 -24 0 -8 -4 -12 -10 -9 -5 3 -10 14 -10 25 0 24 -28 37
-70 31 -6 -1 -6 -10 0 -27 16 -40 10 -43 -89 -35 -11 1 -10 6 3 26 9 13 16 29
16 35 0 6 -25 26 -56 46 -30 19 -58 43 -61 52 -3 9 -17 32 -30 50 -19 25 -31
32 -59 32 -37 0 -84 -36 -84 -63 0 -11 -14 -14 -61 -12 -72 4 -89 -1 -89 -24
0 -10 -14 -24 -32 -32 -41 -18 -48 -46 -15 -58 16 -6 23 -16 22 -32 -2 -22 -5
-23 -106 -24 -110 -1 -142 3 -134 15 2 4 5 30 6 59 2 54 15 72 59 87 32 10 36
11 60 13 14 1 20 8 20 26 0 17 8 29 25 37 21 9 27 8 42 -10 26 -30 72 -33 129
-9 27 12 54 26 61 32 7 5 19 16 27 23 8 6 22 12 31 12 8 0 15 4 15 9 0 5 16 8
35 6 19 -2 37 0 40 5 3 4 -7 7 -22 5 -16 -1 -38 5 -52 16 -13 11 -41 22 -63
25 -43 7 -47 20 -23 78 17 39 9 46 -21 19 -12 -11 -21 -34 -23 -58 -1 -22 -4
-41 -6 -43 -5 -5 -54 -7 -53 -2 3 12 -24 50 -36 50 -18 0 -57 -45 -54 -61 2
-8 14 -22 28 -32 l25 -18 -35 6 c-19 4 -39 11 -45 15 -5 4 -22 10 -37 14 -35
8 -58 -15 -58 -60 0 -29 -5 -37 -35 -51 -32 -15 -40 -28 -36 -60 1 -7 -2 -13
-7 -13 -5 0 -12 21 -16 46 -9 66 -8 74 7 74 8 0 33 17 56 39 35 32 39 40 25
45 -16 6 -16 8 -3 22 9 8 29 16 45 17 17 1 32 9 36 19 18 44 115 69 169 44 12
-5 18 -1 23 18 11 46 -40 131 -75 124 -7 -2 -14 2 -14 7 -4 26 -19 44 -41 49
-13 4 -25 6 -26 5 -2 0 -25 10 -53 24 -176 86 -197 93 -211 69z m-73 -145
c-10 -9 -11 -8 -5 6 3 10 9 15 12 12 3 -3 0 -11 -7 -18z m49 19 c0 -2 -7 -7
-16 -10 -8 -3 -12 -2 -9 4 6 10 25 14 25 6z m1187 -301 c0 -8 -4 -15 -9 -15
-4 0 -8 7 -8 15 0 8 4 15 8 15 5 0 9 -7 9 -15z m3 -51 c0 -18 -4 -18 -24 5
-17 19 -17 19 3 14 12 -3 21 -12 21 -19z m184 -6 c8 -6 6 -11 -4 -18 -23 -15
-38 -12 -42 8 -4 20 25 48 31 29 2 -7 9 -15 15 -19z m-1340 -169 c20 -39 35
-74 32 -76 -7 -7 -106 -11 -107 -4 -1 3 -2 17 -4 31 -1 14 -5 46 -9 73 -7 47
-6 47 22 47 25 0 33 -8 66 -71z m-527 -1268 c1 -11 -1 -22 -6 -25 -11 -7 -33
42 -25 56 8 13 27 -5 31 -31z"/>
<path d="M1554 8333 c-30 -19 -73 -26 -89 -13 -9 7 -16 6 -25 -5 -7 -9 -20
-13 -27 -10 -9 3 -13 0 -10 -7 5 -14 21 -15 51 -3 14 6 17 5 14 -6 -3 -8 -13
-13 -22 -11 -13 2 -16 -3 -12 -22 5 -28 -10 -38 -36 -24 -13 6 -18 5 -18 -7 0
-20 68 -21 76 -1 3 8 12 12 19 10 9 -4 12 0 9 13 -7 25 34 47 75 41 26 -4 31
-1 31 15 0 15 5 18 25 15 15 -3 25 -1 25 7 0 20 -12 25 -33 14 -13 -7 -22 -8
-26 -1 -4 6 -14 4 -27 -5z"/>
<path d="M1360 8301 c-7 -13 -7 -22 0 -26 5 -3 10 0 10 9 0 8 5 16 12 18 9 3
9 6 1 11 -7 4 -17 -1 -23 -12z"/>
<path d="M1257 8279 c3 -11 9 -22 14 -25 14 -8 50 6 44 17 -4 5 2 9 11 9 33 0
4 13 -35 16 -34 2 -38 0 -34 -17z"/>
<path d="M1449 8200 c-8 -41 -8 -61 0 -81 9 -23 9 -22 9 7 -1 17 2 35 5 41 3
5 2 15 -4 23 -5 8 -9 13 -10 10z"/>
<path d="M2550 7959 c0 -6 24 -19 36 -19 2 0 4 6 4 14 0 9 -9 14 -20 13 -11
-1 -20 -4 -20 -8z"/>
<path d="M2436 7951 c-9 -14 4 -39 18 -37 18 2 47 32 39 40 -10 9 -51 7 -57
-3z"/>
<path d="M560 6416 c0 -9 0 -18 0 -21 0 -3 -9 -18 -21 -35 -26 -38 -54 -38
-99 0 -41 36 -68 38 -79 8 -9 -25 -8 -31 22 -98 11 -25 23 -56 27 -70 9 -33
36 -37 71 -11 33 25 64 26 110 7 30 -13 37 -12 61 2 16 9 30 24 33 33 9 28 47
39 83 23 29 -12 32 -11 33 4 1 29 7 71 14 92 4 13 2 20 -7 20 -7 0 -26 14 -41
31 -31 36 -52 34 -52 -5 -1 -24 -17 -45 -36 -46 -8 0 -46 37 -56 54 -4 8 -20
18 -35 21 -22 6 -28 4 -28 -9z"/>
<path d="M7138 3808 c-33 -11 -62 -69 -60 -120 2 -39 -4 -43 -50 -39 -10 1
-18 -1 -19 -6 0 -4 -2 -16 -4 -25 -3 -18 3 -20 52 -21 18 0 22 -6 23 -43 0
-24 1 -50 1 -56 1 -11 0 -88 -1 -163 0 -33 1 -79 2 -91 1 -6 12 -11 25 -11 27
0 25 -18 27 192 l1 170 40 0 c35 0 39 3 39 25 1 22 -5 26 -39 30 -34 4 -40 9
-42 30 -5 58 19 85 75 83 7 -1 12 11 12 27 0 23 -4 27 -27 27 -16 0 -40 -4
-55 -9z"/>
<path d="M8537 3793 c-2 -4 -3 -38 -2 -75 2 -67 2 -68 -24 -69 -14 -1 -29 -1
-32 -1 -10 2 -18 -34 -10 -45 3 -5 19 -9 36 -8 l29 0 2 -150 c0 -82 4 -159 7
-170 9 -27 54 -51 92 -49 54 3 56 4 53 26 -2 17 -10 22 -34 22 -63 2 -67 17
-65 248 l1 76 33 0 c60 -1 64 1 63 25 -1 20 -6 22 -49 22 l-47 0 -1 50 c-2 96
-3 100 -26 103 -11 2 -23 0 -26 -5z"/>
<path d="M7326 3645 c-51 -18 -70 -38 -96 -96 -66 -155 22 -329 163 -320 52 3
88 22 119 63 23 30 30 49 43 116 6 36 -14 133 -36 169 -39 63 -122 92 -193 68z
m103 -49 c57 -30 84 -110 68 -206 -12 -71 -66 -121 -124 -114 -68 9 -101 52
-110 145 -13 131 73 222 166 175z"/>
<path d="M7730 3631 c-19 -13 -41 -32 -48 -42 -20 -29 -30 -23 -28 19 1 33 -2
37 -24 37 l-25 0 -1 -203 c0 -112 3 -205 8 -208 4 -3 16 -3 26 0 16 5 18 18
18 98 -2 162 34 238 121 260 38 9 43 14 43 38 0 24 -4 28 -27 26 -15 0 -43
-12 -63 -25z"/>
<path d="M7921 3644 c-75 -32 -114 -108 -110 -217 4 -119 72 -200 166 -199 51
1 112 32 142 73 l21 28 -21 15 c-20 13 -23 12 -49 -18 -77 -87 -183 -48 -204
74 l-6 35 140 0 c160 0 154 -5 125 93 -30 102 -120 152 -204 116z m113 -53
c10 -9 27 -32 37 -53 24 -47 14 -54 -81 -52 -122 2 -128 3 -126 17 5 31 32 76
55 91 32 20 89 18 115 -3z"/>
<path d="M8245 3647 c-30 -10 -74 -53 -76 -72 0 -5 -2 -17 -4 -26 -9 -49 48
-99 150 -130 84 -25 103 -52 80 -111 -18 -45 -113 -42 -169 6 -27 24 -29 25
-51 8 l-24 -17 22 -18 c68 -55 153 -74 218 -49 60 24 88 117 50 170 -20 29
-50 45 -153 82 -62 23 -75 41 -59 84 12 29 9 28 71 31 35 2 51 -3 73 -21 24
-20 31 -22 47 -11 24 15 25 20 3 39 -43 37 -125 53 -178 35z"/>
<path d="M7078 3149 c-24 -13 -11 -56 18 -62 13 -2 24 1 25 7 0 6 2 21 3 33 3
24 -22 36 -46 22z"/>
<path d="M8557 3065 l2 -75 -35 0 c-30 0 -34 -3 -34 -25 0 -24 15 -31 56 -26
8 1 11 -46 11 -152 0 -194 9 -214 105 -219 39 -3 43 -1 46 22 3 22 -1 25 -35
27 -58 3 -63 17 -63 181 l0 144 33 -2 c61 -4 67 -1 67 25 0 23 -3 25 -50 25
l-50 0 0 75 0 75 -28 0 -28 0 3 -75z"/>
<path d="M10130 3065 l0 -75 -36 0 c-33 0 -35 -2 -32 -27 3 -25 7 -28 36 -25
l32 4 0 -162 c0 -158 1 -161 25 -185 23 -23 35 -27 85 -27 37 0 40 2 40 28 0
21 -4 24 -20 19 -19 -6 -59 9 -71 27 -3 5 -6 75 -6 154 l0 145 31 -1 c60 -4
66 -1 66 25 0 23 -3 25 -50 25 l-49 0 1 53 c1 94 0 97 -27 97 -24 0 -25 -2
-25 -75z"/>
<path d="M7338 2986 c-21 -8 -49 -21 -63 -30 -24 -16 -25 -16 -25 9 0 23 -4
26 -27 23 l-28 -3 0 -202 c-1 -112 3 -204 7 -204 44 -7 43 -9 45 111 3 233 -3
205 49 230 64 29 108 32 133 8 24 -21 23 -17 25 -198 1 -74 5 -140 9 -147 4
-6 15 -10 25 -9 15 3 17 19 19 166 2 173 -6 212 -49 239 -30 18 -79 21 -120 7z"/>
<path d="M7954 2993 c-29 -6 -78 -51 -98 -92 -39 -75 -29 -203 20 -269 66 -85
185 -83 261 7 22 25 22 26 5 44 -17 17 -20 16 -60 -23 -52 -48 -102 -55 -145
-17 -29 26 -54 83 -49 114 3 21 7 22 133 20 85 -1 134 2 140 9 5 6 7 13 5 15
-3 3 -7 17 -10 32 -15 85 -45 125 -112 153 -33 14 -49 15 -90 7z m108 -69 c18
-17 52 -83 46 -90 -4 -3 -97 -6 -171 -5 l-57 1 15 38 c8 20 29 49 46 63 26 23
36 25 65 19 20 -5 45 -16 56 -26z"/>
<path d="M8252 2983 c-42 -20 -64 -57 -61 -101 4 -53 47 -95 112 -108 31 -5
111 -44 119 -58 24 -36 -4 -84 -55 -96 -39 -8 -98 12 -131 45 -17 17 -18 17
-39 -3 -21 -22 -21 -22 -2 -37 78 -59 182 -74 233 -35 99 78 64 186 -73 226
-30 8 -57 15 -60 14 -3 0 -14 8 -25 18 -76 70 41 142 125 77 32 -24 33 -24 54
-6 l20 18 -27 20 c-15 10 -36 23 -47 27 -38 15 -111 15 -143 -1z"/>
<path d="M8920 2994 c-30 -10 -65 -29 -89 -46 -30 -23 -43 -23 -40 0 3 34 -1
42 -26 42 -20 0 -25 -5 -25 -25 0 -14 -1 -92 -1 -175 0 -82 1 -165 1 -183 0
-34 4 -36 50 -28 3 1 5 67 4 147 l-1 147 43 30 c24 17 50 32 56 33 7 2 22 6
34 9 13 4 29 -1 45 -13 26 -22 24 2 29 -328 0 -30 4 -32 50 -25 3 1 4 67 3
148 -1 127 1 149 15 160 29 23 106 59 122 58 8 -1 21 -3 27 -3 30 -4 40 -56
39 -205 -1 -152 4 -174 38 -161 17 7 18 19 16 229 -2 136 -2 135 -12 135 -4 0
-8 6 -8 13 0 19 -41 42 -80 43 -34 1 -100 -25 -131 -52 -17 -15 -49 -9 -49 8
0 28 -70 55 -110 42z"/>
<path d="M9455 2982 c-68 -35 -99 -94 -99 -192 -1 -132 63 -220 161 -220 51 0
97 21 136 63 26 28 27 31 11 48 -10 11 -18 19 -20 19 -1 0 -18 -16 -37 -36
-45 -48 -109 -58 -148 -22 -30 28 -49 69 -49 107 l0 29 128 -1 c71 0 134 3
140 6 11 8 -6 96 -26 134 -35 65 -135 98 -197 65z m124 -53 c20 -19 51 -76 51
-94 0 -3 -49 -5 -110 -5 -108 0 -110 0 -110 23 0 12 14 39 31 60 26 32 36 37
73 37 29 0 49 -7 65 -21z"/>
<path d="M9886 2993 c-10 -3 -38 -15 -62 -28 l-44 -23 0 24 c0 19 -5 24 -25
24 -14 0 -26 -6 -26 -12 -1 -7 -2 -101 -3 -208 l-1 -196 25 1 25 0 2 145 c1
80 2 152 2 160 2 32 123 76 166 60 12 -5 26 -17 30 -27 5 -10 10 -83 11 -163
1 -80 3 -152 3 -160 1 -17 37 -24 46 -10 7 12 7 287 0 323 -7 36 -31 73 -53
82 -24 10 -74 14 -96 8z"/>
<path d="M7070 2918 c-3 -354 -3 -350 38 -344 14 2 16 28 15 192 -1 104 -2
197 -2 207 -1 11 -9 17 -26 17 -24 0 -25 -2 -25 -72z"/>
<path d="M7519 2973 c5 -10 33 -90 61 -178 28 -88 55 -168 61 -177 5 -10 9
-24 9 -31 0 -19 48 -16 61 3 7 12 28 72 34 100 0 3 13 42 29 87 15 45 26 84
25 85 -1 2 3 13 10 26 7 13 14 31 16 40 2 9 7 27 11 40 6 21 4 23 -21 20 -26
-3 -30 -11 -79 -160 -28 -87 -53 -158 -56 -158 -5 0 -23 49 -34 90 -3 8 -20
62 -39 120 -33 103 -35 105 -66 108 -28 3 -31 1 -22 -15z"/>
<path d="M8833 2211 c0 -266 2 -290 17 -294 10 -3 22 -2 27 2 6 3 9 127 10
294 l0 287 -27 0 -27 0 0 -289z"/>
<path d="M9173 2464 c-2 -31 1 -34 27 -34 26 0 29 3 27 33 -2 27 -6 33 -27 33
-22 1 -25 -3 -27 -32z"/>
<path d="M9000 2480 c-8 -5 -13 -32 -14 -76 l-1 -69 -33 -5 c-18 -3 -33 -8
-32 -12 0 -5 0 -15 0 -24 0 -9 8 -14 18 -13 52 5 52 5 51 -98 -1 -221 -1 -222
26 -248 19 -20 34 -25 72 -25 45 0 49 2 51 26 2 23 -1 25 -27 21 -21 -4 -35 1
-49 16 -17 20 -19 38 -20 163 -1 130 0 142 17 147 10 2 24 1 31 -3 22 -14 50
1 50 26 0 22 -4 24 -48 24 l-49 0 1 43 c1 23 -3 48 -8 55 -5 7 -4 12 2 12 14
0 3 37 -12 43 -7 3 -19 2 -26 -3z"/>
<path d="M7153 2333 c-27 -5 -91 -68 -105 -103 -16 -37 -19 -153 -5 -192 47
-136 193 -171 281 -67 30 36 31 42 10 60 -14 11 -21 8 -49 -24 -83 -94 -192
-37 -199 104 -5 107 40 179 114 179 38 0 90 -36 101 -69 6 -17 37 -8 45 13 6
15 -38 71 -69 88 -21 11 -93 18 -124 11z"/>
<path d="M7468 2322 c-63 -31 -99 -101 -99 -194 1 -85 3 -91 38 -141 84 -120
255 -93 292 46 22 83 18 143 -15 213 -37 77 -138 113 -216 76z m148 -67 c60
-64 59 -197 -1 -263 -45 -48 -113 -43 -164 12 -21 22 -25 37 -27 107 -4 94 9
129 59 159 51 31 94 26 133 -15z"/>
<path d="M7772 2331 c-7 -4 -12 -25 -12 -47 0 -21 0 -57 0 -79 0 -22 0 -66 -1
-97 0 -31 2 -62 7 -69 4 -7 3 -10 -2 -6 -5 3 -7 -21 -4 -56 4 -54 8 -61 27
-62 12 -1 24 3 25 9 2 6 3 80 3 163 l-1 153 45 21 c67 32 104 34 136 7 26 -23
26 -23 28 -188 2 -139 4 -165 17 -166 32 -1 36 15 34 163 -1 81 -2 158 -3 170
-2 34 -48 82 -87 89 -32 6 -70 -4 -156 -41 -14 -5 -18 -2 -18 13 0 22 -20 34
-38 23z"/>
<path d="M8185 2326 c-16 -7 -38 -22 -48 -33 -22 -25 -25 -85 -5 -115 17 -25
78 -59 143 -79 48 -14 85 -45 85 -71 0 -10 -11 -30 -25 -44 -38 -38 -109 -30
-161 18 -19 17 -25 18 -43 6 -27 -17 -27 -22 7 -48 89 -71 210 -66 255 10 43
72 7 144 -90 179 -93 33 -128 54 -131 78 -9 60 92 85 153 38 31 -23 33 -23 49
-6 22 24 21 26 -21 51 -47 27 -127 35 -168 16z"/>
<path d="M8730 2330 l-25 -6 1 -144 0 -145 -40 -30 c-22 -16 -46 -31 -53 -32
-7 -2 -21 -5 -30 -7 -25 -5 -70 23 -77 48 -3 12 -6 87 -6 169 l0 147 -27 0
-28 0 1 -142 c2 -220 0 -206 38 -244 25 -25 43 -34 68 -34 35 0 111 31 122 49
13 21 34 12 32 -13 -2 -16 3 -26 14 -29 25 -6 46 15 42 43 -1 14 -2 36 -1 50
0 14 1 30 0 35 -3 58 -3 155 0 162 2 4 2 35 -1 69 -5 58 -6 60 -30 54z"/>
<path d="M9416 2315 c-33 -14 -61 -25 -63 -25 -2 0 -3 9 -3 20 0 15 -7 20 -25
20 -28 0 -26 20 -26 -245 0 -69 0 -135 1 -148 0 -17 5 -23 20 -22 11 1 23 4
26 8 4 4 7 76 7 161 l-1 155 37 17 c38 19 46 21 97 29 23 3 36 -1 51 -18 23
-25 23 -25 22 -162 0 -126 0 -114 4 -152 4 -40 7 -43 33 -33 19 8 20 15 19
173 -2 154 -3 167 -25 196 -40 57 -84 63 -174 26z"/>
<path d="M9745 2320 c-64 -32 -92 -97 -72 -169 5 -19 15 -41 23 -49 12 -12 11
-18 -11 -44 -29 -34 -32 -63 -9 -85 14 -14 13 -18 -6 -38 -41 -44 -19 -134 39
-157 78 -30 181 -33 232 -8 50 26 77 74 68 120 -13 62 -81 95 -209 101 -57 3
-92 18 -88 38 3 12 17 16 63 17 119 1 171 27 194 96 13 40 12 97 -2 115 -10
14 0 20 42 26 27 4 38 35 16 44 -8 2 -30 0 -50 -7 -30 -10 -43 -9 -76 4 -53
21 -106 20 -154 -4z m154 -56 c43 -36 44 -93 2 -135 -28 -28 -48 -34 -101 -29
-50 4 -80 38 -86 95 -7 81 116 127 185 69z m-19 -338 c86 -15 111 -64 51 -102
-18 -13 -46 -18 -97 -18 -118 1 -177 53 -123 110 22 23 28 24 89 19 36 -3 72
-7 80 -9z"/>
<path d="M9174 2125 c1 -113 4 -205 9 -205 4 0 15 0 25 0 17 0 18 14 19 205
l0 205 -27 0 -27 0 1 -205z"/>
</g>
</svg>
